<?xml version="1.0" encoding="iso-8859-1"?>
<!-- Generator: Adobe Illustrator 19.2.0, SVG Export Plug-In . SVG Version: 6.00 Build 0)  -->
<svg version="1.1" id="Lager_13" xmlns="http://www.w3.org/2000/svg" xmlns:xlink="http://www.w3.org/1999/xlink" x="0px" y="0px"
	 viewBox="0 0 256 256" style="enable-background:new 0 0 256 256;" xml:space="preserve">
<g>
	<path style="fill:#041E42;" d="M183.287,183.599c-15.342,14.265-35.335,22.121-56.298,22.121c-0.713,0-1.426-0.025-2.138-0.043
		c-0.517-0.013-1.034-0.021-1.551-0.044l22.864-18.188l-13.705-1.53l-28.697,22.821l22.823,28.698l13.702,1.585l-18.669-23.472
		c0.447,0.026,0.894,0.062,1.342,0.081c1.343,0.058,2.687,0.091,4.029,0.091c23.497,0,45.909-8.807,63.107-24.798
		c17.106-15.906,27.516-37.448,29.311-60.657l-9.971-0.771C207.836,150.192,198.55,169.407,183.287,183.599z"/>
	<path style="fill:#041E42;" d="M126.989,40.327c36.548,0,68.153,23.691,78.854,57.681c0.143,0.453,0.268,0.915,0.403,1.372
		l-25.927-14.516l3.774,13.264l31.988,17.917l17.917-31.991l-3.723-13.283l-14.438,25.786c-0.132-0.447-0.256-0.899-0.394-1.343
		c-11.93-38.223-47.41-64.884-88.454-64.884c-16.082,0-31.928,4.185-45.824,12.102l4.949,8.689
		C98.506,44.059,112.641,40.327,126.989,40.327z"/>
	<path style="fill:#041E42;" d="M44.294,123.023c0-17.81,5.62-34.799,16.001-48.904c0.324-0.44,0.667-0.868,1-1.303l-0.012,29.327
		l9.733-9.77l0.02-36.664l-36.667-0.019l-9.774,9.733l29.761,0.012c-0.262,0.329-0.51,0.667-0.767,1
		c-12.495,16.151-19.294,35.869-19.294,56.587c0,17.693,5.003,34.896,14.469,49.751c9.211,14.455,22.204,26.066,37.575,33.578
		l4.391-8.984C62.087,183.37,44.294,154.883,44.294,123.023z"/>
</g>
</svg>
