<?xml version="1.0" encoding="iso-8859-1"?>
<!-- Generator: Adobe Illustrator 22.1.0, SVG Export Plug-In . SVG Version: 6.00 Build 0)  -->
<svg version="1.1" id="Lager_13" xmlns="http://www.w3.org/2000/svg" xmlns:xlink="http://www.w3.org/1999/xlink" x="0px" y="0px"
	 viewBox="0 0 256 256" style="enable-background:new 0 0 256 256;" xml:space="preserve">
<g>
	<path style="fill:#020E45;" d="M128.622,53.96c-40.689,0-73.672,32.983-73.672,73.661c0,40.689,32.983,73.672,73.672,73.672
		c40.677,0,73.661-32.983,73.661-73.672C202.283,86.943,169.299,53.96,128.622,53.96z M128.622,191.293
		c-35.109,0-63.672-28.563-63.672-63.672c0-35.103,28.563-63.661,63.672-63.661c35.103,0,63.661,28.558,63.661,63.661
		C192.283,162.729,163.725,191.293,128.622,191.293z"/>
	<path style="fill:#020E45;" d="M217.726,153.868l20.528-5.892l-0.123-39.756l-20.865-5.762l-8.289-19.275l10.354-18.458
		l-28.05-28.05l-18.452,10.391l-19.354-8.164l-5.629-20.866l-39.697-0.04l-5.704,20.86l-18.941,8.538L65.475,37.389L37.457,65.406
		l10.02,18.081l-8.294,19.193l-20.988,5.551l-0.094,39.676l20.692,5.638l7.684,19.822l-11.183,19.218l28.131,28.131l19.205-11.152
		l19.665,7.889l5.805,20.644l38.753-0.069l5.678-20.653l21.131-7.505l19.674,11.557l28.158-28.158l-11.516-19.576L217.726,153.868z
		 M191.731,208.886l-17.025-10.002l-30.436,10.812l-5.043,18.345l-23.556,0.042l-5.084-18.077l-28.762-11.539l-16.771,9.738
		L47.81,190.958l9.729-16.72l-11.246-29.014l-18.175-4.952l0.059-24.338l18.258-4.828L58.605,82.94l-8.75-15.79l17.359-17.359
		l15.824,8.781l27.811-12.534l4.931-18.034l24.404,0.024l4.908,18.19l28.369,11.969l16.114-9.074l17.327,17.327l-9.063,16.157
		l12.137,28.223l18.178,5.02l0.076,24.609l-18.019,5.171l-11.316,28.953l10.055,17.094L191.731,208.886z"/>
</g>
</svg>
