<?xml version="1.0" encoding="utf-8"?>
<!-- Generator: Adobe Illustrator 16.0.3, SVG Export Plug-In . SVG Version: 6.00 Build 0)  -->
<!DOCTYPE svg PUBLIC "-//W3C//DTD SVG 1.1//EN" "http://www.w3.org/Graphics/SVG/1.1/DTD/svg11.dtd">
<svg version="1.1" id="Layer_1" xmlns="http://www.w3.org/2000/svg" xmlns:xlink="http://www.w3.org/1999/xlink" x="0px" y="0px"
	 width="256px" height="256px" viewBox="0 0 256 256" enable-background="new 0 0 256 256" xml:space="preserve">
<g>
	<defs>
		<rect id="SVGID_1_" width="256" height="256"/>
	</defs>
	<clipPath id="SVGID_2_">
		<use xlink:href="#SVGID_1_"  overflow="visible"/>
	</clipPath>
	<path clip-path="url(#SVGID_2_)" fill="#041E42" d="M214.53,69.428c-4.699-4.699-9.183-3.935-9.183-3.935
		c-5.58,0.794-11.452-0.955-15.742-5.247c-4.854-4.854-6.438-11.721-4.791-17.91l13.573,13.57l9.582-3.532l3.535-9.585
		l-13.571-13.57c6.188-1.648,13.058-0.066,17.911,4.789c4.292,4.292,6.041,10.164,5.247,15.744c0,0-0.565,4.679,3.935,9.179
		l8.094,8.094c3.096-4.926,4.893-10.751,4.893-16.999c0-17.673-14.327-32-32-32s-32,14.327-32,32s14.327,32,32,32
		c6.046,0,11.7-1.678,16.523-4.592L214.53,69.428z"/>
	<path clip-path="url(#SVGID_2_)" fill="#041E42" d="M186,113V79.96l-2.825-1.364C165.874,70.237,147.983,66,130,66
		c-17.983,0-35.874,4.237-53.175,12.596L74,79.96v22.775L56.06,89.081l3.996,24.798l-30.007-0.173l19.412,18.613l-29.2,12.326
		l29.191,12.272l-19.403,18.604l30.007-0.173l-3.996,24.797L74,186.493V238h25.839l6.642-23h46.868l6.643,23H186v-85.353
		c4.683-2.224,9.252-4.688,13.635-7.406l2.365-1.467V113H186z M74,173.927l-4.087,3.11l1.895-11.756l-16.73,0.097L67.362,153.6
		l-21.343-8.974l21.335-9.006l-12.276-11.77l16.73,0.096l-1.895-11.756l4.087,3.11V173.927z M176,228h-8.487l-6.643-23H98.96
		l-6.643,23H84v-70.769c1.554,0.603,3.117,1.171,4.687,1.712l11.431,37.956l2.324,0.867c7.639,2.851,19.857,4.389,27.473,4.389
		s19.834-1.538,27.473-4.389l2.324-0.867l11.511-38.22c1.601-0.552,3.192-1.134,4.777-1.744V228z M100.152,162.339
		c9.779,2.413,19.688,3.661,29.395,3.661h0.184c9.757,0,19.926-1.359,30.02-3.901l-8.148,27.054
		c-6.385,1.874-15.757,3.003-21.687,3.003c-5.93,0-15.302-1.129-21.686-3.003L100.152,162.339z M176,146.175
		c-15.117,6.332-31.241,9.825-46.27,9.825h-0.184c-15.111,0-30.793-3.296-45.547-9.553V123h92V146.175z M176,113H84V86.278
		c30.092-13.643,61.908-13.643,92,0V113z M192,138.174c-1.965,1.16-3.972,2.255-6,3.311V123h6"/>
</g>
</svg>
