<?xml version="1.0" encoding="iso-8859-1"?>
<!-- Generator: Adobe Illustrator 22.1.0, SVG Export Plug-In . SVG Version: 6.00 Build 0)  -->
<svg version="1.1" id="Layer_1" xmlns="http://www.w3.org/2000/svg" xmlns:xlink="http://www.w3.org/1999/xlink" x="0px" y="0px"
	 viewBox="0 0 256 256" style="enable-background:new 0 0 256 256;" xml:space="preserve">
<path style="fill:#020E45;" d="M234.753,63.067c-7.53-15.062-23.602-33.017-57.399-33.017h-63.609
	c-0.665,0-16.483,0.092-32.467,8.085c-9.949,4.974-17.818,11.949-23.393,20.736c-21.005,4.842-31.776,18.562-37.117,29.245
	c-7.519,15.036-7.605,29.915-7.605,30.542v7.41c0,30.975,16.092,46.086,29.795,53.334l-7.92,47.728l43.231-39.457h56.301
	c17.649,0,31.999-5.214,42.665-15.5l42.317,38.623l-8.408-50.672c14.57-7.698,31.696-23.762,31.696-56.707v-7.882
	C242.838,94.869,242.746,79.052,234.753,63.067z M203.102,152.485l-3.797,1.719l6.534,31.34l-28-27.043h-64.095
	c-54.294,0-55.078-52.844-55.084-55.091v-7.875c0-54.295,52.843-55.078,55.091-55.084h63.603c54.295,0,55.077,52.843,55.084,55.091
	v7.875C232.438,127.168,222.567,143.677,203.102,152.485z M48.056,203.152l6.122-29.362l-3.601-1.63
	c-18.284-8.275-27.554-23.781-27.554-46.092v-7.401c0.004-1.469,0.45-35.575,29.028-47.58c-2.516,7.331-3.791,15.546-3.791,24.448
	v7.882c0,0.665,0.092,16.483,8.085,32.468c7.53,15.062,23.602,33.017,57.399,33.017h52.073c-8.259,5.914-18.76,8.91-31.25,8.91
	H74.294L48.056,203.152z"/>
</svg>
