<?xml version="1.0" encoding="utf-8"?>
<!-- Generator: Adobe Illustrator 16.0.3, SVG Export Plug-In . SVG Version: 6.00 Build 0)  -->
<!DOCTYPE svg PUBLIC "-//W3C//DTD SVG 1.1//EN" "http://www.w3.org/Graphics/SVG/1.1/DTD/svg11.dtd">
<svg version="1.1" id="Layer_1" xmlns="http://www.w3.org/2000/svg" xmlns:xlink="http://www.w3.org/1999/xlink" x="0px" y="0px"
	 width="256px" height="256px" viewBox="0 0 256 256" enable-background="new 0 0 256 256" xml:space="preserve">
<g>
	<defs>
		<rect id="SVGID_1_" width="256" height="256"/>
	</defs>
	<clipPath id="SVGID_2_">
		<use xlink:href="#SVGID_1_"  overflow="visible"/>
	</clipPath>
	<g clip-path="url(#SVGID_2_)">
		<g>
			<path fill="#041E42" d="M190.48,65.038c-5.193-5.196-11.451-7.794-18.771-7.794H83.157c-7.317,0-13.574,2.598-18.771,7.794
				c-5.195,5.196-7.794,11.454-7.794,18.771v88.554c0,7.313,2.599,13.576,7.794,18.771c5.198,5.195,11.454,7.795,18.771,7.795
				h88.552c7.316,0,13.577-2.6,18.77-7.795c5.198-5.194,7.795-11.456,7.795-18.771V83.809
				C198.273,76.492,195.674,70.232,190.48,65.038z M140.255,77.719h6.183v25.09c0,1.475,0.026,2.276,0.09,2.398
				c0.063,0.984,0.555,1.477,1.476,1.477c1.232,0,2.523-0.953,3.876-2.86V77.719h6.18v34.13h-6.18h-0.004v-3.692
				c-2.52,2.766-4.888,4.151-7.1,4.151c-1.968,0-3.29-0.828-3.967-2.489c-0.369-1.106-0.554-2.799-0.554-5.074V77.719
				L140.255,77.719z M116.918,88.789c0-3.565,0.646-6.241,1.936-8.025c1.661-2.335,4.058-3.504,7.195-3.504
				c3.014,0,5.413,1.17,7.194,3.504c1.292,1.785,1.937,4.46,1.937,8.025v11.991c0,3.69-0.645,6.366-1.937,8.026
				c-1.781,2.338-4.181,3.505-7.194,3.505c-3.137,0-5.535-1.168-7.195-3.505c-1.291-1.785-1.936-4.458-1.936-8.026V88.789z
				 M100.313,66.006l4.89,17.987l4.704-17.987h6.918l-8.302,27.304h0v18.54h-6.824V93.31c-0.679-3.384-2.093-8.242-4.245-14.576
				c-1.414-4.242-2.122-6.365-2.122-6.365l-2.215-6.363H100.313L100.313,66.006z M176.324,177.343
				c-0.615,2.643-1.922,4.888-3.924,6.733c-1.996,1.846-4.314,2.922-6.962,3.229c-8.424,0.923-21.093,1.384-38.003,1.384
				c-16.913,0-29.58-0.462-38.003-1.384c-2.645-0.307-4.966-1.383-6.965-3.229c-1.998-1.846-3.304-4.091-3.92-6.733
				c-1.229-5.165-1.844-13.162-1.844-23.984c0-10.64,0.615-18.631,1.844-23.983c0.616-2.705,1.922-4.967,3.92-6.781
				c1.999-1.814,4.351-2.875,7.057-3.181c8.361-0.924,21-1.384,37.911-1.384c16.974,0,29.642,0.461,38.003,1.384
				c2.647,0.307,4.98,1.366,7.012,3.181c2.027,1.814,3.352,4.075,3.966,6.781c1.166,5.104,1.752,13.098,1.752,23.983
				C178.168,164.181,177.552,172.174,176.324,177.343z"/>
			<polygon fill="#041E42" points="84.264,136.293 91.458,136.293 91.458,175.313 98.284,175.313 98.284,136.293 105.664,136.293 
				105.664,129.838 84.264,129.838 			"/>
			<path fill="#041E42" d="M118.024,167.288c-1.351,1.904-2.643,2.857-3.874,2.857c-0.86,0-1.322-0.461-1.384-1.383
				c-0.061-0.123-0.091-0.923-0.091-2.398v-24.906h-6.088v26.751c0,2.337,0.183,3.997,0.552,4.979
				c0.553,1.724,1.846,2.582,3.875,2.582c2.275,0,4.612-1.383,7.009-4.151v3.693h6.179V141.46h-6.179V167.288L118.024,167.288z"/>
			<path fill="#041E42" d="M141.917,140.998c-2.214,0-4.306,1.23-6.272,3.691v-14.852h-6.181v45.476h6.181v-3.322
				c2.029,2.522,4.123,3.781,6.272,3.781c2.521,0,4.15-1.291,4.888-3.874c0.43-1.291,0.644-3.535,0.644-6.734v-13.466
				c0-3.259-0.217-5.534-0.644-6.826C146.066,142.289,144.438,140.998,141.917,140.998z M141.361,165.628
				c0,3.012-0.89,4.518-2.675,4.52c-1.042,0-2.06-0.492-3.045-1.477v-20.664c0.985-0.979,2.003-1.474,3.045-1.474
				c1.785,0,2.675,1.536,2.675,4.611V165.628z"/>
			<path fill="#041E42" d="M164.33,165.582c0,0.644-0.018,1.151-0.047,1.523c-0.028,0.366-0.044,0.582-0.044,0.644
				c-0.371,1.596-1.292,2.396-2.771,2.396c-2.09,0-3.135-1.568-3.135-4.706v-5.992h12.267v-7.013c0-3.565-0.645-6.209-1.936-7.932
				c-1.658-2.336-4.058-3.506-7.196-3.506c-3.135,0-5.596,1.169-7.379,3.506c-1.229,1.661-1.844,4.307-1.844,7.932v11.899
				c0,3.629,0.646,6.273,1.937,7.934c1.785,2.338,4.274,3.507,7.473,3.507c3.261,0,5.718-1.229,7.381-3.688
				c0.738-1.109,1.2-2.338,1.384-3.69c0.122-0.863,0.185-2.185,0.185-3.967V163.6v-0.003h-6.274v1.982l0,0V165.582z
				 M158.337,151.236c0-3.135,1.014-4.703,3.042-4.703c2.03,0,3.045,1.566,3.045,4.703v3.137h-6.087V151.236z"/>
			<path fill="#041E42" d="M126.05,106.684c1.968,0,2.951-1.568,2.951-4.704V87.59c0-3.198-0.983-4.797-2.951-4.797
				s-2.952,1.6-2.952,4.797v14.39C123.098,105.116,124.082,106.684,126.05,106.684z"/>
		</g>
	</g>
</g>
</svg>
