<?xml version="1.0" encoding="utf-8"?>
<!-- Generator: Adobe Illustrator 16.0.3, SVG Export Plug-In . SVG Version: 6.00 Build 0)  -->
<!DOCTYPE svg PUBLIC "-//W3C//DTD SVG 1.1//EN" "http://www.w3.org/Graphics/SVG/1.1/DTD/svg11.dtd">
<svg version="1.1" id="Layer_1" xmlns="http://www.w3.org/2000/svg" xmlns:xlink="http://www.w3.org/1999/xlink" x="0px" y="0px"
	 width="256px" height="256px" viewBox="0 0 256 256" enable-background="new 0 0 256 256" xml:space="preserve">
<g>
	<defs>
		<rect id="SVGID_1_" width="256" height="256"/>
	</defs>
	<clipPath id="SVGID_2_">
		<use xlink:href="#SVGID_1_"  overflow="visible"/>
	</clipPath>
	<path clip-path="url(#SVGID_2_)" fill="#041E42" d="M237.717,34.607c-0.233-1.137-0.506-2.464-1.082-3.824
		c-0.511-1.213-1.131-2.38-1.866-3.47c-0.739-1.095-1.568-2.109-2.472-3.014c-0.953-0.953-1.962-1.795-3.009-2.503
		c-1.19-0.802-2.319-1.426-3.456-1.907c-0.995-0.421-2.328-0.944-3.83-1.253l-0.237-0.097c-1.057-0.218-2.374-0.539-3.857-0.539
		H38.903c-1.485,0-2.806,0.322-3.868,0.54l-0.234,0.073c-1.421,0.291-2.655,0.828-3.648,1.25l-0.178,0.082
		c-1.221,0.516-2.387,1.151-3.468,1.882c-1.107,0.748-2.124,1.585-3.02,2.482c-0.975,0.974-1.821,1.988-2.514,3.013
		c-0.54,0.802-1.329,2.033-1.963,3.531c-0.433,1.022-0.972,2.296-1.273,3.761c-0.043,0.214-0.144,0.429-0.196,0.647
		C18.322,36.19,18,37.346,18,38.71v178.979c0,1.364,0.322,2.521,0.542,3.451c0.051,0.217,0.127,0.433,0.171,0.649
		c0.267,1.298,0.77,2.372,1.163,3.235c0.092,0.2,0.189,0.397,0.27,0.59c0.513,1.212,1.148,2.377,1.882,3.462
		c0.732,1.083,1.569,2.097,2.484,3.009c0.928,0.928,1.941,1.765,3.013,2.487c1.105,0.746,2.268,1.379,3.458,1.884
		c1.276,0.539,2.564,0.893,3.826,1.151c1.457,0.297,2.796,0.392,4.094,0.392h158.708L238,197.38V38.71
		C238,37.427,238.01,36.044,237.717,34.607 M28.274,37.555c0.076-0.316,0.174-0.631,0.236-0.936c0.1-0.489,0.409-1.19,0.728-1.942
		c0.264-0.625,0.71-1.303,1.016-1.757c0.334-0.494,0.772-1.01,1.301-1.539c0.45-0.45,0.972-0.876,1.55-1.266
		c0.545-0.368,1.139-0.69,1.765-0.954l0.192-0.081c0.643-0.274,1.307-0.556,1.745-0.646l0.245-0.099
		C37.764,28.188,38.437,28,38.903,28h179.004c0.465,0,1.134,0.187,1.843,0.333l0.247,0.075c0.635,0.131,1.369,0.437,1.939,0.679
		c0.536,0.226,1.111,0.555,1.757,0.99c0.517,0.349,1.032,0.784,1.535,1.288c0.457,0.457,0.884,0.978,1.266,1.544
		c0.372,0.551,0.692,1.144,0.954,1.764c0.221,0.521,0.329,1.246,0.471,1.939c0.108,0.53,0.081,1.222,0.081,2.098V79H28V38.71
		C28,38.508,28.18,37.958,28.274,37.555 M36.811,227.811c-0.617-0.126-1.268-0.309-1.933-0.589c-0.595-0.252-1.187-0.563-1.759-0.95
		c-0.542-0.365-1.057-0.785-1.537-1.265c-0.465-0.466-0.891-0.978-1.267-1.533c-0.372-0.551-0.692-1.141-0.953-1.756
		c-0.118-0.279-0.245-0.56-0.376-0.845c-0.162-0.356-0.408-0.895-0.451-1.09c-0.062-0.309-0.185-0.622-0.26-0.938
		C28.18,218.442,28,217.891,28,217.689V150.1V89h200v96h-24.074c-0.214,0-0.426,0.045-0.637,0.041
		c-0.941-0.02-2.105-0.019-3.398,0.244c-0.204,0.041-0.403,0.09-0.603,0.126c-0.881,0.159-1.978,0.364-3.171,0.868
		c-1.183,0.5-2.329,1.125-3.406,1.852c-1.048,0.707-2.044,1.531-2.961,2.449c-0.875,0.874-1.692,1.872-2.433,2.965
		c-0.679,1.005-1.274,2.119-1.821,3.411c-0.577,1.364-0.935,2.671-1.162,3.777c-0.287,1.408-0.334,2.689-0.334,3.82V228H38.903
		C38.285,228,37.601,227.972,36.811,227.811 M194,227.449v-22.907c0-0.718,0.048-1.396,0.132-1.805
		c0.127-0.619,0.313-1.327,0.547-1.882c0.292-0.688,0.6-1.247,0.909-1.707c0.389-0.574,0.793-1.063,1.227-1.496
		c0.467-0.466,0.969-0.88,1.487-1.229c0.542-0.366,1.117-0.678,1.704-0.926c0.172-0.072,0.646-0.158,1.063-0.233
		c0.271-0.049,0.545-0.1,0.819-0.155c0.202-0.041,0.75-0.078,1.189-0.07c0.281,0.006,0.563-0.038,0.848-0.038h22.339L194,227.449z"
		/>
	<path clip-path="url(#SVGID_2_)" fill="#041E42" d="M75.302,71.158c9.88,0,17.917-8.037,17.917-17.917s-8.037-17.917-17.917-17.917
		s-17.917,8.037-17.917,17.917S65.422,71.158,75.302,71.158 M75.302,45.324c4.365,0,7.917,3.552,7.917,7.917
		s-3.552,7.917-7.917,7.917c-4.365,0-7.917-3.552-7.917-7.917S70.937,45.324,75.302,45.324"/>
	<path clip-path="url(#SVGID_2_)" fill="#041E42" d="M182.817,71.158c9.88,0,17.917-8.037,17.917-17.917
		s-8.037-17.917-17.917-17.917S164.9,43.361,164.9,53.241S172.938,71.158,182.817,71.158 M182.817,45.324
		c4.365,0,7.917,3.552,7.917,7.917s-3.552,7.917-7.917,7.917s-7.917-3.552-7.917-7.917S178.452,45.324,182.817,45.324"/>
	<path clip-path="url(#SVGID_2_)" fill="#041E42" d="M159.65,171.43c0,13.42-10.45,23.979-30.801,23.979
		c-23.54,0-32.12-12.32-32.229-24.42h17.269c1.21,7.26,6.05,12.32,15.4,12.32c8.689,0,13.75-4.95,13.75-11.11v-1.87
		c0-6.38-5.17-9.79-13.311-9.79h-9.35v-11.99h9.13c7.15,0,11.771-3.739,11.771-10.56v-1.87c0-5.83-4.62-10.23-12.54-10.23
		c-8.141,0-12.761,4.4-14.41,11.44H97.279c0.99-11.11,9.02-23.541,31.24-23.541c19.471,0,29.37,9.901,29.37,22.331
		c0,8.69-4.949,14.19-11.66,17.16C154.37,156.029,159.65,161.97,159.65,171.43"/>
</g>
</svg>
