<?xml version="1.0" encoding="iso-8859-1"?>
<!-- Generator: Adobe Illustrator 19.2.0, SVG Export Plug-In . SVG Version: 6.00 Build 0)  -->
<svg version="1.1" id="Lager_6" xmlns="http://www.w3.org/2000/svg" xmlns:xlink="http://www.w3.org/1999/xlink" x="0px" y="0px"
	 viewBox="0 0 256 256" style="enable-background:new 0 0 256 256;" xml:space="preserve">
<g>
	<path style="fill:#041E42;" d="M183,113V80.005l-2.835-1.381C163.618,70.365,145.273,66,127.177,66s-36.635,4.365-53.182,12.624
		L71,80.005V113H55v30.774l2.183,1.467C61.697,148.04,67,150.574,71,152.855V238h26.042l6.643-23h46.918l6.643,23H183v-85.028
		c5-2.319,9.348-4.899,13.857-7.756l2.143-1.473V113H183z M71,141.694c-2-1.119-4-2.284-6-3.518V123h6V141.694z M173,228h-8.284
		l-6.643-23H96.214l-6.643,23H81v-70.834c2,0.573,3.173,1.121,4.663,1.643l11.578,38.09l2.377,0.867
		c7.639,2.851,19.882,4.389,27.499,4.389c7.616,0,19.847-1.538,27.486-4.389l2.331-0.867l11.491-37.919
		c1.508-0.528,2.575-1.083,4.575-1.664V228z M97.371,162.144c10.128,2.607,20.279,3.856,29.957,3.856h0.185
		c9.537,0,19.48-1.194,29.362-3.708l-8.044,26.785c-6.385,1.874-15.757,3.041-21.687,3.041s-15.302-1.11-21.687-2.984
		L97.371,162.144z M173,146.532c-15,6.299-30.781,9.468-45.488,9.468h-0.185C112.574,156,97,152.781,81,146.394V123h92V146.532z
		 M173,113H81V86.238C96,79.532,111.446,76,127,76s31,3.532,46,10.238V113z M189,138.206c-2,1.257-4,2.443-6,3.58V123h6V138.206z"/>
	<path style="fill:#041E42;" d="M127.144,27.838c10.176,0,19.743,3.963,26.938,11.158l7.062-7.062
		c-9.389-9.389-21.694-14.083-34-14.083s-24.611,4.694-34,14.083l7.062,7.062C107.401,31.801,116.967,27.838,127.144,27.838z"/>
	<path style="fill:#041E42;" d="M106.516,45.307l7.061,7.062l0,0c3.624-3.624,8.441-5.619,13.566-5.619s9.942,1.996,13.566,5.619
		l7.061-7.062c-5.696-5.696-13.162-8.544-20.627-8.544S112.212,39.611,106.516,45.307z"/>
	<path style="fill:#041E42;" d="M134.438,58.789c-2.014-2.014-4.654-3.096-7.294-3.096s-5.28,1.119-7.294,3.133L126.911,66
		c0,0,0.116,0,0.233,0c0.012,0,0.022,0,0.034,0c0.103,0,0.199,0,0.199,0L134.438,58.789z"/>
</g>
</svg>
