<?xml version="1.0" encoding="iso-8859-1"?>
<!-- Generator: Adobe Illustrator 19.2.0, SVG Export Plug-In . SVG Version: 6.00 Build 0)  -->
<svg version="1.1" id="Lager_13" xmlns="http://www.w3.org/2000/svg" xmlns:xlink="http://www.w3.org/1999/xlink" x="0px" y="0px"
	 viewBox="0 0 256 256" style="enable-background:new 0 0 256 256;" xml:space="preserve">
<path style="fill:#041E42;" d="M232.605,94.789c-0.276-1.107-0.645-2.202-1.109-3.283c-15.119-42.555-55.785-73.113-103.461-73.113
	c-47.674,0-88.34,30.556-103.459,73.109c-0.466,1.085-0.836,2.184-1.113,3.295c-3.365,10.524-5.188,21.73-5.188,33.356
	c0,11.625,1.823,22.831,5.187,33.354c0.277,1.113,0.648,2.213,1.115,3.3c15.12,42.552,55.785,73.107,103.459,73.107
	c47.675,0,88.341-30.557,103.46-73.111c0.464-1.083,0.834-2.179,1.11-3.287c3.366-10.526,5.19-21.734,5.19-33.362
	C237.796,116.524,235.972,105.315,232.605,94.789z M222.184,95.165c0.271,0.77,0.532,1.544,0.784,2.322
	c0.162,0.727,0.246,1.451,0.246,2.172c0,8.147-10.467,16.775-28.337,23.205c-7.657-2.521-16.115-4.571-25.141-6.114
	c-0.651-17.219-2.769-33.563-6.19-47.863C195.483,73.632,217.316,84.391,222.184,95.165z M169.944,126.929
	c2.105,0.382,4.16,0.79,6.163,1.224c-2.003,0.433-4.057,0.842-6.163,1.224c0.002-0.409,0.011-0.814,0.011-1.224
	S169.946,127.337,169.944,126.929z M210.705,72.37c-3.061-1.575-6.409-3.066-10.048-4.456c-11.46-4.38-25.114-7.591-39.977-9.502
	c-0.586-1.898-1.188-3.766-1.826-5.564c-3.341-9.425-7.283-17.015-11.66-22.603C173.521,35.388,196.178,50.911,210.705,72.37z
	 M128.036,132.948c-11.4,0-22.097-0.725-31.907-2.012c-0.008-0.924-0.013-1.852-0.013-2.784s0.005-1.861,0.013-2.784
	c9.81-1.287,20.507-2.012,31.907-2.012c11.4,0,22.097,0.725,31.906,2.012c0.008,0.924,0.013,1.851,0.013,2.784
	s-0.005,1.861-0.013,2.784C150.132,132.224,139.435,132.948,128.036,132.948z M159.675,141.033
	c-0.797,18.267-3.257,34.436-6.725,47.695c-7.836,0.78-16.168,1.207-24.915,1.207c-8.747,0-17.079-0.427-24.915-1.207
	c-3.468-13.259-5.928-29.429-6.725-47.695c10.102,1.254,20.742,1.915,31.64,1.915S149.574,142.287,159.675,141.033z M96.396,115.271
	c0.797-18.266,3.257-34.436,6.725-47.695c7.836-0.78,16.169-1.207,24.915-1.207c8.746,0,17.079,0.427,24.915,1.207
	c3.467,13.259,5.927,29.428,6.725,47.695c-10.101-1.254-20.742-1.915-31.64-1.915C117.137,113.356,106.497,114.018,96.396,115.271z
	 M128.036,29.02c7.633,0,15.705,10.411,21.823,28.252c-7.098-0.589-14.399-0.901-21.823-0.901c-7.424,0-14.725,0.312-21.824,0.901
	C112.33,39.431,120.403,29.02,128.036,29.02z M108.877,30.246c-4.377,5.588-8.319,13.178-11.66,22.603
	c-0.637,1.798-1.24,3.665-1.826,5.564c-14.863,1.911-28.518,5.122-39.977,9.502c-3.638,1.391-6.987,2.881-10.047,4.456
	C59.894,50.911,82.551,35.388,108.877,30.246z M33.103,97.491c0.253-0.781,0.515-1.558,0.786-2.33
	c4.871-10.773,26.703-21.529,58.637-26.272c-3.421,14.3-5.539,30.643-6.19,47.863c-9.026,1.542-17.484,3.593-25.141,6.114
	c-17.87-6.431-28.338-15.058-28.338-23.205C32.858,98.94,32.942,98.216,33.103,97.491z M86.126,129.376
	c-2.105-0.382-4.16-0.79-6.163-1.224c2.003-0.433,4.057-0.842,6.163-1.224c-0.002,0.409-0.011,0.814-0.011,1.224
	C86.116,128.562,86.125,128.967,86.126,129.376z M29.151,141.356c-0.574-4.321-0.875-8.727-0.875-13.203
	c0-4.476,0.301-8.882,0.875-13.203c4.215,4.86,10.489,9.32,18.643,13.203C39.639,132.035,33.366,136.495,29.151,141.356z
	 M33.89,161.147c-0.272-0.774-0.535-1.552-0.788-2.335c-0.161-0.725-0.244-1.447-0.244-2.166c0-8.147,10.467-16.776,28.338-23.206
	c7.657,2.521,16.114,4.571,25.141,6.114c0.651,17.22,2.769,33.563,6.19,47.864C60.594,182.675,38.763,171.919,33.89,161.147z
	 M45.367,183.936c3.061,1.575,6.408,3.065,10.047,4.456c11.459,4.38,25.114,7.591,39.977,9.502c0.586,1.898,1.188,3.766,1.826,5.564
	c3.341,9.424,7.283,17.015,11.66,22.603C82.551,220.917,59.894,205.395,45.367,183.936z M128.036,227.286
	c-7.633,0-15.706-10.411-21.823-28.252c7.099,0.589,14.4,0.901,21.823,0.901c7.424,0,14.725-0.312,21.823-0.901
	C143.741,216.875,135.668,227.286,128.036,227.286z M147.194,226.06c4.377-5.588,8.319-13.178,11.66-22.603
	c0.637-1.798,1.24-3.665,1.826-5.564c14.863-1.911,28.517-5.122,39.977-9.502c3.638-1.391,6.986-2.881,10.047-4.456
	C196.177,205.395,173.52,220.918,147.194,226.06z M222.968,158.817c-0.253,0.78-0.514,1.555-0.785,2.327
	c-4.87,10.773-26.702,21.531-58.638,26.274c3.421-14.3,5.539-30.644,6.19-47.864c9.026-1.542,17.484-3.592,25.141-6.114
	c17.87,6.431,28.338,15.059,28.338,23.206C223.213,157.367,223.129,158.091,222.968,158.817z M226.921,141.356
	c-4.215-4.861-10.489-9.321-18.642-13.204c8.154-3.883,14.427-8.343,18.643-13.203c0.574,4.321,0.875,8.727,0.875,13.203
	C227.796,132.628,227.495,137.034,226.921,141.356z"/>
</svg>
