<?xml version="1.0" encoding="iso-8859-1"?>
<!-- Generator: Adobe Illustrator 19.2.0, SVG Export Plug-In . SVG Version: 6.00 Build 0)  -->
<svg version="1.1" id="Lager_13" xmlns="http://www.w3.org/2000/svg" xmlns:xlink="http://www.w3.org/1999/xlink" x="0px" y="0px"
	 viewBox="0 0 256 256" style="enable-background:new 0 0 256 256;" xml:space="preserve">
<g>
	<path style="fill:#041E42;" d="M96.715,230.67c-7.808,0-11.715-5.906-11.715-13.955v-2.643c0-8.047,3.848-14.018,11.715-14.018
		c6.486,0,10.334,3.944,11.475,9.944h9.129c-1.08-10-8.708-16.852-20.6-16.852c-13.693,0-21.021,9.111-21.021,22.265
		c0,13.152,7.327,22.172,21.021,22.172c12.132,0,19.819-6.585,20.721-17.585h-9.129C107.35,226,103.502,230.67,96.715,230.67z"/>
	<path style="fill:#041E42;" d="M143.387,193.113c-13.754,0-21.081,9.009-21.081,22.282c0,13.272,7.327,22.281,21.081,22.281
		c13.693,0,21.08-9.009,21.08-22.281C164.467,202.122,157.08,193.113,143.387,193.113z M155,216.776
		c0,8.048-3.633,14.054-11.5,14.054c-7.868,0-11.5-6.006-11.5-14.054v-2.763c0-8.048,3.632-14.054,11.5-14.054
		c7.867,0,11.5,6.006,11.5,14.054V216.776z"/>
	<path style="fill:#041E42;" d="M183.748,227.827c5.045-2.582,8.047-4.564,8.047-9.369c0-4.385-3.663-8.047-10.33-8.047
		c-7.086,0-10.39,3.589-10.689,8.589h6.605c0.181-2,1.377-3.905,4.081-3.905c2.162,0,3.539,1.201,3.539,3.123v0.601
		c0,1.741-1.017,2.763-3.479,4.024l-3.541,1.922c-3.784,1.981-6.362,4.023-7.383,6.186c-0.3,0.66-0.597,1.321-0.597,2.643V237h22v-5
		h-15.1c0.901-1,2.043-1.486,3.363-2.207L183.748,227.827z"/>
	<path style="fill:#041E42;" d="M214.862,76.283c-9.838-7.797-21.868-12.036-34.313-12.172c-2.015-13.479-9.079-25.79-19.835-34.315
		c-23.309-18.472-57.297-14.536-75.769,8.771c-5.793,7.311-9.551,15.873-10.997,24.982c-1.478,0.056-2.955,0.168-4.422,0.338
		c-3.608,0.418-7.19,1.185-10.646,2.278c-3.491,1.104-6.886,2.554-10.093,4.308c-3.265,1.785-6.366,3.905-9.216,6.301
		c-2.921,2.453-5.615,5.228-8.006,8.245c-2.39,3.015-4.475,6.271-6.199,9.679c-1.681,3.325-3.037,6.828-4.028,10.412
		c-0.975,3.521-1.61,7.157-1.888,10.81c-0.275,3.614-0.204,7.277,0.214,10.886c0.417,3.606,1.184,7.188,2.278,10.646
		c1.105,3.492,2.555,6.889,4.308,10.093c1.785,3.264,3.905,6.364,6.3,9.216c2.453,2.921,5.228,5.614,8.246,8.007
		c3.017,2.391,6.273,4.477,9.679,6.199c3.326,1.682,6.829,3.037,10.412,4.028c3.524,0.975,7.161,1.609,10.811,1.887l5.341,0.079
		l102.973-0.215l3.295-0.021l0.043-0.1c15.983-0.974,30.664-8.592,40.673-21.222C243.311,131.065,239.201,95.572,214.862,76.283z
		 M216.185,149.192c-8.799,11.104-21.99,17.496-36.193,17.539l-2.674,0.02L77.094,166.96l-4.791-0.062
		c-2.955-0.234-5.897-0.754-8.75-1.543c-2.947-0.815-5.83-1.93-8.565-3.313c-2.806-1.419-5.491-3.14-7.981-5.113
		c-2.491-1.975-4.779-4.195-6.8-6.602c-1.971-2.346-3.715-4.896-5.184-7.582c-1.443-2.638-2.636-5.435-3.547-8.312
		c-0.902-2.851-1.534-5.804-1.878-8.778c-0.345-2.976-0.404-5.996-0.177-8.976c0.229-3.008,0.752-6.003,1.555-8.902
		c0.816-2.948,1.931-5.831,3.313-8.565c1.42-2.808,3.141-5.493,5.113-7.981c1.974-2.49,4.195-4.778,6.602-6.8
		c2.346-1.971,4.896-3.715,7.583-5.184c2.64-1.443,5.436-2.638,8.312-3.548c2.849-0.901,5.802-1.533,8.779-1.878
		c2.976-0.345,5.997-0.402,8.976-0.177c3.005,0.229,6,0.752,8.902,1.555c2.947,0.815,5.83,1.93,8.565,3.313
		c2.806,1.419,5.491,3.14,7.981,5.113c2.491,1.975,4.779,4.195,6.787,6.586l0.555,0.665c0.992,1.216,1.932,2.494,2.793,3.798
		c0.849,1.286,1.644,2.631,2.362,3.997l8.852-4.652c-0.872-1.659-1.837-3.293-2.869-4.855c-1.045-1.582-2.185-3.133-3.421-4.648
		l-0.601-0.721c-2.453-2.921-5.228-5.614-8.246-8.007c-3.017-2.391-6.273-4.477-9.679-6.199c-3.326-1.682-6.829-3.037-10.412-4.028
		c-2.364-0.653-4.779-1.154-7.215-1.497c1.292-7.021,4.283-13.614,8.777-19.285c15.047-18.986,42.734-22.189,61.72-7.146
		c9.802,7.77,15.84,19.4,16.565,31.909l0.294,5.077l5.071-0.38c11.626-0.877,23.077,2.637,32.218,9.882
		C228.669,99.984,232.048,129.176,216.185,149.192z"/>
</g>
</svg>
