<?xml version="1.0" encoding="iso-8859-1"?>
<!-- Generator: Adobe Illustrator 19.2.0, SVG Export Plug-In . SVG Version: 6.00 Build 0)  -->
<svg version="1.1" id="Lager_13" xmlns="http://www.w3.org/2000/svg" xmlns:xlink="http://www.w3.org/1999/xlink" x="0px" y="0px"
	 viewBox="0 0 256 256" style="enable-background:new 0 0 256 256;" xml:space="preserve">
<g>
	<path style="fill:#041E42;" d="M98.657,129.569c0,16.121,13.116,29.237,29.237,29.237c16.122,0,29.237-13.116,29.237-29.237
		s-13.115-29.237-29.237-29.237C111.773,100.332,98.657,113.448,98.657,129.569z M147.131,129.569
		c0,10.607-8.63,19.237-19.237,19.237c-10.607,0-19.237-8.63-19.237-19.237s8.629-19.237,19.237-19.237
		C138.501,110.332,147.131,118.962,147.131,129.569z"/>
	<path style="fill:#041E42;" d="M237.627,153l-28.428-47.398L180.76,153h21.666c-0.697,2.162-1.487,4.294-2.369,6.38
		c-3.91,9.243-9.508,17.545-16.638,24.675c-7.131,7.13-15.432,12.728-24.673,16.636c-9.568,4.047-19.732,6.099-30.212,6.099
		c-10.479,0-20.645-2.052-30.212-6.099c-9.242-3.908-17.543-9.506-24.674-16.636l-7.071,7.071
		c8.046,8.045,17.416,14.362,27.85,18.775c10.807,4.57,22.282,6.888,34.107,6.888c11.826,0,23.3-2.317,34.108-6.889
		c10.434-4.413,19.803-10.729,27.848-18.775c8.045-8.045,14.362-17.414,18.777-27.85c1.411-3.337,2.604-6.78,3.59-10.275H237.627z
		 M209.197,125.041L219.969,143h-21.547L209.197,125.041z"/>
	<path style="fill:#041E42;" d="M52.671,106c0.863-3.028,1.889-6.012,3.113-8.906c3.909-9.243,9.507-17.544,16.637-24.675
		c7.13-7.13,15.432-12.728,24.673-16.636c9.566-4.046,19.73-6.098,30.212-6.098c10.481,0,20.646,2.052,30.211,6.097
		c9.243,3.91,17.545,9.508,24.675,16.637l7.07-7.07c-8.045-8.045-17.414-14.362-27.85-18.776
		c-10.805-4.569-22.28-6.887-34.107-6.887s-23.302,2.317-34.107,6.887c-10.434,4.413-19.804,10.73-27.849,18.776
		c-8.045,8.045-14.362,17.415-18.776,27.85c-1.752,4.141-3.174,8.434-4.266,12.802H18.221l28.43,47.398L75.089,106H52.671z
		 M35.88,116h21.547l-10.775,17.959L35.88,116z"/>
</g>
</svg>
