<?xml version="1.0" encoding="iso-8859-1"?>
<!-- Generator: Adobe Illustrator 19.2.0, SVG Export Plug-In . SVG Version: 6.00 Build 0)  -->
<svg version="1.1" id="Lager_6" xmlns="http://www.w3.org/2000/svg" xmlns:xlink="http://www.w3.org/1999/xlink" x="0px" y="0px"
	 viewBox="0 0 256 256" style="enable-background:new 0 0 256 256;" xml:space="preserve">
<g>
	<path style="fill:#041E42;" d="M185,93.021l-3.208-1.298c-0.879-0.376-21.976-9.211-53.794-9.211
		c-32.07,0-53.039,8.839-53.914,9.215L71,93.028V112H53v29.783l2.684,1.414c2.038,1.095,4.068,2.248,6.023,3.362
		c3.006,1.715,6.293,3.466,9.293,5.032V238h24.082l4.831-13h55.928l1.99,5.233l2.821,7.767H185v-86.658
		c2-1.382,5.074-2.894,7.554-4.37c2.106-1.253,4.403-2.548,6.686-3.771l2.76-1.413V112h-17V93.021z M71,140.309
		c-1-0.786-2.893-1.597-4.365-2.436c-1.177-0.671-2.635-1.355-3.635-2.04V122h8V140.309z M175,228h-7.349l-4.926-13H93.04l-4.907,13
		H81v-46.099c4,1.382,7.511,2.598,11.143,3.591c0.271,0.074,0.563,0.144,0.839,0.217L97,199.327l2.317,0.883
		c7.939,3.027,20.643,4.661,28.563,4.661s20.623-1.634,28.562-4.661l2.315-0.883l3.973-13.48c0.272-0.071,0.727-0.14,0.994-0.212
		c3.606-0.976,7.277-2.163,11.277-3.578V228z M104.108,187.964c7.959,1.333,16.532,2.036,23.962,2.036h0.188
		c7.263,0,15.612-0.659,23.365-1.93l-1.026,3.525c-6.66,2.016-16.503,3.255-22.717,3.255s-16.057-1.206-22.717-3.221
		L104.108,187.964z M175,171.341c-5,1.923-9.506,3.367-13.889,4.553c-9.272,2.509-22.581,4.106-32.853,4.106h-0.188
		c-10.417,0-23.806-1.653-33.292-4.244C90.321,174.539,86,173.067,81,171.212V112h94V171.341z M175,102H81v-2.211
		c7-2.292,23.945-7.276,47.069-7.276c22.943,0,39.931,4.988,46.931,7.28V102z M192,122v13.846c-2,0.85-2.953,1.699-4.352,2.531
		c-0.883,0.525-1.648,1.04-2.648,1.544V122H192z"/>
	<path style="fill:#041E42;" d="M207.187,18.241c-17.055,0-30.879,13.824-30.879,30.88c0,17.051,13.824,30.88,30.879,30.88
		c17.055,0,30.88-13.829,30.88-30.88C238.066,32.065,224.242,18.241,207.187,18.241z M207.187,70
		c-11.513,0-20.879-9.367-20.879-20.88s9.366-20.88,20.879-20.88s20.88,9.367,20.88,20.88S218.7,70,207.187,70z"/>
	<polygon style="fill:#041E42;" points="212.312,35 202.312,35 202.312,44 194,44 194,54 202.312,54 202.312,62 212.312,62 
		212.312,54 221,54 221,44 212.312,44 	"/>
</g>
</svg>
