<?xml version="1.0" encoding="iso-8859-1"?>
<!-- Generator: Adobe Illustrator 19.2.0, SVG Export Plug-In . SVG Version: 6.00 Build 0)  -->
<svg version="1.1" id="Lager_6" xmlns="http://www.w3.org/2000/svg" xmlns:xlink="http://www.w3.org/1999/xlink" x="0px" y="0px"
	 viewBox="0 0 256 256" style="enable-background:new 0 0 256 256;" xml:space="preserve">
<g>
	<path style="fill:#041E42;" d="M41,205.959V41h132v41h10V31H31v174.959C31,215.746,40.709,225,50.979,225H145v-10H50.979
		C46.316,215,41,210.184,41,205.959z"/>
	<rect x="57" y="71" style="fill:#041E42;" width="99" height="10"/>
	<path style="fill:#041E42;" d="M188.919,183.022c8.211-9.779,13.204-22.356,13.316-36.093v-0.001
		c0.254-31.393-25.079-57.141-56.473-57.396c-16.403-0.146-31.268,6.73-41.763,17.806l0.607-0.338H58v10h38.617
		c-4.659,7.67-7.567,16.521-8.14,26H58v10h30.76c3.231,28.133,27.057,50.165,56.079,50.401c14.048,0.142,26.994-4.907,37.008-13.309
		l47.945,48.104l7.082-7.059L188.919,183.022z M145.306,193.403c-0.128,0-0.258-0.001-0.386-0.002
		c-25.877-0.21-46.759-21.437-46.548-47.315c0.209-25.752,21.221-46.556,46.924-46.556c0.128,0,0.258,0.001,0.386,0.002
		c25.88,0.21,46.764,21.437,46.554,47.315C192.026,172.6,171.011,193.403,145.306,193.403z"/>
</g>
</svg>
