<?xml version="1.0" encoding="iso-8859-1"?>
<!-- Generator: Adobe Illustrator 19.2.0, SVG Export Plug-In . SVG Version: 6.00 Build 0)  -->
<svg version="1.1" id="Lager_13" xmlns="http://www.w3.org/2000/svg" xmlns:xlink="http://www.w3.org/1999/xlink" x="0px" y="0px"
	 viewBox="0 0 256 256" style="enable-background:new 0 0 256 256;" xml:space="preserve">
<g>
	<path style="fill:#041E42;" d="M88,187.502l109.561-59.119L88,69.269V187.502z M98,86.026l78.502,42.356L98,170.742V86.026z"/>
	<path style="fill:#041E42;" d="M127.8,18.516c-60.582,0-109.868,49.287-109.868,109.869c0,60.581,49.287,109.868,109.868,109.868
		c60.581,0,109.868-49.287,109.868-109.868C237.668,67.803,188.381,18.516,127.8,18.516z M127.8,228.253
		c-55.067,0-99.868-44.801-99.868-99.868c0-55.068,44.801-99.869,99.868-99.869s99.868,44.801,99.868,99.869
		C227.668,183.452,182.867,228.253,127.8,228.253z"/>
</g>
</svg>
