<?xml version="1.0" encoding="utf-8"?>
<!-- Generator: Adobe Illustrator 16.0.3, SVG Export Plug-In . SVG Version: 6.00 Build 0)  -->
<!DOCTYPE svg PUBLIC "-//W3C//DTD SVG 1.1//EN" "http://www.w3.org/Graphics/SVG/1.1/DTD/svg11.dtd">
<svg version="1.1" id="Layer_1" xmlns="http://www.w3.org/2000/svg" xmlns:xlink="http://www.w3.org/1999/xlink" x="0px" y="0px"
	 width="256px" height="256px" viewBox="0 0 256 256" enable-background="new 0 0 256 256" xml:space="preserve">
<path fill="#041E42" d="M128.909,29.414c-56.257,0-101.866,45.609-101.866,101.866c0,56.258,45.609,101.867,101.866,101.867
	s101.866-45.609,101.866-101.867C230.775,75.022,185.166,29.414,128.909,29.414 M128.909,219.294
	c-48.53,0-88.014-39.484-88.014-88.015c0-48.53,39.484-88.014,88.014-88.014c48.53,0,88.014,39.484,88.014,88.014
	C216.923,179.81,177.439,219.294,128.909,219.294"/>
<g>
	<path fill="#041E42" d="M117.319,74.551h23.087v19.601h-23.087V74.551L117.319,74.551z M117.319,108.192h23.087v87.731h-23.087
		V108.192L117.319,108.192z"/>
</g>
</svg>
