<?xml version="1.0" encoding="utf-8"?>
<!-- Generator: Adobe Illustrator 16.0.3, SVG Export Plug-In . SVG Version: 6.00 Build 0)  -->
<!DOCTYPE svg PUBLIC "-//W3C//DTD SVG 1.1//EN" "http://www.w3.org/Graphics/SVG/1.1/DTD/svg11.dtd">
<svg version="1.1" id="Layer_1" xmlns="http://www.w3.org/2000/svg" xmlns:xlink="http://www.w3.org/1999/xlink" x="0px" y="0px"
	 width="256px" height="256px" viewBox="0 0 256 256" enable-background="new 0 0 256 256" xml:space="preserve">
<g>
	<defs>
		<rect id="SVGID_1_" width="256" height="256"/>
	</defs>
	<clipPath id="SVGID_2_">
		<use xlink:href="#SVGID_1_"  overflow="visible"/>
	</clipPath>
	<path clip-path="url(#SVGID_2_)" fill="#041E42" d="M214.54,69.485c-4.699-4.699-9.182-3.935-9.182-3.935
		c-5.58,0.794-11.452-0.954-15.742-5.247c-4.854-4.854-6.438-11.721-4.791-17.91l13.573,13.57l9.582-3.532l3.535-9.585
		l-13.571-13.57c6.187-1.648,13.057-0.066,17.911,4.789c4.292,4.292,6.041,10.164,5.247,15.744c0,0-0.565,4.679,3.935,9.179
		l8.093,8.094c3.097-4.926,4.894-10.751,4.894-16.999c0-17.673-14.327-32-32-32s-32,14.327-32,32c0,17.673,14.327,32,32,32
		c6.046,0,11.7-1.678,16.522-4.592L214.54,69.485z"/>
	<path clip-path="url(#SVGID_2_)" fill="#041E42" d="M238,120v-10H106v104h10v-8h17.997L130,211.039V224h10v-9.509l6.701-8.491
		h4.884c-5.224,3-8.76,8.483-8.76,14.9c0,9.458,7.667,17.107,17.125,17.107s17.125-7.641,17.125-17.099
		c0-6.417-3.536-11.909-8.76-14.909h4.049l14.862,19H238v-29H116v-76H238z M213,206h15v9h-15V206z M203,206v9h-10.899l-7.04-9H203z
		 M159.95,213.742c3.929,0,7.125,3.196,7.125,7.125c0,3.928-3.196,7.124-7.125,7.124s-7.125-3.196-7.125-7.124
		C152.825,216.938,156.021,213.742,159.95,213.742"/>
	<polygon clip-path="url(#SVGID_2_)" fill="#041E42" points="46.361,211 99,211 99,201 36.361,201 	"/>
	<path clip-path="url(#SVGID_2_)" fill="#041E42" d="M93,145H43v49h50V145z M83,184H53v-29h30V184z"/>
</g>
</svg>
