<?xml version="1.0" encoding="iso-8859-1"?>
<!-- Generator: Adobe Illustrator 19.2.1, SVG Export Plug-In . SVG Version: 6.00 Build 0)  -->
<svg version="1.1" id="Lager_12" xmlns="http://www.w3.org/2000/svg" xmlns:xlink="http://www.w3.org/1999/xlink" x="0px" y="0px"
	 viewBox="0 0 256 256" style="enable-background:new 0 0 256 256;" xml:space="preserve">
<g>
	<path style="fill:#041E42;" d="M173.634,119.178c8.183,0,14.84-6.657,14.84-14.84s-6.657-14.84-14.84-14.84
		c-8.184,0-14.841,6.657-14.841,14.84S165.45,119.178,173.634,119.178z M173.634,99.498c2.669,0,4.84,2.171,4.84,4.84
		s-2.171,4.84-4.84,4.84s-4.841-2.171-4.841-4.84S170.965,99.498,173.634,99.498z"/>
	<path style="fill:#041E42;" d="M205.821,50.36c-21.453-21.453-49.57-32.179-77.687-32.179c-28.117,0-56.234,10.726-77.687,32.179
		c-42.905,42.905-42.905,112.468,0,155.373c21.453,21.453,49.57,32.179,77.687,32.179c28.117,0,56.234-10.726,77.687-32.179
		C248.726,162.828,248.726,93.265,205.821,50.36z M128.134,227.797c-26.675,0-51.753-10.273-70.616-29.136
		c-37.72-37.72-38.899-98.559-3.538-137.713L70.235,77H57v101h114.285l23.742,23.971
		C176.649,218.589,153.091,227.797,128.134,227.797z M128.633,96.441c-7.072,0-13.604,2.173-18.862,6.129L94.377,87H191v81h-15.574
		l-21.663-21.434c3.956-5.258,6.305-11.676,6.305-18.748C160.068,110.485,145.967,96.441,128.633,96.441z M116.953,109.984
		c3.364-2.197,7.372-3.486,11.681-3.486c11.819,0,21.435,9.615,21.435,21.435c0,4.309-1.289,8.317-3.486,11.681L116.953,109.984z
		 M139.316,146.488c-3.149,1.82-6.791,2.879-10.683,2.879c-11.819,0-21.435-9.615-21.435-21.435c0-3.892,1.059-7.533,2.879-10.682
		L139.316,146.488z M102.833,109.802c-3.547,5.089-5.635,11.369-5.635,18.029c0,17.333,14.102,31.537,31.435,31.537
		c6.66,0,12.838-2.316,17.927-5.863L161.285,168H67V87h13.236L102.833,109.802z M202.105,194.908L185.426,178H201V77H84.377
		L61.042,53.869c18.407-16.733,42.046-25.79,67.093-25.79c26.675,0,51.754,10.49,70.616,29.352
		C236.534,95.215,237.651,155.762,202.105,194.908z"/>
</g>
</svg>
