<?xml version="1.0" encoding="iso-8859-1"?>
<!-- Generator: Adobe Illustrator 19.2.0, SVG Export Plug-In . SVG Version: 6.00 Build 0)  -->
<svg version="1.1" id="Lager_13" xmlns="http://www.w3.org/2000/svg" xmlns:xlink="http://www.w3.org/1999/xlink" x="0px" y="0px"
	 viewBox="0 0 256 256" style="enable-background:new 0 0 256 256;" xml:space="preserve">
<g>
	<path style="fill:#041E42;" d="M172.306,54.43c-11.505-11.739-27.006-18.204-43.534-18.204c-16.55,0-32.258,6.403-44.232,18.029
		C72.418,66.026,65.967,81.609,65.967,98.134c0,25.577,15.033,48.173,38.033,57.448V174v10h9.549h25.954H150v-10v-18.303
		c10-4.003,19.31-10.643,26.308-19.176c8.946-10.908,13.748-24.54,13.748-38.387C190.056,81.589,183.712,66.068,172.306,54.43z
		 M140,148.407V174h-26v-25.593c-22-5.762-38.033-26.086-38.033-50.273c0-28.668,24.138-51.908,52.806-51.908
		c28.668,0,51.408,23.24,51.408,51.908C180.18,122.321,162,142.645,140,148.407z"/>
	<rect x="104" y="194" style="fill:#041E42;" width="46" height="10"/>
	<path style="fill:#041E42;" d="M104,224h14.762c0.889,3.449,4.011,6,7.738,6s6.848-2.551,7.738-6H150v-10h-46V224z"/>
	<polygon style="fill:#041E42;" points="139.511,109.185 128.808,97.867 117.728,109.451 105.831,97.554 98.759,104.624 
		117.886,123.752 128.767,112.377 139.776,124.019 157.132,104.299 149.626,97.691 	"/>
</g>
</svg>
