<?xml version="1.0" encoding="utf-8"?>
<!-- Generator: Adobe Illustrator 26.0.1, SVG Export Plug-In . SVG Version: 6.00 Build 0)  -->
<svg version="1.1" id="Layer_1" xmlns="http://www.w3.org/2000/svg" xmlns:xlink="http://www.w3.org/1999/xlink" x="0px" y="0px"
	 viewBox="0 0 32 32" style="enable-background:new 0 0 32 32;" xml:space="preserve">
<style type="text/css">
	.st0{fill:#0D0F13;}
</style>
<path class="st0" d="M30,25.5V10c0-2.2-1.8-4-4-4h-2V3c0-0.6-0.4-1-1-1s-1,0.4-1,1v3H10.5l2,2H26c1.1,0,2,0.9,2,2v2H16.5l2,2H28v9.5
	L30,25.5z M10,14H4v12c0,1.1,0.9,2,2,2h18l2,2c0,0,0,0,0,0H6c-2.2,0-4-1.8-4-4V10c0-1.1,0.5-2.1,1.2-2.8l1.4,1.4C4.2,8.9,4,9.4,4,10
	v2h4L10,14z M8,3.5l2,2V3c0-0.6-0.4-1-1-1S8,2.4,8,3V3.5z M2.3,2.3c0.4-0.4,1-0.4,1.4,0l26,26c0.4,0.4,0.4,1,0,1.4
	c-0.4,0.4-1,0.4-1.4,0l-26-26C1.9,3.3,1.9,2.7,2.3,2.3z"/>
</svg>
