<?xml version="1.0" encoding="utf-8"?>
<!-- Generator: Adobe Illustrator 26.0.1, SVG Export Plug-In . SVG Version: 6.00 Build 0)  -->
<svg version="1.1" id="Layer_1" xmlns="http://www.w3.org/2000/svg" xmlns:xlink="http://www.w3.org/1999/xlink" x="0px" y="0px"
     viewBox="0 0 32 32" style="enable-background:new 0 0 32 32;" xml:space="preserve">
<style type="text/css">
	.st0{fill-rule:evenodd;clip-rule:evenodd;fill:#0D0F13;}
</style>
  <path class="st0" d="M26,6h-2V3c0-0.5-0.5-1-1-1s-1,0.5-1,1v3H10V3c0-0.5-0.5-1-1-1S8,2.4,8,3v3H6c-2.2,0-4,1.8-4,4v16
	c0,2.2,1.8,4,4,4h20c2.2,0,4-1.8,4-4V10C30,7.8,28.2,6,26,6z M4,10c0-1.1,0.9-2,2-2h20c1.1,0,2,0.9,2,2v2H4V10z M28,26
	c0,1.1-0.9,2-2,2H6c-1.1,0-2-0.9-2-2V14h24V26z"/>
</svg>
