<?xml version="1.0" encoding="utf-8"?>
<!-- Generator: Adobe Illustrator 26.0.1, SVG Export Plug-In . SVG Version: 6.00 Build 0)  -->
<svg version="1.1" id="Layer_1" xmlns="http://www.w3.org/2000/svg" xmlns:xlink="http://www.w3.org/1999/xlink" x="0px" y="0px"
	 viewBox="0 0 32 32" style="enable-background:new 0 0 32 32;" xml:space="preserve">
<style type="text/css">
	.st0{fill:#0D0F13;}
</style>
<path class="st0" d="M27.8,23.5c1.4-2.2,2.2-4.8,2.2-7.5c0-7.7-6.3-14-14-14c-2.8,0-5.4,0.8-7.5,2.2l1.5,1.5C11.7,4.6,13.8,4,16,4
	c6.6,0,12,5.4,12,12c0,2.2-0.6,4.3-1.7,6.1L27.8,23.5z M5.7,9.9C4.6,11.7,4,13.8,4,16c0,6.6,5.4,12,12,12c2.2,0,4.3-0.6,6.1-1.7
	l1.5,1.5C21.4,29.2,18.8,30,16,30C8.3,30,2,23.7,2,16c0-2.8,0.8-5.4,2.2-7.5L5.7,9.9z M21.2,17H23c0.6,0,1-0.4,1-1c0-0.6-0.4-1-1-1
	h-3.8L21.2,17z M17,12.8V7c0-0.6-0.4-1-1-1c-0.6,0-1,0.4-1,1v3.8L17,12.8z M2.3,2.3c0.4-0.4,1-0.4,1.4,0l26,26c0.4,0.4,0.4,1,0,1.4
	c-0.4,0.4-1,0.4-1.4,0l-26-26C1.9,3.3,1.9,2.7,2.3,2.3z"/>
</svg>
