<?xml version="1.0" encoding="utf-8"?>
<!-- Generator: Adobe Illustrator 26.0.1, SVG Export Plug-In . SVG Version: 6.00 Build 0)  -->
<svg version="1.1" id="Layer_1" xmlns="http://www.w3.org/2000/svg" xmlns:xlink="http://www.w3.org/1999/xlink" x="0px" y="0px"
	 viewBox="0 0 32 32" style="enable-background:new 0 0 32 32;" xml:space="preserve">
<style type="text/css">
	.st0{fill:#0D0F13;}
</style>
<path class="st0" d="M17,7c0-0.6-0.4-1-1-1c-0.6,0-1,0.4-1,1v8c0,1.1,0.9,2,2,2h6c0.6,0,1-0.4,1-1c0-0.6-0.4-1-1-1h-6V7z M16,2
	C8.3,2,2,8.3,2,16c0,7.7,6.3,14,14,14c7.7,0,14-6.3,14-14C30,8.3,23.7,2,16,2z M4,16C4,9.4,9.4,4,16,4c6.6,0,12,5.4,12,12
	c0,6.6-5.4,12-12,12C9.4,28,4,22.6,4,16z"/>
</svg>
