<?xml version="1.0" encoding="utf-8"?>
<!-- Generator: Adobe Illustrator 26.0.1, SVG Export Plug-In . SVG Version: 6.00 Build 0)  -->
<svg version="1.1" id="Layer_1" xmlns="http://www.w3.org/2000/svg" xmlns:xlink="http://www.w3.org/1999/xlink" x="0px" y="0px"
	 viewBox="0 0 32 32" style="enable-background:new 0 0 32 32;" xml:space="preserve">
<style type="text/css">
	.st0{fill:#0D0F13;}
</style>
<path class="st0" d="M28,23.8V4c0-1.1-0.9-2-2-2H6.2l2,2H26v17.8L28,23.8z M6,10.2V28h17.8l2,2H6c-1.1,0-2-0.9-2-2V8.2L6,10.2z
	 M18.9,14.7C19.6,14,20,13,20,12c0-2.2-1.8-4-4-4c-1,0-2,0.4-2.7,1.1l1.4,1.4C15,10.2,15.5,10,16,10c1.1,0,2,0.9,2,2
	c0,0.5-0.2,0.9-0.5,1.3L18.9,14.7z M13.8,18H13c-2.2,0-4,1.8-4,4v1c0,0.6,0.4,1,1,1s1-0.4,1-1v-1c0-1.1,0.9-2,2-2h2.8L13.8,18z
	 M2.3,2.3c0.4-0.4,1-0.4,1.4,0l26,26c0.4,0.4,0.4,1,0,1.4s-1,0.4-1.4,0l-26-26C1.9,3.3,1.9,2.7,2.3,2.3z"/>
</svg>
