<svg fill="none" xmlns="http://www.w3.org/2000/svg" viewBox="0 0 32 32">
  <path fill-rule="evenodd" clip-rule="evenodd" d="M18.72 6.194a2.2 2.2 0 0 0-2.2-2.2H6.203a2.2 2.2 0 0 0-2.2 2.2v12.88a2.2 2.2 0 0 0 2.2 2.2H16.52a2.2 2.2 0 0 0 2.2-2.2V6.195Zm-2.2-4.2a4.2 4.2 0 0 1 4.2 4.2v2.53h5.076a4.2 4.2 0 0 1 4.2 4.2v12.884a4.2 4.2 0 0 1-4.2 4.2H14.487a4.2 4.2 0 0 1-4.2-4.2v-2.533H6.203a4.2 4.2 0 0 1-4.2-4.2V6.194a4.2 4.2 0 0 1 4.2-4.2H16.52Zm-4.233 21.28v2.534a2.2 2.2 0 0 0 2.2 2.2h11.31a2.2 2.2 0 0 0 2.2-2.2V12.925a2.2 2.2 0 0 0-2.2-2.2H20.72v8.35a4.2 4.2 0 0 1-4.2 4.2h-4.233Z" fill="currentColor"/>
</svg>
