<svg fill="none" xmlns="http://www.w3.org/2000/svg" viewBox="0 0 32 32">
  <path fill-rule="evenodd" clip-rule="evenodd" d="M6 4a2 2 0 0 1 2-2h7.586A2 2 0 0 1 17 2.586L25.414 11A2 2 0 0 1 26 12.414V28a2 2 0 0 1-2 2h-6a1 1 0 1 1 0-2h6V13h-7a2 2 0 0 1-2-2V4H8v8a1 1 0 1 1-2 0V4Zm11 1.414V11h5.586L17 5.414Z" fill="currentColor"/>
  <path fill-rule="evenodd" clip-rule="evenodd" d="M7.416 16.098a6.004 6.004 0 0 1 6.434-1.343 1 1 0 0 1 .342 1.638l-2.533 2.534a1 1 0 0 0 1.414 1.414l2.534-2.533a1 1 0 0 1 1.638.342 6.003 6.003 0 0 1-1.343 6.434 5.998 5.998 0 0 1-5.797 1.553l-2.984 2.984A3 3 0 0 1 2.88 24.88l2.983-2.984a5.997 5.997 0 0 1 1.554-5.797Zm3.992.252a4.001 4.001 0 0 0-3.473 5.454 1 1 0 0 1-.225 1.071l-3.417 3.418a1 1 0 0 0 1.414 1.414l3.417-3.417a1 1 0 0 1 1.072-.224 4.001 4.001 0 0 0 5.454-3.473l-1.163 1.162a3 3 0 0 1-4.242-4.242l1.163-1.163Z" fill="currentColor"/>
</svg>
