<svg fill="none" xmlns="http://www.w3.org/2000/svg" viewBox="0 0 32 32">
  <path fill-rule="evenodd" clip-rule="evenodd" d="M14.192 17.808a1 1 0 0 1 0 1.414l-3.535 3.535 3.535 3.536a1 1 0 0 1-1.414 1.414l-3.535-3.535-3.536 3.535a1 1 0 1 1-1.414-1.414l3.535-3.536-3.535-3.535a1 1 0 1 1 1.414-1.414l3.536 3.535 3.535-3.535a1 1 0 0 1 1.414 0Z" fill="currentColor"/>
  <path fill-rule="evenodd" clip-rule="evenodd" d="M6 4a2 2 0 0 1 2-2h7.586A2 2 0 0 1 17 2.586L25.414 11A2 2 0 0 1 26 12.414V28a2 2 0 0 1-2 2h-7a1 1 0 1 1 0-2h7V13h-7a2 2 0 0 1-2-2V4H8v11.043a1 1 0 0 1-2 0V4Zm11 1.414V11h5.586L17 5.414Z" fill="currentColor"/>
</svg>
