<svg fill="none" xmlns="http://www.w3.org/2000/svg" viewBox="0 0 32 32">
  <path fill-rule="evenodd" clip-rule="evenodd" d="M6 4a2 2 0 0 1 2-2h7.586A2 2 0 0 1 17 2.586L25.415 11A2 2 0 0 1 26 12.414V28a2 2 0 0 1-2 2h-7a1 1 0 1 1 0-2h7V13h-7a2 2 0 0 1-2-2V4H8v13a1 1 0 1 1-2 0V4Zm11 1.414V11h5.586l-5.585-5.586Z" fill="currentColor"/>
  <path fill-rule="evenodd" clip-rule="evenodd" d="M16.434 17.808a1 1 0 0 1 0 1.414L7.95 27.707a1 1 0 0 1-1.414 0l-4.242-4.243a1 1 0 0 1 1.414-1.414l3.535 3.536 7.778-7.778a1 1 0 0 1 1.414 0Z" fill="currentColor"/>
</svg>
