<?xml version="1.0" encoding="utf-8"?>
<!-- Generator: Adobe Illustrator 26.0.1, SVG Export Plug-In . SVG Version: 6.00 Build 0)  -->
<svg version="1.1" id="Layer_1" xmlns="http://www.w3.org/2000/svg" xmlns:xlink="http://www.w3.org/1999/xlink" x="0px" y="0px"
	 viewBox="0 0 32 32" style="enable-background:new 0 0 32 32;" xml:space="preserve">
<style type="text/css">
	.st0{fill-rule:evenodd;clip-rule:evenodd;fill:#0D0F13;}
</style>
<path class="st0" d="M6,4c0-1.1,0.9-2,2-2h7.6c0.5,0,1,0.2,1.4,0.6l8.4,8.4c0.4,0.4,0.6,0.9,0.6,1.4V28c0,1.1-0.9,2-2,2h-6
	c-0.6,0-1-0.4-1-1s0.4-1,1-1h6V13h-7c-1.1,0-2-0.9-2-2V4H8v9c0,0.6-0.4,1-1,1s-1-0.4-1-1V4z M17,5.4V11h5.6L17,5.4z M17.8,23
	c0.3-0.5,0.3-1.2,0.1-1.8c-1.4-3-4.3-5.2-7.8-5.2c-3.5,0-6.4,2.1-7.8,5c-0.3,0.5-0.3,1.2-0.1,1.8c1.4,3,4.3,5.2,7.8,5.2
	C13.5,28,16.4,25.9,17.8,23z M5.1,23.7C4.6,23.2,4.3,22.6,4,22c0,0,0,0,0,0h0c0,0,0,0,0,0c1.1-2.4,3.4-4,6-4c2,0,3.7,0.9,4.9,2.3
	c0.4,0.5,0.8,1.1,1.1,1.7c0,0,0,0,0,0h0c0,0,0,0,0,0c-1.1,2.4-3.4,4-6,4C8,26,6.3,25.1,5.1,23.7z M12,22c0,1.1-0.9,2-2,2
	c-1.1,0-2-0.9-2-2s0.9-2,2-2C11.1,20,12,20.9,12,22z"/>
</svg>
