<?xml version="1.0" encoding="utf-8"?>
<!-- Generator: Adobe Illustrator 26.0.1, SVG Export Plug-In . SVG Version: 6.00 Build 0)  -->
<svg version="1.1" id="Layer_1" xmlns="http://www.w3.org/2000/svg" xmlns:xlink="http://www.w3.org/1999/xlink" x="0px" y="0px"
	 viewBox="0 0 32 32" style="enable-background:new 0 0 32 32;" xml:space="preserve">
<path d="M21.8,17.3l5.6-5.6c0.8-0.8,0.8-2,0-2.8l-4.2-4.2c-0.8-0.8-2-0.8-2.8,0l-5.6,5.6l1.4,1.4l2.1-2.1l4.2,4.2l-2.1,2.1
	L21.8,17.3z M21.8,6l4.2,4.2l-2.1,2.1l-4.2-4.2L21.8,6z M11.9,15.9L8,19.7l-1.6,5.8l5.8-1.6l3.9-3.9l1.4,1.4l-3.9,3.9
	c-0.2,0.2-0.6,0.4-0.9,0.5L5.3,28c-0.3,0.1-0.7,0-1-0.3c-0.3-0.3-0.4-0.6-0.3-1l2.1-7.5c0.1-0.3,0.3-0.6,0.5-0.9l3.9-3.9L11.9,15.9z
	 M2.3,2.3c0.4-0.4,1-0.4,1.4,0l26,26c0.4,0.4,0.4,1,0,1.4c-0.4,0.4-1,0.4-1.4,0l-26-26C1.9,3.3,1.9,2.7,2.3,2.3z"/>
</svg>
