<?xml version="1.0" encoding="utf-8"?>
<!-- Generator: Adobe Illustrator 26.0.1, SVG Export Plug-In . SVG Version: 6.00 Build 0)  -->
<svg version="1.1" id="Layer_1" xmlns="http://www.w3.org/2000/svg" xmlns:xlink="http://www.w3.org/1999/xlink" x="0px" y="0px"
	 viewBox="0 0 32 32" style="enable-background:new 0 0 32 32;" xml:space="preserve">
<path d="M28,23.8V21c0-0.6-0.4-1-1-1s-1,0.4-1,1v0.8L28,23.8z M17,12.8V5l9.3,9.3c0.4,0.4,1,0.4,1.4,0c0.4-0.4,0.4-1,0-1.4L17.4,2.6
	c-0.8-0.8-2-0.8-2.8,0l-3.9,3.9l1.4,1.4L15,5v5.8L17,12.8z M15,19.2l2,2V23c0,0.6-0.4,1-1,1c-0.6,0-1-0.4-1-1V19.2z M7.9,12.1
	l-1.4-1.4l-2.2,2.2c-0.4,0.4-0.4,1,0,1.4c0.4,0.4,1,0.4,1.4,0L7.9,12.1z M23.8,28l2,2H6c-1.1,0-2-0.9-2-2v-7c0-0.6,0.4-1,1-1
	s1,0.4,1,1v7H23.8z M2.3,2.3c0.4-0.4,1-0.4,1.4,0l26,26c0.4,0.4,0.4,1,0,1.4c-0.4,0.4-1,0.4-1.4,0l-26-26C1.9,3.3,1.9,2.7,2.3,2.3z"
	/>
</svg>
