<?xml version="1.0" encoding="utf-8"?>
<!-- Generator: Adobe Illustrator 26.0.1, SVG Export Plug-In . SVG Version: 6.00 Build 0)  -->
<svg version="1.1" id="Layer_1" xmlns="http://www.w3.org/2000/svg" xmlns:xlink="http://www.w3.org/1999/xlink" x="0px" y="0px"
	 viewBox="0 0 32 32" style="enable-background:new 0 0 32 32;" xml:space="preserve">
<style type="text/css">
	.st0{fill:#0D0F13;}
</style>
<path class="st0" d="M26.2,22c2-1.9,3.2-4.1,3.7-5.7c0.1-0.2,0.1-0.4,0-0.6C28.9,12.4,24.6,6,16,6c-1.8,0-3.5,0.3-5,0.8l1.6,1.6
	C13.7,8.1,14.8,8,16,8c7.1,0,10.9,5.2,11.9,8c-0.5,1.3-1.5,3-3.1,4.6L26.2,22z M21,16.7c0-0.2,0-0.5,0-0.7c0-2.8-2.2-5-5-5
	c-0.2,0-0.5,0-0.7,0L21,16.7z M11,15.3l5.7,5.7c-0.2,0-0.5,0-0.7,0c-2.8,0-5-2.2-5-5C11,15.8,11,15.5,11,15.3z M7.2,11.4
	C5.6,13,4.5,14.7,4.1,16c1.1,2.8,4.8,8,11.9,8c1.2,0,2.3-0.1,3.3-0.4l1.6,1.6c-1.5,0.5-3.1,0.8-5,0.8c-8.6,0-12.9-6.4-13.9-9.7
	c-0.1-0.2-0.1-0.4,0-0.6C2.6,14.2,3.8,12,5.8,10L7.2,11.4z M2.3,2.3c0.4-0.4,1-0.4,1.4,0l26,26c0.4,0.4,0.4,1,0,1.4
	c-0.4,0.4-1,0.4-1.4,0l-26-26C1.9,3.3,1.9,2.7,2.3,2.3z"/>
</svg>
