<?xml version="1.0" encoding="utf-8"?>
<!-- Generator: Adobe Illustrator 26.0.1, SVG Export Plug-In . SVG Version: 6.00 Build 0)  -->
<svg version="1.1" id="Layer_1" xmlns="http://www.w3.org/2000/svg" xmlns:xlink="http://www.w3.org/1999/xlink" x="0px" y="0px"
	 viewBox="0 0 32 32" style="enable-background:new 0 0 32 32;" xml:space="preserve">
<path d="M11.5,23c-0.8,0-1.5,0.7-1.5,1.5c0,0.8,0.7,1.5,1.5,1.5s1.5-0.7,1.5-1.5C13,23.7,12.3,23,11.5,23z M8.1,23.5
	c0.4-1.4,1.8-2.5,3.4-2.5c1.6,0,2.9,1.1,3.4,2.5H29c0.6,0,1,0.4,1,1s-0.4,1-1,1H14.9c-0.4,1.4-1.8,2.5-3.4,2.5
	c-1.6,0-2.9-1.1-3.4-2.5H3c-0.6,0-1-0.4-1-1c0-0.6,0.4-1,1-1H8.1z M21.5,14.5c-0.8,0-1.5,0.7-1.5,1.5c0,0.8,0.7,1.5,1.5,1.5
	S23,16.8,23,16C23,15.2,22.3,14.5,21.5,14.5z M18.1,15c0.4-1.4,1.8-2.5,3.4-2.5s2.9,1.1,3.4,2.5H29c0.6,0,1,0.4,1,1c0,0.6-0.4,1-1,1
	h-4.1c-0.4,1.4-1.8,2.5-3.4,2.5c-1.6,0-2.9-1.1-3.4-2.5H3c-0.6,0-1-0.4-1-1c0-0.6,0.4-1,1-1H18.1z M9.5,6C8.7,6,8,6.7,8,7.5
	S8.7,9,9.5,9C10.3,9,11,8.3,11,7.5S10.3,6,9.5,6z M6.1,6.5C6.6,5.1,7.9,4,9.5,4c1.6,0,2.9,1.1,3.4,2.5H29c0.6,0,1,0.4,1,1
	c0,0.6-0.4,1-1,1H12.9C12.4,10,11.1,11,9.5,11c-1.6,0-2.9-1-3.4-2.5H3c-0.6,0-1-0.4-1-1c0-0.6,0.4-1,1-1H6.1z"/>
</svg>
