<?xml version="1.0" encoding="utf-8"?>
<!-- Generator: Adobe Illustrator 26.0.1, SVG Export Plug-In . SVG Version: 6.00 Build 0)  -->
<svg version="1.1" id="Layer_1" xmlns="http://www.w3.org/2000/svg" xmlns:xlink="http://www.w3.org/1999/xlink" x="0px" y="0px"
	 viewBox="0 0 32 32" style="enable-background:new 0 0 32 32;" xml:space="preserve">
<style type="text/css">
	.st0{fill:#0D0F13;}
</style>
<path class="st0" d="M29.6,25.3c0.3-0.2,0.4-0.5,0.4-0.8c0-0.6-0.4-1-1-1h-1.3L29.6,25.3z M23.3,19c0.8-0.4,1.3-1.2,1.6-2H29
	c0.6,0,1-0.4,1-1c0-0.6-0.4-1-1-1h-4.1c-0.4-1.4-1.8-2.5-3.4-2.5c-1.3,0-2.4,0.7-3,1.7l1.5,1.5c0.1-0.7,0.7-1.3,1.5-1.3
	c0.8,0,1.5,0.7,1.5,1.5c0,0.7-0.6,1.4-1.3,1.5L23.3,19z M10.8,15l2,2H3c-0.6,0-1-0.4-1-1c0-0.6,0.4-1,1-1H10.8z M12.8,8.6
	C12.8,8.6,12.8,8.5,12.8,8.6L29,8.5c0.6,0,1-0.4,1-1c0-0.6-0.4-1-1-1H12.9C12.4,5.1,11.1,4,9.5,4C9.1,4,8.8,4.1,8.4,4.2L12.8,8.6z
	 M2.4,6.7l1.8,1.8H3c-0.6,0-1-0.4-1-1C2,7.2,2.2,6.9,2.4,6.7z M19.3,23.5l2,2H18h-3.1c-0.4,1.4-1.8,2.5-3.4,2.5
	c-1.6,0-2.9-1.1-3.4-2.5H3c-0.6,0-1-0.4-1-1c0-0.6,0.4-1,1-1h5.1c0.4-1.4,1.8-2.5,3.4-2.5c1.6,0,2.9,1.1,3.4,2.5H18H19.3z M11.5,23
	c-0.8,0-1.5,0.7-1.5,1.5c0,0.8,0.7,1.5,1.5,1.5c0.8,0,1.5-0.7,1.5-1.5C13,23.7,12.3,23,11.5,23z M2.3,2.3c0.4-0.4,1-0.4,1.4,0l26,26
	c0.4,0.4,0.4,1,0,1.4c-0.4,0.4-1,0.4-1.4,0l-26-26C1.9,3.3,1.9,2.7,2.3,2.3z"/>
</svg>
