<svg width="32" height="32" viewBox="0 0 32 32" fill="none" xmlns="http://www.w3.org/2000/svg">
<path fill-rule="evenodd" clip-rule="evenodd" d="M28 25V11H14.0729C13.0083 11 12.0234 10.4358 11.4849 9.51744L10.0088 7L4 7V25H28ZM30 11V25C30 26.1046 29.1046 27 28 27H4C2.89543 27 2 26.1046 2 25V7C2 5.89543 2.89543 5 4 5H10.0088C10.7186 5 11.3751 5.37613 11.7341 5.98837L13.2102 8.50581C13.3897 8.81193 13.718 9 14.0729 9H28C29.1046 9 30 9.89543 30 11Z" fill="black"/>
<path fill-rule="evenodd" clip-rule="evenodd" d="M11 6H28C29.1046 6 30 6.89543 30 8L30 11H28L28 8H11V6Z" fill="black"/>
</svg>
