<svg fill="none" xmlns="http://www.w3.org/2000/svg" viewBox="0 0 32 32">
  <path fill-rule="evenodd" clip-rule="evenodd" d="M24 17v2.757l-2-2V17a1 1 0 0 0-1-1h-.757L18 13.757V12h-1.757l-2-2H18V4H8.243l-2-2H18a2 2 0 0 1 2 2v10h1a3 3 0 0 1 3 3Zm4-7.6v14.357l-2-2V13a2 2 0 0 1-2-1.997V7.408l-1.706-1.7a1 1 0 0 1 1.412-1.416l3.706 3.691A2 2 0 0 1 28 9.4Zm-8 14.843-2-2V28H6V12h1.757L4 8.243V28a2.053 2.053 0 0 0 .031.354A2 2 0 0 0 6 30h12a2 2 0 0 0 2-2v-3.757Zm5.68 5.68L22 26.243V27a3 3 0 0 0 3.68 2.923ZM3.707 2.293a1 1 0 0 0-1.414 1.414l26 26a1 1 0 0 0 1.414-1.414l-26-26Z" fill="currentColor"/>
</svg>
