<?xml version="1.0" encoding="utf-8"?>
<!-- Generator: Adobe Illustrator 26.0.1, SVG Export Plug-In . SVG Version: 6.00 Build 0)  -->
<svg version="1.1" id="Layer_1" xmlns="http://www.w3.org/2000/svg" xmlns:xlink="http://www.w3.org/1999/xlink" x="0px" y="0px"
	 viewBox="0 0 32 32" style="enable-background:new 0 0 32 32;" xml:space="preserve">
<style type="text/css">
	.st0{fill-rule:evenodd;clip-rule:evenodd;fill:#0D0F13;}
</style>
<path class="st0" d="M16,2C8.3,2,2,8.3,2,16c0,7.6,6.1,13.8,13.6,14c0.1,0,0.3,0,0.4,0s0.3,0,0.4,0C23.9,29.8,30,23.6,30,16
	C30,8.3,23.7,2,16,2z M15,4.2V10h-4.2c0.3-1,0.7-1.9,1.1-2.7C12.8,5.6,13.9,4.6,15,4.2z M15,20h-4.6c-0.2-1.2-0.4-2.6-0.4-4
	c0-1.4,0.1-2.8,0.4-4H15V20z M10.9,5.1c-0.3,0.4-0.5,0.8-0.7,1.2C9.6,7.4,9.1,8.6,8.8,10H5.6C6.8,7.9,8.7,6.2,10.9,5.1z M4,16
	c0-1.4,0.2-2.8,0.7-4h3.6C8.1,13.3,8,14.6,8,16s0.1,2.7,0.3,4H4.7C4.2,18.7,4,17.4,4,16z M5.6,22h3.2c0.3,1.4,0.8,2.6,1.4,3.7
	c0.2,0.4,0.5,0.8,0.7,1.2C8.7,25.8,6.8,24.1,5.6,22z M11.9,24.7c-0.4-0.8-0.8-1.7-1.1-2.7H15v5.8C13.9,27.4,12.8,26.4,11.9,24.7z
	 M26.4,10h-3.2c-0.3-1.4-0.8-2.6-1.4-3.7c-0.2-0.4-0.5-0.8-0.7-1.2C23.3,6.2,25.2,7.9,26.4,10z M17,4.2c1.1,0.4,2.2,1.4,3.1,3.1
	c0.4,0.8,0.8,1.7,1.1,2.7H17V4.2z M17,12h4.6c0.2,1.2,0.4,2.6,0.4,4c0,1.4-0.1,2.8-0.4,4H17V12z M17,27.8V22h4.2
	c-0.3,1-0.7,1.9-1.1,2.7C19.2,26.4,18.1,27.4,17,27.8z M21.1,26.9c0.3-0.4,0.5-0.8,0.7-1.2c0.6-1.1,1.1-2.3,1.4-3.7h3.2
	C25.2,24.1,23.3,25.8,21.1,26.9z M23.7,20c0.2-1.3,0.3-2.6,0.3-4s-0.1-2.7-0.3-4h3.6c0.5,1.2,0.7,2.6,0.7,4c0,1.4-0.2,2.8-0.7,4
	H23.7z"/>
</svg>
