<?xml version="1.0" encoding="utf-8"?>
<!-- Generator: Adobe Illustrator 26.0.1, SVG Export Plug-In . SVG Version: 6.00 Build 0)  -->
<svg version="1.1" id="Layer_1" xmlns="http://www.w3.org/2000/svg" xmlns:xlink="http://www.w3.org/1999/xlink" x="0px" y="0px"
	 viewBox="0 0 32 32" style="enable-background:new 0 0 32 32;" xml:space="preserve">
<style type="text/css">
	.st0{fill-rule:evenodd;clip-rule:evenodd;fill:#0D0F13;}
</style>
<path class="st0" d="M2,11.7C2,6.9,5.8,3,10.6,3c2.1,0,4,1.2,5.4,3.3C17.3,4.2,19.3,3,21.4,3c4.8,0,8.6,3.9,8.6,8.7
	c0,2.5-1.1,4.8-2.8,6.4L16.7,28.7C16.5,28.9,16.3,29,16,29c-0.3,0-0.5-0.1-0.7-0.3L4.8,18.1C3.1,16.5,2,14.2,2,11.7z M10.6,5
	C7,5,4,8,4,11.7c0,2,0.8,3.7,2.1,4.9c0,0,0,0,0,0l9.8,9.9l9.8-9.9c0,0,0,0,0,0c1.3-1.2,2.1-3,2.1-4.9C28,8,25,5,21.4,5
	c-1.6,0-3.4,1.1-4.5,3.9c-0.1,0.4-0.5,0.6-0.9,0.6c-0.4,0-0.8-0.3-0.9-0.6C14,6.2,12.2,5,10.6,5z"/>
</svg>
