<?xml version="1.0" encoding="utf-8"?>
<!-- Generator: Adobe Illustrator 26.0.1, SVG Export Plug-In . SVG Version: 6.00 Build 0)  -->
<svg version="1.1" id="Layer_1" xmlns="http://www.w3.org/2000/svg" xmlns:xlink="http://www.w3.org/1999/xlink" x="0px" y="0px"
	 viewBox="0 0 32 32" style="enable-background:new 0 0 32 32;" xml:space="preserve">
<style type="text/css">
	.st0{fill:#0D0F13;}
</style>
<path class="st0" d="M24.8,20.5l2.5-2.5c1.7-1.6,2.8-3.9,2.8-6.4C30,6.9,26.2,3,21.4,3c-2.1,0-4.1,1.2-5.4,3.3
	C14.7,4.2,12.7,3,10.6,3c-1,0-2,0.2-2.9,0.5l1.6,1.6C9.8,5,10.2,5,10.6,5c1.6,0,3.4,1.2,4.4,3.9c0.1,0.4,0.5,0.6,0.9,0.6
	c0.4,0,0.8-0.3,0.9-0.6C18,6.1,19.8,5,21.4,5C25,5,28,8,28,11.7c0,1.9-0.8,3.7-2.1,4.9c0,0,0,0,0,0c0,0,0,0,0,0l-2.5,2.5L24.8,20.5z
	 M4.6,8.9C4.2,9.7,4,10.7,4,11.7c0,2,0.8,3.7,2.1,4.9c0,0,0,0,0,0l9.8,9.9l3.1-3.2l1.4,1.4l-3.8,3.9C16.5,28.9,16.3,29,16,29
	c-0.3,0-0.5-0.1-0.7-0.3L4.8,18.1C3.1,16.5,2,14.2,2,11.7c0-1.6,0.4-3,1.1-4.3L4.6,8.9z M2.3,2.3c0.4-0.4,1-0.4,1.4,0l26,26
	c0.4,0.4,0.4,1,0,1.4c-0.4,0.4-1,0.4-1.4,0l-26-26C1.9,3.3,1.9,2.7,2.3,2.3z"/>
</svg>
