<?xml version="1.0" encoding="utf-8"?>
<!-- Generator: Adobe Illustrator 26.0.1, SVG Export Plug-In . SVG Version: 6.00 Build 0)  -->
<svg version="1.1" id="Layer_1" xmlns="http://www.w3.org/2000/svg" xmlns:xlink="http://www.w3.org/1999/xlink" x="0px" y="0px"
	 viewBox="0 0 32 32" style="enable-background:new 0 0 32 32;" xml:space="preserve">
<path d="M28,23.8v-12c0-0.7-0.4-1.4-1-1.7L17,4.3c-0.6-0.4-1.4-0.4-2,0l-4.1,2.4l1.5,1.5L16,6l10,5.8v10L28,23.8z M20,24.2V26h1.8
	l2,2H20c-1.1,0-2-0.9-2-2v-3.8L20,24.2z M7,11.2l-1,0.6V26h6v-7.5c0-0.6,0.4-1.1,0.9-1.4l1.9,1.9H14v7c0,1.1-0.9,2-2,2H6
	c-1.1,0-2-0.9-2-2V11.8c0-0.7,0.4-1.4,1-1.7l0.5-0.3L7,11.2z M2.3,2.3c0.4-0.4,1-0.4,1.4,0l26,26c0.4,0.4,0.4,1,0,1.4
	c-0.4,0.4-1,0.4-1.4,0l-26-26C1.9,3.3,1.9,2.7,2.3,2.3z"/>
</svg>
