<svg fill="none" xmlns="http://www.w3.org/2000/svg" viewBox="0 0 32 32">
  <path fill-rule="evenodd" clip-rule="evenodd" d="M2 12a2 2 0 0 1 2-2h3v2H4v12h20v-2.5h2V24a2 2 0 0 1-2 2H4a2 2 0 0 1-2-2V12Z" fill="currentColor"/>
  <path fill-rule="evenodd" clip-rule="evenodd" d="M6 8a2 2 0 0 1 2-2h20a2 2 0 0 1 2 2v12a2 2 0 0 1-2 2H8a2 2 0 0 1-2-2V8Zm22 6.586V8H8v10.586l5.293-5.293a1 1 0 0 1 1.434.02l2.283 2.416 5.273-5.426a1 1 0 0 1 1.424-.01L28 14.586ZM9.414 20H28v-2.586l-4.99-4.99-5.293 5.447a1 1 0 0 1-1.444-.01l-2.293-2.427L9.414 20Z" fill="currentColor"/>
</svg>
