<svg fill="none" xmlns="http://www.w3.org/2000/svg" viewBox="0 0 32 32">
  <path fill-rule="evenodd" clip-rule="evenodd" d="M26 5a1 1 0 0 1 1 1v2h2a1 1 0 1 1 0 2h-2v2a1 1 0 1 1-2 0v-2h-2a1 1 0 1 1 0-2h2V6a1 1 0 0 1 1-1ZM2 10a2 2 0 0 1 2-2h15a1 1 0 1 1 0 2H4v12.586l5.293-5.293a1 1 0 0 1 1.414 0L13 19.586l5.293-5.293a1 1 0 0 1 1.414 0L25 19.586V16a1 1 0 1 1 2 0v8a2 2 0 0 1-2 2H4a2 2 0 0 1-2-2V10Zm23 12.414-6-6-5.293 5.293a1 1 0 0 1-1.414 0L10 19.414 5.414 24H25v-1.586Z" fill="currentColor"/>
</svg>
