<svg fill="none" xmlns="http://www.w3.org/2000/svg" viewBox="0 0 32 32">
  <path d="M29.53 25.288c.293-.348.47-.797.47-1.288V8a2 2 0 0 0-2-2H10.243l2 2H28v10.586l-6.293-6.293a1 1 0 0 0-1.414 0l-1.879 1.879 1.414 1.414L21 14.414l7 7v2.343l1.53 1.53ZM15.586 19.828l-.879.88a1 1 0 0 1-1.414 0L11 18.413 5.414 24h14.343l2 2H4a2 2 0 0 1-2-2V8c0-.49.177-.94.47-1.288L4 8.242v14.344l6.293-6.293a1 1 0 0 1 1.414 0L14 18.586l.172-.172 1.414 1.414Z" fill="currentColor"/>
  <path fill-rule="evenodd" clip-rule="evenodd" d="M2.293 2.293a1 1 0 0 1 1.414 0l26 26a1 1 0 0 1-1.414 1.414l-26-26a1 1 0 0 1 0-1.414Z" fill="currentColor"/>
</svg>
