<svg fill="none" xmlns="http://www.w3.org/2000/svg" viewBox="0 0 32 32">
  <path fill-rule="evenodd" clip-rule="evenodd" d="M14.586 10.343a1 1 0 0 1 0-1.414l2.828-2.828a6 6 0 0 1 8.485 8.485l-2.828 2.828A1 1 0 0 1 21.657 16l2.828-2.828a4 4 0 0 0-5.657-5.657L16 10.343a1 1 0 0 1-1.414 0Zm2.828 11.314a1 1 0 0 1 0 1.414l-2.829 2.828A6 6 0 0 1 6.1 17.414l2.829-2.828A1 1 0 0 1 10.343 16l-2.829 2.828a4 4 0 0 0 5.657 5.657L16 21.657a1 1 0 0 1 1.414 0Zm-7.777-.707a1 1 0 1 0 1.413 1.414L22.364 11.05a1 1 0 0 0-1.414-1.414L9.637 20.95Z" fill="currentColor"/>
</svg>
