<svg fill="none" xmlns="http://www.w3.org/2000/svg" viewBox="0 0 32 32">
  <path fill-rule="evenodd" clip-rule="evenodd" d="M6.1 6.1a1 1 0 0 1 1.415 0l1.414 1.415a1 1 0 1 1-1.414 1.414L6.101 7.515a1 1 0 0 1 0-1.415ZM2.478 12.376a1 1 0 0 1 1.224-.707l1.932.517a1 1 0 1 1-.517 1.932L3.185 13.6a1 1 0 0 1-.707-1.224ZM12.376 2.477a1 1 0 0 0-.707 1.225l.518 1.932a1 1 0 0 0 1.931-.518l-.517-1.932a1 1 0 0 0-1.225-.707ZM25.9 25.9a1 1 0 0 1-1.415 0l-1.414-1.415a1 1 0 0 1 1.414-1.414l1.415 1.414a1 1 0 0 1 0 1.414ZM29.523 19.624a1 1 0 0 1-1.225.707l-1.932-.518a1 1 0 1 1 .518-1.931l1.931.517a1 1 0 0 1 .707 1.225ZM19.624 29.522a1 1 0 0 0 .707-1.224l-.517-1.932a1 1 0 0 0-1.932.518l.517 1.931a1 1 0 0 0 1.225.707ZM14.586 10.343a1 1 0 0 1 0-1.414L17.415 6.1a6 6 0 1 1 8.485 8.486l-2.829 2.828A1 1 0 0 1 21.657 16l2.829-2.829a4 4 0 0 0-5.657-5.656L16 10.343a1 1 0 0 1-1.414 0ZM17.414 21.657a1 1 0 0 1 0 1.414l-2.828 2.828A6 6 0 0 1 6.1 17.414l2.829-2.829A1 1 0 1 1 10.343 16l-2.828 2.828a4 4 0 0 0 5.657 5.657L16 21.657a1 1 0 0 1 1.414 0Z" fill="currentColor"/>
</svg>
