<svg fill="none" xmlns="http://www.w3.org/2000/svg" viewBox="0 0 32 32">
  <path fill-rule="evenodd" clip-rule="evenodd" d="M6.154 5.998h19.527c1.215 0 2.2.986 2.2 2.201v10.965a2.201 2.201 0 0 1-2.2 2.201l-3.951.001H9.954v.047a1.005 1.005 0 0 0-.24.114l-5.742 3.72-.018-4.945V8.198a2.2 2.2 0 0 1 2.2-2.2Zm-4.2 14.307v1.197h.005l.019 5.584a1 1 0 0 0 1.544.836l7.031-4.556H21.73l3.953-.001a4.201 4.201 0 0 0 4.198-4.201V8.199a4.201 4.201 0 0 0-4.2-4.201H6.154a4.2 4.2 0 0 0-4.2 4.2V19.81a1.01 1.01 0 0 0-.001.06l.001.435Z" fill="currentColor"/>
</svg>
