<?xml version="1.0" encoding="utf-8"?>
<!-- Generator: Adobe Illustrator 26.0.1, SVG Export Plug-In . SVG Version: 6.00 Build 0)  -->
<svg version="1.1" id="Layer_1" xmlns="http://www.w3.org/2000/svg" xmlns:xlink="http://www.w3.org/1999/xlink" x="0px" y="0px"
	 viewBox="0 0 32 32" style="enable-background:new 0 0 32 32;" xml:space="preserve">
<style type="text/css">
	.st0{fill:#0D0F13;}
</style>
<path class="st0" d="M27.1,22.8c1.7-0.5,2.9-2,2.9-3.8V8c0-2.2-1.8-4-4-4H8.2l2,2H26c1.1,0,2,0.9,2,2v11c0,1.1-0.9,2-2,2h-0.8
	L27.1,22.8z M4.1,8.3L4,22l0,3.2l6.5-4c0.2-0.1,0.3-0.2,0.5-0.2h5.8l2,2h-7.5l-7.8,4.8c-0.3,0.2-0.7,0.2-1,0C2.2,27.7,2,27.4,2,27
	l0-5l0,0L2.1,8c0-0.5,0.1-1,0.3-1.4L4.1,8.3z M2.3,2.3c0.4-0.4,1-0.4,1.4,0l26,26c0.4,0.4,0.4,1,0,1.4c-0.4,0.4-1,0.4-1.4,0l-26-26
	C1.9,3.3,1.9,2.7,2.3,2.3z"/>
</svg>
