<svg fill="none" xmlns="http://www.w3.org/2000/svg" viewBox="0 0 32 32">
  <path fill-rule="evenodd" clip-rule="evenodd" d="M16 4h.012a13.955 13.955 0 0 1 9.81 4.024 1.002 1.002 0 0 1 .16.16A13.955 13.955 0 0 1 30 17.994v.012a13.956 13.956 0 0 1-3.585 9.35 1.962 1.962 0 0 1-1.46.644H7.045c-.539 0-1.077-.219-1.46-.644C.643 21.864.81 13.405 6.087 8.114L6.1 8.1l.016-.015A13.956 13.956 0 0 1 15.988 4H16Zm-1 4V6.042a11.947 11.947 0 0 0-6.748 2.794l1.386 1.386a1 1 0 0 1-1.414 1.414L6.838 10.25A11.948 11.948 0 0 0 4.04 17H6a1 1 0 1 1 0 2H4.041a11.946 11.946 0 0 0 3.014 7h17.89a11.945 11.945 0 0 0 3.014-7H26a1 1 0 1 1 0-2h1.959a11.948 11.948 0 0 0-2.793-6.746l-1.382 1.382a1 1 0 0 1-1.415-1.414l1.383-1.383A11.947 11.947 0 0 0 17 6.042V8a1 1 0 1 1-2 0Z" fill="currentColor"/>
  <path fill-rule="evenodd" clip-rule="evenodd" d="M9 18a1 1 0 0 1 1-1h12a1 1 0 0 1 1 1v4a1 1 0 0 1-1 1H10a1 1 0 0 1-1-1v-4Zm2 1v2h10v-2H11Z" fill="currentColor"/>
</svg>
