<?xml version="1.0" encoding="utf-8"?>
<!-- Generator: Adobe Illustrator 26.0.1, SVG Export Plug-In . SVG Version: 6.00 Build 0)  -->
<svg version="1.1" id="Layer_1" xmlns="http://www.w3.org/2000/svg" xmlns:xlink="http://www.w3.org/1999/xlink" x="0px" y="0px"
	 viewBox="0 0 32 32" style="enable-background:new 0 0 32 32;" xml:space="preserve">
<style type="text/css">
	.st0{fill:#0D0F13;}
</style>
<path class="st0" d="M28.6,24.1c0.9-1.9,1.4-4,1.4-6.1v0v0c0-3.5-1.3-7.1-4-9.8c0,0,0-0.1-0.1-0.1c0,0-0.1-0.1-0.1-0.1
	c-2.7-2.7-6.3-4-9.8-4l0,0l0,0c-2.1,0-4.2,0.5-6.1,1.4l1.5,1.5C12.6,6.4,13.8,6.1,15,6v2c0,0.6,0.4,1,1,1c0.6,0,1-0.4,1-1V6
	c2.4,0.2,4.8,1.1,6.8,2.8l-1.4,1.4c-0.4,0.4-0.4,1,0,1.4c0.4,0.4,1,0.4,1.4,0l1.4-1.4c1.7,2,2.6,4.3,2.8,6.7h-2c-0.6,0-1,0.4-1,1
	s0.4,1,1,1h2c-0.1,1.2-0.4,2.4-0.9,3.6L28.6,24.1z M23,18.5V18c0-0.6-0.4-1-1-1h-0.5L23,18.5z M13,17h-3c-0.6,0-1,0.4-1,1v4
	c0,0.6,0.4,1,1,1h9l-2-2h-6v-2h4L13,17z M6.6,10.5C5.1,12.5,4.2,14.7,4,17h2c0.6,0,1,0.4,1,1s-0.4,1-1,1H4c0.2,2.5,1.2,5,3,7h15l2,2
	H7c-0.5,0-1.1-0.2-1.5-0.6C0.9,22.2,0.8,14.4,5.2,9.1L6.6,10.5z M2.3,2.3c0.4-0.4,1-0.4,1.4,0l26,26c0.4,0.4,0.4,1,0,1.4
	c-0.4,0.4-1,0.4-1.4,0l-26-26C1.9,3.3,1.9,2.7,2.3,2.3z"/>
</svg>
