<?xml version="1.0" encoding="utf-8"?>
<!-- Generator: Adobe Illustrator 26.0.1, SVG Export Plug-In . SVG Version: 6.00 Build 0)  -->
<svg version="1.1" id="Layer_1" xmlns="http://www.w3.org/2000/svg" xmlns:xlink="http://www.w3.org/1999/xlink" x="0px" y="0px"
	 viewBox="0 0 32 32" style="enable-background:new 0 0 32 32;" xml:space="preserve">
<style type="text/css">
	.st0{fill:#0D0F13;}
</style>
<path class="st0" d="M26,21.8V14c0-5.2-3.9-9.4-9-10V3c0-0.6-0.4-1-1-1c-0.6,0-1,0.4-1,1v1c-1.8,0.2-3.5,0.8-4.9,1.8l1.4,1.4
	C12.8,6.5,14.4,6,16,6c4.4,0,8,3.6,8,8v5.8L26,21.8z M8.2,12.4C8.1,12.9,8,13.5,8,14v10h11.8l2,2H5c-0.6,0-1-0.4-1-1s0.4-1,1-1h1V14
	c0-1.1,0.2-2.2,0.5-3.2L8.2,12.4z M14,28c-0.6,0-1,0.4-1,1s0.4,1,1,1h4c0.6,0,1-0.4,1-1s-0.4-1-1-1H14z M2.3,2.3
	c0.4-0.4,1-0.4,1.4,0l26,26c0.4,0.4,0.4,1,0,1.4c-0.4,0.4-1,0.4-1.4,0l-26-26C1.9,3.3,1.9,2.7,2.3,2.3z"/>
</svg>
