<?xml version="1.0" encoding="utf-8"?>
<!-- Generator: Adobe Illustrator 26.5.0, SVG Export Plug-In . SVG Version: 6.00 Build 0)  -->
<svg version="1.1" id="Layer_1" xmlns="http://www.w3.org/2000/svg" xmlns:xlink="http://www.w3.org/1999/xlink" x="0px" y="0px"
     viewBox="0 0 32 32" style="enable-background:new 0 0 32 32;" xml:space="preserve">
<style type="text/css">
	.st0{fill-rule:evenodd;clip-rule:evenodd;fill:#0D0F13;}
</style>
  <path class="st0" d="M16,16.9c4.6-0.1,4.6-6.8,0-7C11.4,10.1,11.4,16.8,16,16.9z M16,18.9c3,0,5.5-2.5,5.5-5.5
	c-0.3-7.3-10.7-7.2-11,0C10.5,16.5,13,18.9,16,18.9z M16,4c-5.2-0.1-9.7,4.5-9.6,9.6c0.1,5.7,5.4,11,9.6,14.2
	c4.2-3.1,9.6-8.4,9.6-14.2C25.7,8.5,21.2,3.9,16,4z M16,29c-0.6,0.8-0.6,0.8-0.6,0.8c0,0-0.1,0-0.1-0.1c-4.9-3.7-10.7-9.1-11-16.1
	C4.2,7.4,9.7,1.9,16,2c6.3-0.1,11.8,5.4,11.6,11.6c-0.2,7.1-6,12.5-11,16.1c-0.1,0-0.1,0.1-0.1,0.1C16.6,29.9,16.6,29.9,16,29z
	 M16,29l0.6,0.8c-0.3,0.2-0.8,0.2-1.1,0L16,29z"/>
</svg>
