<?xml version="1.0" encoding="utf-8"?>
<!-- Generator: Adobe Illustrator 26.0.1, SVG Export Plug-In . SVG Version: 6.00 Build 0)  -->
<svg version="1.1" id="Layer_1" xmlns="http://www.w3.org/2000/svg" xmlns:xlink="http://www.w3.org/1999/xlink" x="0px" y="0px"
	 viewBox="0 0 32 32" style="enable-background:new 0 0 32 32;" xml:space="preserve">
<path fill-rule="evenodd" clip-rule="evenodd" fill="#0D0F13" d="M16,16.9c1.9,0,3.5-1.6,3.5-3.5S17.9,10,16,10s-3.5,1.6-3.5,3.5S14.1,16.9,16,16.9z M16,18.9
	c3,0,5.5-2.5,5.5-5.5c0-3-2.5-5.5-5.5-5.5c-3,0-5.5,2.5-5.5,5.5C10.5,16.5,13,18.9,16,18.9z M16,4c-2.6,0-5,1-6.8,2.8
	c-1.8,1.8-2.8,4.3-2.8,6.8c0,3.7,2.4,7.3,5,10.1c1.3,1.4,2.6,2.5,3.6,3.3c0.4,0.3,0.8,0.6,1,0.8c0.3-0.2,0.6-0.5,1-0.8
	c1-0.8,2.3-1.9,3.6-3.3c2.6-2.8,5-6.4,5-10.1c0-2.6-1-5-2.8-6.8C21,5,18.6,4,16,4z M16,29c-0.6,0.8-0.6,0.8-0.6,0.8l0,0l0,0l0,0
	c0,0-0.1,0-0.1-0.1c-0.1-0.1-0.2-0.1-0.4-0.3c-0.3-0.2-0.7-0.5-1.2-0.9c-1-0.8-2.4-2-3.8-3.4c-2.7-2.9-5.6-6.9-5.6-11.5
	c0-3.1,1.2-6.1,3.4-8.2S12.9,2,16,2c3.1,0,6.1,1.2,8.2,3.4c2.2,2.2,3.4,5.1,3.4,8.2c0,4.5-2.9,8.6-5.6,11.5
	c-1.4,1.4-2.7,2.6-3.8,3.4c-0.5,0.4-0.9,0.7-1.2,0.9c-0.2,0.1-0.3,0.2-0.4,0.3c0,0-0.1,0.1-0.1,0.1l0,0l0,0l0,0
	C16.6,29.9,16.6,29.9,16,29z M16,29l0.6,0.8c-0.3,0.2-0.8,0.2-1.1,0L16,29z"/>
</svg>
