<svg fill="none" xmlns="http://www.w3.org/2000/svg" viewBox="0 0 32 32">
  <path d="M27.539 13.538c0 2.618-.983 5.131-2.379 7.38l-1.457-1.457c1.115-1.899 1.836-3.912 1.836-5.923a9.539 9.539 0 0 0-15.335-7.576L8.78 4.537a11.54 11.54 0 0 1 18.759 9.001Z" fill="currentColor"/>
  <path d="M21.478 13.466c0 1.075-.31 2.078-.845 2.924l-1.472-1.472a3.478 3.478 0 0 0-4.613-4.613l-1.472-1.472a5.478 5.478 0 0 1 8.401 4.633ZM14.491 18.734l-3.758-3.759a5.49 5.49 0 0 0 3.758 3.759Z" fill="currentColor"/>
  <path d="M6.46 13.538c0-.852.115-1.693.335-2.5L5.209 9.45a11.536 11.536 0 0 0-.748 4.087c0 4.486 2.886 8.664 5.79 11.73a39.23 39.23 0 0 0 5.159 4.54 1 1 0 0 0 1.18 0 39.566 39.566 0 0 0 4.803-4.172l-1.413-1.414a37.558 37.558 0 0 1-3.98 3.53 37.225 37.225 0 0 1-4.297-3.86C8.88 20.91 6.461 17.22 6.461 13.538ZM3.708 2.292a1 1 0 1 0-1.415 1.414l26 26a1 1 0 0 0 1.415-1.414l-26-26Z" fill="currentColor"/>
</svg>
