<?xml version="1.0" encoding="utf-8"?>
<!-- Generator: Adobe Illustrator 26.0.1, SVG Export Plug-In . SVG Version: 6.00 Build 0)  -->
<svg version="1.1" id="Layer_1" xmlns="http://www.w3.org/2000/svg" xmlns:xlink="http://www.w3.org/1999/xlink" x="0px" y="0px"
	 viewBox="0 0 32 32" style="enable-background:new 0 0 32 32;" xml:space="preserve">
<style type="text/css">
	.st0{fill-rule:evenodd;clip-rule:evenodd;fill:#0D0F13;}
</style>
<path class="st0" d="M2.3,2.3c0.4-0.4,1-0.4,1.4,0l26,26c0.4,0.4,0.4,1,0,1.4c-0.4,0.4-1,0.4-1.4,0l-26-26C1.9,3.3,1.9,2.7,2.3,2.3z
	 M28.2,24c1-0.1,1.8-1,1.8-2V12c0-1.1-0.9-2-2-2h-2V6c0-1.1-0.9-2-2-2H8.2l2,2H24v4h-9.8l2,2H28v10h-1.8L28.2,24z M26,21.8v-4.3
	c0-0.8-0.7-1.5-1.5-1.5h-4.3l2,2H24v1.8L26,21.8z M19.8,24l1.8,1.8C21.4,25.9,21.2,26,21,26H11c-0.6,0-1-0.4-1-1s0.4-1,1-1H19.8z
	 M15.8,20l2,2H11c-0.6,0-1-0.4-1-1s0.4-1,1-1H15.8z M13.8,18H8v10h15.8l1.5,1.5C24.9,29.8,24.5,30,24,30H8c-1.1,0-2-0.9-2-2v-4H4
	c-1.1,0-2-0.9-2-2V12c0-1.1,0.9-2,2-2h1.8l2,2H4v10h2v-4.5C6,16.7,6.7,16,7.5,16h4.3L13.8,18z"/>
</svg>
