<?xml version="1.0" encoding="utf-8"?>
<!-- Generator: Adobe Illustrator 26.0.1, SVG Export Plug-In . SVG Version: 6.00 Build 0)  -->
<svg version="1.1" id="Layer_1" xmlns="http://www.w3.org/2000/svg" xmlns:xlink="http://www.w3.org/1999/xlink" x="0px" y="0px"
	 viewBox="0 0 32 32" style="enable-background:new 0 0 32 32;" xml:space="preserve">
<style type="text/css">
	.st0{fill-rule:evenodd;clip-rule:evenodd;fill:#0D0F13;}
</style>
<path class="st0" d="M28,10h-2V6c0-1.1-0.9-2-2-2H8C6.9,4,6,4.9,6,6v4H4c-1.1,0-2,0.9-2,2v10c0,1.1,0.9,2,2,2h2v4c0,1.1,0.9,2,2,2
	h16c1.1,0,2-0.9,2-2v-4h2c1.1,0,2-0.9,2-2V12C30,10.9,29.1,10,28,10z M8,6h16v4H8V6z M24,28H8V18h16V28z M28,22h-2v-4.8
	c0-0.7-0.6-1.2-1.2-1.2H7.2C6.6,16,6,16.6,6,17.2V22H4V12h24V22z M10,21c0-0.6,0.4-1,1-1h10c0.6,0,1,0.4,1,1s-0.4,1-1,1H11
	C10.4,22,10,21.6,10,21z M10,25c0-0.6,0.4-1,1-1h10c0.6,0,1,0.4,1,1s-0.4,1-1,1H11C10.4,26,10,25.6,10,25z"/>
</svg>
