<?xml version="1.0" encoding="utf-8"?>
<!-- Generator: Adobe Illustrator 26.0.1, SVG Export Plug-In . SVG Version: 6.00 Build 0)  -->
<svg version="1.1" id="Layer_1" xmlns="http://www.w3.org/2000/svg" xmlns:xlink="http://www.w3.org/1999/xlink" x="0px" y="0px"
	 viewBox="0 0 32 32" style="enable-background:new 0 0 32 32;" xml:space="preserve">
<style type="text/css">
	.st0{fill:#0D0F13;}
</style>
<path class="st0" d="M24.6,10.6c0,2.7-1.2,5.1-3.1,6.6l-1.4-1.4c1.5-1.2,2.5-3.1,2.5-5.2C22.6,7,19.7,4,16,4c-2.1,0-4,1-5.2,2.5
	L9.4,5.1C10.9,3.2,13.3,2,16,2C20.8,2,24.6,5.9,24.6,10.6z M7.4,11.7c0.5,4,3.6,7.1,7.6,7.6L7.4,11.7z M9.4,21h7.3l2,2H9.4
	c-3,0-5.4,2.4-5.4,5.4L4,29c0,0.6-0.4,1-1,1c-0.6,0-1-0.4-1-1v-0.6C2,24.3,5.3,21,9.4,21z M3.7,2.3c-0.4-0.4-1-0.4-1.4,0
	c-0.4,0.4-0.4,1,0,1.4l26,26c0.4,0.4,1,0.4,1.4,0c0.4-0.4,0.4-1,0-1.4L3.7,2.3z"/>
</svg>
