<svg fill="none" xmlns="http://www.w3.org/2000/svg" viewBox="0 0 32 32">
  <path fill-rule="evenodd" clip-rule="evenodd" d="M7.574 8.134c1.751-2.07 4.64-4.15 9.085-4.15 4.454 0 7.21 2.09 8.822 4.186a12.435 12.435 0 0 1 1.97 3.785 7.83 7.83 0 0 1 .1.358l.007.024.001.009.001.003c0 .001 0 .002-.974.227l.975-.225a1 1 0 0 1-1.949.452V12.8l-.002-.006a9.169 9.169 0 0 0-.35-1.026 10.439 10.439 0 0 0-1.364-2.38c-1.307-1.699-3.515-3.405-7.237-3.405-3.73 0-6.097 1.715-7.558 3.442a11.66 11.66 0 0 0-1.561 2.402 9.99 9.99 0 0 0-.418.987 3.126 3.126 0 0 0-.016.048l-.003.008v.001a1.012 1.012 0 0 1-.052.134l2.919-.782a1 1 0 1 1 .517 1.932l-4.476 1.2a1.84 1.84 0 0 1-2.255-1.302l-1.2-4.477A1 1 0 1 1 4.49 9.06l.793 2.961.049-.13c.089-.23.223-.554.41-.938a13.66 13.66 0 0 1 1.833-2.818Zm-2.208 4.201.782.24-.782-.24Zm22.19 10.606a1 1 0 0 0 1.932-.518l-1.2-4.476a1.84 1.84 0 0 0-2.254-1.302l-4.477 1.2a1 1 0 0 0 .518 1.931l2.92-.782c-.021.043-.039.088-.053.134v.001l-.003.008-.016.048a9.946 9.946 0 0 1-.418.988c-.32.656-.824 1.53-1.561 2.401-1.461 1.727-3.828 3.442-7.558 3.442-3.722 0-5.93-1.706-7.237-3.406a10.44 10.44 0 0 1-1.643-3.154 5.664 5.664 0 0 1-.072-.25l-.001-.007v-.001a1 1 0 0 0-1.949.451l.975-.225-.975.226v.001l.001.003.002.009.006.024.021.08a11.158 11.158 0 0 0 .42 1.223c.318.772.833 1.804 1.63 2.84 1.612 2.096 4.368 4.186 8.822 4.186 4.445 0 7.334-2.08 9.085-4.15a13.658 13.658 0 0 0 1.832-2.818 11.98 11.98 0 0 0 .46-1.068l.793 2.96Zm-.878-3.276-.781-.24.782.24Z" fill="currentColor"/>
</svg>
