<?xml version="1.0" encoding="utf-8"?>
<!-- Generator: Adobe Illustrator 26.0.1, SVG Export Plug-In . SVG Version: 6.00 Build 0)  -->
<svg version="1.1" id="Layer_1" xmlns="http://www.w3.org/2000/svg" xmlns:xlink="http://www.w3.org/1999/xlink" x="0px" y="0px"
	 viewBox="0 0 32 32" style="enable-background:new 0 0 32 32;" xml:space="preserve">
<path d="M28,23.8V6c0-1.1-0.9-2-2-2h-2c-1.1,0-2,0.9-2,2v11.8l2,2V6h2v15.8L28,23.8z M19,14.8V11c0-1.1-0.9-2-2-2h-2
	c-0.5,0-0.9,0.2-1.3,0.5l1.5,1.5H17v1.8L19,14.8z M17,21.2l2,2V26c0,1.1-0.9,2-2,2h-2c-1.1,0-2-0.9-2-2v-8.8l2,2V26h2V21.2z M6,14
	c-1.1,0-2,0.9-2,2v10c0,1.1,0.9,2,2,2h2c1.1,0,2-0.9,2-2V16c0-1.1-0.9-2-2-2H6z M6,16h2v10H6V16z M2.3,2.3c0.4-0.4,1-0.4,1.4,0
	l26,26c0.4,0.4,0.4,1,0,1.4c-0.4,0.4-1,0.4-1.4,0l-26-26C1.9,3.3,1.9,2.7,2.3,2.3z"/>
</svg>
