<svg fill="none" xmlns="http://www.w3.org/2000/svg" viewBox="0 0 32 32">
  <path fill-rule="evenodd" clip-rule="evenodd" d="M4 6a2 2 0 0 1 2-2h15.586A2 2 0 0 1 23 4.586L27.414 9A2 2 0 0 1 28 10.414V26a2 2 0 0 1-2 2H6a2 2 0 0 1-2-2V6Zm17.586 0H6v20h20V10.414L21.586 6Z" fill="currentColor"/>
  <path fill-rule="evenodd" clip-rule="evenodd" d="M10 9.5V5h2v4h8V5h2v4.5a1.5 1.5 0 0 1-1.5 1.5h-9A1.5 1.5 0 0 1 10 9.5ZM22 19.5V27h-2v-7h-8v7h-2v-7.5a1.5 1.5 0 0 1 1.5-1.5h9a1.5 1.5 0 0 1 1.5 1.5Z" fill="currentColor"/>
</svg>
