<?xml version="1.0" encoding="utf-8"?>
<!-- Generator: Adobe Illustrator 26.0.1, SVG Export Plug-In . SVG Version: 6.00 Build 0)  -->
<svg version="1.1" id="Layer_1" xmlns="http://www.w3.org/2000/svg" xmlns:xlink="http://www.w3.org/1999/xlink" x="0px" y="0px"
	 viewBox="0 0 32 32" style="enable-background:new 0 0 32 32;" xml:space="preserve">
<style type="text/css">
	.st0{fill-rule:evenodd;clip-rule:evenodd;fill:#0D0F13;}
</style>
<path class="st0" d="M23,20c-1.6,0-3,0.7-3.9,1.8l-7.4-4.3c0.2-0.5,0.2-1,0.2-1.6c0-0.5-0.1-1.1-0.2-1.6l7.4-4.3
	C20,11.3,21.4,12,23,12c2.8,0,5-2.2,5-5s-2.2-5-5-5s-5,2.2-5,5c0,0.5,0.1,1,0.2,1.4l-7.5,4.3C9.8,11.7,8.5,11,7,11c-2.8,0-5,2.2-5,5
	s2.2,5,5,5c1.5,0,2.8-0.7,3.8-1.7l7.5,4.3C18.1,24,18,24.5,18,25c0,2.8,2.2,5,5,5s5-2.2,5-5S25.8,20,23,20z M23,4c1.7,0,3,1.3,3,3
	c0,1.7-1.3,3-3,3s-3-1.3-3-3C20,5.3,21.3,4,23,4z M7,19c-1.7,0-3-1.3-3-3c0-1.7,1.3-3,3-3s3,1.3,3,3C10,17.7,8.7,19,7,19z M23,28
	c-1.7,0-3-1.3-3-3c0-1.7,1.3-3,3-3s3,1.3,3,3C26,26.7,24.7,28,23,28z"/>
</svg>
