<svg fill="none" xmlns="http://www.w3.org/2000/svg" viewBox="0 0 32 32">
  <path d="M3.707 2.293a1 1 0 0 0-1.414 1.414l26 26a1 1 0 0 0 1.414-1.414l-26-26ZM25.9 8.102c4.322 4.324 5.227 10.772 2.714 15.985L27.1 22.573c.471-1.147.757-2.351.858-3.569H26a1 1 0 0 1 0-2h1.959a11.952 11.952 0 0 0-2.796-6.751l-5.19 5.192-1.415-1.414 5.191-5.193A11.946 11.946 0 0 0 17 6.042v1.96a1 1 0 1 1-2 0v-1.96a11.997 11.997 0 0 0-3.57.86L9.914 5.388c5.213-2.516 11.66-1.611 15.985 2.714ZM13.14 17.097l3.767 3.768a3 3 0 0 1-3.768-3.768ZM4.041 17.004a11.954 11.954 0 0 1 2.551-6.454L5.17 9.128c-4.517 5.5-4.207 13.64.93 18.778h.002l.002.001a1 1 0 0 0 1.414 0l2.123-2.123a1 1 0 0 0-1.415-1.415l-1.388 1.389a11.952 11.952 0 0 1-2.797-6.754H6a1 1 0 0 0 0-2H4.041Z" fill="currentColor"/>
</svg>
