<svg fill="none" xmlns="http://www.w3.org/2000/svg" viewBox="0 0 32 32">
  <path fill-rule="evenodd" clip-rule="evenodd" d="M8.252 8.737A11.946 11.946 0 0 1 15 5.942v1.96a1 1 0 1 0 2 0v-1.96a11.945 11.945 0 0 1 6.75 2.796l-6.456 6.458a3 3 0 1 0 1.414 1.415l6.456-6.458a11.953 11.953 0 0 1 2.795 6.75H26a1 1 0 0 0 0 2.001h1.959a11.953 11.953 0 0 1-2.795 6.751l-1.386-1.386a1 1 0 1 0-1.415 1.415l2.123 2.123a1 1 0 0 0 1.445-.032c5.436-5.471 5.426-14.315-.031-19.773-5.462-5.464-14.313-5.47-19.782-.017L6.102 8l-.016.016c-5.453 5.47-5.448 14.325.015 19.79l.001-.002.002.002a1 1 0 0 0 1.414 0l2.123-2.123a1 1 0 0 0-1.414-1.415l-1.388 1.389a11.953 11.953 0 0 1-2.797-6.754H6a1 1 0 0 0 0-2H4.042a11.952 11.952 0 0 1 2.796-6.752l1.386 1.386a1 1 0 1 0 1.415-1.414L8.252 8.737ZM15 17.904a1 1 0 1 1 2 0 1 1 0 0 1-2 0Z" fill="currentColor"/>
</svg>
