<svg fill="none" xmlns="http://www.w3.org/2000/svg" viewBox="0 0 32 32">
  <path fill-rule="evenodd" clip-rule="evenodd" d="m16 5.095-2.875 6.782a1.8 1.8 0 0 1-1.505 1.091l-7.35.624 5.584 4.838a1.8 1.8 0 0 1 .574 1.77L8.75 27.386l6.319-3.814a1.8 1.8 0 0 1 1.86 0l6.32 3.814-1.678-7.188a1.8 1.8 0 0 1 .575-1.77l5.584-4.837-7.351-.624a1.8 1.8 0 0 1-1.505-1.09L16 5.094ZM14.343 3.88c.62-1.464 2.694-1.464 3.314 0l3.012 7.106 7.703.653c1.587.135 2.23 2.112 1.027 3.154l-5.852 5.07 1.758 7.532c.361 1.55-1.32 2.772-2.684 1.95L16 25.348l-6.621 3.997c-1.364.822-3.045-.4-2.683-1.95l1.757-7.533L2.6 14.793c-1.203-1.042-.56-3.02 1.027-3.154l7.703-.653 3.012-7.106Z" fill="currentColor"/>
</svg>
