<?xml version="1.0" encoding="utf-8"?>
<!-- Generator: Adobe Illustrator 26.0.1, SVG Export Plug-In . SVG Version: 6.00 Build 0)  -->
<svg version="1.1" id="Layer_1" xmlns="http://www.w3.org/2000/svg" xmlns:xlink="http://www.w3.org/1999/xlink" x="0px" y="0px"
	 viewBox="0 0 32 32" style="enable-background:new 0 0 32 32;" xml:space="preserve">
<style type="text/css">
	.st0{fill-rule:evenodd;clip-rule:evenodd;fill:#0D0F13;}
</style>
<path class="st0" d="M16,4C9.4,4,4,9.4,4,16c0,6.6,5.4,12,12,12c6.6,0,12-5.4,12-12C28,9.4,22.7,4,16,4z M2,16C2,8.3,8.3,2,16,2
	c7.7,0,14,6.3,14,14c0,7.7-6.3,14-14,14C8.3,30.1,2,23.8,2,16z M14.5,18.5c0-0.5,0.1-0.9,0.3-1.2c0.2-0.4,0.5-0.7,1-1.1l0.8-0.7
	c0.4-0.4,0.7-0.7,0.9-1c0.2-0.3,0.2-0.7,0.2-1v-0.2c0-0.5-0.1-0.8-0.4-1.1c-0.3-0.3-0.6-0.4-1.1-0.4c-1,0-1.6,0.6-1.7,1.8H12
	c0.1-1.1,0.4-2,1.1-2.6c0.7-0.7,1.7-1,3-1c1.3,0,2.3,0.3,2.9,1c0.7,0.6,1,1.5,1,2.5c0,0.7-0.2,1.3-0.5,1.8c-0.3,0.5-0.8,1.1-1.6,1.8
	l-0.5,0.5c-0.2,0.2-0.3,0.4-0.4,0.7c-0.1,0.2-0.1,0.5-0.1,0.8h-2.5V18.5z M14.4,20.2h2.5v2.4h-2.5V20.2z"/>
</svg>
