<?xml version="1.0" encoding="utf-8"?>
<!-- Generator: Adobe Illustrator 26.0.1, SVG Export Plug-In . SVG Version: 6.00 Build 0)  -->
<svg version="1.1" id="Layer_1" xmlns="http://www.w3.org/2000/svg" xmlns:xlink="http://www.w3.org/1999/xlink" x="0px" y="0px"
	 viewBox="0 0 32 32" style="enable-background:new 0 0 32 32;" xml:space="preserve">
<style type="text/css">
	.st0{fill-rule:evenodd;clip-rule:evenodd;fill:#0D0F13;}
</style>
<path class="st0" d="M27.7,8.5c0.4,0.4,0.4,1,0,1.4c-3.5,3.5-6.3,6.3-8.7,8.7c-0.4,0.4-0.8,0.8-1.2,1.2c-1.8,1.8-3.4,3.4-4.8,4.8
	c-0.2,0.2-0.4,0.3-0.7,0.3c-0.3,0-0.5-0.1-0.7-0.3l-7.4-7.4c-0.4-0.4-0.4-1,0-1.4c0.4-0.4,1-0.4,1.4,0l6.6,6.7
	c1.2-1.2,2.6-2.6,4.1-4.1c0.4-0.4,0.8-0.8,1.2-1.2c2.4-2.4,5.2-5.1,8.6-8.7C26.7,8.1,27.4,8.1,27.7,8.5z"/>
</svg>
