<?xml version="1.0" encoding="utf-8"?>
<!-- Generator: Adobe Illustrator 26.0.1, SVG Export Plug-In . SVG Version: 6.00 Build 0)  -->
<svg version="1.1" id="Layer_1" xmlns="http://www.w3.org/2000/svg" xmlns:xlink="http://www.w3.org/1999/xlink" x="0px" y="0px"
	 viewBox="0 0 32 32" style="enable-background:new 0 0 32 32;" xml:space="preserve">
<style type="text/css">
	.st0{fill:#0D0F13;}
</style>
<path class="st0" d="M24.6,20.1c0.3-0.2,0.5-0.4,0.8-0.7c2.7-2.7,3.3-6.6,1.9-9.9c-0.1-0.3-0.4-0.5-0.7-0.6c-0.3-0.1-0.7,0-0.9,0.3
	l-4.9,4.9c-0.4,0.4-1,0.6-1.5,0.6l1.7,1.7c0.4-0.2,0.9-0.5,1.2-0.8l3.8-3.8c0.4,2.2-0.3,4.5-1.9,6.2c-0.3,0.3-0.5,0.5-0.8,0.7
	L24.6,20.1z M12.6,16.5c0,0.1-0.1,0.2-0.2,0.3l-5.8,5.8c-0.8,0.8-0.8,2,0,2.8s2,0.8,2.8,0l5.8-5.8c0.1-0.1,0.2-0.2,0.3-0.2l2.5,2.5
	c-0.6-0.1-1.2-0.2-1.8-0.4l-5.3,5.3c-1.6,1.6-4.1,1.6-5.7,0c-1.6-1.6-1.6-4.1,0-5.7l5.3-5.3c-0.2-0.6-0.3-1.2-0.4-1.8L12.6,16.5z
	 M15.6,11.1c0.2-0.4,0.5-0.9,0.8-1.2l3.8-3.8c-2.2-0.4-4.5,0.3-6.2,1.9c-0.3,0.3-0.5,0.5-0.7,0.8l-1.4-1.4c0.2-0.3,0.4-0.5,0.7-0.8
	c2.7-2.7,6.6-3.3,9.9-1.9c0.3,0.1,0.5,0.4,0.6,0.7c0.1,0.3,0,0.7-0.3,0.9l-4.9,4.9c-0.4,0.4-0.6,1-0.6,1.5L15.6,11.1z M2.3,2.3
	c0.4-0.4,1-0.4,1.4,0l26,26c0.4,0.4,0.4,1,0,1.4c-0.4,0.4-1,0.4-1.4,0l-26-26C1.9,3.3,1.9,2.7,2.3,2.3z"/>
</svg>
