<svg fill="none" xmlns="http://www.w3.org/2000/svg" viewBox="0 0 32 32">
  <path fill-rule="evenodd" clip-rule="evenodd" d="M23.107 5.44a1 1 0 0 1-.274.897l-4.945 4.946a2 2 0 0 0 2.83 2.83l4.945-4.946a1 1 0 0 1 1.626.317 8.995 8.995 0 0 1-11.15 12.033l-5.312 5.312a3.999 3.999 0 0 1-5.656-5.656l5.312-5.312a8.995 8.995 0 0 1 12.033-11.15 1 1 0 0 1 .591.729Zm-2.87.667a6.996 6.996 0 0 0-7.672 9.615 1 1 0 0 1-.213 1.096l-5.768 5.768a2 2 0 0 0 2.83 2.83l5.768-5.768a1 1 0 0 1 1.096-.214 6.996 6.996 0 0 0 9.615-7.672l-3.763 3.763a3.999 3.999 0 0 1-5.655-5.655l3.763-3.763Z" fill="currentColor"/>
</svg>
