<?xml version="1.0" encoding="utf-8"?>
<!-- Generator: Adobe Illustrator 26.0.1, SVG Export Plug-In . SVG Version: 6.00 Build 0)  -->
<svg version="1.1" id="Layer_1" xmlns="http://www.w3.org/2000/svg" xmlns:xlink="http://www.w3.org/1999/xlink" x="0px" y="0px"
	 viewBox="0 0 32 32" style="enable-background:new 0 0 32 32;" xml:space="preserve">
<style type="text/css">
	.st0{fill-rule:evenodd;clip-rule:evenodd;}
</style>
<path class="st0" d="M29,6h-8V4c0-1.1-0.9-2-2-2h-6c-1.1,0-2,0.9-2,2v2H3C2.5,6,2,6.4,2,7s0.5,1,1,1h1.2l3.7,20.4c0.2,1,1,1.6,2,1.6
	h12.3c1,0,1.8-0.7,2-1.6L27.8,8H29c0.5,0,1-0.5,1-1S29.5,6,29,6z M13,4h6v2h-6V4z M22.2,28H9.8L6.2,8h19.6L22.2,28z"/>
</svg>
