<?xml version="1.0" encoding="utf-8"?>
<!-- Generator: Adobe Illustrator 26.0.1, SVG Export Plug-In . SVG Version: 6.00 Build 0)  -->
<svg version="1.1" id="Layer_1" xmlns="http://www.w3.org/2000/svg" xmlns:xlink="http://www.w3.org/1999/xlink" x="0px" y="0px"
	 viewBox="0 0 32 32" style="enable-background:new 0 0 32 32;" xml:space="preserve">
<style type="text/css">
	.st0{fill-rule:evenodd;clip-rule:evenodd;fill:#0D0F13;}
</style>
<path class="st0" d="M25.4,21.2L27.8,8H29c0.6,0,1-0.4,1-1s-0.4-1-1-1h-2c0,0,0,0,0,0h-6V4c0-1.1-0.9-2-2-2h-6c-1.1,0-2,0.9-2,2v2
	h-0.8l2,2h13.6l-2.1,11.5L25.4,21.2z M19,6h-6V4h6V6z M6.7,11l3.1,17h12.3l0.2-1.3l1.7,1.7c-0.2,0.9-1,1.6-2,1.6H9.8
	c-1,0-1.8-0.7-2-1.6L4.3,8.5L6.7,11z M3.8,8L2.2,6.4C2.1,6.6,2,6.8,2,7c0,0.6,0.4,1,1,1H3.8z M2.3,2.3c0.4-0.4,1-0.4,1.4,0l26,26
	c0.4,0.4,0.4,1,0,1.4c-0.4,0.4-1,0.4-1.4,0l-26-26C1.9,3.3,1.9,2.7,2.3,2.3z"/>
</svg>
