<svg fill="none" xmlns="http://www.w3.org/2000/svg" viewBox="0 0 32 32">
  <path fill-rule="evenodd" clip-rule="evenodd" d="M8 5.635V28h1.382l.724-1.447A1 1 0 0 1 11 26h10a1 1 0 0 1 .894.553L22.618 28H24V5.634C21.272 4.425 17.944 4 16 4c-1.785 0-5.255.427-8 1.635Zm-1.447-1.53C9.738 2.514 13.907 2 16 2c2.27 0 6.264.514 9.447 2.106A1 1 0 0 1 26 5v24a1 1 0 0 1-1 1h-3a1 1 0 0 1-.894-.553L20.382 28h-8.764l-.724 1.447A1 1 0 0 1 10 30H7a1 1 0 0 1-1-1V5a1 1 0 0 1 .553-.894Z" fill="currentColor"/>
  <path fill-rule="evenodd" clip-rule="evenodd" d="M3 9a1 1 0 0 1 1-1h24a1 1 0 0 1 1 1v5.5a1 1 0 0 1-.737.965l-4.923 1.342-1.366 5.918a1 1 0 0 1-.778.756c-.873.174-3.11.519-5.196.519-2.087 0-4.323-.345-5.196-.52a1 1 0 0 1-.778-.755L8.66 16.807l-4.923-1.342A1 1 0 0 1 3 14.5V9Zm2 1v3.736l4.763 1.3a1 1 0 0 1 .711.74l1.352 5.856C12.83 21.795 14.474 22 16 22c1.526 0 3.169-.205 4.174-.368l1.352-5.857a1 1 0 0 1 .71-.74L27 13.736V10H5Z" fill="currentColor"/>
</svg>
