<?xml version="1.0" encoding="utf-8"?>
<!-- Generator: Adobe Illustrator 26.0.1, SVG Export Plug-In . SVG Version: 6.00 Build 0)  -->
<svg version="1.1" id="Layer_1" xmlns="http://www.w3.org/2000/svg" xmlns:xlink="http://www.w3.org/1999/xlink" x="0px" y="0px"
	 viewBox="0 0 32 32" style="enable-background:new 0 0 32 32;" xml:space="preserve">
<path d="M17.7,13.5c2.5,0.4,4.9,1.5,6.8,3.4c0.4,0.4,1,0.4,1.4,0c0.4-0.4,0.4-1,0-1.4c-2.8-2.8-6.6-4.2-10.3-4.1L17.7,13.5z
	 M12.6,8.3c5.5-1.1,11.4,0.5,15.7,4.8c0.4,0.4,1,0.4,1.4,0c0.4-0.4,0.4-1,0-1.4c-5.1-5.1-12.3-6.8-18.8-5L12.6,8.3z M5.1,9.3
	l1.4,1.4c-1,0.7-2,1.4-2.8,2.3c-0.4,0.4-1,0.4-1.4,0s-0.4-1,0-1.4C3.2,10.8,4.1,10,5.1,9.3z M9,13.2l1.5,1.5c-1.1,0.6-2.1,1.3-3,2.2
	c-0.4,0.4-1,0.4-1.4,0c-0.4-0.4-0.4-1,0-1.4C7,14.6,7.9,13.8,9,13.2z M13,17.2c-1.1,0.4-2.2,1.1-3.1,2c-0.4,0.4-0.4,1,0,1.4
	c0.4,0.4,1,0.4,1.4,0c0.9-0.9,2.1-1.6,3.3-1.8L13,17.2z M16,26c1.1,0,2-0.9,2-2c0-1.1-0.9-2-2-2s-2,0.9-2,2C14,25.1,14.9,26,16,26z
	 M2.3,2.3c0.4-0.4,1-0.4,1.4,0l26,26c0.4,0.4,0.4,1,0,1.4c-0.4,0.4-1,0.4-1.4,0l-26-26C1.9,3.3,1.9,2.7,2.3,2.3z"/>
</svg>
