<?xml version="1.0" encoding="utf-8"?>
<!-- Generator: Adobe Illustrator 26.0.1, SVG Export Plug-In . SVG Version: 6.00 Build 0)  -->
<svg version="1.1" id="Layer_1" xmlns="http://www.w3.org/2000/svg" xmlns:xlink="http://www.w3.org/1999/xlink" x="0px" y="0px"
	 viewBox="0 0 32 32" style="enable-background:new 0 0 32 32;" xml:space="preserve">
<path d="M18,24c0,1.1-0.9,2-2,2c-1.1,0-2-0.9-2-2c0-1.1,0.9-2,2-2C17.1,22,18,22.9,18,24z M28.3,13.1c-6.8-6.8-17.8-6.8-24.6,0
	c-0.4,0.4-1,0.4-1.4,0c-0.4-0.4-0.4-1,0-1.4c7.6-7.6,19.8-7.6,27.4,0c0.4,0.4,0.4,1,0,1.4C29.3,13.5,28.7,13.5,28.3,13.1z
	 M20.7,20.6c-2.6-2.6-6.9-2.6-9.5,0c-0.4,0.4-1,0.4-1.4,0c-0.4-0.4-0.4-1,0-1.4c3.4-3.4,8.9-3.4,12.3,0c0.4,0.4,0.4,1,0,1.4
	C21.8,21,21.1,21,20.7,20.6z M24.5,16.9c-4.7-4.7-12.3-4.7-17,0c-0.4,0.4-1,0.4-1.4,0c-0.4-0.4-0.4-1,0-1.4c5.5-5.5,14.4-5.5,19.9,0
	c0.4,0.4,0.4,1,0,1.4C25.5,17.3,24.9,17.3,24.5,16.9z"/>
</svg>
