<?xml version="1.0" encoding="utf-8"?>
<!-- Generator: Adobe Illustrator 21.1.0, SVG Export Plug-In . SVG Version: 6.00 Build 0)  -->
<svg version="1.1" id="Icon" xmlns="http://www.w3.org/2000/svg" xmlns:xlink="http://www.w3.org/1999/xlink" x="0px" y="0px"
	 viewBox="0 0 256 256" enable-background="new 0 0 256 256" xml:space="preserve">
<g>
	<path fill="#281E42" d="M103.78,150.375c-1.261-0.956-3.011-1.435-5.25-1.435H81.38v11.899h17.15c2.192,0,3.931-0.478,5.215-1.435
		c1.283-0.956,1.925-2.321,1.925-4.096v-0.84C105.67,152.697,105.04,151.332,103.78,150.375z"/>
	<path fill="#281E42" d="M52,117v90h186v-90H52z M117.85,163.36c-1.446,2.52-3.523,4.504-6.229,5.949
		c-2.707,1.447-5.88,2.171-9.521,2.171H81.38V188H67.1v-49.7h35c3.641,0,6.813,0.725,9.521,2.17c2.706,1.447,4.783,3.431,6.229,5.95
		c1.446,2.521,2.17,5.344,2.17,8.47C120.02,158.017,119.296,160.84,117.85,163.36z M174.83,176.1c-2.24,3.734-5.555,6.65-9.94,8.75
		c-4.387,2.101-9.707,3.15-15.96,3.15h-25.41v-49.7h25.41c6.253,0,11.573,1.05,15.96,3.15c4.386,2.1,7.7,5.017,9.94,8.75
		s3.359,8.05,3.359,12.95C178.189,168.05,177.07,172.367,174.83,176.1z M227.539,148.94h-31.43v8.819h29.61V168.4h-29.61V188h-14.28
		v-49.7h45.71V148.94z"/>
	<path fill="#281E42" d="M148.93,148.94H137.8v28.42h11.13c4.713,0,8.283-1.108,10.71-3.325c2.426-2.216,3.641-5.401,3.641-9.555
		v-2.66c0-4.153-1.215-7.338-3.641-9.556C157.213,150.049,153.643,148.94,148.93,148.94z"/>
</g>
<path fill="#281E42" d="M202,107V64.929L168.071,31H38c-10.467,0-20,9.056-20,19v170c0,9.757,8.243,18,18,18h148
	c10.262,0,18-7.738,18-18v-3h-10v3c0,3.854-2.504,8-8,8H36c-4.262,0-8-3.738-8-8V50c0-4.051,4.614-9,10-9h117v18
	c0,9.084,8.421,18,17,18h20v30H202z M165,59V42.071L189.929,67H172C168.99,67,165,62.439,165,59z"/>
</svg>
