<?xml version="1.0" encoding="iso-8859-1"?>
<!-- Generator: Adobe Illustrator 19.2.1, SVG Export Plug-In . SVG Version: 6.00 Build 0)  -->
<svg version="1.1" id="Lager_12" xmlns="http://www.w3.org/2000/svg" xmlns:xlink="http://www.w3.org/1999/xlink" x="0px" y="0px"
	 viewBox="0 0 256 256" style="enable-background:new 0 0 256 256;" xml:space="preserve">
<g>
	<path style="fill:#041E42;" d="M18,79v141h220V79H18z M228,210H28V89h200V210z"/>
	<rect x="152" y="117" style="fill:#041E42;" width="62" height="10"/>
	<rect x="152" y="145" style="fill:#041E42;" width="62" height="10"/>
	<rect x="152" y="172" style="fill:#041E42;" width="62" height="10"/>
	<path style="fill:#041E42;" d="M140,98H36v103h104V98z M117,191H59v-6.256c8-6.273,18.093-9.706,29.192-9.706
		c10.958,0,20.808,3.284,28.808,9.289V191z M130,191h-3v-11.187l-1.971-1.488c-9.439-8.567-22.664-13.286-36.938-13.286
		c-14.436,0-27.796,4.896-37.35,13.786L49,180.307V191h-3v-83h84V191z"/>
	<path style="fill:#041E42;" d="M87.738,162.198c12.415,0,22.514-10.1,22.514-22.514s-10.1-22.514-22.514-22.514
		c-12.419,0-22.522,10.1-22.522,22.514S75.319,162.198,87.738,162.198z M87.738,127.171c6.9,0,12.514,5.613,12.514,12.514
		s-5.614,12.514-12.514,12.514c-6.905,0-12.522-5.613-12.522-12.514S80.833,127.171,87.738,127.171z"/>
</g>
</svg>
