<?xml version="1.0" encoding="iso-8859-1"?>
<!-- Generator: Adobe Illustrator 19.2.0, SVG Export Plug-In . SVG Version: 6.00 Build 0)  -->
<svg version="1.1" id="Lager_12" xmlns="http://www.w3.org/2000/svg" xmlns:xlink="http://www.w3.org/1999/xlink" x="0px" y="0px"
	 viewBox="0 0 256 256" style="enable-background:new 0 0 256 256;" xml:space="preserve">
<path style="fill:#041E42;" d="M203,73V48.326l-3.107-1.271C198.688,46.563,169.927,35,128.091,35
	c-42.169,0-70.794,11.566-71.992,12.059L53,48.333V73H31v37.838l2.401,1.461c6.116,3.722,12.554,7.158,19.599,10.459V238h30.307
	l6.465-18h76.27l6.485,18H203V122.758c7.046-3.302,13.485-6.738,19.6-10.459l2.4-1.461V73H203z M172.187,158.658
	c-11.994,3.245-29.178,5.342-43.776,5.342h-0.251c-14.788,0-32.283-2.169-44.572-5.525c-7.109-1.943-14.005-4.292-20.588-6.957V70
	h130v81.717C186.568,154.325,179.584,156.657,172.187,158.658z M161.818,171.102l-2.454,8.327
	c-9.002,2.877-22.833,4.623-31.456,4.623c-8.624,0-22.454-1.746-31.455-4.623l-2.496-8.468c10.919,1.905,23.276,3.04,34.202,3.04
	h0.251C139.116,174,151.171,172.92,161.818,171.102z M128.091,45c32.119,0,56.56,7.312,64.909,10.18V60H63v-4.824
	C71.325,52.308,95.718,45,128.091,45z M41,105.191V83h12v28.657C48.802,109.578,44.824,107.437,41,105.191z M179.526,228l-6.433-18
	H82.728l-6.453,18H63v-65.729c5.801,2.203,11.806,4.171,17.953,5.851c0.614,0.168,1.25,0.329,1.887,0.491l5.447,18.48l2.314,0.883
	c10.35,3.946,26.946,6.076,37.308,6.076c10.361,0,26.958-2.13,37.307-6.076l2.314-0.883l5.394-18.299
	c0.633-0.159,1.265-0.318,1.874-0.483c6.375-1.725,12.465-3.691,18.202-5.86V228H179.526z M215,105.191
	c-3.823,2.245-7.801,4.386-12,6.465V83h12V105.191z"/>
</svg>
