<?xml version="1.0" encoding="iso-8859-1"?>
<!-- Generator: Adobe Illustrator 19.2.0, SVG Export Plug-In . SVG Version: 6.00 Build 0)  -->
<svg version="1.1" id="Lager_13" xmlns="http://www.w3.org/2000/svg" xmlns:xlink="http://www.w3.org/1999/xlink" x="0px" y="0px"
	 viewBox="0 0 256 256" style="enable-background:new 0 0 256 256;" xml:space="preserve">
<g>
	<path style="fill:#041E42;" d="M128.021,59.596c-19.67,0-35.672,15.995-35.672,35.656s16.002,35.656,35.672,35.656
		c19.661,0,35.656-15.995,35.656-35.656S147.682,59.596,128.021,59.596z M128.021,120.908c-14.156,0-25.672-11.51-25.672-25.656
		s11.517-25.656,25.672-25.656c14.146,0,25.656,11.51,25.656,25.656S142.167,120.908,128.021,120.908z"/>
	<path style="fill:#041E42;" d="M128.013,18.124c-60.625,0-109.947,49.322-109.947,109.947s49.322,109.947,109.947,109.947
		S237.96,188.696,237.96,128.071S188.638,18.124,128.013,18.124z M182,212.148c-15.58,10.039-34.115,15.87-53.987,15.87
		c-19.883,0-38.427-5.838-54.013-15.887v-39.758c13.688-12.092,33.354-18.99,54.336-18.99c21.05,0,40.009,6.455,53.664,18.225
		V212.148z M192,204.788v-37.611l-1.611-1.485c-15.605-14.385-37.643-22.308-62.052-22.308c-24.324,0-47.203,8.439-62.771,23.153
		L64,168.017v36.75c-21.947-18.349-35.935-45.918-35.935-76.695c0-55.111,44.836-99.947,99.947-99.947s99.947,44.836,99.947,99.947
		C227.96,158.861,213.962,186.439,192,204.788z"/>
</g>
</svg>
