<?xml version="1.0" encoding="iso-8859-1"?>
<!-- Generator: Adobe Illustrator 22.1.0, SVG Export Plug-In . SVG Version: 6.00 Build 0)  -->
<svg version="1.1" id="Lager_13" xmlns="http://www.w3.org/2000/svg" xmlns:xlink="http://www.w3.org/1999/xlink" x="0px" y="0px"
	 viewBox="0 0 256 256" style="enable-background:new 0 0 256 256;" xml:space="preserve">
<path style="fill:#201F41;" d="M185.868,173.554c-2.215,30.319-27.844,54.323-59.051,54.323c-32.657,0-59.225-26.279-59.225-58.581
	c0-5.001,0.641-9.976,1.905-14.784l0.068-0.299c2.099-10.581,12.401-29.651,26.659-56.046c8.688-16.082,19.254-35.643,30.592-58.187
	c5.31,10.558,10.446,20.452,15.304,29.65c2.743-1.859,5.656-3.499,8.731-4.883c-6.149-11.646-12.742-24.405-19.552-38.188
	l-4.482-9.072l-4.482,9.072C109.388,52.759,97.21,75.301,87.426,93.414c-15.158,28.059-25.193,46.635-27.639,58.7
	c-1.457,5.594-2.196,11.373-2.196,17.182c0,37.815,31.054,68.581,69.225,68.581c37.759,0,68.533-30.11,69.193-67.364
	c-0.067,0.027-0.132,0.058-0.2,0.085C192.566,171.891,189.244,172.871,185.868,173.554z"/>
<path style="fill:#201F41;" d="M180.409,74.256c2.9,4.625,5.084,9.976,6.283,15.704c3.256,15.555,0.432,21.592-1.086,24.835
	c-0.238,0.508-0.45,0.967-0.629,1.382c-1.368,3.171-1.052,6.786,0.844,9.669c1.9,2.89,5.098,4.615,8.553,4.615
	c2.516,0,4.935-0.925,6.814-2.605c1.867-1.67,3.623-3.561,5.233-5.608c0.667,6.244-0.988,12.367-4.713,17.352
	c-4.159,5.566-10.404,9.185-17.585,10.191c-1.209,0.169-2.431,0.255-3.632,0.255c-14.134,0-25.746-11.868-25.886-26.456
	c-0.099-10.294,5.555-17.433,12.102-25.698C172.087,91.102,177.948,83.702,180.409,74.256 M167.007,50.189
	c2.183,2.898,3.672,6.333,4.246,10.173c3.869,25.904-26.916,35.131-26.646,63.324c0.194,20.24,16.329,36.36,35.885,36.36
	c1.652,0,3.325-0.115,5.018-0.352c19.786-2.77,33.609-20.281,30.664-39.997c-1.281-8.575-4.456-16.037-9.637-22.494
	c-0.534,7.351-5.192,17.096-12.016,23.199c-0.045,0.041-0.097,0.058-0.147,0.058c-0.15,0-0.288-0.156-0.216-0.323
	c1.6-3.711,6.65-11.552,2.321-32.228C192.948,71.044,182.064,55.862,167.007,50.189L167.007,50.189z"/>
</svg>
