<?xml version="1.0" encoding="iso-8859-1"?>
<!-- Generator: Adobe Illustrator 19.2.0, SVG Export Plug-In . SVG Version: 6.00 Build 0)  -->
<svg version="1.1" id="Lager_13" xmlns="http://www.w3.org/2000/svg" xmlns:xlink="http://www.w3.org/1999/xlink" x="0px" y="0px"
	 viewBox="0 0 256 256" style="enable-background:new 0 0 256 256;" xml:space="preserve">
<path style="fill:#041E42;" d="M211.923,185l7.945-65.297l-13.453,4.123L184.185,72H133v-9h24v-9.652v-6.494V37h-24v-9h4V18h-18v10
	h4v9H98v9.854v6.494V63h25v9H71.772l-22.226,51.821l-13.563-4.118L43.94,185H18v10h27.198l82.829,43.061l82.668-43.004l0.011-0.057
	H238v-10H211.923z M177.595,82l18.777,43.751c-5.282-1.845-16.272-5.438-29.683-8.434c-3.273-0.745-6.475-1.395-9.615-1.968
	L148.627,82H177.595z M108,53v-6h39v6H108z M117.611,82h20.7l8.027,31.686c-6.31-0.787-12.29-1.186-17.891-1.186l-0.276,0.003
	l-0.243-0.003c-6.108,0-12.3,0.47-18.356,1.237L117.611,82z M78.364,82h28.932l-8.464,33.413
	c-17.913,3.296-33.225,8.492-39.407,10.744L78.364,82z M123,224.101l-68.502-35.676l-6.685-54.677L123,156.934V224.101z
	 M74.837,131.613c13.387-4.047,33.961-9.112,53.112-9.112l0.243,0.003l0.256-0.004c10.583,0,22.703,1.536,36.043,4.571
	c6.329,1.414,12.134,2.981,17.006,4.419L128.027,148L74.837,131.613z M201.455,188.527L133,224.199v-67.21l75.11-23.241
	L201.455,188.527z"/>
</svg>
