<?xml version="1.0" encoding="iso-8859-1"?>
<!-- Generator: Adobe Illustrator 19.2.0, SVG Export Plug-In . SVG Version: 6.00 Build 0)  -->
<svg version="1.1" id="Lager_13" xmlns="http://www.w3.org/2000/svg" xmlns:xlink="http://www.w3.org/1999/xlink" x="0px" y="0px"
	 viewBox="0 0 256 256" style="enable-background:new 0 0 256 256;" xml:space="preserve">
<g>
	<path style="fill:#041E42;" d="M176.656,60.357c11.465,0,20.792-9.324,20.792-20.784c0-11.464-9.327-20.791-20.792-20.791
		c-11.464,0-20.791,9.327-20.791,20.791C155.865,51.033,165.192,60.357,176.656,60.357z M176.656,28.782
		c5.951,0,10.792,4.841,10.792,10.791c0,5.946-4.841,10.784-10.792,10.784c-5.95,0-10.791-4.838-10.791-10.784
		C165.865,33.623,170.706,28.782,176.656,28.782z"/>
	<path style="fill:#041E42;" d="M170.062,62.165l-1.172,0.185l-38.172,27.408l-35.953-2.119l-3.284-10.157l-21.556-2.126
		l-9.842,28.12l72.576,20.727l10.622-5.384l-0.277,22.178l0.711,3.176l-55.31,2.16c-9.908,0.387-18.176,7.783-19.66,17.588
		l-10.479,69.247l26.475,4.084l17.327-55.985l53.805,6.503l2.452,8.418l9.602-2.797l-1.747-5.996
		c14.003-3.155,20.385-16.681,21.872-24.537c0,0,5.496-46.633,8.027-72.631c0.97-9.96-1.217-17.534-6.499-22.511
		C181.823,60.405,170.54,62.091,170.062,62.165z M94.984,170.336l-17.243,55.716l-8.094-1.248l8.987-59.388
		c0.767-5.068,5.041-8.892,10.163-9.092l57.268-2.237l6.769,23.242L94.984,170.336z M186.126,89.257
		c-2.433,24.989-7.525,68.446-7.927,71.873c-0.357,1.651-3.46,14.387-14.832,16.6l-8.166-28.035l-2.182-9.743l0.326-26.157
		l0.173-0.086l12.482-6.25V96.244l-35.048,17.55L72.903,96.772l3.804-10.694l7.244,0.712l3.386,10.429l46.326,2.73l38.987-27.99
		c2.118-0.101,6.939,0.046,10.112,3.072C185.645,77.781,186.777,82.567,186.126,89.257z"/>
</g>
</svg>
