<?xml version="1.0" encoding="iso-8859-1"?>
<!-- Generator: Adobe Illustrator 19.2.1, SVG Export Plug-In . SVG Version: 6.00 Build 0)  -->
<svg version="1.1" id="Lager_12" xmlns="http://www.w3.org/2000/svg" xmlns:xlink="http://www.w3.org/1999/xlink" x="0px" y="0px"
	 viewBox="0 0 256 256" style="enable-background:new 0 0 256 256;" xml:space="preserve">
<g>
	<rect x="111" y="204" style="fill:#041E42;" width="36" height="10"/>
	<path style="fill:#041E42;" d="M206.278,50.36c-21.453-21.453-49.57-32.179-77.687-32.179c-28.117,0-56.234,10.726-77.687,32.179
		c-42.905,42.905-42.905,112.468,0,155.373c21.453,21.453,49.57,32.179,77.687,32.179c28.117,0,56.234-10.726,77.687-32.179
		C249.183,162.828,249.183,93.265,206.278,50.36z M128.591,28.181c26.675,0,51.753,10.508,70.616,29.371
		C221.399,79.743,230.925,110,227.821,139H147.59l0.43-0.537l2.98-3.043V79.895l-6.422-2.532
		c-5.116-2.077-10.373-3.086-15.692-3.086c-5.901,0-10.342,1.272-15.567,3.183L107,79.86v19.587L61.565,54.011
		C79.963,37.317,103.575,28.181,128.591,28.181z M117,131.208v-7.621l19,19V186h-15v-49.816L117,131.208z M117,109.446V86.851
		c4-1.615,7.856-2.575,12.317-2.575c4.9,0,8.683,1.134,11.683,2.352v44.679l-1.083,1.056L117,109.446z M54.499,61.207L107,113.588
		v21.673l2.812,3.739H29.361C26.425,111,34.793,82.987,54.499,61.207z M192.948,204H169v10h9.796
		c-15.083,9-32.277,13.519-50.205,13.519c-17.939,0-35.153-4.519-50.243-13.519H88v-10H64.213c-2.145-1-4.229-3.405-6.238-5.414
		C43.794,184.405,34.78,167,30.929,149H111v47h35v-43.413l49.553,49.356L192.948,204z M202.624,195.311L156.312,149h69.94
		C222.72,166,214.845,181.828,202.624,195.311z"/>
	<path style="fill:#041E42;" d="M128.776,71.086c9.548,0,17.316-7.769,17.316-17.316c0-9.549-7.768-17.317-17.316-17.317
		c-9.552,0-17.322,7.769-17.322,17.317C111.454,63.317,119.224,71.086,128.776,71.086z M128.776,46.452
		c4.034,0,7.316,3.282,7.316,7.317c0,4.034-3.282,7.316-7.316,7.316c-4.038,0-7.322-3.282-7.322-7.316
		C121.454,49.734,124.738,46.452,128.776,46.452z"/>
</g>
</svg>
