<?xml version="1.0" encoding="utf-8"?>
<!-- Generator: Adobe Illustrator 16.0.3, SVG Export Plug-In . SVG Version: 6.00 Build 0)  -->
<!DOCTYPE svg PUBLIC "-//W3C//DTD SVG 1.1//EN" "http://www.w3.org/Graphics/SVG/1.1/DTD/svg11.dtd">
<svg version="1.1" id="Layer_1" xmlns="http://www.w3.org/2000/svg" xmlns:xlink="http://www.w3.org/1999/xlink" x="0px" y="0px"
	 width="256px" height="256px" viewBox="0 0 256 256" enable-background="new 0 0 256 256" xml:space="preserve">
<g>
	<defs>
		<rect id="SVGID_1_" width="256" height="256"/>
	</defs>
	<clipPath id="SVGID_2_">
		<use xlink:href="#SVGID_1_"  overflow="visible"/>
	</clipPath>
	<path clip-path="url(#SVGID_2_)" fill="#041E42" d="M57.639,123.203c1.499-1.125,3.561-0.844,6.184,0.842v-69.43h128.461v69.43
		c1.499-1.124,3.092-1.686,4.778-1.686c1.686,0,2.437,0.656,2.248,1.967c-0.563,1.688-1.545,3.467-2.951,5.341
		c-1.405,1.874-2.812,3.467-4.217,4.778c-1.404,1.312-3.468,2.765-6.185,4.356c-2.717,1.593-4.731,2.765-6.043,3.515
		c-1.312,0.748-3.515,1.873-6.606,3.373c-3.091,1.498-4.918,2.343-5.479,2.528c2.437,7.871,3.278,15.648,2.528,23.332
		c-0.937,7.308-3.606,13.492-8.012,18.552c-4.402,5.061-10.164,7.684-17.287,7.871c-5.434,0-9.744-2.248-12.931-6.746
		c-0.937-1.5-1.403-3.279-1.403-5.34v-28.393c-0.563,0-1.5-0.234-2.813-0.702c-1.312-0.469-2.061-0.703-2.249-0.703v30.358
		c0,3.371-1.499,6.229-4.498,8.572c-2.998,2.344-6.278,3.515-9.838,3.515c-6.934,0-12.649-2.624-17.147-7.871
		c-4.497-5.246-7.215-11.524-8.151-18.833c-0.75-7.871,0.094-15.555,2.53-23.05c-11.431-5.06-21.27-11.712-29.515-19.958
		C57.358,125.826,56.89,123.952,57.639,123.203L57.639,123.203z M71.131,128.824c0.75,0.375,1.921,0.984,3.514,1.826
		c1.593,0.845,2.858,1.453,3.795,1.828l100.632-1.125c2.812-1.313,4.686-2.248,5.621-2.812V62.205H71.132L71.131,128.824
		L71.131,128.824z M91.652,114.489c0-4.685,1.687-8.714,5.06-12.087c3.374-3.373,7.402-5.06,12.087-5.06s8.667,1.687,11.946,5.06
		c3.28,3.374,4.919,7.402,4.919,12.087c0.001,4.685-1.639,8.667-4.919,11.946c-3.279,3.279-7.261,4.918-11.946,4.918
		s-8.713-1.64-12.087-4.918C93.338,123.156,91.651,119.173,91.652,114.489z M131.85,114.489c0-4.685,1.687-8.714,5.06-12.087
		s7.401-5.06,12.087-5.06s8.667,1.687,11.945,5.06c3.281,3.374,4.92,7.402,4.92,12.087c0,4.685-1.639,8.667-4.92,11.946
		c-3.278,3.279-7.262,4.918-11.945,4.918s-8.714-1.64-12.087-4.918C133.535,123.156,131.85,119.173,131.85,114.489z"/>
</g>
</svg>
