<?xml version="1.0" encoding="utf-8"?>
<!-- Generator: Adobe Illustrator 16.0.3, SVG Export Plug-In . SVG Version: 6.00 Build 0)  -->
<!DOCTYPE svg PUBLIC "-//W3C//DTD SVG 1.1//EN" "http://www.w3.org/Graphics/SVG/1.1/DTD/svg11.dtd">
<svg version="1.1" id="Layer_1" xmlns="http://www.w3.org/2000/svg" xmlns:xlink="http://www.w3.org/1999/xlink" x="0px" y="0px"
	 width="256px" height="256px" viewBox="0 0 256 256" enable-background="new 0 0 256 256" xml:space="preserve">
<g>
	<defs>
		<rect id="SVGID_1_" width="256" height="256"/>
	</defs>
	<clipPath id="SVGID_2_">
		<use xlink:href="#SVGID_1_"  overflow="visible"/>
	</clipPath>
	<path clip-path="url(#SVGID_2_)" fill="#041E42" d="M156.777,166.927l-5.6-8.285c1.946-1.315,3.774-2.824,5.435-4.483
		c1.664-1.666,3.173-3.494,4.482-5.434c1.324-1.96,2.462-4.056,3.383-6.231c0.936-2.212,1.653-4.527,2.136-6.88
		c0.494-2.415,0.745-4.905,0.745-7.4s-0.251-4.984-0.745-7.399c-0.482-2.354-1.2-4.669-2.137-6.882
		c-0.919-2.174-2.058-4.271-3.381-6.231c-1.312-1.94-2.819-3.768-4.484-5.434c-1.659-1.658-3.487-3.167-5.434-4.483l5.6-8.285
		c2.473,1.672,4.796,3.589,6.905,5.699c2.115,2.116,4.032,4.439,5.698,6.906c1.686,2.494,3.135,5.163,4.306,7.932
		c1.193,2.822,2.109,5.773,2.724,8.772c0.629,3.073,0.948,6.237,0.948,9.405s-0.319,6.332-0.948,9.405
		c-0.614,2.999-1.53,5.95-2.723,8.771c-1.173,2.771-2.621,5.44-4.307,7.935c-1.665,2.464-3.583,4.788-5.697,6.904
		C161.573,163.338,159.25,165.255,156.777,166.927"/>
	<path clip-path="url(#SVGID_2_)" fill="#041E42" d="M173.231,190.921l-5.6-8.285c3.504-2.368,6.798-5.086,9.79-8.077
		c2.991-2.991,5.709-6.286,8.077-9.79c2.389-3.536,4.439-7.314,6.094-11.229c1.688-3.988,2.983-8.161,3.852-12.404
		c0.891-4.358,1.344-8.844,1.344-13.332c0-4.487-0.453-8.973-1.344-13.331c-0.868-4.242-2.164-8.416-3.851-12.404
		c-1.656-3.916-3.706-7.693-6.096-11.23c-2.367-3.504-5.085-6.798-8.076-9.788c-2.995-2.995-6.288-5.713-9.789-8.077l5.598-8.287
		c4.028,2.721,7.817,5.847,11.262,9.293c3.441,3.439,6.568,7.229,9.292,11.261c2.751,4.073,5.113,8.423,7.02,12.933
		c1.944,4.595,3.438,9.404,4.438,14.295c1.026,5.016,1.547,10.176,1.547,15.335c0,5.16-0.521,10.319-1.547,15.336
		c-1.001,4.892-2.494,9.701-4.438,14.296c-1.905,4.508-4.267,8.858-7.018,12.932c-2.725,4.033-5.852,7.82-9.293,11.262
		S177.263,188.197,173.231,190.921"/>
	<path clip-path="url(#SVGID_2_)" fill="#041E42" d="M190.37,216.75l-5.598-8.287c5.124-3.461,9.944-7.438,14.326-11.819
		c4.381-4.381,8.357-9.201,11.819-14.326c3.495-5.173,6.497-10.703,8.922-16.437c2.47-5.837,4.365-11.946,5.637-18.158
		c1.305-6.376,1.967-12.939,1.967-19.51c0-6.57-0.662-13.134-1.967-19.509c-1.271-6.212-3.167-12.322-5.637-18.16
		c-2.425-5.732-5.427-11.263-8.922-16.437c-3.464-5.127-7.44-9.946-11.819-14.326c-4.38-4.379-9.199-8.355-14.326-11.82l5.599-8.285
		c5.654,3.82,10.97,8.206,15.798,13.035c4.829,4.828,9.215,10.143,13.035,15.799c3.856,5.708,7.169,11.81,9.846,18.138
		c2.727,6.447,4.82,13.193,6.224,20.051c1.439,7.032,2.17,14.272,2.17,21.514c0,7.242-0.73,14.481-2.17,21.515
		c-1.403,6.858-3.497,13.604-6.224,20.049c-2.676,6.329-5.989,12.432-9.846,18.139c-3.818,5.652-8.204,10.968-13.035,15.799
		C201.337,208.546,196.021,212.932,190.37,216.75"/>
	<path clip-path="url(#SVGID_2_)" fill="#041E42" d="M109,71v114.262l-36.385-33.814L69.812,149h-3.943H28v-42h38.119h3.957
		l2.806-2.468L109,70.807 M114.214,54.019c-1.207,0-2.397,0.216-3.386,1.233L66.119,97H18v62h47.869l45.007,41.794
		c0.988,1.011,2.135,1.341,3.338,1.341c2.482,0,4.786-2.046,4.786-4.961V58.857C119,55.941,116.695,54.019,114.214,54.019"/>
</g>
</svg>
