<?xml version="1.0" encoding="iso-8859-1"?>
<!-- Generator: Adobe Illustrator 22.1.0, SVG Export Plug-In . SVG Version: 6.00 Build 0)  -->
<svg version="1.1" id="Layer_1" xmlns="http://www.w3.org/2000/svg" xmlns:xlink="http://www.w3.org/1999/xlink" x="0px" y="0px"
	 viewBox="0 0 256 256" style="enable-background:new 0 0 256 256;" xml:space="preserve">
<g>
	<path style="display:none;fill:#9797B2;" d="M17.448,123.753c0.23-0.091,0.094-0.379,0.27-0.499
		c-0.031,1.978-0.081,3.955-0.086,5.933c-0.003,1.264,0.059,2.529,0.091,3.794c-0.201-0.173-0.009-0.511-0.276-0.656
		C17.448,129.467,17.448,126.61,17.448,123.753z"/>
	<path style="display:none;fill:#9797B2;" d="M123.79,238.667c-0.001-0.054-0.002-0.107-0.003-0.161
		c2.911-0.001,5.822-0.003,8.733-0.004c0,0.055,0,0.11,0,0.165C129.61,238.667,126.7,238.667,123.79,238.667z"/>
	<path style="display:none;fill:#9797B2;" d="M125.53,17.556c0.032-0.047,0.034-0.095,0.006-0.145c1.746,0,3.492,0,5.238,0
		c-0.033,0.05-0.031,0.099,0.005,0.146C129.03,17.557,127.28,17.556,125.53,17.556z"/>
	<path style="fill:#051146;" d="M125.53,17.556c1.75,0,3.499,0.001,5.249,0.001c48.504,1.107,89.773,33.87,103.225,78.836
		c2.226,7.441,3.647,15.031,4.256,22.776c4.096,52.05-28.064,97.242-73.739,113.224c-7.471,2.614-15.134,4.401-22.996,5.351
		c-2.994,0.362-5.999,0.561-9.005,0.758c-2.911,0.001-5.822,0.003-8.733,0.004c-11.444-0.514-22.59-2.592-33.343-6.566
		c-21.535-7.959-39.019-21.29-52.384-39.949c-9.799-13.68-16.069-28.863-18.896-45.461c-0.764-4.487-1.248-9.002-1.44-13.549
		c-0.033-1.264-0.095-2.529-0.091-3.794c0.005-1.978,0.055-3.955,0.086-5.933c1.726-31.557,14.465-57.832,38.131-78.705
		c14.199-12.523,30.722-20.628,49.247-24.61C111.831,18.491,118.642,17.694,125.53,17.556z M223.072,168.722
		c15.189-33.26,12.443-85.137-28.359-119.749C154.199,14.603,94.521,16.649,56.264,53.728
		c-37.391,36.24-36.698,85.887-23.03,115.214c0.205-2.085,0.427-2.546,2.008-4.005c0.583-0.538,1.178-1.066,1.803-1.552
		c10.375-8.077,22.326-11.373,35.276-11.419c7.732-0.028,15.234,1.401,22.416,4.334c5.176,2.113,9.947,4.895,14.094,8.684
		c0.748,0.684,1.462,1.399,1.732,2.413c0.103,0.388,0.315,0.342,0.587,0.285c2.9-0.6,5.828-1.007,8.776-1.289
		c4.776-0.457,9.554-0.532,14.341-0.154c3.613,0.285,7.2,0.738,10.748,1.482c0.433,0.091,0.667,0.035,0.785-0.449
		c0.167-0.682,0.601-1.227,1.094-1.719c0.881-0.879,1.814-1.701,2.804-2.455c10.359-7.889,22.221-11.112,35.059-11.13
		c7.245-0.01,14.298,1.269,21.082,3.863c5.776,2.209,11.079,5.213,15.621,9.468C222.453,166.229,223.076,167.313,223.072,168.722z
		 M171.876,205.052c-0.012,0-0.023,0-0.035,0c0-4.788-0.122-9.58,0.058-14.361c0.075-1.993-0.631-3.173-2.126-4.333
		c-7.397-5.736-15.758-9.322-24.833-11.343c-7.553-1.682-15.191-2.237-22.918-1.624c-6.453,0.512-12.757,1.712-18.867,3.86
		c-6.659,2.34-12.813,5.593-18.209,10.199c-0.56,0.478-0.818,0.963-0.816,1.742c0.023,10.686,0.007,21.372-0.016,32.058
		c-0.001,0.383,0.107,0.567,0.451,0.704c0.857,0.342,1.702,0.713,2.55,1.078c11.138,4.799,22.76,7.576,34.864,8.298
		c9.367,0.559,18.64-0.168,27.823-2.119c7.438-1.58,14.571-4.058,21.518-7.111c0.307-0.135,0.576-0.216,0.574-0.702
		C171.866,215.949,171.876,210.5,171.876,205.052z M179.007,218.131c0.35-0.194,0.576-0.315,0.799-0.443
		c3.853-2.215,7.477-4.786,11.011-7.455c9.868-7.454,18.061-16.481,24.71-26.91c0.237-0.371,0.348-0.738,0.346-1.182
		c-0.014-3.809-0.026-7.618,0.009-11.426c0.006-0.657-0.213-1.055-0.709-1.452c-8.257-6.604-17.846-9.485-28.236-10.091
		c-3.73-0.218-7.448,0.021-11.144,0.598c-6.379,0.996-12.392,3.015-17.932,6.365c-1.717,1.038-3.359,2.185-4.922,3.578
		c0.285,0.102,0.495,0.183,0.709,0.254c2.38,0.789,4.728,1.663,7.014,2.694c6.11,2.755,11.77,6.198,16.652,10.848
		c1.193,1.136,1.713,2.446,1.707,4.091c-0.031,9.813-0.015,19.626-0.015,29.439C179.007,217.353,179.007,217.67,179.007,218.131z
		 M76.985,218.008c0-0.434,0-0.716,0-0.999c0-9.256,0-18.511,0-27.767c0-4.233,0.08-4.437,3.288-7.194
		c6.526-5.609,14.03-9.434,22.161-12.108c0.255-0.084,0.559-0.091,0.844-0.434c-0.121-0.062-0.228-0.097-0.312-0.163
		c-0.417-0.324-0.819-0.669-1.243-0.984c-8.028-5.951-17.18-8.63-27.032-9.187c-4.93-0.279-9.819,0.161-14.641,1.245
		c-7,1.574-13.43,4.366-19.027,8.937c-0.431,0.352-0.594,0.712-0.59,1.269c0.025,3.781,0.027,7.563,0,11.345
		c-0.005,0.668,0.169,1.212,0.53,1.765c6.953,10.665,15.381,19.935,25.743,27.401C70.004,213.513,73.309,215.875,76.985,218.008z"/>
	<path style="fill:#051146;" d="M128.154,99.376c15.35,0.023,27.755,12.473,27.738,27.841
		c-0.016,15.351-12.496,27.809-27.816,27.769c-15.376-0.04-27.795-12.532-27.761-27.927
		C100.348,111.79,112.855,99.353,128.154,99.376z M128.119,148.001c11.473,0,20.768-9.285,20.793-20.769
		c0.025-11.535-9.233-20.841-20.761-20.87c-11.493-0.029-20.848,9.302-20.852,20.799
		C107.294,138.664,116.622,148.001,128.119,148.001z"/>
	<path style="fill:#051146;" d="M92.88,123.831c-0.015,11.54-9.288,20.744-20.879,20.724c-11.423-0.02-20.658-9.339-20.629-20.816
		c0.029-11.454,9.315-20.718,20.76-20.713C83.613,103.031,92.895,112.339,92.88,123.831z M72.128,110.014
		c-7.597-0.001-13.763,6.164-13.769,13.769c-0.006,7.626,6.123,13.787,13.726,13.796c7.661,0.01,13.818-6.14,13.809-13.793
		C85.886,116.177,79.726,110.015,72.128,110.014z"/>
	<path style="fill:#051146;" d="M184.41,103.026c11.451-0.01,20.789,9.317,20.789,20.766c0,11.478-9.284,20.76-20.766,20.762
		c-11.491,0.002-20.787-9.272-20.788-20.739C163.643,112.354,172.95,103.037,184.41,103.026z M184.417,110.013
		c-7.587,0.005-13.784,6.197-13.787,13.775c-0.003,7.63,6.19,13.803,13.835,13.792c7.587-0.011,13.754-6.201,13.747-13.801
		C198.206,116.203,191.998,110.008,184.417,110.013z"/>
</g>
</svg>
