<?xml version="1.0" encoding="utf-8"?>
<!-- Generator: Adobe Illustrator 16.0.3, SVG Export Plug-In . SVG Version: 6.00 Build 0)  -->
<!DOCTYPE svg PUBLIC "-//W3C//DTD SVG 1.1//EN" "http://www.w3.org/Graphics/SVG/1.1/DTD/svg11.dtd">
<svg version="1.1" id="Layer_1" xmlns="http://www.w3.org/2000/svg" xmlns:xlink="http://www.w3.org/1999/xlink" x="0px" y="0px"
	 width="256px" height="256px" viewBox="0 0 256 256" enable-background="new 0 0 256 256" xml:space="preserve">
<g>
	<defs>
		<rect id="SVGID_1_" width="256" height="256"/>
	</defs>
	<clipPath id="SVGID_2_">
		<use xlink:href="#SVGID_1_"  overflow="visible"/>
	</clipPath>
	<path clip-path="url(#SVGID_2_)" fill="#041E42" d="M200.601,143.667H185v10h15.905c-0.337,8-1.96,16-4.755,23H175v10h28.217
		c5.273-12,8.076-22.839,8.076-35.104c0-44.961-37.364-81.579-83.293-81.579s-83.294,36.637-83.294,81.599
		c0,12.263,2.795,23.084,8.069,35.084H82v-10H59.845c-2.793-7-4.414-15-4.75-23H71v-10H55.399c1.618-15,8.354-29.277,18.525-40.233
		l11.531,11.295l7.173-7.344l-11.094-10.76C93.183,87.192,108,81.26,124,80.381v15.286h10V80.535
		c15,1.289,29.982,7.408,41.267,16.828l-10.381,10.091l7.195,7.412l10.703-10.62C192.546,115.082,199.022,128.667,200.601,143.667"
		/>
	<path clip-path="url(#SVGID_2_)" fill="#041E42" d="M112.514,157.97c1.194,3.861,3.819,7.026,7.394,8.912
		c2.208,1.165,4.614,1.755,7.042,1.755c1.501,0,3.012-0.226,4.488-0.683c3.859-1.193,7.024-3.819,8.911-7.393
		c1.886-3.574,2.268-7.669,1.072-11.53c-1.193-3.86-3.818-7.026-7.393-8.912c-3.573-1.886-7.668-2.266-11.53-1.072
		c-2.152,0.665-4.076,1.789-5.695,3.261L76.26,120.913l-4.814,9.123l40.545,21.395C111.69,153.597,111.848,155.818,112.514,157.97
		 M122.71,151.254c0.6-1.137,1.608-1.972,2.837-2.352c0.469-0.146,0.95-0.218,1.427-0.218c0.773,0,1.538,0.188,2.241,0.558
		c1.138,0.601,1.973,1.608,2.353,2.837c0.381,1.229,0.259,2.531-0.341,3.668c-0.601,1.137-1.607,1.972-2.836,2.353
		c-1.229,0.382-2.533,0.257-3.668-0.341c-1.137-0.601-1.973-1.607-2.352-2.837C121.989,153.694,122.111,152.392,122.71,151.254"/>
	<path clip-path="url(#SVGID_2_)" fill="#041E42" d="M205.966,18.026c-17.673,0-32,14.327-32,32c0,17.673,14.327,32,32,32
		c6.046,0,11.7-1.678,16.523-4.592l-8.006-8.006c-4.699-4.699-9.183-3.935-9.183-3.935c-5.58,0.793-11.451-0.955-15.741-5.247
		c-4.854-4.854-6.438-11.721-4.791-17.911l13.572,13.571l9.582-3.532l3.535-9.585l-13.571-13.57
		c6.188-1.648,13.058-0.066,17.911,4.788c4.292,4.293,6.04,10.165,5.247,15.744c0,0-0.564,4.68,3.936,9.18l8.093,8.094
		c3.096-4.926,4.893-10.751,4.893-16.999C237.966,32.353,223.64,18.026,205.966,18.026"/>
	<polygon clip-path="url(#SVGID_2_)" fill="#041E42" points="41,203.667 31,203.667 31,237.667 41,237.667 41,226.667 65,226.667 
		65,237.667 75,237.667 75,216.667 41,216.667 	"/>
	<path clip-path="url(#SVGID_2_)" fill="#041E42" d="M107,237.667h42v-33h-42V237.667z M139,227.667h-10.507L139,219.06V227.667z
		 M117,214.667h11.635L117,224.486V214.667z"/>
	<polygon clip-path="url(#SVGID_2_)" fill="#041E42" points="214.982,220.08 222.045,213 208.323,199.31 201.26,206.389 
		203.904,209.027 198.015,214.606 192.124,209.027 194.769,206.389 187.705,199.31 173.982,213 181.045,220.08 185.042,216.092 
		190.744,221.494 177.565,233.978 184.442,241.237 198.015,228.381 211.586,241.237 218.463,233.978 205.284,221.494 
		210.985,216.093 	"/>
</g>
</svg>
