<?xml version="1.0" encoding="utf-8"?>
<!-- Generator: Adobe Illustrator 16.0.3, SVG Export Plug-In . SVG Version: 6.00 Build 0)  -->
<!DOCTYPE svg PUBLIC "-//W3C//DTD SVG 1.1//EN" "http://www.w3.org/Graphics/SVG/1.1/DTD/svg11.dtd">
<svg version="1.1" id="Layer_1" xmlns="http://www.w3.org/2000/svg" xmlns:xlink="http://www.w3.org/1999/xlink" x="0px" y="0px"
	 width="256px" height="256px" viewBox="0 0 256 256" enable-background="new 0 0 256 256" xml:space="preserve">
<g>
	<defs>
		<rect id="SVGID_1_" width="256" height="256"/>
	</defs>
	<clipPath id="SVGID_2_">
		<use xlink:href="#SVGID_1_"  overflow="visible"/>
	</clipPath>
	<path clip-path="url(#SVGID_2_)" fill="#041E42" d="M214.53,69.428c-4.699-4.699-9.183-3.935-9.183-3.935
		c-5.58,0.794-11.452-0.955-15.742-5.247c-4.854-4.854-6.438-11.721-4.791-17.91l13.573,13.57l9.582-3.532l3.535-9.585
		l-13.571-13.57c6.188-1.648,13.058-0.066,17.911,4.789c4.292,4.292,6.041,10.164,5.247,15.744c0,0-0.565,4.679,3.935,9.179
		l8.094,8.094c3.096-4.926,4.893-10.751,4.893-16.999c0-17.673-14.327-32-32-32s-32,14.327-32,32s14.327,32,32,32
		c6.046,0,11.7-1.678,16.523-4.592L214.53,69.428z"/>
	<path clip-path="url(#SVGID_2_)" fill="#041E42" d="M50.037,18c-17.68,0-32.013,14.333-32.013,32.013
		c0,17.68,14.333,32.013,32.013,32.013c17.681,0,32.013-14.333,32.013-32.013C82.05,32.333,67.718,18,50.037,18 M50.088,25.27
		c2.357,0.642,4.391,1.196,8.071,0.301l1.182,4.858c-1.82,0.443-3.375,0.611-4.747,0.611c-2.346,0-4.153-0.492-5.82-0.946
		c-2.663-0.725-4.962-1.352-9.716,0.272l-1.616-4.732C43.646,23.515,47.069,24.446,50.088,25.27 M69,66H28V46.373l11.396,5.597
		L39.55,52h0.059l-0.03-0.03l-0.002-5.582l11.213,5.597l-0.003-5.582L62,52V32h7V66z"/>
	<polygon clip-path="url(#SVGID_2_)" fill="#041E42" points="50.804,52 50.79,51.985 50.774,52 	"/>
	<path clip-path="url(#SVGID_2_)" fill="#041E42" d="M120.748,123.552l-3.4,0.616l2.87,17.108l-8.985-14.789l-2.941,1.629
		c-0.396,0.219-3.936,2.197-6.164,4.066c-2.216,1.86-5.007,5.232-5.319,5.61l-2.181,2.653l13.119,11.202l-16.36-5.544l-1.206,3.138
		c-0.163,0.423-1.602,4.214-2.108,7.078c-0.502,2.85-0.473,7.228-0.468,7.717l0.035,3.435l17.247,0.148l-16.093,6.269l1.093,3.179
		c0.148,0.429,1.481,4.259,2.935,6.776c1.447,2.507,4.281,5.841,4.599,6.213l2.236,2.609l13.309-10.974l-8.299,15.147l2.879,1.732
		c0.389,0.233,3.872,2.311,6.605,3.305c2.721,0.99,7.035,1.722,7.518,1.802l3.388,0.562l3.142-16.96l3.379,16.938l3.32-0.524
		c0.447-0.07,4.451-0.719,7.183-1.714c2.721-0.989,6.497-3.203,6.919-3.453l2.956-1.747l-8.494-15.01l13.475,10.803l2.207-2.536
		c0.297-0.342,2.947-3.412,4.401-5.931c1.447-2.507,2.917-6.63,3.079-7.092l1.142-3.239l-16.154-6.038l17.265-0.386l0.061-3.361
		c0.009-0.453,0.064-4.508-0.439-7.371c-0.503-2.852-2.026-6.953-2.199-7.412l-1.207-3.216l-16.26,5.76l12.979-11.396l-2.113-2.613
		c-0.285-0.353-2.848-3.494-5.075-5.364c-2.219-1.861-6.022-4.023-6.448-4.265l-2.992-1.688l-8.771,14.892l2.641-17.19l-3.336-0.621
		c-0.177-0.032-4.362-0.803-7.305-0.803C125.524,122.704,121.228,123.465,120.748,123.552 M104.481,139.656
		c0.735-0.792,1.512-1.578,2.146-2.111c0.589-0.494,1.383-1.049,2.181-1.567l8.703,14.325c-0.096,0.078-0.188,0.158-0.282,0.237
		L104.481,139.656z M94.679,160.531c0.055-1.078,0.144-2.18,0.288-2.996c0.133-0.757,0.385-1.692,0.662-2.603l15.869,5.377
		c-0.023,0.121-0.035,0.245-0.056,0.367L94.679,160.531z M100.588,182.824c-0.651-0.861-1.291-1.763-1.705-2.48
		c-0.384-0.666-0.793-1.544-1.166-2.419l15.616-6.082c0.06,0.107,0.13,0.209,0.192,0.315L100.588,182.824z M119.445,196.103
		c-1.055-0.241-2.124-0.521-2.902-0.804c-0.721-0.263-1.599-0.673-2.447-1.104l8.057-14.704c0.114,0.044,0.23,0.085,0.345,0.127
		L119.445,196.103z M139.687,195.402c-0.723,0.264-1.659,0.513-2.585,0.728l-3.279-16.44c0.116-0.04,0.23-0.084,0.346-0.127
		l8.258,14.591C141.464,194.646,140.466,195.119,139.687,195.402 M158.776,177.889c-0.42,0.996-0.881,2-1.295,2.718
		c-0.385,0.666-0.941,1.459-1.513,2.22l-13.085-10.491c0.063-0.105,0.13-0.208,0.19-0.314L158.776,177.889z M160.848,154.919
		c0.318,1.034,0.609,2.1,0.754,2.916c0.134,0.757,0.218,1.722,0.268,2.672l-16.763,0.375c-0.019-0.122-0.034-0.245-0.056-0.365
		L160.848,154.919z M147.67,135.993c0.908,0.588,1.818,1.216,2.451,1.748c0.589,0.493,1.273,1.179,1.922,1.874l-12.603,11.065
		c-0.093-0.081-0.179-0.17-0.274-0.249L147.67,135.993z M138.338,163.56c0,5.558-4.521,10.079-10.08,10.079
		c-5.557,0-10.079-4.521-10.079-10.079s4.522-10.079,10.079-10.079C133.816,153.48,138.338,158.002,138.338,163.56 M128.533,146.494
		c-0.093-0.001-0.183-0.014-0.275-0.014c-0.023,0-0.045,0.003-0.068,0.003l-2.777-16.551c1.073-0.13,2.171-0.229,2.998-0.229
		c0.769,0,1.73,0.081,2.672,0.189L128.533,146.494z"/>
	<path clip-path="url(#SVGID_2_)" fill="#041E42" d="M183,126v-12.784c-7-3.018-15-5.658-22-7.738V88.583
		C161,84.5,157.7,81,153.617,81h-49.302C100.233,81,97,84.5,97,88.583v16.819c-8,2.075-16,4.732-24,7.814v12.853l-18,8.42v57.985
		l18,8.389v5.829l24.626,18.636l5.645,12.674h51.876l5.554-12.674L183,206.691v-5.776l19-8.436v-57.994L183,126z M73,189.955
		l-8-3.886v-45.187l8-3.9V189.955z M107,91h44v12.006c-7-1.508-14.258-2.373-21.263-2.373c-7.252,0-14.737,0.885-22.737,2.449V91z
		 M173,201.987l-18.675,15.636l-1.663,1.468l-0.898,2.092l-3.051,6.818H109.79l-2.96-6.71l-1.044-2.367l-2.117-1.564L83,201.725
		v-81.567c18-6.323,33.19-9.524,46.432-9.524c12.455,0,26.568,2.938,43.568,9.453V201.987z M192,186.063l-9,3.851v-52.902l9,3.874
		V186.063z"/>
</g>
</svg>
