<?xml version="1.0" encoding="iso-8859-1"?>
<!-- Generator: Adobe Illustrator 19.2.0, SVG Export Plug-In . SVG Version: 6.00 Build 0)  -->
<svg version="1.1" id="Guides" xmlns="http://www.w3.org/2000/svg" xmlns:xlink="http://www.w3.org/1999/xlink" x="0px" y="0px"
	 viewBox="0 0 256 256" style="enable-background:new 0 0 256 256;" xml:space="preserve">
<g>
	<path style="fill:#041E42;" d="M228,215.395c0,3.312-1.326,6.505-3.69,8.871c-2.365,2.364-5.515,3.734-8.828,3.734H40.784
		c-3.312,0-6.595-1.37-8.96-3.734C29.459,221.9,28,218.706,28,215.395V40.7c0-3.312,1.459-6.553,3.824-8.918
		C34.189,29.417,37.473,28,40.784,28H128V18H40.784c-5.983,0-11.778,2.458-16.031,6.711C20.5,28.964,18,34.717,18,40.7v174.694
		c0,5.983,2.5,11.688,6.753,15.941C29.006,235.59,34.801,238,40.784,238h174.698c5.983,0,11.645-2.41,15.899-6.664
		c4.253-4.255,6.619-9.96,6.619-15.941V128h-10V215.395z"/>
	<polygon style="fill:#041E42;" points="174,18 174,28 220.878,28 71.895,177.088 78.93,184.211 228,35.16 228,83 238,83 238,18 	
		"/>
</g>
</svg>
