<?xml version="1.0" encoding="utf-8"?>
<!-- Generator: Adobe Illustrator 16.0.3, SVG Export Plug-In . SVG Version: 6.00 Build 0)  -->
<!DOCTYPE svg PUBLIC "-//W3C//DTD SVG 1.1//EN" "http://www.w3.org/Graphics/SVG/1.1/DTD/svg11.dtd">
<svg version="1.1" id="Layer_1" xmlns="http://www.w3.org/2000/svg" xmlns:xlink="http://www.w3.org/1999/xlink" x="0px" y="0px"
	 width="256px" height="256px" viewBox="0 0 256 256" enable-background="new 0 0 256 256" xml:space="preserve">
<g>
	<defs>
		<rect id="SVGID_1_" width="256" height="256"/>
	</defs>
	<clipPath id="SVGID_2_">
		<use xlink:href="#SVGID_1_"  overflow="visible"/>
	</clipPath>
	<path clip-path="url(#SVGID_2_)" fill="#041E42" d="M214.53,69.428c-4.699-4.699-9.183-3.935-9.183-3.935
		c-5.58,0.794-11.452-0.955-15.742-5.247c-4.854-4.854-6.438-11.721-4.791-17.91l13.573,13.57l9.582-3.532l3.535-9.585
		l-13.571-13.57c6.188-1.648,13.058-0.066,17.911,4.789c4.292,4.292,6.041,10.164,5.247,15.744c0,0-0.565,4.679,3.935,9.179
		l8.094,8.094c3.096-4.926,4.893-10.751,4.893-16.999c0-17.673-14.327-32-32-32s-32,14.327-32,32s14.327,32,32,32
		c6.046,0,11.7-1.678,16.523-4.592L214.53,69.428z"/>
	<path clip-path="url(#SVGID_2_)" fill="#041E42" d="M18,101v119h11.556l10.423,18h176.392l10.423-18H238V101H18z M210.596,228
		H45.754l-4.652-8h174.146L210.596,228z M228,210H28v-99h200V210z"/>
	<rect x="194" y="126" clip-path="url(#SVGID_2_)" fill="#041E42" width="10" height="33"/>
	<rect x="177" y="126" clip-path="url(#SVGID_2_)" fill="#041E42" width="10" height="33"/>
	<rect x="160" y="126" clip-path="url(#SVGID_2_)" fill="#041E42" width="10" height="33"/>
	<rect x="143" y="126" clip-path="url(#SVGID_2_)" fill="#041E42" width="10" height="33"/>
	<polygon clip-path="url(#SVGID_2_)" fill="#041E42" points="67.528,202.95 78.305,169 61,169 84.086,126.009 73.25,160 90.555,160 
			"/>
</g>
</svg>
