<?xml version="1.0" encoding="iso-8859-1"?>
<!-- Generator: Adobe Illustrator 19.2.0, SVG Export Plug-In . SVG Version: 6.00 Build 0)  -->
<svg version="1.1" id="Lager_13" xmlns="http://www.w3.org/2000/svg" xmlns:xlink="http://www.w3.org/1999/xlink" x="0px" y="0px"
	 viewBox="0 0 256 256" style="enable-background:new 0 0 256 256;" xml:space="preserve">
<g>
	<g>
		<path style="fill:#041E42;" d="M190.987,54H64.856c-6.022,0-10.916,4.778-10.916,10.671v126.649
			c0,5.894,4.894,10.679,10.916,10.679h126.131c6.034,0,10.948-4.786,10.948-10.679V64.671C201.936,58.778,197.022,54,190.987,54z
			 M97.841,180.112H75.868v-70.628h21.973V180.112z M86.861,99.834c-7.05,0-12.735-5.703-12.735-12.731
			c0-7.026,5.685-12.729,12.735-12.729c7.022,0,12.723,5.703,12.723,12.729C99.584,94.132,93.883,99.834,86.861,99.834z
			 M180.056,180.112h-21.949v-34.346c0-8.19-0.141-18.727-11.406-18.727c-11.422,0-13.165,8.927-13.165,18.141v34.933h-21.925
			v-70.628h21.041v9.655h0.301c2.927-5.552,10.089-11.408,20.769-11.408c22.225,0,26.333,14.624,26.333,33.646V180.112z"/>
	</g>
</g>
</svg>
