<?xml version="1.0" encoding="iso-8859-1"?>
<!-- Generator: Adobe Illustrator 22.1.0, SVG Export Plug-In . SVG Version: 6.00 Build 0)  -->
<svg version="1.1" id="Lager_13" xmlns="http://www.w3.org/2000/svg" xmlns:xlink="http://www.w3.org/1999/xlink" x="0px" y="0px"
	 viewBox="0 0 256 256" style="enable-background:new 0 0 256 256;" xml:space="preserve">
<path style="fill:#020E45;" d="M109,71v114.262l-36.385-33.814L69.812,149h-3.944H28v-42h38.119h3.957l2.806-2.468L109,70.807
	 M114.214,54.019c-1.207,0-2.397,0.216-3.386,1.233L66.119,97H18v62h47.868l45.007,41.793c0.988,1.011,2.135,1.342,3.339,1.342
	c2.481,0,4.786-2.046,4.786-4.961V58.858C119,55.941,116.695,54.019,114.214,54.019L114.214,54.019z"/>
<polygon style="fill:#020E45;" points="233.49,85.661 226.42,78.588 183.994,121.005 141.578,78.58 134.505,85.65 176.922,128.075 
	134.496,170.492 141.566,177.564 183.992,135.148 226.409,177.574 233.481,170.503 191.064,128.077 "/>
</svg>
