<?xml version="1.0" encoding="utf-8"?>
<!-- Generator: Adobe Illustrator 16.0.3, SVG Export Plug-In . SVG Version: 6.00 Build 0)  -->
<!DOCTYPE svg PUBLIC "-//W3C//DTD SVG 1.1//EN" "http://www.w3.org/Graphics/SVG/1.1/DTD/svg11.dtd">
<svg version="1.1" id="Layer_1" xmlns="http://www.w3.org/2000/svg" xmlns:xlink="http://www.w3.org/1999/xlink" x="0px" y="0px"
	 width="256px" height="256px" viewBox="0 0 256 256" enable-background="new 0 0 256 256" xml:space="preserve">
<g>
	<defs>
		<rect id="SVGID_1_" width="256" height="256"/>
	</defs>
	<clipPath id="SVGID_2_">
		<use xlink:href="#SVGID_1_"  overflow="visible"/>
	</clipPath>
	<path clip-path="url(#SVGID_2_)" fill="#041E42" d="M186,112V93.418l-3.131-1.262C181.941,91.782,159.782,83,128.068,83
		c-31.965,0-54.022,8.786-54.945,9.16L70,93.424V112H54v30.01l2.4,1.461c3.982,2.422,8.554,5.14,13.6,7.631V238h25.488l4.942-14
		h55.5l4.997,14H186v-86.845c5.274-2.455,10.433-5.093,14.127-8.054l1.873-1.501V112H186z M161.177,176.568
		c-9.8,2.65-22.91,4.432-32.624,4.432h-0.189c-9.863,0-23.214-1.836-33.22-4.569c-4.63-1.265-9.496-2.965-15.143-5.294V112h96
		v59.252C171.405,173.187,166.319,175.178,161.177,176.568 M151.776,188.815l-0.927,3.142c-6.648,2.012-16.473,3.226-22.675,3.226
		c-6.202,0-16.027-1.214-22.675-3.226l-0.952-3.229c8.133,1.428,16.677,2.271,23.815,2.271h0.189
		C135.411,191,143.821,190.179,151.776,188.815 M128.068,93c23.044,0,40.978,5.039,47.932,7.327V102H80v-1.677
		C86.937,98.035,104.843,93,128.068,93 M64,136.38V122h6v17.828C67.902,138.68,65.89,137.512,64,136.38 M167.854,228l-4.725-14
		H93.211l-4.781,14H80v-46.099c4.481,1.734,8.562,3.098,12.508,4.176c0.296,0.081,0.602,0.158,0.903,0.237l3.93,13.333l2.314,0.882
		c7.929,3.022,20.612,4.653,28.52,4.653c7.908,0,20.591-1.631,28.52-4.653l2.314-0.882l3.889-13.195
		c0.297-0.078,0.6-0.153,0.891-0.231c4.241-1.147,8.36-2.627,12.212-4.158V228H167.854z M192,136.653
		c-1.728,1.145-3.803,2.287-6,3.397V122h6V136.653z"/>
	<path clip-path="url(#SVGID_2_)" fill="#041E42" d="M214.53,69.428c-4.699-4.699-9.183-3.935-9.183-3.935
		c-5.58,0.794-11.452-0.955-15.742-5.247c-4.854-4.854-6.438-11.721-4.791-17.91l13.573,13.57l9.582-3.532l3.535-9.585
		l-13.571-13.57c6.188-1.648,13.058-0.066,17.911,4.789c4.292,4.292,6.041,10.164,5.247,15.744c0,0-0.565,4.679,3.935,9.179
		l8.094,8.094c3.096-4.926,4.893-10.751,4.893-16.999c0-17.673-14.327-32-32-32s-32,14.327-32,32s14.327,32,32,32
		c6.046,0,11.7-1.678,16.523-4.592L214.53,69.428z"/>
</g>
</svg>
