<?xml version="1.0" encoding="iso-8859-1"?>
<!-- Generator: Adobe Illustrator 19.2.0, SVG Export Plug-In . SVG Version: 6.00 Build 0)  -->
<svg version="1.1" id="Lager_12" xmlns="http://www.w3.org/2000/svg" xmlns:xlink="http://www.w3.org/1999/xlink" x="0px" y="0px"
	 viewBox="0 0 256 256" style="enable-background:new 0 0 256 256;" xml:space="preserve">
<g>
	<path style="fill:#041E42;" d="M199,79V35.604l-2.924-1.381c-21.249-10.604-44.837-16.209-68.066-16.209
		s-46.866,5.604-68.115,16.209L57,35.604V79H36v37.534l2.258,1.467C44.331,121.767,51,125.182,57,128.219V238h30.8l8.612-29h63.038
		l8.611,29H199V128.373c6-3.083,12.719-6.556,18.782-10.397l2.218-1.473V79H199z M57,117.085c-4-1.915-7-3.953-11-6.142V89h11
		V117.085z M189,228h-13.468l-8.611-29H88.942l-8.612,29H67v-95.437c2,0.74,3.784,1.448,5.643,2.126l15.622,52.853l2.336,0.883
		c10.35,3.946,26.957,6.076,37.319,6.076c10.362,0,26.964-2.13,37.313-6.076l2.317-0.883l15.673-52.635
		c1.882-0.686,3.777-1.404,5.777-2.155V228z M84.271,138.426C99.068,142.736,114.015,145,128.17,145h0.239
		c13.99,0,28.66-2.187,43.122-6.368l-12.145,41.224c-9.002,2.877-22.832,4.634-31.456,4.634s-22.454-1.741-31.455-4.618
		L84.271,138.426z M189,121.912C169,130.4,147.968,135,128.409,135h-0.239C108.556,135,87,130.337,67,121.737V89h122V121.912z
		 M189,79H67V41.827c19-9.045,40.314-13.812,61-13.812c20.685,0,42,4.768,61,13.812V79z M210,110.974c-4,2.228-8,4.299-11,6.242V89
		h11V110.974z"/>
</g>
</svg>
