<?xml version="1.0" encoding="iso-8859-1"?>
<!-- Generator: Adobe Illustrator 19.2.0, SVG Export Plug-In . SVG Version: 6.00 Build 0)  -->
<svg version="1.1" id="Lager_13" xmlns="http://www.w3.org/2000/svg" xmlns:xlink="http://www.w3.org/1999/xlink" x="0px" y="0px"
	 viewBox="0 0 256 256" style="enable-background:new 0 0 256 256;" xml:space="preserve">
<g>
	<path style="fill:#041E42;" d="M181.431,54.06H74.598c-11.347,0-20.545,9.198-20.545,20.545v106.833
		c0,11.346,9.198,20.545,20.545,20.545h106.833c11.347,0,20.545-9.198,20.545-20.545V74.604
		C201.976,63.258,192.777,54.06,181.431,54.06z M128.015,99.258c15.885,0,28.763,12.878,28.763,28.763
		c0,15.885-12.878,28.763-28.763,28.763s-28.763-12.878-28.763-28.763C99.252,112.135,112.129,99.258,128.015,99.258z
		 M185.54,181.437c0,2.269-1.84,4.109-4.109,4.109H74.598c-2.269,0-4.109-1.84-4.109-4.109v-65.743h14.043
		c-1.109,3.92-1.716,8.051-1.716,12.327c0,24.962,20.236,45.198,45.198,45.198s45.198-20.236,45.198-45.198
		c0-4.275-0.607-8.407-1.716-12.327h14.043V181.437z M185.54,95.149c0,2.269-1.84,4.109-4.109,4.109h-20.545
		c-2.269,0-4.109-1.84-4.109-4.109V74.604c0-2.269,1.84-4.109,4.109-4.109h20.545c2.269,0,4.109,1.84,4.109,4.109V95.149z"/>
</g>
</svg>
