<?xml version="1.0" encoding="iso-8859-1"?>
<!-- Generator: Adobe Illustrator 22.1.0, SVG Export Plug-In . SVG Version: 6.00 Build 0)  -->
<svg version="1.1" id="Layer_1" xmlns="http://www.w3.org/2000/svg" xmlns:xlink="http://www.w3.org/1999/xlink" x="0px" y="0px"
	 viewBox="0 0 256 256" style="enable-background:new 0 0 256 256;" xml:space="preserve">
<path style="fill:#161743;" d="M232.67,121.017c-0.886-5.067-5.092-8.797-10.229-9.07l-55.645-2.954l-4.121,13.363v49.564H35.926
	V179v2.92v21.982h27.917c1.548,5.017,5.322,9.048,10.163,10.969c0.398,0.162,0.802,0.311,1.214,0.444
	c0.012,0.004,0.024,0.007,0.036,0.011c1.644,0.526,3.392,0.82,5.209,0.82c7.697,0,14.226-5.093,16.396-12.086
	c0.53-1.661,0.822-3.429,0.822-5.266c0-1.737-0.263-3.412-0.739-4.993l10.181,10.181h36.968h5h25.917
	c2.146,7.032,8.692,12.164,16.416,12.164c9.464,0,17.164-7.7,17.164-17.164s-7.7-17.164-17.164-17.164
	c-7.725,0-14.27,5.132-16.416,12.164h-25.917V181.92h17.145l2.432,6.164h6.112l1.499-1.787c3.769-4.492,9.288-7.069,15.145-7.069
	c10.893,0,19.754,8.861,19.754,19.754v8.002h26.83v-55.42L232.67,121.017z M63.787,193.903H45.926V181.92h30.659
	C70.448,183.295,65.548,187.922,63.787,193.903z M80.551,206.146c-3.95,0-7.164-3.214-7.164-7.164s3.214-7.164,7.164-7.164
	s7.164,3.214,7.164,7.164S84.501,206.146,80.551,206.146z M120.26,193.982h-8.992L99.206,181.92h21.054V193.982z M139.093,193.982
	h-8.833V181.92h8.833V193.982z M191.426,191.818c3.95,0,7.164,3.214,7.164,7.164s-3.214,7.164-7.164,7.164s-7.164-3.214-7.164-7.164
	S187.475,191.818,191.426,191.818z M227.679,150.541l-34.811-5.13l-3.702-8.562l0.515-3.454l35.132,0.747L227.679,150.541z
	 M228.01,175.859h-5.708v16.896l5.708,1.438v2.791h-6.896c-1.03-15.479-13.952-27.756-29.688-27.756
	c-6.268,0-12.278,1.958-17.269,5.519l-1.481-3.755v-47.129l1.379-4.47l47.857,2.541c0.456,0.024,0.829,0.355,0.907,0.806
	l0.238,1.363l-41.969-0.891l-2.235,14.987l7.048,16.294l42.108,6.206V175.859z"/>
<path style="fill:#161743;" d="M153,162L79.786,89.214l-7.367,7.34V144H78c3.86,0,7,3.141,7,7s-3.14,7-7,7s-7-3.141-7-7H61
	c0,9.374,7.626,17,17,17s17-7.626,17-17c0-7.417-4.782-13.723-11.419-16.039v-18.828L110,162.103V172h43V162L153,162z M138.429,162
	h-16.954l-22.909-39.863L138.429,162z"/>
</svg>
