<?xml version="1.0" encoding="iso-8859-1"?>
<!-- Generator: Adobe Illustrator 19.2.0, SVG Export Plug-In . SVG Version: 6.00 Build 0)  -->
<svg version="1.1" id="Lager_13" xmlns="http://www.w3.org/2000/svg" xmlns:xlink="http://www.w3.org/1999/xlink" x="0px" y="0px"
	 viewBox="0 0 256 256" style="enable-background:new 0 0 256 256;" xml:space="preserve">
<path style="fill:#041E42;" d="M187.01,209.888c-1.377-2.424-4.091-3.888-7.05-3.888H174v-22.841c0-8.533-2.126-16.838-6.277-23.681
	l-21.651-31.519c0,0,14.105-19.209,21.663-31.717C171.862,89.411,174,81.135,174,72.629V50h5.96c2.958,0,5.673-1.413,7.05-3.838
	l9.879-17.374C199.679,23.877,195.833,18,189.84,18H66.098c-5.993,0-9.839,5.929-7.05,10.841l9.88,17.306
	C70.305,48.571,73.019,50,75.977,50H82v22.629c0,8.506,2.369,16.782,6.497,23.613c7.558,12.508,21.822,31.717,21.822,31.717
	l-21.817,31.519C84.35,166.321,82,174.626,82,183.159V206h-6.023c-2.958,0-5.673,1.463-7.05,3.888l-9.879,17.349
	C56.258,232.148,60.105,238,66.098,238H189.84c5.993,0,9.839-5.852,7.05-10.763L187.01,209.888z M70.089,28h115.76l-6.898,12H76.988
	L70.089,28z M92,183.159c0-6.599,1.872-13.074,4.958-18.266l21.6-31.265l4.084-5.872l-4.211-5.735
	c-0.139-0.188-14.15-18.976-21.386-30.95C93.897,85.861,92,79.311,92,72.629V50h72v22.629c0,6.577-1.561,13.127-4.773,18.442
	c-7.221,11.95-21.045,30.74-21.185,30.928l-4.215,5.749l4.093,5.892l21.382,31.26c3.157,5.307,4.699,11.779,4.699,18.259V206H92
	V183.159z M70.089,228l6.898-12H178.95l6.899,12H70.089z"/>
</svg>
