<?xml version="1.0" encoding="utf-8"?>
<!-- Generator: Adobe Illustrator 16.0.3, SVG Export Plug-In . SVG Version: 6.00 Build 0)  -->
<!DOCTYPE svg PUBLIC "-//W3C//DTD SVG 1.1//EN" "http://www.w3.org/Graphics/SVG/1.1/DTD/svg11.dtd">
<svg version="1.1" id="Layer_1" xmlns="http://www.w3.org/2000/svg" xmlns:xlink="http://www.w3.org/1999/xlink" x="0px" y="0px"
	 width="256px" height="256px" viewBox="0 0 256 256" enable-background="new 0 0 256 256" xml:space="preserve">
<g>
	<defs>
		<rect id="SVGID_1_" width="256" height="256"/>
	</defs>
	<clipPath id="SVGID_2_">
		<use xlink:href="#SVGID_1_"  overflow="visible"/>
	</clipPath>
	<path clip-path="url(#SVGID_2_)" fill="#161743" d="M221.304,128h-10v-1.411c0-45.155-36.737-81.893-81.893-81.893H128v-10h1.412
		c50.67,0,91.893,41.223,91.893,91.893V128z"/>
	<path clip-path="url(#SVGID_2_)" fill="#161743" d="M184.217,128h-10v-1.411c0-24.706-20.1-44.806-44.806-44.806h-1.396v-10h1.396
		c30.22,0,54.806,24.586,54.806,54.806V128z"/>
	<path clip-path="url(#SVGID_2_)" fill="#161743" d="M182.695,237.888c-1.531,0-3.256-0.27-5.211-0.87l-0.281-0.096
		c-39.113-14.626-70.163-32.656-94.92-55.121l-0.177-0.168l-7.943-7.955c-22.472-24.767-40.507-55.82-55.134-94.935l-0.096-0.281
		c-3.664-11.913,4.966-15.324,11.9-18.066c4.974-2.064,10.012-4.174,15.051-6.285c4.704-1.97,9.408-3.941,14.124-5.899l0.161-0.065
		c4.356-1.634,10.833-1.9,16.942,6.13l0.206,0.292c3.689,5.645,7.332,11.235,10.973,16.824c3.781,5.8,7.56,11.6,11.389,17.457
		l0.217,0.364c3.627,6.729,3.242,12.652-1.145,17.606c-2.701,2.934-5.514,5.531-8.235,8.041c-1.787,1.65-3.509,3.238-5.154,4.868
		c2.957,5.584,5.513,10.408,8.56,15.121c3.362,5.2,7.469,10.239,12.207,14.979c4.745,4.744,9.788,8.854,14.99,12.214
		c4.7,3.036,9.51,5.584,15.08,8.534l0.02,0.011c1.622-1.638,3.197-3.348,4.832-5.122c2.494-2.708,5.073-5.509,7.936-8.146
		c5.05-4.473,10.983-4.87,17.709-1.244l0.363,0.217c5.793,3.787,11.533,7.521,17.274,11.256c5.655,3.679,11.312,7.357,17.021,11.089
		l0.292,0.206c8.03,6.108,7.77,12.579,6.137,16.933l-0.064,0.161c-1.957,4.714-3.927,9.415-5.896,14.115
		c-2.11,5.04-4.221,10.079-6.317,15.133C193.239,230.916,190.482,237.888,182.695,237.888 M180.559,227.5
		c1.816,0.545,2.346,0.408,2.367,0.402c0.347-0.21,1.284-1.348,3.311-6.472c2.132-5.142,4.246-10.191,6.361-15.242
		c1.954-4.664,3.907-9.328,5.851-14.006c0.377-1.013,0.828-2.53-2.724-5.278c-5.649-3.692-11.248-7.333-16.845-10.974
		c-5.687-3.699-11.371-7.396-17.107-11.146c-3.848-2.026-5.035-0.973-6.085-0.044c-2.487,2.293-4.816,4.821-7.283,7.499
		c-2.494,2.708-5.073,5.508-7.935,8.145l-2.608,2.403l-6.344-3.374c-5.774-3.06-10.762-5.7-15.825-8.971
		c-5.794-3.743-11.391-8.3-16.634-13.544c-5.237-5.236-9.79-10.828-13.535-16.619c-3.285-5.083-5.939-10.09-9.009-15.887
		l-3.353-6.305l2.403-2.608c2.635-2.86,5.448-5.457,8.169-7.967c2.693-2.485,5.237-4.832,7.596-7.394
		c0.851-0.961,1.885-2.129-0.143-5.983c-3.79-5.798-7.531-11.539-11.274-17.283c-3.606-5.533-7.211-11.067-10.864-16.654
		c-2.748-3.55-4.271-3.095-5.287-2.718c-4.679,1.944-9.347,3.9-14.015,5.855c-5.048,2.115-10.098,4.229-15.16,6.329
		c-5.196,2.055-6.331,2.995-6.551,3.375c0.003,0-0.129,0.535,0.415,2.349c14.147,37.79,31.497,67.715,53.037,91.481l7.603,7.606
		C112.85,196.008,142.771,213.354,180.559,227.5"/>
</g>
</svg>
