<?xml version="1.0" encoding="iso-8859-1"?>
<!-- Generator: Adobe Illustrator 22.1.0, SVG Export Plug-In . SVG Version: 6.00 Build 0)  -->
<svg version="1.1" id="Lager_6" xmlns="http://www.w3.org/2000/svg" xmlns:xlink="http://www.w3.org/1999/xlink" x="0px" y="0px"
	 viewBox="0 0 256 256" style="enable-background:new 0 0 256 256;" xml:space="preserve">
<g>
	<path d="M127.51,74.995c35.192,0,67.206,13.781,90.999,36.198l16.657-16.657C207.13,67.886,169.245,51.5,127.51,51.5
		c-41.735,0-79.62,16.386-107.656,43.035l16.657,16.657C60.304,88.776,92.319,74.995,127.51,74.995z"/>
	<path d="M188.518,141.184c-16.076-14.723-37.49-23.713-61.008-23.713s-44.932,8.99-61.008,23.713l16.702,16.702
		c11.811-10.49,27.303-16.921,44.305-16.921c17.002,0,32.494,6.431,44.305,16.921L188.518,141.184z"/>
	<path d="M109.942,184.624l17.565,17.565l0.003,0l0.003,0l17.565-17.565c-4.888-3.706-10.961-5.93-17.568-5.93
		C120.903,178.693,114.831,180.918,109.942,184.624z"/>
</g>
</svg>
