<?xml version="1.0" encoding="iso-8859-1"?>
<!-- Generator: Adobe Illustrator 19.2.0, SVG Export Plug-In . SVG Version: 6.00 Build 0)  -->
<svg version="1.1" xmlns="http://www.w3.org/2000/svg" xmlns:xlink="http://www.w3.org/1999/xlink" x="0px" y="0px"
	 viewBox="0 0 256 256" style="enable-background:new 0 0 256 256;" xml:space="preserve">
<g id="Lager_12">
</g>
<g id="Lager_13">
	<g>
		<path style="fill:#041E42;" d="M193.502,45.099c-17.363-17.364-40.452-26.928-65.012-26.928s-47.648,9.563-65.013,26.928
			C46.11,62.465,36.545,85.555,36.545,110.113c0,24.56,9.564,47.649,26.932,65.016l65.016,62.364l64.935-62.291l0.074-0.073
			C229.352,139.279,229.352,80.948,193.502,45.099z M186.467,168.022l-57.974,55.613l-57.98-55.613
			c-15.457-15.474-23.968-36.037-23.968-57.909c0-21.888,8.524-42.466,24.003-57.944c15.475-15.475,36.053-23.998,57.941-23.998
			c21.889,0,42.466,8.522,57.942,23.998C218.37,84.108,218.383,136.068,186.467,168.022z"/>
		<path style="fill:#041E42;" d="M128.493,73.149c-20.382,0-36.964,16.582-36.964,36.964c0,20.379,16.582,36.958,36.964,36.958
			c20.379,0,36.958-16.579,36.958-36.958C165.451,89.731,148.872,73.149,128.493,73.149z M128.493,137.071
			c-14.868,0-26.964-12.094-26.964-26.958c0-14.868,12.096-26.964,26.964-26.964c14.864,0,26.958,12.096,26.958,26.964
			C155.451,124.978,143.357,137.071,128.493,137.071z"/>
	</g>
</g>
</svg>
