<?xml version="1.0" encoding="utf-8"?>
<!-- Generator: Adobe Illustrator 22.1.0, SVG Export Plug-In . SVG Version: 6.00 Build 0)  -->
<svg version="1.1" id="Layer_3" xmlns="http://www.w3.org/2000/svg" xmlns:xlink="http://www.w3.org/1999/xlink" x="0px" y="0px"
	 viewBox="0 0 256 256" style="enable-background:new 0 0 256 256;" xml:space="preserve">
<style type="text/css">
	.st0{fill:#020E45;}
</style>
<path class="st0" d="M187.3,68.6c-1.2-8.7-3.6-24.6-16.3-25.7L65.4,36.8l-7.3,22v97.6l11.4,27.5h7.6l1.5-1.7
	c7.7-9,18.1-13.9,29.4-13.9c21.3,0,38,17.3,38,39.5V219h49.1V113.9L187.3,68.6z M185.1,114.8v3.5l-77.5-12.3l-8.2-19.7l1.4-13.7
	l77.3,1.8L185.1,114.8z M156,209v-1.4c0-27.7-21.1-49.5-48-49.5c-12.3,0-23.8,4.6-32.9,13.1l-7-16.9v-94l4.4-13.2l90.7,5.2l7.1,0.4
	c3.3,0.3,5.1,6.2,6.2,11.4l-84.6-1.9l-2.5,25.4l11.3,27.2l84.5,13.4v44.5h-14.7V196l14.7,1.8V209H156z"/>
</svg>
