<?xml version="1.0" encoding="utf-8"?>
<!-- Generator: Adobe Illustrator 16.0.3, SVG Export Plug-In . SVG Version: 6.00 Build 0)  -->
<!DOCTYPE svg PUBLIC "-//W3C//DTD SVG 1.1//EN" "http://www.w3.org/Graphics/SVG/1.1/DTD/svg11.dtd">
<svg version="1.1" id="Layer_1" xmlns="http://www.w3.org/2000/svg" xmlns:xlink="http://www.w3.org/1999/xlink" x="0px" y="0px"
	 width="256px" height="256px" viewBox="0 0 256 256" enable-background="new 0 0 256 256" xml:space="preserve">
<g>
	<defs>
		<rect id="SVGID_1_" width="256" height="256"/>
	</defs>
	<clipPath id="SVGID_2_">
		<use xlink:href="#SVGID_1_"  overflow="visible"/>
	</clipPath>
	<path clip-path="url(#SVGID_2_)" fill="#041E42" d="M68.819,211.106c1.029,1.252,1.87,2.663,2.495,4.186
		c0.624-1.522,1.465-2.934,2.494-4.186c0.031-0.037,0.064-0.071,0.097-0.106h-5.184C68.752,211.037,68.788,211.069,68.819,211.106"
		/>
	<path clip-path="url(#SVGID_2_)" fill="#041E42" d="M222.476,125.474c-13.035-1.58-58.771-6.838-58.771-6.838L157,145.241v49.345
		l4.416,12.039c-2.083-0.959-4.394-1.508-6.837-1.508c-2.799,0-5.432,0.705-7.737,1.941c-0.068,0.037-0.133,0.083-0.202,0.122
		L152,153.87v-36.797l67.282-5.884l-0.973-9.96L142,107.911v25.539l-45.692-17.876c-4.394-1.915-9.32-1.679-13.668,0.243L41.131,134
		h-7.757l-15.416,37.97l14.567,35.914l-7.089,6.96l7.034,7.079l10.521-10.144c-2.013,2.721-3.218,6.076-3.218,9.721
		c0,9.048,7.335,16.383,16.383,16.383c6.85,0,12.711-4.207,15.158-10.176c2.447,5.969,8.308,10.176,15.157,10.176
		c9.048,0,16.383-7.335,16.383-16.383c0-0.391,0.007-0.773-0.02-1.156v-0.007l3.852,3.663h31.72
		c1.207,7.858,7.977,13.883,16.173,13.883c9.048,0,16.383-7.339,16.383-16.387c0-3.993-1.432-7.496-3.806-10.496h10.461l5.437-4.742
		c6.281-4.81,16.114-4.308,21.822,1.171l0.634,0.584c2.865,3.031,5.49,7.023,5.49,11.072V229h27v-55.261l-6.412-39.372
		C230.788,129.611,227.126,126.037,222.476,125.474 M142,144v9.352l-1.714,18.277l-27.919,0.215L121.561,144H142z M86.742,124.981
		c1.85-0.817,3.97-0.702,5.816,0.121L115.105,134H66.368L86.742,124.981z M28.805,171.925L40.122,144h26.561l-9.249,27.823
		L28.805,171.925z M40.617,201l-7.893-19.466l21.412-0.02L47.702,201H40.617z M56.156,227.883c-3.519,0-6.383-2.864-6.383-6.383
		c0-3.52,2.864-6.383,6.383-6.383c3.52,0,6.383,2.863,6.383,6.383C62.539,225.019,59.676,227.883,56.156,227.883 M73.808,211.107
		c-1.029,1.252-1.87,2.661-2.494,4.185c-0.624-1.523-1.466-2.933-2.495-4.185c-0.03-0.038-0.066-0.07-0.098-0.107h5.184
		C73.872,211.035,73.839,211.07,73.808,211.107 M86.471,227.883c-3.519,0-6.383-2.864-6.383-6.383c0-3.52,2.864-6.383,6.383-6.383
		c3.52,0,6.383,2.863,6.383,6.383C92.854,225.019,89.991,227.883,86.471,227.883 M92.389,201H58.232l6.433-19.454l34.044-0.013
		L92.389,201z M101.95,171.84l-33.988,0.101L77.213,144h33.836L101.95,171.84z M102.901,201l6.318-19.436l30.213-0.017L137.407,201
		H102.901z M141.916,211.107c-0.731,0.889-1.359,1.861-1.892,2.893h-29.376l-3.076-3h34.441
		C141.982,211.037,141.946,211.07,141.916,211.107 M154.579,227.883c-3.521,0-6.383-2.864-6.383-6.383
		c0-3.52,2.862-6.383,6.383-6.383c3.52,0,6.383,2.863,6.383,6.383C160.962,225.019,158.099,227.883,154.579,227.883
		 M227.039,168.647l-34.061-6.751l-4.402-9.057l0.611-3.611l35.035,2.124L227.039,168.647z M228,197h-5v16.678l5,0.953V219h-8
		c-0.022-7-2.989-13.838-8.148-18.789l-1.464-1.352l-0.113-0.001c-9.363-7.714-22.723-8.035-32.496-0.548L174.242,201h-4.235
		L167,192.811v-46.329l4.261-16.911c10.956,1.263,39.54,4.562,50.013,5.831c0.294,0.035,0.408,0.358,0.449,0.599l0.853,5.234
		l-41.744-2.53l-2.649,15.624l7.977,16.412L228,179.031V197z"/>
	<path clip-path="url(#SVGID_2_)" fill="#041E42" d="M192.976,205.117c-9.048,0-16.383,7.335-16.383,16.383
		s7.335,16.383,16.383,16.383s16.383-7.335,16.383-16.383S202.023,205.117,192.976,205.117 M192.976,227.883
		c-3.521,0-6.383-2.863-6.383-6.383c0-3.521,2.862-6.383,6.383-6.383c3.52,0,6.383,2.862,6.383,6.383
		C199.358,225.02,196.495,227.883,192.976,227.883"/>
	<path clip-path="url(#SVGID_2_)" fill="#041E42" d="M204.976,40.478l-0.345,0.024c-0.203,0.011-0.386,0.039-0.581,0.057
		c0.196-0.018,0.382-0.046,0.585-0.057L204.976,40.478z"/>
	<path clip-path="url(#SVGID_2_)" fill="#041E42" d="M207.643,44.011l-0.668-0.206l0.668,0.255c0.869,0.275,1.607,0.714,2.189,1.268
		C209.251,44.757,208.515,44.287,207.643,44.011"/>
	<path clip-path="url(#SVGID_2_)" fill="#041E42" d="M216.022,46.953c0.104,0.447,0.174,0.913,0.205,1.402
		C216.196,47.866,216.126,47.4,216.022,46.953"/>
	<path clip-path="url(#SVGID_2_)" fill="#041E42" d="M195.595,48.23c0-0.677,0.086-1.331,0.261-1.957
		c-0.183,0.626-0.276,1.28-0.276,1.957c0,1.929,0.524,3.44,1.625,4.492c0.965,0.924,2.464,1.689,4.532,2.282
		c-2.055-0.593-3.51-1.358-4.475-2.282C196.162,51.67,195.595,50.159,195.595,48.23"/>
	<path clip-path="url(#SVGID_2_)" fill="#041E42" d="M213.069,42.517c-1.4-1.031-3.282-1.718-5.624-1.937l-0.471-0.043l0.471,0.092
		C209.783,40.847,211.668,41.502,213.069,42.517"/>
	<path clip-path="url(#SVGID_2_)" fill="#041E42" d="M214.987,44.543c0.21,0.321,0.397,0.654,0.556,1.002
		C215.385,45.197,215.198,44.864,214.987,44.543"/>
	<path clip-path="url(#SVGID_2_)" fill="#041E42" d="M214.142,43.468c0.256,0.276,0.49,0.562,0.7,0.86
		C214.632,44.03,214.397,43.744,214.142,43.468"/>
	<path clip-path="url(#SVGID_2_)" fill="#041E42" d="M215.609,45.696c0.163,0.383,0.299,0.781,0.398,1.199
		C215.907,46.478,215.773,46.079,215.609,45.696"/>
	<path clip-path="url(#SVGID_2_)" fill="#041E42" d="M210.396,64.217c0.151-0.108,0.308-0.212,0.444-0.336
		c0.846-0.771,1.133-1.84,1.133-3.177c0,1.337-0.295,2.406-1.141,3.177C210.696,64.005,210.545,64.109,210.396,64.217"/>
	<path clip-path="url(#SVGID_2_)" fill="#041E42" d="M204.509,65.054l0.467,0.122l-0.467-0.215c-1.521-0.311-2.57-1.103-3.383-2.172
		c-0.709-0.933-1.13-1.44-1.256-3.439c0.126,1.999,0.48,2.506,1.189,3.439C201.873,63.858,202.988,64.744,204.509,65.054"/>
	<path clip-path="url(#SVGID_2_)" fill="#041E42" d="M199.978,48.113c0,0.98,0.404,1.777,1.088,2.366
		c0.326,0.282,0.748,0.529,1.259,0.745c-0.478-0.216-0.866-0.463-1.192-0.745C200.449,49.89,199.978,49.093,199.978,48.113"/>
	<path clip-path="url(#SVGID_2_)" fill="#041E42" d="M197.441,65.417c-1.452-1.518-2.244-3.067-2.36-6.066
		c0.116,2.999,0.843,4.548,2.295,6.066c1.552,1.627,3.953,2.752,7.267,2.976l0.333,0.033l-0.333-0.126
		C201.329,68.075,198.994,67.043,197.441,65.417"/>
	<path clip-path="url(#SVGID_2_)" fill="#041E42" d="M206.013,23.364c-17.673,0-32,14.327-32,32.001c0,17.673,14.327,32,32,32
		s32.001-14.327,32.001-32C238.014,37.691,223.686,23.364,206.013,23.364 M214.436,65.908c-1.632,1.473-3.972,2.31-6.961,2.484
		L207,68.42V71h-2v-2.575l-0.346-0.033c-3.313-0.224-5.721-1.524-7.272-3.151C195.931,63.723,195.197,62,195.08,59h4.789
		c0.126,2,0.548,2.681,1.256,3.614c0.814,1.069,1.875,1.949,3.396,2.259L205,65.176v-9.399l-2.102-0.471
		c-0.405-0.095-0.79-0.197-1.156-0.302c-2.068-0.594-3.569-1.358-4.536-2.282c-1.1-1.052-1.627-2.564-1.627-4.492
		c0-0.677,0.095-1.331,0.278-1.958c0.175-0.626,0.439-1.225,0.795-1.792c0.714-1.138,1.736-2.068,3.102-2.765
		c1.239-0.629,2.659-1.008,4.297-1.156c0.193-0.018,0.39-0.046,0.592-0.057L205,40.479V37h2v3.536l0.457,0.043
		c2.343,0.219,4.219,0.907,5.618,1.938c0.355,0.257,0.686,0.532,0.977,0.836c0.034,0.037,0.058,0.078,0.092,0.115
		c0.256,0.276,0.489,0.562,0.699,0.86c0.05,0.071,0.098,0.143,0.146,0.215c0.211,0.321,0.396,0.654,0.554,1.002
		c0.023,0.05,0.045,0.1,0.067,0.15c0.164,0.383,0.298,0.782,0.399,1.2c0.005,0.019,0.009-0.139,0.014-0.12
		c0.104,0.447,0.173,1.225,0.205,1.225h-4.849c-0.142-1-0.491-1.554-1.024-2.258c-0.157-0.206-0.332-0.315-0.522-0.503
		c-0.583-0.554-1.308-0.949-2.177-1.224L207,43.804v8.559l2.111,0.526c2.706,0.601,4.717,1.491,5.956,2.646
		c1.219,1.133,1.807,2.696,1.807,4.78C216.874,62.606,216.069,64.436,214.436,65.908"/>
	<path clip-path="url(#SVGID_2_)" fill="#041E42" d="M210.396,64.217c0.148-0.108,0.313-0.212,0.45-0.336
		c0.845-0.771,1.153-1.84,1.153-3.177v-0.311c0-1.078-0.224-1.937-0.899-2.553c-0.642-0.583-1.455-1.016-2.779-1.327L207,56.222
		v9.049l0.552-0.053C208.766,65.101,209.653,64.757,210.396,64.217"/>
	<path clip-path="url(#SVGID_2_)" fill="#041E42" d="M201.318,44.985c-0.8,0.77-1.318,1.717-1.318,2.816v0.312
		c0,0.98,0.46,1.776,1.143,2.366c0.327,0.282,0.71,0.528,1.187,0.745c0.456,0.207,1,0.386,1.649,0.541L205,51.931v-8.247
		l-0.467,0.032C203.146,43.8,202.106,44.227,201.318,44.985"/>
</g>
</svg>
