<?xml version="1.0" encoding="iso-8859-1"?>
<!-- Generator: Adobe Illustrator 19.2.0, SVG Export Plug-In . SVG Version: 6.00 Build 0)  -->
<svg version="1.1" id="Lager_13" xmlns="http://www.w3.org/2000/svg" xmlns:xlink="http://www.w3.org/1999/xlink" x="0px" y="0px"
	 viewBox="0 0 256 256" style="enable-background:new 0 0 256 256;" xml:space="preserve">
<path style="fill:#041E42;" d="M201.785,82.09c-5.444,2.414-11.295,4.047-17.436,4.78c6.268-3.757,11.082-9.707,13.349-16.796
	c-5.866,3.479-12.363,6.006-19.278,7.367c-5.538-5.9-13.428-9.587-22.159-9.587c-16.767,0-30.36,13.593-30.36,30.358
	c0,2.38,0.269,4.696,0.786,6.918c-25.231-1.266-47.6-13.352-62.574-31.72c-2.613,4.484-4.11,9.699-4.11,15.262
	c0,10.532,5.36,19.825,13.505,25.269c-4.976-0.158-9.658-1.523-13.751-3.797c-0.002,0.127-0.003,0.254-0.003,0.382
	c0,14.709,10.465,26.98,24.353,29.768c-2.548,0.693-5.23,1.065-7.998,1.065c-1.956,0-3.858-0.19-5.712-0.544
	c3.863,12.061,15.075,20.838,28.359,21.084c-10.39,8.142-23.48,12.995-37.703,12.995c-2.45,0-4.867-0.144-7.242-0.424
	c13.435,8.614,29.393,13.639,46.537,13.639c55.841,0,86.376-46.259,86.376-86.377c0-1.316-0.03-2.625-0.088-3.927
	C192.568,93.525,197.715,88.178,201.785,82.09z"/>
</svg>
