<?xml version="1.0" encoding="iso-8859-1"?>
<!-- Generator: Adobe Illustrator 22.1.0, SVG Export Plug-In . SVG Version: 6.00 Build 0)  -->
<svg version="1.1" id="Lager_12" xmlns="http://www.w3.org/2000/svg" xmlns:xlink="http://www.w3.org/1999/xlink" x="0px" y="0px"
	 viewBox="0 0 256 256" style="enable-background:new 0 0 256 256;" xml:space="preserve">
<g>
	<path style="fill:#161743;" d="M238.207,134.655c0-59.413-49.391-107.749-110.099-107.749C67.394,26.906,18,75.242,18,134.655
		c0,26.335,9.831,51.684,27.688,71.402l-0.014,0.013l0.246,0.245c0.14,0.154,0.278,0.311,0.415,0.466
		c0.311,0.351,0.622,0.702,0.946,1.042l0.117,0.122l5.299,5.326l25.103-24.45l0.126-0.122l-7.02-7.208L52.9,199.269
		C37.599,182.251,28.809,160,28.131,138H51v-11H28.359c1.667-22,11.244-43.218,26.983-59.521L72.22,83.927l0.126,0.181l6.99-7.201
		L62.81,60.813C79.82,46.43,101,38.016,124,37.077V59h10V37.137c22,1.242,43.901,9.986,60.715,24.639l-15.581,15.039l-0.146,0.122
		l6.864,7.106l0.117,0.125l15.911-15.643C217.01,84.657,226.225,106,227.849,127H205v11h23.076
		c-0.663,22-9.102,43.339-23.779,60.166l-16.775-16.436l-0.125-0.18l-7.013,7.179l24.006,23.347l0.126,0.116l4.291-4.234
		l0.119-0.128c0.6-0.64,1.189-1.302,1.758-1.94l0.833-0.914l-0.01-0.011C228.727,185.426,238.207,160.463,238.207,134.655z"/>
	<rect x="89" y="219" style="fill:#161743;" width="81" height="10"/>
	<path style="fill:#161743;" d="M109.098,142.815c1.463,4.712,4.664,8.568,9.014,10.857c2.654,1.404,5.621,2.145,8.58,2.145
		c1.83,0,3.67-0.28,5.47-0.833c4.707-1.458,8.565-4.659,10.864-9.014c2.301-4.359,2.765-9.348,1.305-14.05
		c-1.453-4.707-4.652-8.566-9.007-10.865c-4.356-2.301-9.35-2.765-14.057-1.305c-3,0.929-5.724,2.619-7.884,4.893L57.641,95.224
		l-0.155-0.082l-4.697,8.903l55.898,29.495C108.029,136.607,108.171,139.81,109.098,142.815z M134.725,134.893
		c0.659,2.141,0.448,4.409-0.593,6.386c-1.047,1.98-2.802,3.432-4.942,4.09c-2.14,0.659-4.409,0.449-6.386-0.592
		c-1.982-1.049-3.434-2.802-4.091-4.935c-0.663-2.134-0.453-4.401,0.594-6.386c1.042-1.978,2.794-3.433,4.934-4.098
		c0.804-0.247,1.641-0.372,2.49-0.372c1.374,0,2.685,0.328,3.898,0.974C132.601,130.992,134.056,132.744,134.725,134.893z"/>
</g>
</svg>
