<?xml version="1.0" encoding="utf-8"?>
<!-- Generator: Adobe Illustrator 16.0.3, SVG Export Plug-In . SVG Version: 6.00 Build 0)  -->
<!DOCTYPE svg PUBLIC "-//W3C//DTD SVG 1.1//EN" "http://www.w3.org/Graphics/SVG/1.1/DTD/svg11.dtd">
<svg version="1.1" id="Layer_1" xmlns="http://www.w3.org/2000/svg" xmlns:xlink="http://www.w3.org/1999/xlink" x="0px" y="0px"
	 width="256px" height="256px" viewBox="0 0 256 256" enable-background="new 0 0 256 256" xml:space="preserve">
<g>
	<defs>
		<rect id="SVGID_1_" width="256" height="256"/>
	</defs>
	<clipPath id="SVGID_2_">
		<use xlink:href="#SVGID_1_"  overflow="visible"/>
	</clipPath>
	<path clip-path="url(#SVGID_2_)" fill="#041E42" d="M128.367,71.973c38.682,0,70.152,31.021,70.152,69.152
		c0,38.131-31.471,69.151-70.152,69.151c-38.682,0-70.152-31.021-70.152-69.151C58.215,102.994,89.685,71.973,128.367,71.973
		 M128.367,61.973c-44.267,0-80.152,35.438-80.152,79.152c0,43.715,35.885,79.151,80.152,79.151
		c44.267,0,80.152-35.437,80.152-79.151C208.52,97.411,172.634,61.973,128.367,61.973"/>
	<path clip-path="url(#SVGID_2_)" fill="#041E42" d="M128.367,103.644c20.998,0,38.081,16.814,38.081,37.481
		c0,20.666-17.083,37.48-38.081,37.48s-38.08-16.814-38.08-37.48C90.287,120.458,107.369,103.644,128.367,103.644 M128.367,93.644
		c-26.554,0-48.08,21.258-48.08,47.481s21.526,47.48,48.08,47.48c26.554,0,48.081-21.258,48.081-47.48
		S154.921,93.644,128.367,93.644"/>
	<path clip-path="url(#SVGID_2_)" fill="#041E42" d="M128.367,132.271c5.013,0,9.091,3.972,9.091,8.854
		c0,4.881-4.078,8.853-9.091,8.853c-5.013,0-9.091-3.972-9.091-8.853C119.276,136.243,123.354,132.271,128.367,132.271
		 M128.367,122.272c-10.544,0-19.091,8.441-19.091,18.853s8.547,18.853,19.091,18.853s19.091-8.44,19.091-18.853
		S138.911,122.272,128.367,122.272"/>
	<path clip-path="url(#SVGID_2_)" fill="#041E42" d="M128.182,118.612c2.558,0,4.63-2.047,4.63-4.572
		c0-2.525-2.072-4.572-4.63-4.572c-2.557,0-4.63,2.047-4.63,4.572C123.552,116.565,125.625,118.612,128.182,118.612"/>
	<path clip-path="url(#SVGID_2_)" fill="#041E42" d="M128.182,163.206c-2.557,0-4.63,2.047-4.63,4.572s2.073,4.572,4.63,4.572
		c2.558,0,4.63-2.047,4.63-4.572S130.739,163.206,128.182,163.206"/>
	<path clip-path="url(#SVGID_2_)" fill="#041E42" d="M105.603,140.909c0-2.525-2.073-4.572-4.63-4.572
		c-2.557,0-4.63,2.047-4.63,4.572c0,2.524,2.073,4.572,4.63,4.572C103.53,145.481,105.603,143.434,105.603,140.909"/>
	<path clip-path="url(#SVGID_2_)" fill="#041E42" d="M155.391,145.481c2.557,0,4.63-2.047,4.63-4.572
		c0-2.524-2.073-4.572-4.63-4.572s-4.63,2.048-4.63,4.572C150.761,143.435,152.834,145.481,155.391,145.481"/>
	<path clip-path="url(#SVGID_2_)" fill="#041E42" d="M105.668,156.676c-1.808,1.785-1.808,4.68,0,6.466
		c1.808,1.785,4.74,1.785,6.548,0c1.808-1.786,1.808-4.681,0-6.466C110.409,154.89,107.477,154.89,105.668,156.676"/>
	<path clip-path="url(#SVGID_2_)" fill="#041E42" d="M150.695,125.143c1.808-1.786,1.808-4.681,0-6.466
		c-1.808-1.786-4.74-1.786-6.548,0c-1.809,1.785-1.809,4.68,0,6.466C145.955,126.928,148.888,126.928,150.695,125.143"/>
	<path clip-path="url(#SVGID_2_)" fill="#041E42" d="M112.216,125.143c1.808-1.786,1.808-4.681,0-6.466
		c-1.808-1.786-4.74-1.786-6.548,0c-1.808,1.785-1.808,4.68,0,6.466C107.476,126.928,110.408,126.928,112.216,125.143"/>
	<path clip-path="url(#SVGID_2_)" fill="#041E42" d="M144.147,156.676c-1.808,1.785-1.808,4.68,0,6.466
		c1.808,1.785,4.74,1.785,6.548,0c1.809-1.786,1.809-4.681,0-6.466C148.888,154.89,145.955,154.89,144.147,156.676"/>
	<path clip-path="url(#SVGID_2_)" fill="#041E42" d="M174.896,208.771c5.411,0,9.813,4.402,9.813,9.813
		c0,5.411-4.401,9.813-9.813,9.813s-9.813-4.401-9.813-9.813C165.083,213.174,169.485,208.771,174.896,208.771 M174.896,198.771
		c-10.942,0-19.813,8.87-19.813,19.813s8.87,19.813,19.813,19.813c10.941,0,19.812-8.87,19.812-19.813
		S185.838,198.771,174.896,198.771"/>
	<path clip-path="url(#SVGID_2_)" fill="#041E42" d="M81.838,208.771c5.411,0,9.813,4.402,9.813,9.813
		c0,5.411-4.402,9.813-9.813,9.813s-9.813-4.401-9.813-9.813C72.025,213.174,76.427,208.771,81.838,208.771 M81.838,198.771
		c-10.942,0-19.812,8.87-19.812,19.813s8.87,19.813,19.812,19.813s19.812-8.87,19.812-19.813S92.78,198.771,81.838,198.771"/>
	<path clip-path="url(#SVGID_2_)" fill="#041E42" d="M205.756,18.077c-15.588,0-28.226,12.834-28.226,28.667
		c0,15.832,12.638,28.667,28.226,28.667c15.589,0,28.228-12.835,28.228-28.667C233.983,30.911,221.345,18.077,205.756,18.077
		 M202,27h8v13.368L208.474,53h-5.435L202,40.368V27z M210,64h-8v-7h8V64z"/>
	<path clip-path="url(#SVGID_2_)" fill="#041E42" d="M166.735,46.744c0-7.964,2.164-14.685,4.741-19.609h5.938
		c-2.946,6.03-4.604,11.828-4.604,18.732v1.795c0,6.859,1.658,12.661,4.604,18.691h-5.892
		C168.944,61.429,166.735,54.705,166.735,46.744"/>
	<path clip-path="url(#SVGID_2_)" fill="#041E42" d="M234.121,66.353c2.901-6.03,4.603-11.832,4.603-18.691v-1.795
		c0-6.904-1.701-12.702-4.603-18.733h5.893c2.577,4.925,4.74,11.645,4.74,19.61c0,7.96-2.163,14.684-4.785,19.609H234.121z"/>
</g>
</svg>
