<?xml version="1.0" encoding="iso-8859-1"?>
<!-- Generator: Adobe Illustrator 19.2.0, SVG Export Plug-In . SVG Version: 6.00 Build 0)  -->
<svg version="1.1" id="Lager_13" xmlns="http://www.w3.org/2000/svg" xmlns:xlink="http://www.w3.org/1999/xlink" x="0px" y="0px"
	 viewBox="0 0 256 256" style="enable-background:new 0 0 256 256;" xml:space="preserve">
<g>
	<path style="fill:#041E42;" d="M28,204.052V28h141v44h10V18H18v186.052C18,214.306,28.183,224,38.952,224H139v-10H38.952
		C33.834,214,28,208.7,28,204.052z"/>
	<path style="fill:#041E42;" d="M155,74.23V40h-28v47.971c3.14-2.481,6.479-4.719,10-6.671V50h8v27.481
		C148.228,76.17,151.565,75.078,155,74.23z"/>
	<path style="fill:#041E42;" d="M172.704,80.967c-35.829,0-64.978,29.148-64.978,64.977c0,35.829,29.148,64.978,64.978,64.978
		c35.828,0,64.977-29.148,64.977-64.978C237.681,110.115,208.532,80.967,172.704,80.967z M172.704,200.921
		c-30.314,0-54.978-24.663-54.978-54.978s24.663-54.977,54.978-54.977s54.977,24.662,54.977,54.977S203.019,200.921,172.704,200.921
		z"/>
	<polygon style="fill:#041E42;" points="165.361,158.194 147.891,142.597 141.23,150.056 165.877,172.062 210.576,125.733 
		203.379,118.79 	"/>
	<path style="fill:#041E42;" d="M70,199v-95H42v95H70z M52,114h8v75h-8V114z"/>
	<path style="fill:#041E42;" d="M112,103.917V59H85v140h27v-11.03c-4.341-6.25-7.744-13.195-10-20.638V189h-7V69h7v55.555
		C104.256,117.112,107.659,110.168,112,103.917z"/>
</g>
</svg>
