<?xml version="1.0" encoding="iso-8859-1"?>
<!-- Generator: Adobe Illustrator 22.1.0, SVG Export Plug-In . SVG Version: 6.00 Build 0)  -->
<svg version="1.1" id="Lager_13" xmlns="http://www.w3.org/2000/svg" xmlns:xlink="http://www.w3.org/1999/xlink" x="0px" y="0px"
	 viewBox="0 0 256 256" style="enable-background:new 0 0 256 256;" xml:space="preserve">
<g>
	<path style="fill:#020E45;" d="M121.322,176.675c-0.001-0.126-0.01-0.25-0.01-0.376c0-14.372,4.816-27.614,12.91-38.221
		c1.305-7.895,2.15-16.219,2.521-24.587c6.49-1.148,12.588-2.639,18.153-4.449c0.432,0.157,0.873,0.31,1.296,0.471
		c4.691,1.793,8.637,3.798,11.722,5.899c5.252-1.417,10.77-2.186,16.47-2.186c1.365,0,2.716,0.059,4.06,0.144
		c0.356-3.159,0.556-6.364,0.556-9.616c0-8.926-1.383-17.534-3.936-25.627c-0.272-1.216-0.676-2.397-1.202-3.544
		c-11.945-32.747-43.397-56.191-80.225-56.191c-37.126,0-68.775,23.831-80.497,56.994c-0.327,0.785-0.601,1.579-0.808,2.382
		c-2.627,8.198-4.058,16.927-4.058,25.986c0,8.926,1.383,17.534,3.936,25.627c0.272,1.216,0.676,2.397,1.202,3.544
		c11.945,32.747,43.397,56.191,80.225,56.191c6.391,0,12.612-0.729,18.606-2.067c-0.562-3.272-0.876-6.627-0.914-10.051
		C121.329,176.891,121.323,176.784,121.322,176.675z M121.811,149.143c-5.865,0.555-11.957,0.841-18.172,0.841
		c-6.216,0-12.308-0.286-18.173-0.841c-2.428-9.446-4.216-20.952-4.87-34.223c7.558,0.894,15.347,1.349,23.043,1.349
		c7.911,0,15.656-0.445,23.04-1.305C126.023,128.217,124.236,139.708,121.811,149.143z M126.949,104.857
		c-7.415,0.924-15.256,1.412-23.311,1.412c-8.056,0-15.897-0.488-23.312-1.412c-0.002-0.37-0.01-0.73-0.01-1.102
		s0.008-0.733,0.01-1.102c7.415-0.924,15.256-1.412,23.312-1.412c8.056,0,15.897,0.488,23.311,1.412
		c0.002,0.37,0.01,0.73,0.01,1.102S126.951,104.488,126.949,104.857z M80.597,92.545c0.655-13.252,2.442-24.743,4.868-34.178
		c5.865-0.555,11.957-0.841,18.173-0.841c6.216,0,12.307,0.286,18.172,0.841c2.428,9.446,4.216,20.952,4.87,34.223
		c-7.558-0.894-15.346-1.349-23.042-1.349C95.727,91.24,87.982,91.685,80.597,92.545z M179,103.755c0,2.502-0.129,4.973-0.368,7.413
		c-2.861-2.755-6.52-5.237-10.801-7.437c4.385-2.284,8.002-4.804,10.792-7.513C178.87,98.698,179,101.211,179,103.755z
		 M174.709,78.721c0.21,0.594,0.413,1.192,0.608,1.794c0.1,0.464,0.169,0.926,0.169,1.383c0,5.463-7.212,11.481-19.293,16.099
		c-0.428,0.164-0.874,0.318-1.311,0.477c-5.603-1.8-11.722-3.273-18.136-4.408c-0.525-11.918-2.015-23.747-4.424-34.376
		c8.837,1.401,16.936,3.459,23.871,6.109C165.966,69.534,172.55,74.187,174.709,78.721z M163.416,57.939
		c-9.5-4.099-21.311-7.022-33.894-8.708c-2.301-7.333-5.124-13.754-8.45-18.78C138.173,34.518,153.029,44.419,163.416,57.939z
		 M103.638,28.874c4.763,0,10.442,6.83,15.006,19.22c-4.982-0.378-10.013-0.569-15.006-0.569c-5.086,0-10.101,0.188-14.998,0.548
		C93.202,35.696,98.878,28.874,103.638,28.874z M86.204,30.45c-3.32,5.016-6.138,11.423-8.438,18.738
		c-11.231,1.488-21.555,3.944-30.253,7.269c-1.277,0.488-2.494,0.997-3.682,1.517C54.22,44.436,69.088,34.521,86.204,30.45z
		 M31.959,80.515c0.195-0.601,0.398-1.199,0.608-1.794c2.159-4.534,8.742-9.187,18.517-12.922
		c6.935-2.651,15.034-4.708,23.871-6.109c-2.406,10.615-3.895,22.427-4.422,34.329c-6.49,1.147-12.588,2.639-18.153,4.449
		c-0.432-0.157-0.872-0.31-1.296-0.471C39.003,93.379,31.791,87.36,31.791,81.897C31.791,81.44,31.859,80.978,31.959,80.515z
		 M28.275,103.755c0-2.502,0.129-4.973,0.368-7.413c2.861,2.755,6.52,5.237,10.801,7.437c-4.385,2.283-8.002,4.804-10.792,7.513
		C28.406,108.812,28.275,106.298,28.275,103.755z M32.567,128.789c-0.21-0.594-0.413-1.192-0.608-1.794
		c-0.1-0.464-0.169-0.926-0.169-1.383c0-5.463,7.212-11.481,19.293-16.099c0.428-0.164,0.874-0.318,1.311-0.477
		c5.603,1.8,11.722,3.273,18.136,4.408c0.525,11.918,2.015,23.747,4.424,34.376c-8.837-1.401-16.936-3.459-23.871-6.109
		C41.31,137.975,34.726,133.323,32.567,128.789z M43.86,149.571c9.5,4.099,21.311,7.022,33.894,8.708
		c2.301,7.333,5.124,13.754,8.45,18.78C69.103,172.992,54.246,163.09,43.86,149.571z M103.638,178.637
		c-4.763,0-10.443-6.83-15.006-19.221c4.982,0.378,10.014,0.569,15.006,0.569c5.086,0,10.101-0.188,14.998-0.548
		C114.074,171.814,108.398,178.637,103.638,178.637z"/>
	<path style="fill:#020E45;" d="M172.705,170.509c-0.772,0.882-2.13,1.796-3.8,2.742l-5.257,3.026
		c-2.458,1.387-4.449,2.726-5.93,4.017c-1.481,1.293-2.547,2.617-3.115,3.971c-0.347,0.725-0.603,1.813-0.603,3.262V191h27v-6
		h-19.979c0.299-0.25,0.636-0.517,1.007-0.798c1.111-0.844,2.543-1.814,4.292-2.831l5.063-2.684c2.3-1.292,4.091-2.425,5.351-3.403
		c1.26-0.976,2.296-2.141,3.07-3.497c0.771-1.354,1.196-3.022,1.196-5.008c0-0.003,0-0.006,0-0.009c0-0.004,0-0.008,0-0.012
		c0-1.921-0.535-3.639-1.528-5.168c-0.993-1.529-2.478-2.542-4.416-3.441c-1.938-0.898-4.288-1.149-7.03-1.149
		c-0.002,0-0.003,0-0.005,0c-0.002,0-0.003,0-0.005,0c-2.836,0-5.247,0.301-7.232,1.295c-1.986,0.993-3.499,2.308-4.539,3.962
		S154.623,166,154.497,168h7.233c0.219-2,0.884-3.204,1.924-4.324c0.354-0.381,0.77-0.714,1.235-0.994
		c0.883-0.499,1.955-0.777,3.223-0.777c1.702,0,3.196,0.378,4.221,1.229c1.023,0.851,1.668,1.923,1.668,3.309v0.851
		C174,168.555,173.477,169.627,172.705,170.509z"/>
	<path style="fill:#020E45;" d="M199.924,157L185,178.686V184h17v7h7v-7h5v-5h-5v-22H199.924z M202,179h-10.253L202,163.465V179z"/>
	<path style="fill:#020E45;" d="M237.599,176.299c0-29.343-23.872-53.215-53.214-53.215s-53.214,23.872-53.214,53.215
		c0,11.818,3.794,23.01,10.972,32.365l7.934-6.086c-5.826-7.595-8.906-16.682-8.906-26.279c0-23.829,19.386-43.215,43.214-43.215
		s43.214,19.386,43.214,43.215c0,22.474-17.247,40.988-39.2,43.021l9.321-9.386l-11.393,0.064l-13.861,13.952l13.955,13.861
		l11.393-0.019l-8.57-8.512C216.316,226.818,237.599,204.002,237.599,176.299z"/>
</g>
</svg>
