<?xml version="1.0" encoding="utf-8"?>
<!-- Generator: Adobe Illustrator 16.0.3, SVG Export Plug-In . SVG Version: 6.00 Build 0)  -->
<!DOCTYPE svg PUBLIC "-//W3C//DTD SVG 1.1//EN" "http://www.w3.org/Graphics/SVG/1.1/DTD/svg11.dtd">
<svg version="1.1" id="Layer_1" xmlns="http://www.w3.org/2000/svg" xmlns:xlink="http://www.w3.org/1999/xlink" x="0px" y="0px"
	 width="256px" height="256px" viewBox="0 0 256 256" enable-background="new 0 0 256 256" xml:space="preserve">
<g>
	<defs>
		<rect id="SVGID_1_" width="256" height="256"/>
	</defs>
	<clipPath id="SVGID_2_">
		<use xlink:href="#SVGID_1_"  overflow="visible"/>
	</clipPath>
	<path clip-path="url(#SVGID_2_)" fill="#041E42" d="M184,113V80.005l-2.941-1.381C164.511,70.365,146.113,66,128.018,66
		c-18.095,0-36.554,4.365-53.103,12.624L72,80.005V113H56v30.774l2.183,1.467C62.697,148.04,67,150.573,72,152.855V238h25.829
		l6.644-23h46.917l6.644,23H184v-85.028c4-2.318,9.348-4.898,13.857-7.756l2.143-1.473V113H184z M72,141.694
		c-2-1.119-4-2.284-6-3.519V123h6V141.694z M174,228h-8.496l-6.644-23H97.002l-6.643,23H82v-70.834
		c1.548,0.609,3.113,1.179,4.686,1.725l11.448,38.009l2.324,0.868c7.64,2.85,19.856,4.388,27.473,4.388
		c7.617,0,19.834-1.538,27.473-4.388l2.324-0.868l11.39-37.814c1.636-0.558,3.265-1.143,4.882-1.769V228z M98.149,162.274
		c10.115,2.481,20.365,3.726,29.967,3.726h0.184c9.472,0,19.459-1.197,29.373-3.591l-8.055,26.743
		c-6.385,1.874-15.757,3.003-21.687,3.003s-15.302-1.129-21.686-3.003L98.149,162.274z M174,146.532
		c-15,6.299-30.993,9.468-45.7,9.468h-0.184C113.361,156,97,152.781,82,146.395V123h92V146.532z M174,113H82V86.238
		C97,79.532,112.447,76,128,76c15.553,0,31,3.532,46,10.238V113z M190,138.206c-2,1.257-4,2.443-6,3.58V123h6V138.206z"/>
	<path clip-path="url(#SVGID_2_)" fill="#041E42" d="M205.966,17.997c-17.68,0-32.02,14.33-32.02,32.01
		c0,17.68,14.34,32.02,32.02,32.02c17.681,0,32.011-14.34,32.011-32.02C237.977,32.327,223.646,17.997,205.966,17.997
		 M196.945,57.637h-13.939v-1.449c0-0.383,0.015-0.634,0.044-0.813c0.022-0.21,0.101-0.427,0.175-0.61
		c0.318-0.735,0.859-1.47,1.608-2.189c0.751-0.72,1.736-1.488,3.013-2.345l3.331-2.232c0.65-0.45,1.172-0.844,1.546-1.171
		c0.356-0.301,0.659-0.68,0.903-1.129c0.232-0.437,0.351-0.942,0.351-1.501v-0.521c0-0.873-0.341-1.579-1.039-2.157
		c-0.712-0.571-1.652-0.862-2.791-0.862c-1.31,0-2.297,0.343-2.939,1.021c-0.657,0.694-1.083,1.567-1.265,2.593l-0.038,0.206h-2.846
		l0.018-0.268c0.073-1.046,0.399-2.034,0.969-2.936c0.558-0.908,1.377-1.649,2.437-2.199c1.033-0.542,2.272-0.818,3.685-0.818
		c1.421,0,2.645,0.262,3.635,0.778c1.022,0.538,1.768,1.226,2.28,2.106c0.501,0.865,0.755,1.826,0.755,2.856
		c0,0.986-0.209,1.87-0.621,2.629c-0.418,0.743-0.918,1.365-1.486,1.852c-0.596,0.489-1.346,1.042-2.232,1.646l-3.311,2.211
		c-0.892,0.608-1.585,1.137-2.122,1.618c-0.44,0.387-0.814,0.801-1.119,1.235h11.001V57.637z M212.727,57.637h-2.741v-8.34
		c0-1.285-0.28-2.222-0.855-2.863c-0.563-0.628-1.396-0.946-2.475-0.946c-1.074,0-1.883,0.31-2.476,0.949
		c-0.572,0.637-0.863,1.6-0.863,2.86v8.34h-2.741v-14.13h2.631v1.308c0.318-0.4,0.72-0.744,1.201-1.032
		c0.754-0.461,1.684-0.686,2.838-0.686c1.626,0,2.96,0.498,3.965,1.481c1.006,0.996,1.517,2.355,1.517,4.039V57.637z
		 M226.296,57.637v-1.292c-0.429,0.463-0.932,0.834-1.502,1.108c-0.807,0.381-1.724,0.575-2.728,0.575
		c-1.291,0-2.447-0.32-3.436-0.95c-0.968-0.635-1.725-1.528-2.252-2.655c-0.514-1.119-0.772-2.416-0.772-3.855
		c0-1.43,0.259-2.727,0.771-3.854c0.532-1.148,1.289-2.045,2.252-2.667c0.974-0.631,2.129-0.95,3.437-0.95
		c1.704,0,3.086,0.523,4.12,1.56v-6.66h2.739v19.64H226.296z"/>
	<path clip-path="url(#SVGID_2_)" fill="#041E42" d="M222.408,45.242c-1.317,0-2.354,0.45-3.107,1.352
		c-0.754,0.901-1.131,2.123-1.131,3.666v0.572c0,1.543,0.377,2.768,1.131,3.679c0.753,0.91,1.79,1.365,3.107,1.365
		c1.213,0,2.188-0.368,2.925-1.106c0.736-0.736,1.104-1.703,1.104-2.898V49.22c0-1.231-0.368-2.202-1.104-2.913
		C224.596,45.597,223.621,45.242,222.408,45.242"/>
</g>
</svg>
