<?xml version="1.0" encoding="iso-8859-1"?>
<!-- Generator: Adobe Illustrator 19.2.0, SVG Export Plug-In . SVG Version: 6.00 Build 0)  -->
<svg version="1.1" id="Lager_12" xmlns="http://www.w3.org/2000/svg" xmlns:xlink="http://www.w3.org/1999/xlink" x="0px" y="0px"
	 viewBox="0 0 256 256" style="enable-background:new 0 0 256 256;" xml:space="preserve">
<g>
	<path style="fill:#041E42;" d="M235.764,105.973c-1.447-7.072-3.605-14.025-6.415-20.667c-2.758-6.521-6.173-12.812-10.148-18.697
		c-3.938-5.828-8.459-11.307-13.437-16.284c-4.979-4.98-10.459-9.501-16.284-13.437c-5.884-3.975-12.174-7.389-18.697-10.148
		c-6.646-2.811-13.57-4.969-20.637-6.415C142.895,18.84,135,18.088,128,18.088v10c7,0,13.548,0.684,20.142,2.033
		c6.419,1.313,12.722,3.274,18.76,5.828c5.929,2.508,11.639,5.611,16.988,9.226c5.298,3.578,10.278,7.69,14.808,12.22
		c4.527,4.528,8.638,9.512,12.219,14.812c3.614,5.351,6.717,11.068,9.225,16.995c2.552,6.033,4.512,12.351,5.827,18.774
		c1.35,6.594,2.033,13.38,2.033,20.171s-0.684,13.577-2.033,20.171c-1.314,6.424-3.275,12.741-5.827,18.775
		c-2.507,5.927-5.611,11.645-9.226,16.996c-3.579,5.298-7.69,10.282-12.221,14.813c-4.531,4.53-9.515,8.643-14.812,12.222
		c-5.352,3.615-11.069,6.72-16.994,9.226c-6.038,2.554-12.354,4.516-18.775,5.83c-13.188,2.697-27.156,2.697-40.343,0
		c-6.423-1.315-12.741-3.276-18.778-5.83c-5.928-2.507-11.646-5.61-16.996-9.226c-5.298-3.579-10.282-7.691-14.812-12.222
		c-4.53-4.531-8.643-9.515-12.222-14.813c-3.614-5.35-6.718-11.068-9.225-16.995c-2.553-6.036-4.514-12.354-5.829-18.776
		c-1.349-6.592-2.033-13.379-2.033-20.171s0.684-13.579,2.033-20.17c1.315-6.424,3.276-12.741,5.829-18.775
		c2.508-5.929,5.611-11.646,9.225-16.994c2.65-3.923,5.59-7.671,8.774-11.189L68.14,75.423l7.071-7.07L53.648,46.788l-3.536,3.535
		c-4.978,4.978-9.499,10.457-13.438,16.286c-3.975,5.883-7.389,12.174-10.148,18.696c-2.81,6.643-4.968,13.596-6.416,20.667
		c-1.483,7.25-2.236,14.711-2.236,22.175s0.752,14.925,2.236,22.176c1.447,7.069,3.605,14.022,6.416,20.667
		c2.759,6.521,6.173,12.812,10.148,18.697c3.936,5.826,8.457,11.306,13.437,16.286c4.981,4.981,10.46,9.503,16.286,13.438
		c5.885,3.977,12.176,7.392,18.698,10.15c6.645,2.81,13.598,4.969,20.668,6.416c7.253,1.484,14.714,2.236,22.178,2.236
		c7.463,0,14.924-0.752,22.176-2.236c7.067-1.447,14.021-3.606,20.666-6.417c6.52-2.758,12.811-6.172,18.697-10.149
		c5.824-3.936,11.303-8.456,16.284-13.438c4.98-4.981,9.501-10.461,13.437-16.286c3.976-5.887,7.39-12.178,10.148-18.698
		c2.81-6.643,4.967-13.596,6.414-20.667c1.484-7.251,2.236-14.712,2.236-22.175S237.248,113.224,235.764,105.973z"/>
	<path style="fill:#041E42;" d="M76.017,91.087c12.118,16.511,35.223,47.999,35.936,48.996c1.356,1.902,6.97,7.524,14.701,8.372
		c0.649,0.071,1.295,0.106,1.939,0.106c4.625,0,9.086-1.829,13.003-5.354l0.652-0.651c4.029-4.478,5.85-9.67,5.262-15.015
		c-0.853-7.763-6.434-13.351-8.321-14.695c-1.008-0.72-32.489-23.82-48.995-35.936l-3.459-2.539L73.478,87.628L76.017,91.087z
		 M87.736,87.512c11.09,8.139,44.598,32.728,45.621,33.457c0.588,0.453,3.863,3.817,4.228,7.818c0.22,2.411-0.659,4.697-2.686,6.984
		l-0.082,0.081c-2.279,2.022-4.552,2.897-6.94,2.676c-4.033-0.375-7.319-3.646-7.784-4.252
		c-0.746-1.046-25.337-34.556-33.476-45.646L87.736,87.512z"/>
</g>
</svg>
