<?xml version="1.0" encoding="iso-8859-1"?>
<!-- Generator: Adobe Illustrator 22.1.0, SVG Export Plug-In . SVG Version: 6.00 Build 0)  -->
<svg version="1.1" id="Lager_13" xmlns="http://www.w3.org/2000/svg" xmlns:xlink="http://www.w3.org/1999/xlink" x="0px" y="0px"
	 viewBox="0 0 256 256" style="enable-background:new 0 0 256 256;" xml:space="preserve">
<g>
	<path style="fill:#161743;" d="M187.052,173.677C184.837,203.996,159.207,228,128,228c-32.657,0-59.225-26.279-59.225-58.581
		c0-5.001,0.641-9.976,1.905-14.784l0.068-0.299c2.099-10.581,12.401-29.651,26.659-56.046
		c8.688-16.082,19.254-35.643,30.592-58.187c5.31,10.558,10.446,20.452,15.304,29.65c2.743-1.859,5.656-3.499,8.731-4.883
		c-6.149-11.646-12.742-24.405-19.552-38.188L128,17.61l-4.482,9.072C110.572,52.882,98.394,75.424,88.61,93.537
		c-15.158,28.059-25.193,46.635-27.639,58.7c-1.457,5.594-2.196,11.373-2.196,17.182C58.775,207.234,89.829,238,128,238
		c37.759,0,68.533-30.11,69.193-67.364c-0.067,0.027-0.132,0.058-0.2,0.085C193.75,172.014,190.428,172.994,187.052,173.677z"/>
	<polygon style="fill:#161743;" points="143.218,80 131.458,80 131.458,136.802 143.218,136.802 143.218,112.961 168.099,112.961 
		168.099,136.802 179.939,136.802 179.939,80 168.099,80 168.099,103.761 143.218,103.761 	"/>
	<path style="fill:#161743;" d="M202.287,142.884l5.41-2.984c7.835-4.012,12.499-7.09,12.499-14.552
		c0-6.809-5.689-12.313-16.043-12.313c-11.007,0-16.138,6.063-16.604,13.525h10.26c0.28-3.265,2.332-6.25,6.53-6.25
		c3.357,0,5.689,1.68,5.689,4.664v0.933c0,2.705-1.772,4.291-5.597,6.25l-5.597,2.984c-5.876,3.078-9.607,6.25-11.193,9.607
		c-0.466,1.026-0.652,2.053-0.652,4.104v4.851h33.02v-7.462h-22.946C198.463,145.122,200.235,144.003,202.287,142.884z"/>
</g>
</svg>
