<?xml version="1.0" encoding="iso-8859-1"?>
<!-- Generator: Adobe Illustrator 19.2.0, SVG Export Plug-In . SVG Version: 6.00 Build 0)  -->
<svg version="1.1" id="Lager_13" xmlns="http://www.w3.org/2000/svg" xmlns:xlink="http://www.w3.org/1999/xlink" x="0px" y="0px"
	 viewBox="0 0 256 256" style="enable-background:new 0 0 256 256;" xml:space="preserve">
<g>
	<path style="fill:#041E42;" d="M117.326,82.923l-4.576,0.855l4.021,24.011l-12.659-20.835l-3.985,2.207
		c-0.548,0.303-5.444,3.039-8.523,5.623c-3.065,2.572-6.926,7.235-7.356,7.758l-2.957,3.596l18.515,15.81l-23.09-7.824l-1.635,4.251
		c-0.225,0.586-2.217,5.829-2.914,9.787c-0.695,3.941-0.655,9.994-0.648,10.671l0.047,4.655l24.347,0.21l-22.719,8.849l1.48,4.308
		c0.204,0.593,2.047,5.889,4.058,9.37c2.001,3.466,5.923,8.077,6.363,8.592l3.028,3.535l18.786-15.489l-11.715,21.382l3.904,2.348
		c0.536,0.323,5.354,3.195,9.132,4.57c3.758,1.368,9.727,2.38,10.396,2.491l4.592,0.762l4.434-23.94l4.769,23.909l4.499-0.711
		c0.619-0.097,6.156-0.994,9.933-2.369c3.76-1.368,8.983-4.43,9.567-4.775l4.008-2.368l-11.991-21.189l19.021,15.25l2.991-3.437
		c0.41-0.472,4.076-4.718,6.085-8.199c2.001-3.465,4.034-9.168,4.26-9.808l1.548-4.39l-22.804-8.523l24.373-0.545l0.081-4.556
		c0.011-0.626,0.089-6.235-0.609-10.192c-0.694-3.941-2.803-9.617-3.041-10.25l-1.636-4.358l-22.949,8.129l18.321-16.085
		l-2.864-3.542c-0.395-0.487-3.939-4.834-7.018-7.419c-3.065-2.571-8.328-5.563-8.918-5.896l-4.055-2.286l-12.355,20.981
		l3.696-24.101l-4.472-0.872c-0.615-0.12-6.123-1.17-10.143-1.17C123.948,81.708,117.992,82.799,117.326,82.923z M94.643,105.065
		c1.045-1.128,2.156-2.258,3.058-3.014c0.842-0.707,1.985-1.502,3.123-2.239l12.161,20.017c-0.18,0.145-0.357,0.294-0.533,0.444
		L94.643,105.065z M81.103,134.085c0.075-1.537,0.201-3.115,0.405-4.275c0.191-1.083,0.556-2.426,0.953-3.723l22.17,7.512
		c-0.045,0.228-0.085,0.458-0.123,0.688L81.103,134.085z M89.384,165.019c-0.928-1.224-1.847-2.513-2.437-3.536
		c-0.549-0.951-1.134-2.215-1.663-3.464l21.818-8.498c0.112,0.203,0.229,0.404,0.347,0.603L89.384,165.019z M115.613,183.391
		c-1.501-0.341-3.033-0.738-4.14-1.14c-1.033-0.376-2.293-0.968-3.501-1.585l11.251-20.533c0.216,0.084,0.433,0.167,0.653,0.245
		L115.613,183.391z M143.608,182.394c-1.032,0.376-2.378,0.732-3.7,1.036l-4.579-22.96c0.221-0.075,0.441-0.15,0.659-0.232
		l11.526,20.369C146.146,181.31,144.716,181.991,143.608,182.394z M170.162,157.967c-0.596,1.418-1.253,2.86-1.843,3.88
		c-0.549,0.951-1.352,2.09-2.169,3.173l-18.267-14.645c0.12-0.198,0.233-0.402,0.348-0.604L170.162,157.967z M172.961,126.067
		c0.454,1.467,0.875,2.993,1.081,4.157c0.191,1.082,0.308,2.47,0.377,3.824l-23.398,0.523c-0.036-0.231-0.081-0.459-0.123-0.688
		L172.961,126.067z M154.598,99.832c1.293,0.833,2.598,1.731,3.5,2.487c0.841,0.707,1.823,1.694,2.748,2.687l-17.602,15.454
		c-0.174-0.153-0.346-0.307-0.525-0.455L154.598,99.832z M141.81,138.175c0,7.759-6.312,14.071-14.072,14.071
		c-7.758,0-14.071-6.312-14.071-14.071c0-7.759,6.312-14.072,14.071-14.072C135.498,124.103,141.81,130.415,141.81,138.175z
		 M128.231,114.629c-0.164-0.003-0.328-0.013-0.493-0.013c-0.068,0-0.136,0.005-0.204,0.005l-3.866-23.085
		c1.524-0.193,3.1-0.343,4.281-0.343c1.099,0,2.485,0.126,3.832,0.292L128.231,114.629z"/>
	<path style="fill:#041E42;" d="M202,89.621V70.604c-10.518-4.173-20.842-7.811-31-10.639V35.963c0-5.477-4.697-9.963-10.174-9.963
		H94.689C89.212,26,85,30.486,85,35.963v24.409c-10.265,2.747-20.673,6.222-31,10.232v18.997l-23,10.633v75.601l23,10.593V196
		l32.963,25l7.5,17h69.59l7.742-17L202,196v-9.614l23-10.546V100.23L202,89.621z M54,175.417l-13-5.988v-62.802l13-6.01V175.417z
		 M95,36h66v21.438c-10.523-2.359-20.874-3.712-31.079-3.712c-11.065,0-22.838,1.533-34.921,4.201V36z M192,191.296l-26.581,22.001
		l-1.772,1.466l-0.953,2.093L157.619,228h-56.638l-4.869-11.036l-1.044-2.368l-2.062-1.564L64,191.034V77.52
		c25.05-9.156,47.201-13.794,65.921-13.794c17.652,0,37,4.258,62.079,13.728V191.296z M215,169.424l-13,5.961v-74.751l13,5.997
		V169.424z"/>
</g>
</svg>
