<?xml version="1.0" encoding="iso-8859-1"?>
<!-- Generator: Adobe Illustrator 19.2.1, SVG Export Plug-In . SVG Version: 6.00 Build 0)  -->
<svg version="1.1" id="Lager_12" xmlns="http://www.w3.org/2000/svg" xmlns:xlink="http://www.w3.org/1999/xlink" x="0px" y="0px"
	 viewBox="0 0 256 256" style="enable-background:new 0 0 256 256;" xml:space="preserve">
<g>
	<path style="fill:#041E42;" d="M128.226,77c16.267,0,29.5-13.233,29.5-29.5S144.492,18,128.226,18s-29.5,13.233-29.5,29.5
		S111.959,77,128.226,77z M128.226,28c10.752,0,19.5,8.748,19.5,19.5s-8.748,19.5-19.5,19.5c-10.752,0-19.5-8.748-19.5-19.5
		S117.473,28,128.226,28z"/>
	<path style="fill:#041E42;" d="M199.9,191.383L174,168.948v-67.746l-1.473-1.466c-6.013-5.985-22.833-14.891-44.527-14.891
		c-15.814,0-29.317,4.897-38.414,10.489l-27.62-24.086l-6.573,7.537L82,101.988V190H57v10h25v6.46l18,9.265V238h56v-22.275l18-9.265
		V200h22.614L199.9,191.383z M128,94.846c17.312,0,30.652,6.546,36,10.702v54.68l-66.432-57.933
		C104.039,98.807,114.374,94.846,128,94.846z M92,110.708l72,62.788V190H92V110.708z M164,200.36l-18,9.265V228h-36v-18.375
		l-18-9.265V200h72V200.36z M174,190v-7.783l9.273,7.783H174z"/>
</g>
</svg>
