<?xml version="1.0" encoding="iso-8859-1"?>
<!-- Generator: Adobe Illustrator 19.2.0, SVG Export Plug-In . SVG Version: 6.00 Build 0)  -->
<svg version="1.1" id="Lager_12" xmlns="http://www.w3.org/2000/svg" xmlns:xlink="http://www.w3.org/1999/xlink" x="0px" y="0px"
	 viewBox="0 0 256 256" style="enable-background:new 0 0 256 256;" xml:space="preserve">
<path style="fill:#041E42;" d="M185.603,160.048c-3.301-3.354-7.71-5.048-12.416-5.048c-0.05,0-0.099,0-0.147,0
	c-2.891,0-5.676,0.612-8.168,1.858l-6.866-6.978c12.651-14.303,19.642-32.478,19.799-51.758v-0.001
	c0.354-43.68-34.895-79.504-78.574-79.859c-0.219-0.002-0.434-0.003-0.652-0.003c-43.379,0-78.849,35.116-79.202,78.576
	c-0.172,21.16,7.905,41.12,22.744,56.203c14.839,15.083,34.664,23.485,55.823,23.657c0.221,0.002,0.441,0.003,0.662,0.003
	c19.443,0,37.839-6.971,52.324-19.752l6.718,6.828c-1.423,2.486-2.197,5.275-2.222,8.274c-0.038,4.707,1.759,9.146,5.06,12.5
	l52.333,53.189l25.119-24.605L185.603,160.048z M147.133,146.82c-13.043,12.832-30.255,19.878-48.53,19.878
	c-0.192,0-0.386-0.001-0.578-0.003c-18.488-0.15-35.81-7.491-48.775-20.671c-12.965-13.179-20.023-30.619-19.873-49.107
	c0.309-37.978,31.297-68.658,69.203-68.658c0.188,0,0.38,0.001,0.569,0.003c38.166,0.31,68.964,31.612,68.655,69.778
	C167.653,116.529,160.312,133.853,147.133,146.82z M167.612,177.587c-1.428-1.449-2.204-3.316-2.188-5.35
	c0.017-2.035,0.824-3.836,2.275-5.263c1.436-1.412,3.33-1.975,5.341-1.975c0.021,0,0.043,0,0.063,0c2.036,0,3.942,0.618,5.369,2.068
	l45.32,45.856l-10.861,10.7L167.612,177.587z"/>
</svg>
