<?xml version="1.0" encoding="iso-8859-1"?>
<!-- Generator: Adobe Illustrator 22.1.0, SVG Export Plug-In . SVG Version: 6.00 Build 0)  -->
<svg version="1.1" id="Lager_13" xmlns="http://www.w3.org/2000/svg" xmlns:xlink="http://www.w3.org/1999/xlink" x="0px" y="0px"
	 viewBox="0 0 256 256" style="enable-background:new 0 0 256 256;" xml:space="preserve">
<g>
	<path style="fill:#020E45;" d="M185.868,173.554c-2.215,30.319-27.844,54.323-59.051,54.323c-32.657,0-59.225-26.279-59.225-58.581
		c0-5.001,0.641-9.976,1.905-14.784l0.068-0.299c2.099-10.581,12.401-29.651,26.659-56.046
		c8.688-16.082,19.254-35.643,30.592-58.187c5.31,10.558,10.446,20.452,15.304,29.65c2.743-1.859,5.656-3.499,8.731-4.883
		c-6.149-11.646-12.742-24.405-19.552-38.188l-4.482-9.072l-4.482,9.072C109.388,52.759,97.21,75.301,87.426,93.414
		c-15.158,28.059-25.193,46.635-27.639,58.7c-1.457,5.594-2.196,11.373-2.196,17.182c0,37.815,31.054,68.581,69.225,68.581
		c37.759,0,68.533-30.11,69.193-67.364c-0.067,0.027-0.132,0.058-0.2,0.085C192.566,171.891,189.244,172.871,185.868,173.554z"/>
	<path style="fill:#020E45;" d="M193.387,56.905c-0.914-1.199-2.216-1.751-3.504-1.751c-1.996,0-3.958,1.324-4.398,3.618
		c-5.011,25.769-37.249,24.124-46.318,50.985c-5.109,15.13-0.774,30.172,9.86,39.342c-0.642,1.527-1.304,3.039-2.031,4.519
		c-5.55,11.292-14.475,21.19-25.133,27.873l-4.236,2.656l5.312,8.473l4.236-2.656c12.388-7.768,22.345-18.811,28.795-31.936
		c0.567-1.154,1.102-2.318,1.615-3.488c3.003,1.356,6.281,2.355,9.805,2.923c2.028,0.327,4.035,0.486,6.005,0.486
		c16.408,0,30.36-11.046,34.631-28.25C216.129,97.046,204.382,71.327,193.387,56.905z M198.318,127.29
		c-3.115,12.55-12.899,20.66-24.925,20.66c-1.451,0-2.936-0.121-4.413-0.359c-2.761-0.445-5.341-1.25-7.703-2.366
		c0.196-0.527,0.396-1.059,0.59-1.583c1.214-3.277,2.469-6.668,3.851-9.868c3.789-8.777,8.181-14.814,13.425-18.457l4.106-2.853
		l-5.705-8.213l-4.106,2.853c-6.821,4.738-12.35,12.165-16.9,22.706c-1.306,3.024-2.466,6.099-3.582,9.107
		c-0.861-1.007-1.645-2.086-2.34-3.238c-3.988-6.614-4.69-14.684-1.975-22.723c3.32-9.831,11.065-14.693,20.033-20.323
		c8.194-5.144,17.21-10.803,22.617-20.682c2.596,4.683,5.127,10.413,6.919,17.101C201.515,101.398,201.552,114.263,198.318,127.29z"
		/>
</g>
</svg>
