<?xml version="1.0" encoding="iso-8859-1"?>
<!-- Generator: Adobe Illustrator 22.1.0, SVG Export Plug-In . SVG Version: 6.00 Build 0)  -->
<svg version="1.1" id="Lager_6" xmlns="http://www.w3.org/2000/svg" xmlns:xlink="http://www.w3.org/1999/xlink" x="0px" y="0px"
	 viewBox="0 0 256 256" style="enable-background:new 0 0 256 256;" xml:space="preserve">
<path style="fill:#161743;" d="M186.746,36v150h-118V36H186.746 M196.746,26h-138v170h138V26L196.746,26z"/>
<rect x="91.044" y="79.281" style="fill:#161743;" width="29.02" height="10"/>
<rect x="91.044" y="51.875" style="fill:#161743;" width="74" height="10"/>
<rect x="91.044" y="106.688" style="fill:#161743;" width="29.02" height="10"/>
<rect x="91.044" y="161.5" style="fill:#161743;" width="74" height="10"/>
<rect x="91.044" y="134.094" style="fill:#161743;" width="74" height="10"/>
<path style="fill:#161743;" d="M155.044,89.31v17.41H140.03V89.31H155.044 M165.044,79.31H130.03v37.41h35.014V79.31L165.044,79.31z
	"/>
<g>
	<path style="fill:#161743;" d="M102.966,218.879v19.165h-6.587l-9.394-13.361v13.361h-5.398v-19.165h6.722l9.258,13.173v-13.173
		H102.966z"/>
	<path style="fill:#161743;" d="M110.503,222.982v3.4h11.418v4.104h-11.418v3.455h12.12v4.103h-17.627v-19.165h17.627v4.104H110.503
		z"/>
	<path style="fill:#161743;" d="M154.937,218.879l-5.479,19.165h-6.667l-3.779-12.714l-3.778,12.714h-6.506l-5.452-19.165h5.587
		l3.536,13.011l3.941-13.011h5.561l3.968,13.146l3.59-13.146H154.937z"/>
	<path style="fill:#161743;" d="M154.082,231.512h5.723c0.081,1.755,1.674,3.104,5.074,3.104c2.592,0,4.292-0.514,4.292-1.917v-0.27
		c0-0.837-0.891-1.296-2.537-1.565l-5.21-0.864c-4.886-0.81-6.91-2.078-6.91-5.426c0-3.59,2.699-6.154,9.475-6.154
		c7.207,0,10.096,3.051,10.122,6.397h-5.749c-0.135-1.296-1.565-2.537-4.67-2.537c-2.268,0-3.644,0.621-3.644,1.674v0.27
		c0,0.837,0.972,1.161,2.645,1.431l4.859,0.81c4.805,0.81,7.152,2.24,7.152,5.669c0,4.372-3.616,6.343-10.041,6.343
		C157.078,238.476,154.082,235.614,154.082,231.512z"/>
</g>
</svg>
