<?xml version="1.0" encoding="utf-8"?>
<!-- Generator: Adobe Illustrator 22.1.0, SVG Export Plug-In . SVG Version: 6.00 Build 0)  -->
<svg version="1.1" id="Lager_13" xmlns="http://www.w3.org/2000/svg" xmlns:xlink="http://www.w3.org/1999/xlink" x="0px" y="0px"
	 viewBox="0 0 256 256" style="enable-background:new 0 0 256 256;" xml:space="preserve">
<style type="text/css">
	.st0{fill:#020E45;}
</style>
<path class="st0" d="M128.1,26C71.6,26,25.5,72,25.5,128.6s46,102.6,102.6,102.6s102.6-46,102.6-102.6C230.8,72,184.7,26,128.1,26z
	 M128.1,221.2c-51.1,0-92.6-41.5-92.6-92.6S77,36,128.1,36s92.6,41.5,92.6,92.6C220.8,179.7,179.2,221.2,128.1,221.2z M90.1,78.2
	c-8.1,0-15,5.4-17.2,12.9H68v10h4.9c2.2,7.4,9,12.9,17.2,12.9s15-5.4,17.2-12.9h81.8V91h-81.8C105.1,83.6,98.2,78.2,90.1,78.2z
	 M90.1,103.9c-4.3,0-7.9-3.5-7.9-7.9s3.5-7.9,7.9-7.9S98,91.7,98,96S94.4,103.9,90.1,103.9z M130.5,146.6c-8.1,0-15,5.4-17.2,12.9
	H68v10h45.3c2.2,7.4,9,12.9,17.2,12.9c8.1,0,15-5.4,17.2-12.9h41.5v-10h-41.5C145.5,152.1,138.6,146.6,130.5,146.6z M130.5,172.4
	c-4.3,0-7.9-3.5-7.9-7.9s3.5-7.9,7.9-7.9c4.4,0,7.9,3.5,7.9,7.9S134.8,172.4,130.5,172.4z M167.6,112.4c-8.1,0-15,5.4-17.2,12.9H68
	v10h82.4c2.2,7.4,9,12.9,17.2,12.9s15-5.4,17.2-12.9h4.3v-10h-4.3C182.6,117.8,175.7,112.4,167.6,112.4z M167.6,138.1
	c-4.3,0-7.9-3.5-7.9-7.9c0-4.3,3.5-7.9,7.9-7.9s7.9,3.5,7.9,7.9C175.5,134.6,171.9,138.1,167.6,138.1z"/>
</svg>
