<?xml version="1.0" encoding="iso-8859-1"?>
<!-- Generator: Adobe Illustrator 19.2.0, SVG Export Plug-In . SVG Version: 6.00 Build 0)  -->
<svg version="1.1" id="Lager_13" xmlns="http://www.w3.org/2000/svg" xmlns:xlink="http://www.w3.org/1999/xlink" x="0px" y="0px"
	 viewBox="0 0 256 256" style="enable-background:new 0 0 256 256;" xml:space="preserve">
<g>
	<polygon style="fill:#041E42;" points="170.42,78.524 127.994,120.941 85.578,78.516 78.505,85.586 120.922,128.012 
		78.496,170.428 85.566,177.5 127.992,135.084 170.409,177.51 177.481,170.439 135.064,128.013 177.49,85.597 	"/>
	<path style="fill:#041E42;" d="M128,36.076c-50.687,0-91.924,41.237-91.924,91.924S77.313,219.924,128,219.924
		c50.687,0,91.924-41.237,91.924-91.924S178.687,36.076,128,36.076z M128,209.924c-45.173,0-81.924-36.751-81.924-81.924
		S82.827,46.076,128,46.076S209.924,82.827,209.924,128S173.173,209.924,128,209.924z"/>
</g>
</svg>
