<?xml version="1.0" encoding="utf-8"?>
<!-- Generator: Adobe Illustrator 22.1.0, SVG Export Plug-In . SVG Version: 6.00 Build 0)  -->
<svg version="1.1" id="Lager_6" xmlns="http://www.w3.org/2000/svg" xmlns:xlink="http://www.w3.org/1999/xlink" x="0px" y="0px"
	 viewBox="0 0 256 256" style="enable-background:new 0 0 256 256;" xml:space="preserve">
<style type="text/css">
	.st0{fill:#020E45;}
</style>
<g>
	<rect x="93" y="202" class="st0" width="15" height="10"/>
	<path class="st0" d="M174.3,66h-6.7H65v132h6v40h22.8l5.7-13h55.3l5.7,13H183v-40h7V93V82.1V66H174.3z M133,76h18v112h-18V76z
		 M104,76h19v112h-19V76z M75,76h19v96h-6v10h6v6H75V76z M173,228h-6l-5.7-13H93.1l-5.7,13H81v-30h92V228z M180,188h-19v-6h6v-10h-6
		V76h19V188z"/>
</g>
</svg>
