<?xml version="1.0" encoding="iso-8859-1"?>
<!-- Generator: Adobe Illustrator 19.2.0, SVG Export Plug-In . SVG Version: 6.00 Build 0)  -->
<svg version="1.1" id="Lager_6" xmlns="http://www.w3.org/2000/svg" xmlns:xlink="http://www.w3.org/1999/xlink" x="0px" y="0px"
	 viewBox="0 0 256 256" style="enable-background:new 0 0 256 256;" xml:space="preserve">
<g>
	<path style="fill:#041E42;" d="M69,198v-94H42v94H69z M52,114h7v74h-7V114z"/>
	<path style="fill:#041E42;" d="M28,204.024V28h141v44h10V18H18v186.024C18,214.105,28.428,224,39.053,224H139v-10H39.053
		C33.888,214,28,208.686,28,204.024z"/>
	<path style="fill:#041E42;" d="M155,73.478V40h-27v32.686c3.264-0.554,6.602-0.873,10-0.947V50h7v21.94
		C148.41,72.212,151.748,72.728,155,73.478z"/>
	<path style="fill:#041E42;" d="M185.542,179.639c9.128-10.743,14.159-24.216,14.275-38.484c0.131-16.109-6.02-31.306-17.318-42.79
		c-11.299-11.483-26.394-17.88-42.503-18.011c-0.169-0.001-0.336-0.002-0.504-0.002c-15.922,0-30.921,6.14-42.283,17.32
		c-11.482,11.299-17.877,26.393-18.008,42.502c-0.27,33.256,26.563,60.53,59.816,60.801c0.169,0.001,0.336,0.002,0.504,0.002
		c14.408,0,28.062-5.028,38.948-14.269l51.252,51.421l7.082-7.059L185.542,179.639z M174.793,176.528
		c-9.579,9.425-22.235,14.553-35.694,14.446c-27.739-0.225-50.124-22.978-49.898-50.719c0.109-13.439,5.444-26.031,15.022-35.456
		c9.479-9.327,21.989-14.448,35.271-14.448c0.14,0,0.281,0.001,0.42,0.002c13.439,0.109,26.031,5.445,35.456,15.024
		c9.426,9.58,14.557,22.257,14.447,35.694C189.708,154.512,184.373,167.104,174.793,176.528z"/>
	<path style="fill:#041E42;" d="M112,77.473V59H85v39.559c2.963-3.822,6.317-7.323,10-10.45V69h7v13.883
		C105.166,80.817,108.508,79.004,112,77.473z"/>
	<path style="fill:#041E42;" d="M85,182.827V198h16.256C95.051,193.846,89.563,188.714,85,182.827z"/>
</g>
</svg>
