<?xml version="1.0" encoding="utf-8"?>
<!-- Generator: Adobe Illustrator 16.0.3, SVG Export Plug-In . SVG Version: 6.00 Build 0)  -->
<!DOCTYPE svg PUBLIC "-//W3C//DTD SVG 1.1//EN" "http://www.w3.org/Graphics/SVG/1.1/DTD/svg11.dtd">
<svg version="1.1" id="Layer_1" xmlns="http://www.w3.org/2000/svg" xmlns:xlink="http://www.w3.org/1999/xlink" x="0px" y="0px"
	 width="256px" height="256px" viewBox="0 0 256 256" enable-background="new 0 0 256 256" xml:space="preserve">
<g>
	<defs>
		<rect id="SVGID_1_" width="256" height="256"/>
	</defs>
	<clipPath id="SVGID_2_">
		<use xlink:href="#SVGID_1_"  overflow="visible"/>
	</clipPath>
	<path clip-path="url(#SVGID_2_)" fill="#041E42" d="M214.53,69.428c-4.699-4.699-9.183-3.935-9.183-3.935
		c-5.58,0.794-11.452-0.955-15.742-5.247c-4.854-4.854-6.438-11.721-4.791-17.91l13.573,13.57l9.582-3.532l3.535-9.585
		l-13.571-13.57c6.188-1.648,13.058-0.066,17.911,4.789c4.292,4.292,6.041,10.164,5.247,15.744c0,0-0.565,4.679,3.935,9.179
		l8.094,8.094c3.096-4.926,4.893-10.751,4.893-16.999c0-17.673-14.327-32-32-32s-32,14.327-32,32s14.327,32,32,32
		c6.046,0,11.7-1.678,16.523-4.592L214.53,69.428z"/>
	<path clip-path="url(#SVGID_2_)" fill="#041E42" d="M128,66.167c-47.355,0-85.882,38.527-85.882,85.881
		c0,47.355,38.527,85.882,85.882,85.882c47.355,0,85.882-38.526,85.882-85.882C213.882,104.694,175.355,66.167,128,66.167
		 M128,227.93c-41.842,0-75.882-34.04-75.882-75.882c0-41.841,34.04-75.881,75.882-75.881s75.882,34.04,75.882,75.881
		C203.882,193.89,169.842,227.93,128,227.93"/>
	<path clip-path="url(#SVGID_2_)" fill="#041E42" d="M127.737,98.183c-29.557,0-53.603,24.047-53.603,53.604
		s24.046,53.603,53.603,53.603c29.557,0,53.604-24.046,53.604-53.603S157.294,98.183,127.737,98.183 M127.737,195.389
		c-24.043,0-43.603-19.56-43.603-43.603c0-24.043,19.56-43.604,43.603-43.604s43.604,19.56,43.604,43.604
		C171.341,175.829,151.78,195.389,127.737,195.389"/>
	<path clip-path="url(#SVGID_2_)" fill="#041E42" d="M127.476,128.946c-12.739,0-23.103,10.363-23.103,23.102
		c0,12.739,10.364,23.103,23.103,23.103c12.738,0,23.102-10.363,23.102-23.103C150.577,139.31,140.214,128.946,127.476,128.946
		 M127.476,165.15c-7.225,0-13.103-5.878-13.103-13.103s5.878-13.102,13.103-13.102c7.225,0,13.102,5.877,13.102,13.102
		S134.7,165.15,127.476,165.15"/>
	<path clip-path="url(#SVGID_2_)" fill="#041E42" d="M127.621,124.284c3.144,0,5.691-2.548,5.691-5.691s-2.548-5.691-5.691-5.691
		c-3.143,0-5.691,2.548-5.691,5.691S124.479,124.284,127.621,124.284"/>
	<path clip-path="url(#SVGID_2_)" fill="#041E42" d="M127.621,179.792c-3.143,0-5.691,2.548-5.691,5.69
		c0,3.144,2.548,5.691,5.691,5.691c3.144,0,5.691-2.548,5.691-5.691C133.313,182.34,130.765,179.792,127.621,179.792"/>
	<path clip-path="url(#SVGID_2_)" fill="#041E42" d="M94.177,146.347c-3.143,0-5.691,2.548-5.691,5.691
		c0,3.143,2.548,5.69,5.691,5.69s5.691-2.548,5.691-5.69C99.868,148.895,97.32,146.347,94.177,146.347"/>
	<path clip-path="url(#SVGID_2_)" fill="#041E42" d="M155.375,152.038c0,3.143,2.548,5.691,5.69,5.691
		c3.144,0,5.691-2.549,5.691-5.691s-2.548-5.691-5.691-5.691C157.923,146.347,155.375,148.896,155.375,152.038"/>
	<path clip-path="url(#SVGID_2_)" fill="#041E42" d="M99.948,171.663c-2.223,2.223-2.223,5.826,0,8.048
		c2.222,2.223,5.826,2.223,8.048,0c2.223-2.222,2.223-5.825,0-8.048C105.774,169.44,102.17,169.44,99.948,171.663"/>
	<path clip-path="url(#SVGID_2_)" fill="#041E42" d="M155.294,132.413c2.224-2.222,2.224-5.826,0-8.048
		c-2.222-2.223-5.825-2.223-8.048,0c-2.223,2.222-2.223,5.826,0,8.048C149.469,134.636,153.072,134.636,155.294,132.413"/>
	<path clip-path="url(#SVGID_2_)" fill="#041E42" d="M107.997,132.413c2.222-2.222,2.222-5.826,0-8.048
		c-2.222-2.223-5.826-2.223-8.048,0c-2.223,2.222-2.223,5.826,0,8.048C102.17,134.636,105.774,134.636,107.997,132.413"/>
	<path clip-path="url(#SVGID_2_)" fill="#041E42" d="M147.246,171.663c-2.222,2.223-2.222,5.826,0,8.048
		c2.223,2.223,5.826,2.223,8.048,0c2.223-2.222,2.223-5.825,0-8.048C153.072,169.44,149.469,169.44,147.246,171.663"/>
</g>
</svg>
