<?xml version="1.0" encoding="iso-8859-1"?>
<!-- Generator: Adobe Illustrator 22.1.0, SVG Export Plug-In . SVG Version: 6.00 Build 0)  -->
<svg version="1.1" id="Lager_13" xmlns="http://www.w3.org/2000/svg" xmlns:xlink="http://www.w3.org/1999/xlink" x="0px" y="0px"
	 viewBox="0 0 256 256" style="enable-background:new 0 0 256 256;" xml:space="preserve">
<path style="fill:#161743;" d="M185.868,173.554c-2.215,30.319-27.844,54.323-59.051,54.323c-32.657,0-59.225-26.279-59.225-58.581
	c0-5.001,0.641-9.976,1.905-14.784l0.068-0.299c2.099-10.581,12.401-29.651,26.659-56.046c8.688-16.082,19.254-35.643,30.592-58.187
	c5.31,10.558,10.446,20.452,15.304,29.65c2.743-1.859,5.656-3.499,8.731-4.883c-6.149-11.646-12.742-24.405-19.552-38.188
	l-4.482-9.072l-4.482,9.072C109.388,52.759,97.21,75.301,87.426,93.414c-15.158,28.059-25.193,46.635-27.639,58.7
	c-1.457,5.594-2.196,11.373-2.196,17.182c0,37.815,31.054,68.581,69.225,68.581c37.759,0,68.533-30.11,69.193-67.364
	c-0.067,0.027-0.132,0.058-0.2,0.085C192.566,171.891,189.244,172.871,185.868,173.554z"/>
<path style="fill:#161743;" d="M225.292,111.177l-7.665-4.079c-3.603-1.917-7.404-3.192-11.261-3.851
	c7.568-5.972,12.689-14.81,13.862-24.89l1.002-8.625c0.275-2.349-0.639-4.665-2.446-6.193c-1.807-1.528-4.244-2.047-6.517-1.385
	l-8.339,2.426c-12.377,3.601-21.712,13.152-25.246,25.059c-2.447-5.197-6.125-9.872-10.906-13.575l-6.866-5.317
	c-1.87-1.448-4.326-1.863-6.569-1.105s-3.944,2.575-4.552,4.862l-2.232,8.392c-2.373,8.917-1.328,18.075,2.524,25.928
	c-1.043-0.645-2.121-1.249-3.241-1.797l-7.8-3.818c-2.124-1.042-4.614-0.948-6.655,0.246c-2.043,1.196-3.342,3.32-3.475,5.683
	l-0.489,8.671c-0.913,16.179,8.632,30.963,23.752,36.788c0.697,0.269,1.41,0.46,2.129,0.585
	c-4.493,5.978-10.072,11.537-16.704,16.622l-3.968,3.042l6.085,7.936l3.969-3.043c8.349-6.401,15.229-13.519,20.58-21.27
	c0.355,0.352,0.727,0.69,1.132,0.998c7.114,5.399,15.649,7.927,24.103,7.554c6.887-0.303,13.718-2.531,19.679-6.7l7.116-4.975
	c1.94-1.356,3.064-3.579,3.007-5.945s-1.288-4.531-3.29-5.79l-7.349-4.625c-1.826-1.149-3.723-2.111-5.664-2.913
	c5.976-1.11,11.727-3.694,16.694-7.735l6.739-5.482c1.834-1.494,2.792-3.791,2.563-6.145
	C228.766,114.359,227.382,112.289,225.292,111.177z M166.178,129.926c-0.596-2.033-1.364-4.005-2.293-5.897
	c1.167,0.668,2.424,1.113,3.717,1.329C167.111,126.883,166.642,128.407,166.178,129.926z M175.25,134.456
	c0.359-1.182,0.724-2.37,1.093-3.559c1.868,1.183,3.811,2.173,5.802,2.992c-2.514,0.463-4.987,1.172-7.378,2.155
	C174.928,135.513,175.091,134.982,175.25,134.456z M206.723,74.181l4.06-1.181l-0.488,4.201
	c-1.368,11.767-10.095,21.22-21.714,23.522c-0.474,0.088-0.81-0.09-1.011-0.261c-0.202-0.171-0.439-0.473-0.425-0.952
	C187.48,87.669,195.347,77.49,206.723,74.181z M157.22,85.468l1.088-4.088l3.345,2.59c9.366,7.253,12.949,19.609,8.913,30.748
	c-0.162,0.449-0.495,0.643-0.744,0.728c-0.251,0.087-0.635,0.131-1.036-0.127l0.001,0C158.823,108.912,154.174,96.916,157.22,85.468
	z M138.405,118.373l0.238-4.224l3.798,1.86c10.64,5.209,16.647,16.585,14.949,28.308c-0.068,0.474-0.355,0.732-0.583,0.865
	c-0.227,0.132-0.593,0.258-1.038,0.084l-0.001,0C144.715,141.008,137.738,130.2,138.405,118.373z M203.449,152.128
	c-9.709,6.787-22.57,6.538-32.007-0.625c-0.381-0.289-0.469-0.665-0.476-0.928c-0.006-0.264,0.064-0.643,0.429-0.949
	c4.714-3.952,10.441-6.087,16.262-6.344c5.388-0.237,10.858,1.137,15.678,4.17l3.579,2.253L203.449,152.128z M213.382,120.583
	c-9.188,7.475-22.035,8.16-31.968,1.703c-0.4-0.26-0.515-0.628-0.541-0.891c-0.025-0.262,0.016-0.645,0.36-0.978
	c8.5-8.249,21.236-10.057,31.696-4.491l3.734,1.987L213.382,120.583z"/>
</svg>
