<?xml version="1.0" encoding="utf-8"?>
<!-- Generator: Adobe Illustrator 16.0.3, SVG Export Plug-In . SVG Version: 6.00 Build 0)  -->
<!DOCTYPE svg PUBLIC "-//W3C//DTD SVG 1.1//EN" "http://www.w3.org/Graphics/SVG/1.1/DTD/svg11.dtd">
<svg version="1.1" id="Layer_1" xmlns="http://www.w3.org/2000/svg" xmlns:xlink="http://www.w3.org/1999/xlink" x="0px" y="0px"
	 width="256px" height="256px" viewBox="0 0 256 256" enable-background="new 0 0 256 256" xml:space="preserve">
<g>
	<defs>
		<rect id="SVGID_1_" width="256" height="256"/>
	</defs>
	<clipPath id="SVGID_2_">
		<use xlink:href="#SVGID_1_"  overflow="visible"/>
	</clipPath>
	<path clip-path="url(#SVGID_2_)" fill="#041E42" d="M206.037,18c-17.681,0-32.014,14.333-32.014,32.013
		c0,17.68,14.333,32.013,32.014,32.013s32.013-14.333,32.013-32.013C238.05,32.333,223.718,18,206.037,18 M225.883,53
		c-0.113-1-1.662-3.354-3.562-3.354S218.873,52,218.759,53h-2.354c-0.114-1-1.662-3.354-3.563-3.354
		c-1.898,0-3.448,2.354-3.562,3.354H204v6h-20V40h20v6h25v7H225.883z"/>
	<rect x="188" y="43" clip-path="url(#SVGID_2_)" fill="#041E42" width="6" height="13"/>
	<path clip-path="url(#SVGID_2_)" fill="#041E42" d="M184,113V80.005l-2.941-1.381C164.511,70.365,146.113,66,128.018,66
		c-18.095,0-36.554,4.365-53.103,12.624L72,80.005V113H56v30.774l2.183,1.467C62.697,148.04,67,150.573,72,152.855V238h25.829
		l6.644-23h46.917l6.644,23H184v-85.028c4-2.318,9.348-4.898,13.857-7.756l2.143-1.473V113H184z M72,141.694
		c-2-1.119-4-2.284-6-3.519V123h6V141.694z M174,228h-8.496l-6.644-23H97.002l-6.643,23H82v-70.834
		c1.548,0.609,3.113,1.179,4.686,1.725l11.448,38.009l2.324,0.868c7.64,2.85,19.856,4.388,27.473,4.388
		c7.617,0,19.834-1.538,27.473-4.388l2.324-0.868l11.39-37.814c1.636-0.558,3.265-1.143,4.882-1.769V228z M98.149,162.274
		c10.115,2.481,20.365,3.726,29.967,3.726h0.184c9.472,0,19.459-1.197,29.373-3.591l-8.055,26.743
		c-6.385,1.874-15.757,3.003-21.687,3.003s-15.302-1.129-21.686-3.003L98.149,162.274z M174,146.532
		c-15,6.299-30.993,9.468-45.7,9.468h-0.184C113.361,156,97,152.781,82,146.395V123h92V146.532z M174,113H82V86.238
		C97,79.532,112.447,76,128,76c15.553,0,31,3.532,46,10.238V113z M190,138.206c-2,1.257-4,2.443-6,3.58V123h6V138.206z"/>
</g>
</svg>
