<?xml version="1.0" encoding="utf-8"?>
<!-- Generator: Adobe Illustrator 22.1.0, SVG Export Plug-In . SVG Version: 6.00 Build 0)  -->
<svg version="1.1" id="Lager_6" xmlns="http://www.w3.org/2000/svg" xmlns:xlink="http://www.w3.org/1999/xlink" x="0px" y="0px"
	 viewBox="0 0 256 256" style="enable-background:new 0 0 256 256;" xml:space="preserve">
<style type="text/css">
	.st0{fill:#020E45;}
</style>
<g>
	<path class="st0" d="M238,120v-10H106v104h10v-8h18l-4,5v13h10v-9.5l6.7-8.5h4.9c-5.2,3-8.8,8.5-8.8,14.9c0,9.5,7.7,17.1,17.1,17.1
		s17.1-7.6,17.1-17.1c0-6.4-3.5-11.9-8.8-14.9h4l14.9,19H238v-29H116v-76H238z M213,206h15v9h-15V206z M203,206v9h-10.9l-7-9H203z
		 M160,213.7c3.9,0,7.1,3.2,7.1,7.1c0,3.9-3.2,7.1-7.1,7.1s-7.1-3.2-7.1-7.1C152.8,216.9,156,213.7,160,213.7z"/>
	<polygon class="st0" points="46.4,211 99,211 99,201 36.4,201 	"/>
	<path class="st0" d="M93,145H43v49h50V145z M83,184H53v-29h30V184z"/>
</g>
</svg>
