<?xml version="1.0" encoding="iso-8859-1"?>
<!-- Generator: Adobe Illustrator 19.2.0, SVG Export Plug-In . SVG Version: 6.00 Build 0)  -->
<svg version="1.1" id="Lager_6" xmlns="http://www.w3.org/2000/svg" xmlns:xlink="http://www.w3.org/1999/xlink" x="0px" y="0px"
	 viewBox="0 0 256 256" style="enable-background:new 0 0 256 256;" xml:space="preserve">
<g>
	<path style="fill:#041E42;" d="M28,153.498V79.002C28,74.59,31.593,71,36.005,71h133.553c4.412,0,8.442,3.59,8.442,8.002V105h10
		V79.002C188,69.075,179.484,61,169.558,61H36.005C26.079,61,18,69.075,18,79.002v74.496C18,163.425,26.079,172,36.005,172H147v-10
		H36.005C31.593,162,28,157.91,28,153.498z"/>
	<path style="fill:#041E42;" d="M213.56,119.513c8.422,0,15.273-6.853,15.273-15.274s-6.852-15.273-15.273-15.273
		c-8.425,0-15.279,6.852-15.279,15.273S205.135,119.513,213.56,119.513z M213.56,98.965c2.908,0,5.273,2.365,5.273,5.273
		s-2.365,5.274-5.273,5.274c-2.911,0-5.279-2.366-5.279-5.274S210.648,98.965,213.56,98.965z"/>
	<path style="fill:#041E42;" d="M235.213,128.601c-4.98-2.458-9.685-4.78-17.921-4.78c-8.077,0-14.717,4.395-15.761,5.122l0,0
		l-28.344,19.178l-20.508-10.484l-4.553,8.904l25.77,13.174l25.491-17.247l0.233,40.175l-0.035,49.354l0.057,5.004H231v-51.787
		l7-3.766v-51.472L235.213,128.601z M228,175.471l-7,3.766V227h-11.411l0.031-44.367l-0.271-46.692
		c1.898-0.954,4.85-2.12,7.942-2.12c4.629,0,7.485,0.917,10.708,2.401V175.471z"/>
	
		<rect x="104.298" y="86.64" transform="matrix(0.4552 -0.8904 0.8904 0.4552 -48.2577 163.2708)" style="fill:#041E42;" width="10" height="68.864"/>
</g>
</svg>
