<?xml version="1.0" encoding="iso-8859-1"?>
<!-- Generator: Adobe Illustrator 19.2.0, SVG Export Plug-In . SVG Version: 6.00 Build 0)  -->
<svg version="1.1" id="Lager_13" xmlns="http://www.w3.org/2000/svg" xmlns:xlink="http://www.w3.org/1999/xlink" x="0px" y="0px"
	 viewBox="0 0 256 256" style="enable-background:new 0 0 256 256;" xml:space="preserve">
<g>
	<path style="fill:#041E42;" d="M188.625,80.263C186.91,71.52,179.617,65,171.253,65H153v-6.855c0-13.285-10.767-24.093-24-24.093
		c-13.234,0-24,10.847-24,24.18V65H87.275c-8.365,0-15.657,6.52-17.373,15.263L33,204.952V238h192v-33.048L188.625,80.263z
		 M115,58.231c0-7.687,6.411-14.18,14-14.18c7.72,0,14,6.322,14,14.093V65h-28V58.231z M215,228H43v-21.602L79.492,83.119
		l0.169-0.449l0.108-0.482C80.571,78.103,83.808,75,87.275,75h83.978c3.467,0,6.685,3.103,7.487,7.188l0.086,0.451l0.198,0.436
		L215,206.379V228z"/>
	<polygon style="fill:#041E42;" points="84,137 94,137 94,157 101,157 101,137 110,137 110,131 84,131 	"/>
	<path style="fill:#041E42;" d="M134.706,132.514c-2.268-1.128-5.01-1.692-8.227-1.692c-3.216,0-5.958,0.564-8.226,1.692
		s-3.984,2.699-5.148,4.716c-1.165,2.016-1.746,4.355-1.746,7.02s0.582,5.004,1.746,7.021c1.164,2.016,2.88,3.588,5.148,4.716
		s5.01,1.692,8.226,1.692c3.217,0,5.959-0.564,8.227-1.692s3.984-2.7,5.148-4.716c1.164-2.017,1.746-4.356,1.746-7.021
		s-0.582-5.004-1.746-7.02C138.691,135.213,136.974,133.642,134.706,132.514z M134,144.934c0,2.16-0.681,3.912-1.941,5.256
		c-1.262,1.344-3.146,2.016-5.569,2.016s-4.308-0.672-5.568-2.016c-1.26-1.344-1.922-3.096-1.922-5.256v-1.368
		c0-2.16,0.675-3.912,1.935-5.256c1.26-1.344,3.147-2.017,5.57-2.017s4.292,0.673,5.553,2.017c1.26,1.344,1.941,3.096,1.941,5.256
		V144.934z"/>
	<polygon style="fill:#041E42;" points="167,149.037 154.236,131 145,131 145,157 152,157 152,139.209 164.999,157 174,157 174,131 
		167,131 	"/>
</g>
</svg>
