<?xml version="1.0" encoding="iso-8859-1"?>
<!-- Generator: Adobe Illustrator 19.2.0, SVG Export Plug-In . SVG Version: 6.00 Build 0)  -->
<svg version="1.1" id="Lager_13" xmlns="http://www.w3.org/2000/svg" xmlns:xlink="http://www.w3.org/1999/xlink" x="0px" y="0px"
	 viewBox="0 0 256 256" style="enable-background:new 0 0 256 256;" xml:space="preserve">
<g>
	<path style="fill:#041E42;" d="M127.241,18C66.485,18,17.237,67.248,17.237,127.996C17.237,188.744,66.485,238,127.241,238
		c60.748,0,109.996-49.256,109.996-110.004C237.237,67.248,187.989,18,127.241,18z M127.241,228
		c-55.143,0-100.004-44.862-100.004-100.004C27.237,72.858,72.099,28,127.241,28c55.138,0,99.996,44.858,99.996,99.996
		C227.237,183.138,182.379,228,127.241,228z"/>
	<path style="fill:#041E42;" d="M185.776,150.128l33.659-26.964l-2.68-20.962l-53.437-13.314l-0.006-0.084
		c-1.907-0.447-3.888-0.804-5.916-0.804H97.084c-2.384,0-4.702,0.451-6.911,1.063l-0.008,0.023l-52.291,13.091l-2.686,20.944
		l33.844,27.607l9.474,16.418l-12.566,27.856l16.829,11.853l24.001-12.151c0.765,0.067,1.536,0.295,2.314,0.295h36.311
		c0.863,0,1.716-0.236,2.562-0.319l24.047,12.266l16.828-11.898l-12.694-28.164l9.456-16.396
		C185.662,150.375,185.713,150.243,185.776,150.128z M208.805,118.867l-20.652,16.544c-0.052-0.269-0.085-0.54-0.147-0.808
		l-6.486-28.16c-0.233-1.013-0.558-1.99-0.928-2.946l27.112,6.756L208.805,118.867z M46.925,110.251l26.957-6.736
		c-0.367,0.95-0.689,1.921-0.921,2.928l-0.044,0.213c-2.694,14.56-4.045,24.16-4.641,30.556l-22.46-18.316L46.925,110.251z
		 M83.582,195.196l-5.127-3.61l6.21-13.767l2.716,4.706c1.674,2.899,3.956,5.364,6.645,7.305L83.582,195.196z M176.322,191.586
		l-5.127,3.61l-10.614-5.454c2.636-1.928,4.872-4.365,6.521-7.22l2.881-4.991L176.322,191.586z M176.936,145.479l-18.493,32.224
		c-2.536,4.389-7.534,7.296-13.046,7.296h-36.311c-5.511,0-10.51-2.908-13.044-7.294l-18.218-31.657
		c-0.497-4.01,2.109-22.38,4.906-37.52C84.168,102.51,90.188,98,97.084,98h60.313c6.934,0,12.98,4.512,14.378,10.58l6.487,28.219
		C178.937,139.711,178.465,142.829,176.936,145.479z"/>
	<path style="fill:#041E42;" d="M127.244,106.105c-10.58,0-19.188,8.604-19.188,19.18s8.608,19.181,19.188,19.181
		c10.576,0,19.181-8.604,19.181-19.181S137.82,106.105,127.244,106.105z M127.244,134.466c-5.066,0-9.188-4.118-9.188-9.181
		c0-5.062,4.122-9.18,9.188-9.18c5.062,0,9.181,4.118,9.181,9.18C136.425,130.348,132.307,134.466,127.244,134.466z"/>
</g>
</svg>
