<?xml version="1.0" encoding="utf-8"?>
<!-- Generator: Adobe Illustrator 16.0.3, SVG Export Plug-In . SVG Version: 6.00 Build 0)  -->
<!DOCTYPE svg PUBLIC "-//W3C//DTD SVG 1.1//EN" "http://www.w3.org/Graphics/SVG/1.1/DTD/svg11.dtd">
<svg version="1.1" id="Layer_1" xmlns="http://www.w3.org/2000/svg" xmlns:xlink="http://www.w3.org/1999/xlink" x="0px" y="0px"
	 width="256px" height="256px" viewBox="0 0 256 256" enable-background="new 0 0 256 256" xml:space="preserve">
<g>
	<defs>
		<rect id="SVGID_1_" width="256" height="256"/>
	</defs>
	<clipPath id="SVGID_2_">
		<use xlink:href="#SVGID_1_"  overflow="visible"/>
	</clipPath>
	<path clip-path="url(#SVGID_2_)" fill="#041E42" d="M214.53,69.428c-4.699-4.699-9.183-3.935-9.183-3.935
		c-5.58,0.794-11.452-0.955-15.742-5.247c-4.854-4.854-6.438-11.721-4.791-17.91l13.573,13.57l9.582-3.532l3.535-9.585
		l-13.571-13.57c6.188-1.648,13.058-0.066,17.911,4.789c4.292,4.292,6.041,10.164,5.247,15.744c0,0-0.565,4.679,3.935,9.179
		l8.094,8.094c3.096-4.926,4.893-10.751,4.893-16.999c0-17.673-14.327-32-32-32s-32,14.327-32,32s14.327,32,32,32
		c6.046,0,11.7-1.678,16.523-4.592L214.53,69.428z"/>
	<path clip-path="url(#SVGID_2_)" fill="#041E42" d="M211.706,136.343c-6.798,0-12.999,2.657-17.661,6.657H177v-4h-69v-5H98v5H74v10
		H56.351c-3.977-5-9.94-7.836-16.597-7.836c-11.946,0-21.665,9.681-21.665,21.627s9.719,21.503,21.665,21.503
		c7.278,0,13.725-3.294,17.656-9.294H74v10h103v-4h3v5h10v-5h2.946c4.762,5,11.411,7.945,18.76,7.945
		c14.448,0,26.202-11.854,26.202-26.301C237.908,148.196,226.154,136.343,211.706,136.343 M51,163.601
		c0,6.036-5.289,10.817-11.434,10.817c-6.432,0-11.571-5.233-11.571-11.665s5.092-11.665,11.524-11.665
		c6.145,0,11.481,4.781,11.481,10.817V163.601z M74,165H61v-6h13V165z M167,175H84v-26h14v8h10v-8h59V175z M186.848,171H177v-18
		h10.23c-1.111,3-1.726,6.248-1.726,9.536C185.505,165.424,185.981,168,186.848,171 M211.706,178.954
		c-8.934,0-16.201-7.268-16.201-16.201s7.268-16.202,16.201-16.202s16.202,7.269,16.202,16.202S220.64,178.954,211.706,178.954"/>
</g>
</svg>
