<?xml version="1.0" encoding="iso-8859-1"?>
<!-- Generator: Adobe Illustrator 19.2.0, SVG Export Plug-In . SVG Version: 6.00 Build 0)  -->
<svg version="1.1" id="Lager_13" xmlns="http://www.w3.org/2000/svg" xmlns:xlink="http://www.w3.org/1999/xlink" x="0px" y="0px"
	 viewBox="0 0 256 256" style="enable-background:new 0 0 256 256;" xml:space="preserve">
<path style="fill:#041E42;" d="M193.027,81.013C176.375,64.361,154.86,55.461,133,54.286V36h-10v18.288
	c-21.862,1.184-43.382,10.094-60.041,26.753C45.844,98.156,36,121.833,36,146v5h88v69c0,4.411-3.589,8-8,8s-8-3.589-8-8H98
	c0,9.941,8.059,18,18,18c9.941,0,18-8.059,18-18v-69h86v-5C220,121.815,210.142,98.129,193.027,81.013z M46.212,141
	c1.24-19.771,9.775-38.817,23.846-52.889C82.118,76.053,97.03,68.549,112.64,65.588C101.767,77.576,87.511,100.836,86.408,141
	H46.212z M96.411,141c0.872-30.032,9.499-48.576,16.801-59.637c5.473-8.289,10.982-13.401,14.141-15.951
	c7.588,5.945,29.622,27.306,31.06,75.589H96.411z M168.416,141c-1.113-40.518-15.615-63.801-26.522-75.667
	c16.143,2.751,31.616,10.319,44.049,22.75c14.071,14.072,22.606,33.129,23.846,52.917H168.416z"/>
</svg>
