<?xml version="1.0" encoding="iso-8859-1"?>
<!-- Generator: Adobe Illustrator 19.2.0, SVG Export Plug-In . SVG Version: 6.00 Build 0)  -->
<svg version="1.1" id="Lager_12" xmlns="http://www.w3.org/2000/svg" xmlns:xlink="http://www.w3.org/1999/xlink" x="0px" y="0px"
	 viewBox="0 0 256 256" style="enable-background:new 0 0 256 256;" xml:space="preserve">
<g>
	<path style="fill:#041E42;" d="M78.984,116.052c7.774,0,14.098-6.324,14.098-14.098c0-7.774-6.324-14.099-14.098-14.099
		c-7.776,0-14.103,6.324-14.103,14.099C64.881,109.728,71.208,116.052,78.984,116.052z M78.984,97.855
		c2.26,0,4.098,1.839,4.098,4.099s-1.838,4.098-4.098,4.098c-2.262,0-4.103-1.838-4.103-4.098S76.722,97.855,78.984,97.855z"/>
	<path style="fill:#041E42;" d="M97.677,168.997l-0.192-45.246l-3.231-1.211c-14.989-5.614-29.008-0.2-29.597,0.033l-3.132,1.323
		L61.209,162H38.258l-20.299,58h26.675l11.825-31h13.65c9.396,0,17.223-6.68,18.746-15.65L97.677,168.997z M79,167.274v3.055
		c0,4.97-3.92,8.671-8.891,8.671H49.598l-11.825,31h-5.733l13.319-38h25.766l0.339-40.942c3.513-0.813,9.563-1.7,16.05-0.106
		l0.074,31.971L79,167.274z"/>
	<path style="fill:#041E42;" d="M149.152,116.052c7.773,0,14.098-6.324,14.098-14.098c0-7.774-6.324-14.099-14.098-14.099
		c-7.776,0-14.104,6.324-14.104,14.099C135.049,109.728,141.376,116.052,149.152,116.052z M149.152,97.855
		c2.26,0,4.098,1.839,4.098,4.099s-1.838,4.098-4.098,4.098c-2.263,0-4.104-1.838-4.104-4.098S146.89,97.855,149.152,97.855z"/>
	<path style="fill:#041E42;" d="M167.845,168.997l-0.191-45.246l-3.231-1.211c-14.989-5.615-29.008-0.2-29.598,0.033l-3.132,1.323
		L131.377,162h-22.951l-20.299,58h26.676l11.825-31h13.649c9.396,0,17.224-6.68,18.747-15.65L167.845,168.997z M149,167.274v3.055
		c0,4.97-3.752,8.671-8.723,8.671h-20.511l-11.825,31h-5.733l13.319-38h25.767l0.338-40.942c3.515-0.813,9.562-1.699,16.051-0.106
		l-0.01,31.971L149,167.274z"/>
	<path style="fill:#041E42;" d="M219.32,116.052c7.773,0,14.098-6.324,14.098-14.098c0-7.774-6.324-14.099-14.098-14.099
		c-7.776,0-14.103,6.324-14.103,14.099C205.218,109.728,211.544,116.052,219.32,116.052z M219.32,97.855
		c2.26,0,4.098,1.839,4.098,4.099s-1.838,4.098-4.098,4.098c-2.262,0-4.103-1.838-4.103-4.098S217.059,97.855,219.32,97.855z"/>
	<path style="fill:#041E42;" d="M237.821,123.751l-3.231-1.211c-14.989-5.615-29.008-0.2-29.598,0.033l-3.132,1.323L201.545,162
		h-22.95l-20.3,58h26.676l11.825-31h13.649c9.396,0,17.224-6.68,18.747-15.65l8.82-4.439L237.821,123.751z M219,167.274v3.055
		c0,4.97-3.584,8.671-8.555,8.671h-20.511l-11.825,31h-5.732l13.319-38h25.767l0.338-40.942c3.514-0.813,9.562-1.699,16.051-0.106
		l-0.094,31.971L219,167.274z"/>
</g>
</svg>
