<?xml version="1.0" encoding="iso-8859-1"?>
<!-- Generator: Adobe Illustrator 22.1.0, SVG Export Plug-In . SVG Version: 6.00 Build 0)  -->
<svg version="1.1" id="Lager_13" xmlns="http://www.w3.org/2000/svg" xmlns:xlink="http://www.w3.org/1999/xlink" x="0px" y="0px"
	 viewBox="0 0 256 256" style="enable-background:new 0 0 256 256;" xml:space="preserve">
<path style="fill:#161743;" d="M185.868,173.554c-2.215,30.319-27.844,54.323-59.051,54.323c-32.657,0-59.225-26.279-59.225-58.581
	c0-5.001,0.641-9.976,1.905-14.784l0.068-0.299c2.099-10.581,12.401-29.651,26.659-56.046c8.688-16.082,19.254-35.643,30.592-58.187
	c5.31,10.558,10.446,20.452,15.304,29.65c2.743-1.859,5.656-3.499,8.731-4.883c-6.149-11.646-12.742-24.405-19.552-38.188
	l-4.482-9.072l-4.482,9.072C109.388,52.759,97.21,75.301,87.426,93.414c-15.158,28.059-25.193,46.635-27.639,58.7
	c-1.457,5.594-2.196,11.373-2.196,17.182c0,37.815,31.054,68.581,69.225,68.581c37.759,0,68.533-30.11,69.193-67.364
	c-0.067,0.027-0.132,0.058-0.2,0.085C192.566,171.891,189.244,172.871,185.868,173.554z"/>
<polygon style="fill:#161743;" points="147.265,194.348 165.861,134 136,134 175.837,61.581 157.137,122 187,122 "/>
</svg>
