<?xml version="1.0" encoding="iso-8859-1"?>
<!-- Generator: Adobe Illustrator 19.2.0, SVG Export Plug-In . SVG Version: 6.00 Build 0)  -->
<svg version="1.1" id="Lager_13" xmlns="http://www.w3.org/2000/svg" xmlns:xlink="http://www.w3.org/1999/xlink" x="0px" y="0px"
	 viewBox="0 0 256 256" style="enable-background:new 0 0 256 256;" xml:space="preserve">
<g>
	<path style="fill:#041E42;" d="M31,82v34.827l2.458,1.451c5.975,3.526,15.45,7.324,19.247,8.793l6.805,2.633L59.508,82H31z
		 M50,114.979c-4-1.397-6.681-2.756-9-3.961V92h9V114.979z"/>
	<path style="fill:#041E42;" d="M195.968,82l0.327,47.685l6.755-2.613c6.695-2.591,14.089-5.918,19.295-8.683l2.655-1.41V82H195.968
		z M215,110.917c-2.643,1.312-5.697,2.718-8.806,4.06L206.036,92H215V110.917z"/>
	<path style="fill:#041E42;" d="M66,128.249l3.204,1.233C94.583,139.251,114.03,144,128.658,144h0.764
		c18.011,0,43.168-7.209,57.693-13.991l2.885-1.347V82H66V128.249z M76,92h104v30.235C166.003,128.222,144.322,134,129.422,134
		h-0.764c-12.781,0-30.031-4.136-52.658-12.632V92z"/>
	<path style="fill:#041E42;" d="M128.229,18.58c-20.897,0-43.133,4.921-59.48,13.163L66,33.13V74h124V33.064l-2.537-1.437
		C171.54,22.614,146.239,18.58,128.229,18.58z M180,64H76V39.352c14.583-6.681,34.266-10.771,52.229-10.771
		c18.455,0,39.162,4.218,51.771,10.414V64z"/>
	<path style="fill:#041E42;" d="M152.145,187.786c-7.594,2.635-17.193,5.214-23.55,5.214H128h-0.594
		c-6.357,0-15.956-2.579-23.55-5.214l-12.503-43.169L66,137.7V238h30.283l7.037-20h49.36l7.037,20H190V137.7l-25.352,6.917
		L152.145,187.786z M180,150.722V228h-13.085l-7.037-20H96.122l-7.037,20H76v-77.278l7.55,2.131l12.227,42.507l2.263,0.981
		c7.95,2.972,20.119,6.659,28.976,6.659h1.968c8.857,0,21.046-3.687,28.996-6.659l2.283-0.942l12.187-42.527L180,150.722z"/>
</g>
</svg>
