<?xml version="1.0" encoding="iso-8859-1"?>
<!-- Generator: Adobe Illustrator 19.2.1, SVG Export Plug-In . SVG Version: 6.00 Build 0)  -->
<svg version="1.1" id="Lager_12" xmlns="http://www.w3.org/2000/svg" xmlns:xlink="http://www.w3.org/1999/xlink" x="0px" y="0px"
	 viewBox="0 0 256 256" style="enable-background:new 0 0 256 256;" xml:space="preserve">
<g>
	<path style="fill:#041E42;" d="M206.004,50.336c-21.453-21.453-49.57-32.179-77.687-32.179c-28.117,0-56.234,10.726-77.687,32.179
		c-42.905,42.905-42.905,112.468,0,155.373c21.453,21.453,49.57,32.179,77.687,32.179c28.117,0,56.234-10.726,77.687-32.179
		C248.909,162.805,248.909,93.242,206.004,50.336z M198.933,57.407c37.784,37.784,38.927,98.56,3.382,137.706L171,163.772V66.192
		c0-4.708-3.87-8.192-8.579-8.192h-67.1C90.613,58,87,61.484,87,66.192v13.429L61.327,54.05
		c18.407-16.733,41.994-25.892,67.041-25.892C155.043,28.158,180.07,38.545,198.933,57.407z M161,77H97v-9h64V77z M97,103.762
		L154.536,162H97V103.762z M97,172h64v19H97V172z M97,89.621V87h64v66.772L97,89.621z M57.701,198.639
		c-37.72-37.72-38.797-98.356-3.436-137.509L87,93.762v98.712c0,4.708,3.613,8.525,8.321,8.525h67.1
		c4.708,0,8.579-3.817,8.579-8.525v-14.561l24.237,24.263c-18.378,16.618-41.95,25.712-66.906,25.712
		C101.655,227.889,76.563,217.501,57.701,198.639z"/>
	<rect x="116" y="176" style="fill:#041E42;" width="26" height="10"/>
</g>
</svg>
