<?xml version="1.0" encoding="iso-8859-1"?>
<!-- Generator: Adobe Illustrator 19.2.0, SVG Export Plug-In . SVG Version: 6.00 Build 0)  -->
<svg version="1.1" id="Lager_13" xmlns="http://www.w3.org/2000/svg" xmlns:xlink="http://www.w3.org/1999/xlink" x="0px" y="0px"
	 viewBox="0 0 256 256" style="enable-background:new 0 0 256 256;" xml:space="preserve">
<g>
	<rect x="90" y="107" style="fill:#041E42;" width="80" height="10"/>
	<rect x="90" y="135" style="fill:#041E42;" width="80" height="10"/>
	<path style="fill:#041E42;" d="M201,51V35h-8V18H69.193C57.397,18,48,27.7,48,39.494v0.302v10.51v148.563
		C48,210.491,57.253,220,68.875,220H79v18l14.5-13l14.5,13v-18h101V51H201z M69.193,28H183v7H70v16h-0.807
		c-6.283,0-11.396-5.217-11.396-11.5S62.91,28,69.193,28z M191,45v6h-8H80v-6H191z M199,210H68.875
		C62.767,210,58,204.978,58,198.869v-141.2C61,59.773,65.006,61,69.193,61H199V210z"/>
</g>
</svg>
