<?xml version="1.0" encoding="utf-8"?>
<!-- Generator: Adobe Illustrator 16.0.3, SVG Export Plug-In . SVG Version: 6.00 Build 0)  -->
<!DOCTYPE svg PUBLIC "-//W3C//DTD SVG 1.1//EN" "http://www.w3.org/Graphics/SVG/1.1/DTD/svg11.dtd">
<svg version="1.1" id="Layer_1" xmlns="http://www.w3.org/2000/svg" xmlns:xlink="http://www.w3.org/1999/xlink" x="0px" y="0px"
	 width="256px" height="256px" viewBox="0 0 256 256" enable-background="new 0 0 256 256" xml:space="preserve">
<g>
	<defs>
		<rect id="SVGID_1_" width="256" height="256"/>
	</defs>
	<clipPath id="SVGID_2_">
		<use xlink:href="#SVGID_1_"  overflow="visible"/>
	</clipPath>
	<path clip-path="url(#SVGID_2_)" fill="#041E42" d="M179,174.937l-0.093-0.155C178.937,174.834,178.97,174.885,179,174.937"/>
	<path clip-path="url(#SVGID_2_)" fill="#041E42" d="M206.013,18.026c-17.673,0-32,14.327-32,32c0,17.673,14.327,32,32,32
		c6.046,0,11.7-1.678,16.523-4.592l-8.006-8.006c-4.699-4.699-9.183-3.935-9.183-3.935c-5.58,0.793-11.452-0.955-15.742-5.247
		c-4.854-4.854-6.438-11.721-4.791-17.911l13.573,13.57l9.582-3.531l3.535-9.585l-13.571-13.57
		c6.188-1.648,13.058-0.066,17.911,4.788c4.292,4.293,6.041,10.165,5.247,15.744c0,0-0.564,4.68,3.936,9.18l8.093,8.094
		c3.096-4.926,4.893-10.751,4.893-16.999C238.013,32.353,223.686,18.026,206.013,18.026"/>
	<rect x="92" y="202" clip-path="url(#SVGID_2_)" fill="#041E42" width="15" height="10"/>
	<path clip-path="url(#SVGID_2_)" fill="#041E42" d="M70,238h23.121l5.726-13h55.231l5.726,13H182v-39h7V81.557
		c-6.021-3.37-10.959-8.438-14.17-14.557H64v132h6V238z M172,228h-5.673l-5.726-13H92.323l-5.725,13H80v-29h92V228z M74.021,77H179
		h0.021l-0.13,112H74h-0.109L74.021,77z"/>
	<path clip-path="url(#SVGID_2_)" fill="#041E42" d="M89.114,116.264l9.531,6.187l3.383,10.848l10.03,5.341l4.306,10.518
		l10.454,4.455l5.198,10.105l10.801,3.536l6.053,9.618l16.506,3.629l-4.678-29.454l-9.524-6.188l-3.37-10.845l-10.023-5.342
		l-4.295-10.513l-10.447-4.457l-5.186-10.104l-10.792-3.537l-6.04-9.619l-16.203-3.808l4.284,29.571L89.114,116.264z
		 M100.513,108.438l10.319,3.383l4.96,9.662l9.99,4.262l4.107,10.054l9.584,5.107l3.224,10.37l9.106,5.917l1.858,8.519l-4.304-6.839
		l-10.328-3.382l-4.97-9.662l-9.997-4.262l-4.118-10.057l-9.593-5.108l-3.235-10.374l-9.115-5.917l-1.907-8.709L100.513,108.438z"/>
</g>
</svg>
