<?xml version="1.0" encoding="iso-8859-1"?>
<!-- Generator: Adobe Illustrator 19.2.0, SVG Export Plug-In . SVG Version: 6.00 Build 0)  -->
<svg version="1.1" id="Lager_13" xmlns="http://www.w3.org/2000/svg" xmlns:xlink="http://www.w3.org/1999/xlink" x="0px" y="0px"
	 viewBox="0 0 256 256" style="enable-background:new 0 0 256 256;" xml:space="preserve">
<path style="fill:#041E42;" d="M238,123h-21.522C213.935,78.14,177.871,42.103,133,39.601V18h-10v21.603
	C78.14,42.117,42.09,78.149,39.547,123H18v10h21.538c2.475,44.918,38.555,81.024,83.462,83.541V238h10v-21.458
	c44.919-2.505,81.012-38.616,83.488-83.542H238V123z M133,206.511V184h-10v22.509c-39.388-2.493-70.98-34.11-73.431-73.509H72v-10
	H49.58C52.099,83.668,83.66,52.125,123,49.635V72h10V49.633c39.352,2.478,70.926,34.027,73.446,73.367H184v10h22.457
	C204.005,172.407,172.4,204.03,133,206.511z"/>
</svg>
