<?xml version="1.0" encoding="iso-8859-1"?>
<!-- Generator: Adobe Illustrator 19.2.0, SVG Export Plug-In . SVG Version: 6.00 Build 0)  -->
<svg version="1.1" id="Lager_13" xmlns="http://www.w3.org/2000/svg" xmlns:xlink="http://www.w3.org/1999/xlink" x="0px" y="0px"
	 viewBox="0 0 256 256" style="enable-background:new 0 0 256 256;" xml:space="preserve">
<g>
	<path style="fill:#041E42;" d="M95.48,128.055C95.48,110.8,109,96.763,127,96.763v-10c-23,0-41.52,18.51-41.52,41.278
		s18.296,41.279,41.064,41.279S167.837,151,167.837,128h-10c0,17-13.923,31.32-31.178,31.32
		C109.404,159.32,95.48,145.31,95.48,128.055z"/>
	<path style="fill:#041E42;" d="M226.09,128c0,55-44.542,99.572-99.431,99.572c-54.889,0-99.431-44.628-99.431-99.518
		S72,28.51,127,28.51v-10c-61,0-109.772,49.128-109.772,109.531s48.914,109.531,109.317,109.531S236.09,188,236.09,128H226.09z"/>
	<path style="fill:#041E42;" d="M192,128.046c0,36.123-29.5,65.512-65.652,65.512c-36.225,0-65.784-29.544-65.784-65.858
		C60.564,91.288,90,61.665,126,61.665v-10c-41,0-75.436,34.108-75.436,76.034c0,41.828,34.133,75.858,75.873,75.858
		c41.666,0,75.563-33.874,75.563-75.512V67.179l30,29.998V83.094l-35.946-36.003L160,83.044v14.141l32-31.909V128.046z"/>
</g>
</svg>
