<?xml version="1.0" encoding="utf-8"?>
<!-- Generator: Adobe Illustrator 16.0.3, SVG Export Plug-In . SVG Version: 6.00 Build 0)  -->
<!DOCTYPE svg PUBLIC "-//W3C//DTD SVG 1.1//EN" "http://www.w3.org/Graphics/SVG/1.1/DTD/svg11.dtd">
<svg version="1.1" id="Layer_1" xmlns="http://www.w3.org/2000/svg" xmlns:xlink="http://www.w3.org/1999/xlink" x="0px" y="0px"
	 width="256px" height="256px" viewBox="0 0 256 256" enable-background="new 0 0 256 256" xml:space="preserve">
<g>
	<defs>
		<rect id="SVGID_1_" width="256" height="256"/>
	</defs>
	<clipPath id="SVGID_2_">
		<use xlink:href="#SVGID_1_"  overflow="visible"/>
	</clipPath>
	<path clip-path="url(#SVGID_2_)" fill="#041E42" d="M191.311,64.689c-5.217-5.217-11.5-7.826-18.85-7.826h-88.92
		c-7.348,0-13.632,2.608-18.85,7.826c-5.217,5.218-7.826,11.502-7.826,18.85v88.919c0,7.348,2.609,13.633,7.826,18.852
		c5.218,5.217,11.502,7.826,18.85,7.826h88.92c7.348,0,13.633-2.609,18.848-7.826c5.219-5.219,7.826-11.502,7.826-18.852V83.54
		C199.135,76.192,196.525,69.908,191.311,64.689z M114.775,141.893c-3.83,3.83-8.459,5.746-13.895,5.746
		c-5.434,0-10.064-1.916-13.894-5.746c-3.828-3.826-5.743-8.457-5.743-13.893s1.914-10.066,5.743-13.894
		c3.827-3.829,8.46-5.744,13.894-5.744s10.064,1.915,13.895,5.744c3.828,3.828,5.742,8.458,5.742,13.894
		C120.518,133.432,118.604,138.066,114.775,141.893z M167.014,141.893c-3.826,3.83-8.457,5.746-13.895,5.746
		c-5.434,0-10.064-1.916-13.895-5.746c-3.826-3.826-5.742-8.457-5.742-13.893s1.916-10.066,5.742-13.894
		c3.83-3.829,8.461-5.744,13.895-5.744s10.066,1.915,13.895,5.744c3.828,3.828,5.744,8.458,5.744,13.894
		C172.758,133.432,170.842,138.066,167.014,141.893z"/>
</g>
</svg>
