<?xml version="1.0" encoding="utf-8"?>
<!-- Generator: Adobe Illustrator 16.0.3, SVG Export Plug-In . SVG Version: 6.00 Build 0)  -->
<!DOCTYPE svg PUBLIC "-//W3C//DTD SVG 1.1//EN" "http://www.w3.org/Graphics/SVG/1.1/DTD/svg11.dtd">
<svg version="1.1" id="Layer_1" xmlns="http://www.w3.org/2000/svg" xmlns:xlink="http://www.w3.org/1999/xlink" x="0px" y="0px"
	 width="256px" height="256px" viewBox="0 0 256 256" enable-background="new 0 0 256 256" xml:space="preserve">
<g>
	<defs>
		<rect id="SVGID_1_" width="256" height="256"/>
	</defs>
	<clipPath id="SVGID_2_">
		<use xlink:href="#SVGID_1_"  overflow="visible"/>
	</clipPath>
	<path clip-path="url(#SVGID_2_)" fill="#041E42" d="M184,113V80.005l-2.941-1.381C164.511,70.365,146.113,66,128.018,66
		c-18.095,0-36.554,4.365-53.103,12.624L72,80.005V113H56v30.774l2.183,1.467C62.697,148.04,67,150.573,72,152.855V238h25.829
		l6.644-23h46.917l6.644,23H184v-85.028c4-2.318,9.348-4.898,13.857-7.756l2.143-1.473V113H184z M72,141.694
		c-2-1.119-4-2.284-6-3.519V123h6V141.694z M174,228h-8.496l-6.644-23H97.002l-6.643,23H82v-70.834
		c1.548,0.609,3.113,1.179,4.686,1.725l11.448,38.009l2.324,0.868c7.64,2.85,19.856,4.388,27.473,4.388
		c7.617,0,19.834-1.538,27.473-4.388l2.324-0.868l11.39-37.814c1.636-0.558,3.265-1.143,4.882-1.769V228z M98.149,162.274
		c10.115,2.481,20.365,3.726,29.967,3.726h0.184c9.472,0,19.459-1.197,29.373-3.591l-8.055,26.743
		c-6.385,1.874-15.757,3.003-21.687,3.003s-15.302-1.129-21.686-3.003L98.149,162.274z M174,146.532
		c-15,6.299-30.993,9.468-45.7,9.468h-0.184C113.361,156,97,152.781,82,146.395V123h92V146.532z M174,113H82V86.238
		C97,79.532,112.447,76,128,76c15.553,0,31,3.532,46,10.238V113z M190,138.206c-2,1.257-4,2.443-6,3.58V123h6V138.206z"/>
	<path clip-path="url(#SVGID_2_)" fill="#041E42" d="M206.021,18C188.34,18,174,32.33,174,50.01c0,17.68,14.34,32.02,32.021,32.02
		c17.68,0,32.01-14.34,32.01-32.02C238.03,32.33,223.7,18,206.021,18 M192.437,58.5l-1.531-4h-7.102l-1.552,4h-3.245l6.513-18h3.771
		l6.543,18H192.437z M212.633,54.082L212.633,54.082c-0.648,1.383-1.626,2.479-2.902,3.255c-1.271,0.771-2.83,1.163-4.641,1.163
		h-6.609v-18h6.609c2.033,0,3.466,0.318,4.641,1.032c1.322,0.805,2.271,1.851,2.902,3.197c0.645,1.363,0.957,2.881,0.957,4.641
		C213.59,51.142,213.269,52.728,212.633,54.082 M228.299,58.5l-4.18-6h-4.639v6h-3v-18h8.359c1.054,0,2.166,0.076,3.181,0.632
		c1.066,0.583,1.726,1.183,2.202,2.008c0.522,0.902,0.788,1.935,0.788,3.07c0,1.364-0.389,2.566-1.151,3.573
		c-0.625,0.821-1.445,1.432-2.442,1.823l4.585,6.894H228.299z"/>
	<polygon clip-path="url(#SVGID_2_)" fill="#041E42" points="184.119,52 190.591,52 187.379,42.611 	"/>
	<path clip-path="url(#SVGID_2_)" fill="#041E42" d="M208.178,43.595c-0.86-0.527-1.89-0.595-3.09-0.595h-4.107v13h4.107
		c1.2,0,2.229-0.196,3.09-0.725c0.859-0.526,1.599-1.221,2.045-2.153c0.446-0.933,0.758-1.95,0.758-3.118v-1.265
		c0-1.168-0.312-2.12-0.758-3.052C209.776,44.754,209.037,44.121,208.178,43.595"/>
	<path clip-path="url(#SVGID_2_)" fill="#041E42" d="M227.98,45.942c0-1.053-0.207-1.678-0.914-2.262
		c-0.705-0.584-1.48-0.68-2.615-0.68h-5.471v7h5.471c1.135,0,1.91-0.388,2.615-0.97c0.707-0.584,0.914-1.498,0.914-2.553V45.942z"/>
</g>
</svg>
