<?xml version="1.0" encoding="utf-8"?>
<!-- Generator: Adobe Illustrator 16.0.3, SVG Export Plug-In . SVG Version: 6.00 Build 0)  -->
<!DOCTYPE svg PUBLIC "-//W3C//DTD SVG 1.1//EN" "http://www.w3.org/Graphics/SVG/1.1/DTD/svg11.dtd">
<svg version="1.1" id="Layer_1" xmlns="http://www.w3.org/2000/svg" xmlns:xlink="http://www.w3.org/1999/xlink" x="0px" y="0px"
	 width="256px" height="256px" viewBox="0 0 256 256" enable-background="new 0 0 256 256" xml:space="preserve">
<g>
	<defs>
		<rect id="SVGID_1_" width="256" height="256"/>
	</defs>
	<clipPath id="SVGID_2_">
		<use xlink:href="#SVGID_1_"  overflow="visible"/>
	</clipPath>
	<path clip-path="url(#SVGID_2_)" fill="#041E42" d="M68.819,211.106c1.029,1.252,1.87,2.663,2.495,4.186
		c0.624-1.522,1.465-2.934,2.494-4.186c0.031-0.037,0.064-0.071,0.097-0.106h-5.184C68.752,211.037,68.788,211.069,68.819,211.106"
		/>
	<path clip-path="url(#SVGID_2_)" fill="#041E42" d="M206.013,87.365c6.046,0,11.7-1.678,16.523-4.592l-8.006-8.006
		c-4.699-4.699-9.183-3.935-9.183-3.935c-5.58,0.793-11.452-0.955-15.742-5.247c-4.854-4.854-6.438-11.721-4.791-17.911
		l13.573,13.57l9.582-3.531l3.535-9.585l-13.571-13.57c6.188-1.648,13.058-0.066,17.911,4.788c4.292,4.293,6.04,10.165,5.247,15.744
		c0,0-0.564,4.68,3.936,9.18l8.093,8.094c3.096-4.926,4.893-10.751,4.893-16.999c0-17.673-14.327-32-32-32s-32,14.327-32,32
		S188.34,87.365,206.013,87.365"/>
	<path clip-path="url(#SVGID_2_)" fill="#041E42" d="M222.476,125.474c-13.035-1.58-58.771-6.838-58.771-6.838L157,145.241v49.345
		l4.416,12.039c-2.083-0.959-4.394-1.508-6.837-1.508c-2.799,0-5.432,0.705-7.737,1.941c-0.068,0.037-0.133,0.083-0.202,0.122
		L152,153.87v-36.797l67.282-5.884l-0.973-9.96L142,107.911v25.539l-45.692-17.876c-4.394-1.915-9.32-1.679-13.668,0.243L41.131,134
		h-7.757l-15.416,37.97l14.567,35.914l-7.089,6.96l7.034,7.079l10.521-10.144c-2.013,2.721-3.218,6.076-3.218,9.721
		c0,9.048,7.335,16.383,16.383,16.383c6.85,0,12.711-4.207,15.158-10.176c2.447,5.969,8.308,10.176,15.157,10.176
		c9.048,0,16.383-7.335,16.383-16.383c0-0.391,0.007-0.773-0.02-1.156v-0.007l3.852,3.663h31.72
		c1.207,7.858,7.977,13.883,16.173,13.883c9.048,0,16.383-7.339,16.383-16.387c0-3.993-1.432-7.496-3.806-10.496h10.461l5.437-4.742
		c6.281-4.81,16.114-4.308,21.822,1.171l0.634,0.584c2.865,3.031,5.49,7.023,5.49,11.072V229h27v-55.261l-6.412-39.372
		C230.788,129.611,227.126,126.037,222.476,125.474 M142,144v9.352l-1.714,18.277l-27.919,0.215L121.561,144H142z M86.742,124.981
		c1.85-0.817,3.97-0.702,5.816,0.121L115.105,134H66.368L86.742,124.981z M28.805,171.925L40.122,144h26.561l-9.249,27.823
		L28.805,171.925z M40.617,201l-7.893-19.466l21.412-0.02L47.702,201H40.617z M56.156,227.883c-3.519,0-6.383-2.864-6.383-6.383
		c0-3.52,2.864-6.383,6.383-6.383c3.52,0,6.383,2.863,6.383,6.383C62.539,225.019,59.676,227.883,56.156,227.883 M73.808,211.107
		c-1.029,1.252-1.87,2.661-2.494,4.185c-0.624-1.523-1.466-2.933-2.495-4.185c-0.03-0.038-0.066-0.07-0.098-0.107h5.184
		C73.872,211.035,73.839,211.07,73.808,211.107 M86.471,227.883c-3.519,0-6.383-2.864-6.383-6.383c0-3.52,2.864-6.383,6.383-6.383
		c3.52,0,6.383,2.863,6.383,6.383C92.854,225.019,89.991,227.883,86.471,227.883 M92.389,201H58.232l6.433-19.454l34.044-0.013
		L92.389,201z M101.95,171.84l-33.988,0.101L77.213,144h33.836L101.95,171.84z M102.901,201l6.318-19.436l30.213-0.017L137.407,201
		H102.901z M141.916,211.107c-0.731,0.889-1.359,1.861-1.892,2.893h-29.376l-3.076-3h34.441
		C141.982,211.037,141.946,211.07,141.916,211.107 M154.579,227.883c-3.521,0-6.383-2.864-6.383-6.383
		c0-3.52,2.862-6.383,6.383-6.383c3.52,0,6.383,2.863,6.383,6.383C160.962,225.019,158.099,227.883,154.579,227.883
		 M227.039,168.647l-34.061-6.751l-4.402-9.057l0.611-3.611l35.035,2.124L227.039,168.647z M228,197h-5v16.678l5,0.953V219h-8
		c-0.022-7-2.989-13.838-8.148-18.789l-1.464-1.352l-0.113-0.001c-9.363-7.714-22.723-8.035-32.496-0.548L174.242,201h-4.235
		L167,192.811v-46.329l4.261-16.911c10.956,1.263,39.54,4.562,50.013,5.831c0.294,0.035,0.408,0.358,0.449,0.599l0.853,5.234
		l-41.744-2.53l-2.649,15.624l7.977,16.412L228,179.031V197z"/>
	<path clip-path="url(#SVGID_2_)" fill="#041E42" d="M192.976,205.117c-9.048,0-16.383,7.335-16.383,16.383
		s7.335,16.383,16.383,16.383s16.383-7.335,16.383-16.383S202.023,205.117,192.976,205.117 M192.976,227.883
		c-3.521,0-6.383-2.863-6.383-6.383c0-3.521,2.862-6.383,6.383-6.383c3.52,0,6.383,2.862,6.383,6.383
		C199.358,225.02,196.495,227.883,192.976,227.883"/>
</g>
</svg>
