<svg id="Layer_1" data-name="Layer 1" xmlns="http://www.w3.org/2000/svg" viewBox="0 0 256 256"><defs><style>.cls-1{fill:#281e42;}</style></defs><title>54-72</title><path class="cls-1" d="M47.5419,45.0379a3.5011,3.5011,0,0,0-2.64-2.7661L27.5282,38.1883l-1.6015,6.8145,15.1518,3.561L64.9638,176.46a3.4737,3.4737,0,0,0,.2407.75,22.8224,22.8224,0,1,0,30.5292,2.1073H178.27a22.8031,22.8031,0,1,0,16.4281-7.0054c-.0711,0-.141.0047-.2119.0054H79.5174c-.0709-.0007-.1408-.0054-.2118-.0054s-.1409.0047-.2119.0054H71.311l-2.6651-14.2714,149.0982-8.5318,12.5722-74.6709H53.108ZM95.1254,195.1317A15.82,15.82,0,1,1,79.2,179.3177h.212A15.8345,15.8345,0,0,1,95.1254,195.1317Zm115.3921,0a15.82,15.82,0,1,1-15.9253-15.814h.212A15.8344,15.8344,0,0,1,210.5175,195.1317ZM222.039,81.8436l-10.27,61.001L67.35,151.1093,54.4153,81.8436Z"/></svg>