<?xml version="1.0" encoding="utf-8"?>
<!-- Generator: Adobe Illustrator 24.1.0, SVG Export Plug-In . SVG Version: 6.00 Build 0)  -->
<svg version="1.1" id="Layer_1" xmlns="http://www.w3.org/2000/svg" xmlns:xlink="http://www.w3.org/1999/xlink" x="0px" y="0px"
	 viewBox="0 0 256 256" style="enable-background:new 0 0 256 256;" xml:space="preserve">
<style type="text/css">
	.st0{fill:#041E42;}
</style>
<path class="st0" d="M213.9,77.5c-9.9-7.9-22.1-12-34.7-11.8c-1.7-13.6-8.7-26.1-19.5-34.6c-22.7-18-55.7-14.1-73.7,8.5
	c-5.9,7.4-9.6,16.2-10.9,25.5c-1.9,0-3.7,0.1-5.6,0.4c-3.5,0.4-7,1.2-10.4,2.2c-3.4,1.1-6.7,2.5-9.8,4.2c-3.2,1.7-6.2,3.8-9,6.1
	c-2.8,2.4-5.5,5.1-7.8,8c-2.3,2.9-4.4,6.1-6,9.4c-1.6,3.2-3,6.6-3.9,10.1c-0.9,3.4-1.6,7-1.8,10.5c-0.3,3.5-0.2,7.1,0.2,10.6
	c0.4,3.5,1.2,7,2.2,10.4c1.1,3.4,2.5,6.7,4.2,9.8c1.7,3.2,3.8,6.2,6.1,9c2.4,2.8,5.1,5.5,8,7.8c2.9,2.3,6.1,4.4,9.4,6
	c3.2,1.6,6.6,3,10.1,3.9c3.4,0.9,7,1.6,10.5,1.8l5.2,0.1l33.9-0.1l-10.8,27.7h27.2l-15.2,37.6l42.9-54.3h-24.3l5.5-11l43.8-0.1
	l2.3,0l0,0c15.9-0.7,30.6-8.2,40.5-20.7C241.6,130.8,237.6,96.2,213.9,77.5z M217.4,150.1c-9.1,11.5-22.7,18.1-37.4,18.1l-2,0
	l-100.9,0.2l-4.8-0.1c-3.1-0.2-6.1-0.8-9.1-1.6c-3-0.8-6-2-8.8-3.4c-2.9-1.5-5.7-3.2-8.2-5.3c-2.6-2-4.9-4.3-7-6.8
	c-2-2.4-3.8-5.1-5.4-7.8c-1.5-2.7-2.7-5.6-3.7-8.6c-0.9-2.9-1.6-6-1.9-9.1c-0.4-3.1-0.4-6.2-0.2-9.3c0.2-3.1,0.8-6.2,1.6-9.2
	c0.8-3,2-6,3.4-8.8c1.5-2.9,3.2-5.7,5.3-8.2c2-2.6,4.3-4.9,6.8-7c2.4-2,5.1-3.8,7.8-5.4c2.7-1.5,5.6-2.7,8.6-3.7
	c2.9-0.9,6-1.6,9.1-1.9c3.1-0.4,6.2-0.4,9.3-0.2c3.1,0.2,6.2,0.8,9.2,1.6c3,0.8,6,2,8.8,3.4c2.9,1.5,5.7,3.2,8.2,5.3
	c2.6,2,4.9,4.3,7,6.8l0.6,0.7c1,1.3,2,2.6,2.9,3.9c0.9,1.3,1.7,2.7,2.4,4.1l6.2-3.3c-0.8-1.6-1.8-3.2-2.8-4.7
	c-1-1.5-2.1-3.1-3.3-4.5l-0.6-0.7c-2.4-2.8-5.1-5.5-8-7.8c-2.9-2.3-6.1-4.4-9.4-6c-3.2-1.6-6.6-3-10.1-3.9c-2.8-0.8-5.7-1.3-8.5-1.7
	c1.2-7.8,4.4-15.2,9.3-21.5c15.6-19.6,44.2-22.9,63.8-7.4c10.1,8,16.4,20.1,17.1,33l0.2,3.6l3.5-0.3c12-0.9,23.8,2.7,33.3,10.2
	C230.2,99.3,233.7,129.5,217.4,150.1z"/>
</svg>
