<?xml version="1.0" encoding="utf-8"?>
<!-- Generator: Adobe Illustrator 24.0.1, SVG Export Plug-In . SVG Version: 6.00 Build 0)  -->
<svg version="1.1" id="Lager_2" xmlns="http://www.w3.org/2000/svg" xmlns:xlink="http://www.w3.org/1999/xlink" x="0px" y="0px"
	 viewBox="0 0 256 256" style="enable-background:new 0 0 256 256;" xml:space="preserve">
<style type="text/css">
	.st0{fill:#281E42;}
	.st1{fill:none;stroke:#281E42;stroke-width:7;stroke-miterlimit:10;}
</style>
<path class="st0" d="M201.9,156.3c0,0,1.2,0.4,3.5,0.4c2.3,0,3.5-0.4,3.5-0.4v50.6h-7V156.3z"/>
<path class="st0" d="M39.2,168.2V97.6h7v78.7c0,0-2.5-4.5-3.5-6.1S39.2,168.2,39.2,168.2z"/>
<path class="st0" d="M55.2,199.8h34.2v-56.6h53.1v56.6h43.7v-52.5c0,0,2.2,2.4,3.2,3.3c1.1,0.9,3.8,2.7,3.8,2.7v53.5h-57.7v-56.6
	H96.4v56.6H47.4c0,0,2.5-1.6,4.4-3.2C53.6,201.9,55.2,199.8,55.2,199.8z"/>
<path class="st0" d="M39,206.5c7.6-0.9,13.5-6.5,16.3-12.8l1-3.7c0.3-1,0-2.1-0.7-2.8c-0.7-0.8-1.7-1.1-2.7-1l-3.7,0.5
	c-1.8,0.3-3.4,0.8-5,1.5c1.1-4,0.7-8.5-1.5-12.3l-1.9-3.3c-0.5-0.9-1.4-1.5-2.5-1.6c-1-0.1-2,0.4-2.7,1.2l-2.3,3
	c-3.4,4.4-4.3,10.2-2.5,15.3c-2.2-1.2-4.7-1.9-7.3-2l-3.8-0.1c-1,0-2,0.5-2.6,1.3c-0.6,0.8-0.7,1.9-0.4,2.9l1.4,3.5
	c1.5,3.8,3.9,6.2,7.6,8.5C30.5,207.6,39,206.5,39,206.5z M36.8,178l1.1-1.5l0.9,1.6c2.5,4.5,1.9,10.1-1.6,13.9
	c-0.1,0.2-0.3,0.2-0.4,0.2c-0.1,0-0.3-0.1-0.4-0.2C33.5,187.7,33.6,182,36.8,178z M22.3,194.7l-0.7-1.7l1.8,0.1
	c5.2,0.1,9.6,3.6,11,8.5c0.1,0.2,0,0.4-0.1,0.4c-0.1,0.1-0.2,0.2-0.4,0.2l0,0C28.8,202.5,24.1,199.5,22.3,194.7z M51.1,192.6
	c-1.3,5-5.7,8.5-10.8,8.8c-0.2,0-0.3-0.1-0.4-0.2c-0.1-0.1-0.2-0.2-0.1-0.4c0.9-5.1,4.9-9,10-9.7l1.8-0.3L51.1,192.6z M25.7,204.7"
	/>
<g>
	<path class="st0" d="M205.7,150.6c-9.3,0-17.2-6.6-18.8-15.6c-3.6-0.7-6.9-2.4-9.6-4.9c-2.3-2.2-4-4.8-5-7.8
		c-0.6-1.8-0.9-3.7-1-5.7c-0.1-5.1,1.8-10,5.3-13.7c2.6-2.7,5.9-4.6,9.5-5.4c1.6-8.7,9.3-15.4,18.4-15.7c9.1-0.2,17.1,6.1,19.1,14.8
		c3.6,0.7,7,2.4,9.7,5c3.7,3.5,5.8,8.3,6,13.4c0.1,5.1-1.8,10-5.3,13.7c-2.5,2.7-5.8,4.5-9.3,5.4c-0.6,3.9-2.3,7.6-5.1,10.5
		c-3.5,3.7-8.3,5.8-13.4,6C206.1,150.6,205.9,150.6,205.7,150.6z M205,87.8c-0.1,0-0.2,0-0.3,0c-6.8,0.2-12.5,5.6-12.9,12.4
		l-0.1,2.5l-2.5,0.3c-3.1,0.3-6,1.7-8.1,4c-2.4,2.6-3.7,5.9-3.6,9.4c0,1.3,0.3,2.7,0.7,3.9c0.7,2,1.9,3.8,3.4,5.3
		c2.3,2.2,5.2,3.4,8.3,3.6l2.7,0.2l0.2,2.7c0.4,7.1,6.4,12.6,13.5,12.4c3.5-0.1,6.8-1.5,9.2-4.1c2.3-2.4,3.6-5.6,3.6-9l0-2.7
		l2.7-0.3c3.1-0.3,5.9-1.7,8.1-4c2.4-2.6,3.7-5.9,3.6-9.4c-0.1-3.5-1.5-6.8-4.1-9.2c-2.3-2.2-5.2-3.4-8.3-3.6l-2.5-0.1l-0.3-2.5
		C217.4,92.9,211.7,87.8,205,87.8z"/>
</g>
<polyline class="st1" points="22.1,110.7 116.2,49.1 181.6,91.5 "/>
</svg>
