<?xml version="1.0" encoding="iso-8859-1"?>
<!-- Generator: Adobe Illustrator 19.2.0, SVG Export Plug-In . SVG Version: 6.00 Build 0)  -->
<svg version="1.1" id="Lager_13" xmlns="http://www.w3.org/2000/svg" xmlns:xlink="http://www.w3.org/1999/xlink" x="0px" y="0px"
	 viewBox="0 0 256 256" style="enable-background:new 0 0 256 256;" xml:space="preserve">
<path id="Blue_1_" style="fill:#041E42;" d="M193.672,54.219H62.994c-4.479,0-8.107,3.629-8.107,8.107v130.679
	c0,4.477,3.629,8.107,8.107,8.107h70.353v-56.885h-19.143v-22.169h19.143V105.71c0-18.973,11.588-29.304,28.513-29.304
	c8.107,0,15.075,0.604,17.106,0.873v19.828l-11.739,0.005c-9.205,0-10.987,4.374-10.987,10.793v14.154h21.953l-2.859,22.169H156.24
	v56.885h37.432c4.477,0,8.107-3.63,8.107-8.107V62.327C201.78,57.848,198.149,54.219,193.672,54.219z"/>
</svg>
