<?xml version="1.0" encoding="iso-8859-1"?>
<!-- Generator: Adobe Illustrator 19.2.1, SVG Export Plug-In . SVG Version: 6.00 Build 0)  -->
<svg version="1.1" id="Lager_12" xmlns="http://www.w3.org/2000/svg" xmlns:xlink="http://www.w3.org/1999/xlink" x="0px" y="0px"
	 viewBox="0 0 256 256" style="enable-background:new 0 0 256 256;" xml:space="preserve">
<g>
	<path style="fill:#041E42;" d="M206.004,50.336c-21.453-21.453-49.57-32.179-77.687-32.179c-28.117,0-56.234,10.726-77.687,32.179
		c-42.905,42.905-42.905,112.468,0,155.373c21.453,21.453,49.57,32.179,77.687,32.179c28.117,0,56.234-10.726,77.687-32.179
		C248.909,162.805,248.909,93.242,206.004,50.336z M198.933,57.407c37.784,37.784,38.901,98.56,3.355,137.706L151.174,144H178v-30
		h-56.826l-59.95-59.95c18.407-16.733,42.046-25.892,67.092-25.892C154.992,28.158,180.07,38.545,198.933,57.407z M131.174,124H168
		v10h-26.826L131.174,124z M127.033,134H66v-10h51.033L127.033,134z M57.701,198.639c-37.72-37.72-38.899-98.356-3.538-137.509
		l52.87,52.87H56v30h81.033l58.177,58.177c-18.378,16.618-41.936,25.712-66.893,25.712
		C101.642,227.889,76.563,217.501,57.701,198.639z"/>
	<rect x="184" y="114" style="fill:#041E42;" width="10" height="30"/>
	<rect x="200" y="114" style="fill:#041E42;" width="10" height="30"/>
</g>
</svg>
