<?xml version="1.0" encoding="utf-8"?>
<!-- Generator: Adobe Illustrator 16.0.3, SVG Export Plug-In . SVG Version: 6.00 Build 0)  -->
<!DOCTYPE svg PUBLIC "-//W3C//DTD SVG 1.1//EN" "http://www.w3.org/Graphics/SVG/1.1/DTD/svg11.dtd">
<svg version="1.1" id="Layer_1" xmlns="http://www.w3.org/2000/svg" xmlns:xlink="http://www.w3.org/1999/xlink" x="0px" y="0px"
	 width="256px" height="256px" viewBox="0 0 256 256" enable-background="new 0 0 256 256" xml:space="preserve">
<g>
	<defs>
		<rect id="SVGID_1_" width="256" height="256"/>
	</defs>
	<clipPath id="SVGID_2_">
		<use xlink:href="#SVGID_1_"  overflow="visible"/>
	</clipPath>
	<path clip-path="url(#SVGID_2_)" fill="#041E42" d="M214.53,69.428c-4.699-4.699-9.183-3.935-9.183-3.935
		c-5.58,0.794-11.452-0.955-15.742-5.247c-4.854-4.854-6.438-11.721-4.791-17.91l13.573,13.57l9.582-3.532l3.535-9.585
		l-13.571-13.57c6.188-1.648,13.058-0.066,17.911,4.789c4.292,4.292,6.041,10.164,5.247,15.744c0,0-0.565,4.679,3.935,9.179
		l8.094,8.094c3.096-4.926,4.893-10.751,4.893-16.999c0-17.673-14.327-32-32-32s-32,14.327-32,32s14.327,32,32,32
		c6.046,0,11.7-1.678,16.523-4.592L214.53,69.428z"/>
	<path clip-path="url(#SVGID_2_)" fill="#041E42" d="M220,195h-25.284l6.163-50.479l-9.771,3.135L173.177,106H133v-4h19V78h-19v-5h4
		V63h-18v10h4v5h-19v24h19v4H82.791l-17.9,41.672l-9.62-3.12L61.441,195H36v10h28.533l63.528,33.12L191.774,205H220V195z M114,88h28
		v4h-28V88z M128.061,167.099l-40.203-12.402c10.516-3.088,25.866-6.696,40.212-6.696h0.418c8.304,0,17.823,1.182,28.313,3.567
		c4.329,0.967,8.346,2.02,11.842,3.017L128.061,167.099z M114.866,138.873L120.675,116h14.771l5.791,22.802
		c-4.469-0.502-8.735-0.799-12.75-0.799L128.309,138h-0.232C123.683,138,119.237,138.367,114.866,138.873 M180.243,147.757
		c-4.701-1.566-12.297-3.929-21.243-5.928c-2.394-0.544-4.734-0.972-7.039-1.401L145.762,116h20.825L180.243,147.757z M89.383,116
		h20.977l-6.226,24.518c-12.245,2.304-22.885,5.713-28.582,7.697L89.383,116z M67.035,158.746L123,176.021v48.46l-51.221-26.712
		L67.035,158.746z M184.295,197.847L133,224.495v-48.474l56.042-17.277L184.295,197.847z"/>
</g>
</svg>
