<svg id="Lager_1" data-name="Lager 1" xmlns="http://www.w3.org/2000/svg" viewBox="0 0 158.66 158.67"><defs><style>.cls-1,.cls-2{fill:none;stroke:#161743;}.cls-1{stroke-width:2.85px;}.cls-2{stroke-linecap:round;stroke-linejoin:round;stroke-width:2.08px;}.cls-3{fill:#161743;}</style></defs><title>ICON_Stay-at-home</title><path class="cls-1" d="M405.12,491.11a77.91,77.91,0,1,0-77.91-77.9A77.9,77.9,0,0,0,405.12,491.11Z" transform="translate(-325.78 -333.87)"/><polygon class="cls-2" points="135.01 68.89 135 58.29 79.02 20.97 78.91 21.13 78.84 21.02 24.2 57.77 24.2 69.83 80.27 33.71 135.01 68.89"/><polyline class="cls-2" points="24.2 69.82 34.97 69.82 34.97 126.58 124.62 126.58 124.62 69.82 135.01 69.82"/><path class="cls-3" d="M369.72,416.41H373c0,1,1,1.79,2.93,1.79,1.5,0,2.49-.29,2.49-1.11v-.15c0-.49-.52-.75-1.47-.91l-3-.5c-2.83-.47-4-1.2-4-3.14s1.56-3.56,5.48-3.56c4.17,0,5.84,1.77,5.86,3.7H378c-.08-.75-.91-1.46-2.7-1.46-1.31,0-2.11.35-2.11,1v.16c0,.48.56.67,1.53.83l2.81.47c2.78.47,4.14,1.29,4.14,3.28,0,2.53-2.09,3.67-5.81,3.67-4.39,0-6.12-1.66-6.12-4" transform="translate(-325.78 -333.87)"/><polygon class="cls-3" points="60.41 77.6 56.32 77.6 56.32 75.22 67.71 75.22 67.71 77.6 63.6 77.6 63.6 86.31 60.41 86.31 60.41 77.6"/><path class="cls-3" d="M400.91,418.3h-5.69l-.74,1.89H391.3l4.42-11.09h4.78l4.44,11.09h-3.3Zm-.92-2.38L398.07,411l-1.92,4.89Z" transform="translate(-325.78 -333.87)"/><polygon class="cls-3" points="84.51 82.22 84.51 86.31 81.33 86.31 81.33 82.19 76.42 75.22 79.94 75.22 82.97 79.53 86 75.22 89.42 75.22 84.51 82.22"/><path class="cls-3" d="M428,418.3h-5.68l-.75,1.89h-3.17l4.42-11.09h4.77L432,420.19h-3.29Zm-.92-2.38L425.17,411l-1.92,4.89Z" transform="translate(-325.78 -333.87)"/><polygon class="cls-3" points="108.16 77.6 104.07 77.6 104.07 75.22 115.46 75.22 115.46 77.6 111.35 77.6 111.35 86.31 108.16 86.31 108.16 77.6"/><polygon class="cls-3" points="64.72 93.97 64.72 105.06 61.54 105.06 61.54 100.68 55.82 100.68 55.82 105.06 52.63 105.06 52.63 93.97 55.82 93.97 55.82 98.31 61.54 98.31 61.54 93.97 64.72 93.97"/><path class="cls-3" d="M391.63,433.39c0-3.43,2.28-5.83,6.56-5.83s6.56,2.4,6.56,5.83-2.28,5.82-6.56,5.82-6.56-2.4-6.56-5.82m9.78.29v-.59a3.22,3.22,0,0,0-6.44,0v.59a3.22,3.22,0,0,0,6.44,0" transform="translate(-325.78 -333.87)"/><polygon class="cls-3" points="95.23 93.97 95.23 105.06 92.11 105.06 92.11 96.86 89.18 105.06 86.28 105.06 83.22 96.7 83.22 105.06 80.09 105.06 80.09 93.97 85.01 93.97 87.76 101.59 90.43 93.97 95.23 93.97"/><polygon class="cls-3" points="99.66 96.34 99.66 98.31 106.27 98.31 106.27 100.68 99.66 100.68 99.66 102.68 106.68 102.68 106.68 105.06 96.48 105.06 96.48 93.97 106.68 93.97 106.68 96.34 99.66 96.34"/></svg>