<svg id="Lager_1" data-name="Lager 1" xmlns="http://www.w3.org/2000/svg" viewBox="0 0 158.66 158.67"><defs><style>.cls-1,.cls-2,.cls-3{fill:none;stroke:#161743;}.cls-1{stroke-width:2.85px;}.cls-2{stroke-linecap:round;stroke-miterlimit:10;stroke-width:2.31px;}.cls-3{stroke-width:6.66px;}</style></defs><title>ICON_No-handshake</title><circle class="cls-1" cx="149.11" cy="700.35" r="77.91" transform="translate(-83.21 -618.02) rotate(-1.1)"/><path class="cls-2" d="M120.32,710.94l-7.74,16.41a5,5,0,0,1-6.58,2.37l-1.36-.64a5,5,0,0,1-2.36-6.58L110,706.09a5,5,0,0,1,6.58-2.36l1.36.63A5,5,0,0,1,120.32,710.94Z" transform="translate(-69.77 -621.01)"/><path class="cls-2" d="M133.43,713.3l-10.18,21.6a5.58,5.58,0,0,1-7.41,2.65l-.23-.1A5.58,5.58,0,0,1,113,730l10.19-21.59a5.57,5.57,0,0,1,7.4-2.66l.23.1A5.58,5.58,0,0,1,133.43,713.3Z" transform="translate(-69.77 -621.01)"/><path class="cls-2" d="M141,726.38l-8.15,17.28A5.14,5.14,0,0,1,126,746.1l-1-.49a5.13,5.13,0,0,1-2.45-6.81l8.15-17.28a5.15,5.15,0,0,1,6.82-2.45l1,.49A5.14,5.14,0,0,1,141,726.38Z" transform="translate(-69.77 -621.01)"/><path class="cls-2" d="M148.91,737.6l-6.53,13.83a4.73,4.73,0,0,1-6.28,2.26l-1.76-.83a4.74,4.74,0,0,1-2.25-6.29l6.52-13.83a4.74,4.74,0,0,1,6.29-2.25l1.75.82A4.75,4.75,0,0,1,148.91,737.6Z" transform="translate(-69.77 -621.01)"/><path class="cls-2" d="M84.13,675.09l20,16.62s3.53,1.43,5.86,14.38" transform="translate(-69.77 -621.01)"/><path class="cls-2" d="M145.37,748s13,7.74,8.46-7.74c0,0,13.17,14.8,16.58,0" transform="translate(-69.77 -621.01)"/><path class="cls-2" d="M153.11,721.67s18.47,19.61,20.49,20.42,13.73-2,7.23-11.24" transform="translate(-69.77 -621.01)"/><path class="cls-2" d="M162.67,715.16l17.08,15.48s9.75-.64,6.56-9l-19.53-19.53s-4-2.32-.35-5.3c3.07-2.47-7.65,7-23.81-11.92l-12.5,11.22s-4.1,2.62-8.43-1.47,0-8,0-8L139.51,671l20.66-.9s3.46.68,7.53-4.1,13-17.31,13-17.31" transform="translate(-69.77 -621.01)"/><path class="cls-2" d="M209.57,676.23l-18.89,14.36s-3.36,3.17-3.73,5.45-3.56,16.42-4.91,18.21l-1.35,1.8" transform="translate(-69.77 -621.01)"/><path class="cls-2" d="M112.59,648.68l13.2,16.17A32.49,32.49,0,0,0,139.51,671" transform="translate(-69.77 -621.01)"/><line class="cls-3" x1="20.5" y1="128.62" x2="144.74" y2="34.54"/></svg>