<svg id="Lager_1" data-name="Lager 1" xmlns="http://www.w3.org/2000/svg" viewBox="0 0 158.66 158.67"><defs><style>.cls-1,.cls-2,.cls-3{fill:none;stroke:#161743;}.cls-1{stroke-width:2.85px;}.cls-2,.cls-3{stroke-linecap:round;stroke-miterlimit:10;}.cls-2{stroke-width:2.08px;}.cls-3{stroke-width:3.12px;}</style></defs><title>ICON_Cover-cough</title><path class="cls-1" d="M149.11,491.11a77.91,77.91,0,1,0-77.91-77.9A77.9,77.9,0,0,0,149.11,491.11Z" transform="translate(-69.77 -333.87)"/><path class="cls-2" d="M172,388.28a21.7,21.7,0,1,1-21.7-21.69A21.7,21.7,0,0,1,172,388.28Z" transform="translate(-69.77 -333.87)"/><line class="cls-2" x1="72.86" y1="74.96" x2="52.85" y2="78.17"/><path class="cls-2" d="M128.6,398.56l-20.37,8.8s-18.21,18.07,8,25L172,422.79s13.64-11.84-4-18l-4.5.72" transform="translate(-69.77 -333.87)"/><line class="cls-2" x1="57.01" y1="133.69" x2="57.01" y2="96.7"/><path class="cls-2" d="M177,430.57v31c0,1.85,5,6.95,10.43,7,3.24,0,9.26-4,9.29-8s0-36,0-36,1.91-18.06-24.76-29.18" transform="translate(-69.77 -333.87)"/><line class="cls-3" x1="42.19" y1="56.27" x2="27.49" y2="61.44"/><line class="cls-3" x1="40.96" y1="46.84" x2="26.2" y2="41.98"/><line class="cls-3" x1="46.5" y1="36.25" x2="27.49" y2="23"/></svg>