<?xml version="1.0" encoding="iso-8859-1"?>
<!-- Generator: Adobe Illustrator 19.2.0, SVG Export Plug-In . SVG Version: 6.00 Build 0)  -->
<svg version="1.1" id="Lager_13" xmlns="http://www.w3.org/2000/svg" xmlns:xlink="http://www.w3.org/1999/xlink" x="0px" y="0px"
	 viewBox="0 0 256 256" style="enable-background:new 0 0 256 256;" xml:space="preserve">
<g>
	<path style="fill:#041E42;" d="M207,192.593V161h-74v-12.721c34-2.564,59.987-30.611,59.987-64.744
		c0-35.816-29.123-64.955-64.939-64.955S63.069,47.719,63.069,83.535c0,34.132,26.931,62.18,59.931,64.744V161H49v31.593
		c-10,2.29-17.968,11.481-17.968,22.446c0,12.683,10.334,23,23.016,23s22.976-10.317,22.976-23c0-10.965-8.024-20.156-18.024-22.446
		V171h64v21.593c-10,2.29-17.968,11.481-17.968,22.446c0,12.683,10.334,23,23.016,23c12.683,0,22.976-10.317,22.976-23
		c0-10.965-8.024-20.157-18.024-22.446V171h64v21.593c-10,2.29-17.968,11.481-17.968,22.446c0,12.683,10.333,23,23.016,23
		s22.976-10.317,22.976-23C225.024,204.074,217,194.883,207,192.593z M67.063,215.039c0,7.168-5.832,13-13,13s-13-5.832-13-13
		s5.832-13,13-13S67.063,207.871,67.063,215.039z M89,105.408v17.194c-10-9.969-16.121-23.798-16.121-39.067
		c0-30.303,24.768-54.955,55.07-54.955c30.303,0,55.179,24.652,55.179,54.955c0,15.269-6.128,29.099-16.128,39.068v-17.689
		l-1.806-1.488c-9.439-8.567-22.581-13.286-36.855-13.286c-14.436,0-27.919,4.896-37.474,13.786L89,105.408z M141.063,215.039
		c0,7.168-5.832,13-13,13c-7.168,0-13-5.832-13-13s5.832-13,13-13C135.231,202.039,141.063,207.871,141.063,215.039z M128,138.49
		c-10.471,0-20-2.947-29-8.05v-20.594c8-6.273,18.093-9.706,29.192-9.706c10.958,0,20.808,3.284,28.808,9.289v21.012
		C148,135.544,138.471,138.49,128,138.49z M202.063,228.039c-7.168,0-13-5.832-13-13s5.832-13,13-13s13,5.832,13,13
		S209.231,228.039,202.063,228.039z"/>
	<path style="fill:#041E42;" d="M150.582,64.786c0-12.414-10.1-22.514-22.514-22.514c-12.419,0-22.522,10.1-22.522,22.514
		S115.649,87.3,128.068,87.3C140.482,87.3,150.582,77.2,150.582,64.786z M128.068,77.3c-6.905,0-12.522-5.613-12.522-12.514
		s5.618-12.514,12.522-12.514c6.9,0,12.514,5.613,12.514,12.514S134.968,77.3,128.068,77.3z"/>
</g>
</svg>
