<?xml version="1.0" encoding="utf-8"?>
<!-- Generator: Adobe Illustrator 16.0.3, SVG Export Plug-In . SVG Version: 6.00 Build 0)  -->
<!DOCTYPE svg PUBLIC "-//W3C//DTD SVG 1.1//EN" "http://www.w3.org/Graphics/SVG/1.1/DTD/svg11.dtd">
<svg version="1.1" id="Layer_1" xmlns="http://www.w3.org/2000/svg" xmlns:xlink="http://www.w3.org/1999/xlink" x="0px" y="0px"
	 width="256px" height="256px" viewBox="0 0 256 256" enable-background="new 0 0 256 256" xml:space="preserve">
<g>
	<defs>
		<rect id="SVGID_1_" width="256" height="256"/>
	</defs>
	<clipPath id="SVGID_2_">
		<use xlink:href="#SVGID_1_"  overflow="visible"/>
	</clipPath>
	<path clip-path="url(#SVGID_2_)" fill="#1A233F" d="M214.53,69.402c-4.699-4.699-9.183-3.935-9.183-3.935
		c-5.58,0.794-11.452-0.955-15.742-5.247c-4.854-4.854-6.438-11.721-4.791-17.91l13.573,13.57l9.582-3.532l3.535-9.585
		l-13.571-13.57c6.188-1.648,13.058-0.066,17.911,4.789c4.292,4.292,6.041,10.164,5.247,15.744c0,0-0.565,4.679,3.935,9.179
		l8.094,8.094c3.096-4.926,4.893-10.751,4.893-16.999c0-17.673-14.327-32-32-32s-32,14.327-32,32c0,17.673,14.327,32,32,32
		c6.046,0,11.7-1.678,16.523-4.592L214.53,69.402z"/>
	<path clip-path="url(#SVGID_2_)" fill="#1A233F" d="M212.555,228l-27.477-98H200V91H57v39h13.981l-27.138,98H212.555z M67,120v-19
		h123v19h-7.751l-2.967-10H76.705l-2.93,10H67z M84.295,120H123v12h10v-12h38.718l27.616,98H133v-37h-10v37H57.021L84.295,120z"/>
	<rect x="123" y="142" clip-path="url(#SVGID_2_)" fill="#1A233F" width="10" height="27"/>
	<path clip-path="url(#SVGID_2_)" fill="#1A233F" d="M49,35.126l-0.345,0.024c-0.203,0.011-0.386,0.039-0.581,0.057
		c0.196-0.018,0.382-0.046,0.585-0.057L49,35.126z"/>
	<path clip-path="url(#SVGID_2_)" fill="#1A233F" d="M51.667,38.659L51,38.453l0.668,0.255c0.869,0.275,1.607,0.714,2.189,1.268
		C53.275,39.405,52.539,38.935,51.667,38.659"/>
	<path clip-path="url(#SVGID_2_)" fill="#1A233F" d="M60.047,41.601c0.104,0.447,0.174,0.913,0.205,1.402
		C60.221,42.514,60.151,42.048,60.047,41.601"/>
	<path clip-path="url(#SVGID_2_)" fill="#1A233F" d="M39.62,42.878c0-0.677,0.086-1.331,0.261-1.957
		c-0.183,0.626-0.277,1.28-0.277,1.957c0,1.929,0.525,3.44,1.625,4.492c0.965,0.924,2.464,1.689,4.533,2.282
		c-2.055-0.593-3.51-1.358-4.475-2.282C40.187,46.318,39.62,44.807,39.62,42.878"/>
	<path clip-path="url(#SVGID_2_)" fill="#1A233F" d="M57.093,37.165c-1.4-1.031-3.282-1.718-5.624-1.937L51,35.185l0.47,0.092
		C53.808,35.495,55.692,36.15,57.093,37.165"/>
	<path clip-path="url(#SVGID_2_)" fill="#1A233F" d="M59.012,39.191c0.21,0.321,0.397,0.654,0.555,1.002
		C59.409,39.845,59.223,39.512,59.012,39.191"/>
	<path clip-path="url(#SVGID_2_)" fill="#1A233F" d="M58.166,38.116c0.256,0.276,0.49,0.562,0.7,0.86
		C58.656,38.678,58.422,38.392,58.166,38.116"/>
	<path clip-path="url(#SVGID_2_)" fill="#1A233F" d="M59.634,40.344c0.163,0.383,0.299,0.781,0.399,1.199
		C59.932,41.126,59.797,40.727,59.634,40.344"/>
	<path clip-path="url(#SVGID_2_)" fill="#1A233F" d="M54.421,58.865c0.152-0.108,0.308-0.212,0.445-0.336
		c0.845-0.771,1.132-1.84,1.132-3.177c0,1.337-0.295,2.406-1.14,3.177C54.721,58.653,54.57,58.757,54.421,58.865"/>
	<path clip-path="url(#SVGID_2_)" fill="#1A233F" d="M48.533,59.702L49,59.824l-0.467-0.215c-1.52-0.311-2.57-1.103-3.383-2.172
		c-0.709-0.933-1.13-1.44-1.256-3.439c0.126,1.999,0.481,2.506,1.19,3.439C45.897,58.506,47.013,59.392,48.533,59.702"/>
	<path clip-path="url(#SVGID_2_)" fill="#1A233F" d="M44.002,42.761c0,0.98,0.404,1.777,1.088,2.366
		c0.326,0.282,0.748,0.529,1.258,0.745c-0.477-0.216-0.866-0.463-1.192-0.745C44.474,44.538,44.002,43.741,44.002,42.761"/>
	<path clip-path="url(#SVGID_2_)" fill="#1A233F" d="M41.466,60.064c-1.452-1.518-2.244-3.067-2.361-6.066
		c0.117,2.999,0.843,4.548,2.295,6.066c1.552,1.627,3.953,2.752,7.267,2.976L49,63.073l-0.333-0.126
		C45.354,62.724,43.018,61.691,41.466,60.064"/>
	<path clip-path="url(#SVGID_2_)" fill="#1A233F" d="M50.037,18.012c-17.673,0-32,14.327-32,32.001c0,17.673,14.327,32,32,32
		c17.673,0,32.001-14.327,32.001-32C82.038,32.339,67.71,18.012,50.037,18.012 M58.46,60.557c-1.632,1.473-3.984,2.31-6.973,2.484
		L51,63.068V66h-2v-2.927l-0.333-0.033c-3.314-0.224-5.715-1.348-7.267-2.975C39.948,58.547,39.222,57,39.105,54h4.789
		c0.126,2,0.548,2.505,1.256,3.438c0.814,1.069,1.863,1.861,3.383,2.171L49,59.824v-9.399l-2.09-0.471
		c-0.405-0.095-0.783-0.197-1.149-0.302c-2.069-0.594-3.567-1.358-4.533-2.282c-1.1-1.052-1.625-2.564-1.625-4.493
		c0-0.676,0.094-1.33,0.278-1.957c0.175-0.626,0.439-1.225,0.796-1.792c0.713-1.138,1.735-2.069,3.102-2.765
		c1.239-0.629,2.658-1.008,4.295-1.156c0.195-0.018,0.378-0.046,0.581-0.057L49,35.126V32h2v3.184l0.469,0.043
		c2.343,0.219,4.225,0.907,5.625,1.938c0.355,0.257,0.688,0.532,0.979,0.836c0.035,0.037,0.059,0.078,0.093,0.115
		c0.256,0.276,0.49,0.562,0.7,0.86c0.05,0.071,0.099,0.143,0.146,0.215c0.211,0.321,0.397,0.654,0.555,1.002
		c0.023,0.05,0.045,0.1,0.067,0.15c0.164,0.383,0.298,0.782,0.399,1.2c0.004,0.019,0.009,0.037,0.014,0.056
		C60.151,42.046,60.22,43,60.252,43h-4.848c-0.142-1-0.492-1.73-1.025-2.434c-0.157-0.206-0.332-0.403-0.522-0.591
		c-0.583-0.554-1.321-0.993-2.19-1.268L51,38.453v8.559l2.124,0.526c2.706,0.601,4.723,1.491,5.962,2.646
		c1.219,1.133,1.81,2.696,1.81,4.78C60.896,57.254,60.094,59.083,58.46,60.557"/>
	<path clip-path="url(#SVGID_2_)" fill="#1A233F" d="M54.421,58.865c0.149-0.108,0.301-0.212,0.438-0.336
		C55.704,57.758,56,56.689,56,55.352v-0.311c0-1.078-0.211-1.937-0.887-2.553c-0.642-0.583-1.461-1.016-2.786-1.327L51,50.871v9.048
		l0.564-0.053C52.778,59.749,53.678,59.405,54.421,58.865"/>
	<path clip-path="url(#SVGID_2_)" fill="#1A233F" d="M45.331,39.633C44.531,40.403,44,41.35,44,42.449v0.312
		c0,0.98,0.472,1.776,1.155,2.366c0.327,0.282,0.716,0.528,1.194,0.745c0.455,0.207,0.99,0.386,1.639,0.541L49,46.579v-8.247
		l-0.46,0.032C47.152,38.448,46.119,38.875,45.331,39.633"/>
</g>
</svg>
