<?xml version="1.0" encoding="iso-8859-1"?>
<!-- Generator: Adobe Illustrator 19.2.1, SVG Export Plug-In . SVG Version: 6.00 Build 0)  -->
<svg version="1.1" id="Lager_12" xmlns="http://www.w3.org/2000/svg" xmlns:xlink="http://www.w3.org/1999/xlink" x="0px" y="0px"
	 viewBox="0 0 256 256" style="enable-background:new 0 0 256 256;" xml:space="preserve">
<g>
	<path style="fill:#041E42;" d="M128,89.846c-23.703,0-38.903,10.808-43.897,14.359L82,105.7v99.76l18,9.265V238h56v-23.275
		l18-9.265v-99.258l-1.473-1.466C166.515,98.751,149.694,89.846,128,89.846z M164,199.36l-18,9.265V228h-36v-19.375l-18-9.265
		v-88.47c5.755-3.884,18.114-11.045,36-11.045c17.312,0,30.652,6.546,36,10.702V199.36z"/>
	<path style="fill:#041E42;" d="M128.281,78c16.267,0,29.5-13.233,29.5-29.5S144.548,19,128.281,19c-16.266,0-29.5,13.233-29.5,29.5
		S112.015,78,128.281,78z M128.281,29c10.752,0,19.5,8.748,19.5,19.5s-8.748,19.5-19.5,19.5s-19.5-8.748-19.5-19.5
		S117.528,29,128.281,29z"/>
	<path style="fill:#041E42;" d="M219.241,64.167c-0.448-0.664-0.834-1.374-1.146-2.113c-0.316-0.747-0.56-1.53-0.723-2.328
		c-0.168-0.819-0.253-1.665-0.253-2.513s0.085-1.693,0.253-2.513c0.163-0.798,0.406-1.582,0.723-2.329
		c0.312-0.738,0.698-1.448,1.146-2.112c0.447-0.662,0.96-1.283,1.521-1.844c0.566-0.566,1.188-1.079,1.849-1.525l-5.6-8.285
		c-1.185,0.801-2.301,1.721-3.317,2.737c-1.013,1.013-1.934,2.129-2.737,3.317c-0.811,1.199-1.507,2.481-2.071,3.815
		c-0.573,1.357-1.015,2.777-1.31,4.22c-0.303,1.479-0.456,2.999-0.456,4.519s0.153,3.039,0.456,4.519
		c0.296,1.444,0.736,2.864,1.31,4.219c0.563,1.333,1.261,2.616,2.071,3.816c0.804,1.188,1.725,2.305,2.739,3.32
		c1.015,1.014,2.131,1.934,3.315,2.734l5.6-8.285c-0.66-0.446-1.282-0.959-1.847-1.522C220.201,65.45,219.688,64.829,219.241,64.167
		z"/>
	<path style="fill:#041E42;" d="M198.394,78.224c-1.357-2.008-2.522-4.155-3.465-6.382c-0.957-2.264-1.693-4.635-2.188-7.049
		c-0.507-2.476-0.764-5.026-0.764-7.58s0.257-5.104,0.764-7.58c0.494-2.414,1.23-4.785,2.188-7.05
		c0.941-2.227,2.106-4.373,3.465-6.383c1.344-1.99,2.89-3.863,4.592-5.566c1.701-1.7,3.574-3.245,5.567-4.593l-5.6-8.285
		c-2.521,1.703-4.889,3.657-7.038,5.808c-2.153,2.153-4.107,4.521-5.808,7.038c-1.72,2.544-3.196,5.266-4.389,8.086
		c-1.216,2.871-2.149,5.879-2.775,8.939c-0.642,3.135-0.967,6.36-0.967,9.586s0.325,6.451,0.967,9.586
		c0.626,3.061,1.56,6.068,2.774,8.938c1.193,2.822,2.671,5.542,4.389,8.085c1.702,2.52,3.656,4.889,5.81,7.041
		c2.152,2.152,4.521,4.105,7.037,5.807l5.6-8.285c-1.991-1.346-3.864-2.892-5.567-4.593C201.285,82.09,199.74,80.217,198.394,78.224
		z"/>
</g>
</svg>
