<?xml version="1.0" encoding="iso-8859-1"?>
<!-- Generator: Adobe Illustrator 19.2.0, SVG Export Plug-In . SVG Version: 6.00 Build 0)  -->
<svg version="1.1" id="Lager_6" xmlns="http://www.w3.org/2000/svg" xmlns:xlink="http://www.w3.org/1999/xlink" x="0px" y="0px"
	 viewBox="0 0 256 256" style="enable-background:new 0 0 256 256;" xml:space="preserve">
<g>
	<path style="fill:#041E42;" d="M163.744,146.709c0.198,0,0.38,0.007,0.543,0.02c2.866,0.397,5.792,0.599,8.699,0.599
		c13.916,0,27.667-4.593,38.719-12.933c13.335-10.064,22.055-24.949,24.553-41.915c1.27-8.629,0.895-17.613-1.086-25.982
		l-4.129-17.45l-12.675,12.684c-0.559,0.56-2.401,2.411-5.006,5.029c-6.878,6.913-22.626,22.74-30.17,30.256
		c-4.562-1.64-12.903-4.644-17.634-6.412l-6.545-17.812l5.576-5.576l8.62-8.62l8.62-8.62l11.799-11.799l0.612-0.612l12.268-12.268
		l-16.766-4.466c-5.397-1.438-10.988-2.167-16.619-2.167h0c-8.699,0-17.12,1.693-25.031,5.033
		c-13.793,5.823-25.231,16.408-32.208,29.806c-3.422,6.571-5.659,13.617-6.649,20.94c-0.703,5.199-0.688,10.549,0.048,17.347
		c0.439,4.055-1.742,9.713-5.692,14.768c-1.544,1.976-3.488,3.907-5.545,5.951c-0.384,0.382-0.768,0.763-1.151,1.146l-5.447,5.451
		l-5.447,5.451l-5.133,5.136l-10.262,10.269l-8.296,8.302l-8.296,8.302L39.3,171.293l-9.71,9.717l-0.657,0.657l-1.353,1.354
		c-3.899,3.917-6.722,8.723-8.162,13.899c-2.165,7.779-1.278,16.077,2.498,23.365c3.793,7.32,10.089,12.825,17.728,15.5
		c3.365,1.178,6.872,1.775,10.426,1.775c8.57,0,16.689-3.398,22.863-9.567l4.509-4.506l2.254-2.252l6.528-6.523l6.528-6.523
		l16.215-16.203l8.118-8.112l8.123-8.118l13.135-13.126l6.895-6.891c3.437-3.435,9.001-7.75,15.987-8.799
		C162.26,146.785,163.084,146.709,163.744,146.709z M138.169,148.665c-2.298,2.297-4.597,4.594-6.895,6.891
		c-4.378,4.375-8.756,8.75-13.135,13.126c-5.414,5.41-10.827,10.82-16.241,16.23c-5.405,5.401-10.81,10.802-16.215,16.203
		c-4.352,4.349-8.703,8.698-13.055,13.046c-2.254,2.253-4.509,4.506-6.763,6.759c-4.269,4.266-9.956,6.64-15.794,6.64
		c-2.377,0-4.78-0.394-7.121-1.214c-10.814-3.787-16.963-15.731-13.897-26.746c1.009-3.626,2.967-6.864,5.616-9.525
		c0.664-0.667,1.33-1.331,1.996-1.997c3.237-3.239,6.473-6.478,9.71-9.717c4.905-4.909,9.811-9.818,14.716-14.726
		c5.531-5.534,11.061-11.069,16.592-16.603c5.131-5.135,10.263-10.27,15.395-15.405c3.631-3.634,7.263-7.268,10.894-10.902
		c2.585-2.587,5.244-5.12,7.501-8.008c4.679-5.986,8.604-14.165,7.755-22.002c-0.543-5.011-0.758-9.913-0.08-14.93
		c0.832-6.155,2.74-12.153,5.609-17.661c5.838-11.211,15.575-20.292,27.227-25.212c6.689-2.824,13.912-4.246,21.141-4.246
		c4.728,0,9.459,0.608,14.045,1.83c-0.204,0.204-0.408,0.408-0.612,0.612c-3.933,3.933-7.866,7.866-11.799,11.799
		c-5.747,5.747-11.494,11.493-17.241,17.24c-2.231,2.231-8.158,8.157-8.89,8.89c-0.288,0.288-0.941,0.723-1.104,1.103
		c-0.106,0.247-0.012,0.351,0.105,0.669c0.372,1.012,9.58,26.072,9.927,27.015c0.164,0.446,0.129,0.4,0.527,0.588
		c2.363,1.115,24.314,8.93,26.998,9.916c0.226,0.083,0.378,0.175,0.542,0.175c0.058,0,0.117-0.012,0.182-0.039
		c0.364-0.154,36.779-36.804,39.635-39.663c1.717,7.255,2.009,14.85,0.923,22.223c-2.068,14.045-9.316,26.811-20.683,35.39
		c-9.402,7.095-20.988,10.915-32.695,10.915c-2.504,0-5.015-0.175-7.509-0.53c-0.573-0.062-1.152-0.089-1.733-0.089
		c-1.342,0-2.695,0.145-4.005,0.342C151.399,138.304,144.068,142.771,138.169,148.665z"/>
	<path style="fill:#041E42;" d="M218.066,169h-39.868l-19.934,34.5l19.934,34.5h39.868L238,203.5L218.066,169z M212.293,228h-28.321
		l-14.16-24.5l14.16-24.5h28.321l14.16,24.5L212.293,228z"/>
	<path style="fill:#041E42;" d="M198.132,187.526c-8.793,0-15.947,7.154-15.947,15.947s7.154,15.947,15.947,15.947
		s15.947-7.154,15.947-15.947S206.925,187.526,198.132,187.526z M198.132,209.421c-3.279,0-5.947-2.668-5.947-5.947
		s2.668-5.947,5.947-5.947s5.947,2.668,5.947,5.947S201.411,209.421,198.132,209.421z"/>
</g>
</svg>
