<?xml version="1.0" encoding="iso-8859-1"?>
<!-- Generator: Adobe Illustrator 19.2.0, SVG Export Plug-In . SVG Version: 6.00 Build 0)  -->
<svg version="1.1" id="Lager_13" xmlns="http://www.w3.org/2000/svg" xmlns:xlink="http://www.w3.org/1999/xlink" x="0px" y="0px"
	 viewBox="0 0 256 256" style="enable-background:new 0 0 256 256;" xml:space="preserve">
<g>
	<path style="fill:#041E42;" d="M217.649,154.371l20.604-5.914l-0.123-39.883l-20.942-5.783l-8.33-19.37l10.393-18.526l-28.14-28.14
		l-18.521,10.43l-19.448-8.204l-5.65-20.944l-39.824-0.04l-5.725,20.938l-19.034,8.58L64.812,37.471L36.705,65.578l10.056,18.147
		l-8.334,19.288l-21.066,5.569l-0.094,39.805l20.771,5.659l7.721,19.919l-11.225,19.287l28.221,28.222l19.275-11.193l19.763,7.928
		l5.826,20.721l38.877-0.07l5.699-20.73l21.232-7.541l19.746,11.6l28.249-28.248l-11.559-19.649L217.649,154.371z M191.57,209.648
		l-17.099-10.045l-30.537,10.848l-5.064,18.422l-23.68,0.043l-5.105-18.154l-28.858-11.578l-16.842,9.779l-17.336-17.335
		l9.771-16.791l-11.283-29.11l-18.253-4.974l0.059-24.465l18.336-4.849l12.213-28.261l-8.788-15.856l17.449-17.449l15.892,8.818
		l27.903-12.576l4.951-18.111l24.531,0.024l4.93,18.269l28.464,12.009l16.183-9.113l17.417,17.417l-9.102,16.226l12.178,28.317
		l18.255,5.041l0.076,24.736l-18.095,5.193l-11.354,29.05l10.098,17.167L191.57,209.648z"/>
	<path style="fill:#041E42;" d="M127.979,81.562c-13.861,0-25.139,11.272-25.139,25.129c0,13.855,11.277,25.128,25.139,25.128
		c13.855,0,25.128-11.272,25.128-25.128C153.106,92.834,141.834,81.562,127.979,81.562z M127.979,121.818
		c-8.348,0-15.139-6.786-15.139-15.128s6.791-15.129,15.139-15.129c8.342,0,15.128,6.787,15.128,15.129
		S136.32,121.818,127.979,121.818z"/>
	<path style="fill:#041E42;" d="M127.974,54.333c-40.752,0-73.906,33.154-73.906,73.906s33.154,73.906,73.906,73.906
		s73.905-33.154,73.905-73.906S168.726,54.333,127.974,54.333z M162,182.555c-10,6.072-21.671,9.591-34,9.591
		c-12.329,0-24-3.519-34-9.591v-24.425c9-7.466,21.157-11.554,34.221-11.554c12.902,0,24.779,3.915,33.779,11.066V182.555z
		 M172,174.881V153.14l-1.843-1.488c-10.71-9.722-25.643-15.076-41.861-15.076c-16.402,0-31.633,5.557-42.475,15.646L84,153.704
		v21.177c-12-11.67-20.109-28.256-20.109-46.642c0-35.238,28.756-63.906,63.994-63.906c35.237,0,64.152,28.668,64.152,63.906
		C192.038,146.625,184,163.211,172,174.881z"/>
</g>
</svg>
