<?xml version="1.0" encoding="utf-8"?>
<!-- Generator: Adobe Illustrator 24.1.0, SVG Export Plug-In . SVG Version: 6.00 Build 0)  -->
<svg version="1.1" id="Layer_1" xmlns="http://www.w3.org/2000/svg" xmlns:xlink="http://www.w3.org/1999/xlink" x="0px" y="0px"
	 viewBox="0 0 256 256" style="enable-background:new 0 0 256 256;" xml:space="preserve">
<style type="text/css">
	.st0{fill:#041E42;}
</style>
<g>
	<path class="st0" d="M164.2,137.6l10.4-19.7l5.2-9.6l-1.7-4c-0.3-0.9-1.7-4.7-5.6-11.1c-5.2-8.5-17.7-7.6-19.8-7.1
		c-0.1,0-0.4,0.1-0.9,0.2c-3.5,0.7-14,2.8-24.9,6.4c-1,0.3-2.1,0.7-3,1c-9.3,3-14.4,4.7-15.9,8.2c-0.9,2.1-2.6,8.5-3.3,10.9H100
		L79.2,90.6H47.9l-0.1,18.3l-6.2,4.4c-20.1,13.8-20.1,35.5-20,36.4l7-0.1c0-0.8,0.1-19,17.1-30.6l6.8-4.9h39.4l23.2,24.8l40.4,0.4
		l-5.8,11.5h-45.9c-1.4-16.7-15.5-29.8-32.5-29.8c-18,0-32.7,14.6-32.7,32.7s14.6,32.7,32.7,32.7c16.6,0,30.3-12.4,32.4-28.5h50.4
		L164.2,137.6z M114.3,104.8c1.3-1.1,7.1-3,11.7-4.5c1-0.3,2-0.7,3.1-1c10.5-3.5,20.8-5.5,24.1-6.2c0.5-0.1,0.9-0.2,1.1-0.2
		c1.5-0.3,9.4-0.6,12.2,4c3.9,6.3,5,9.7,5,9.7l0.6,1.4l-2.6,4.9H112C112.8,109.8,113.8,106.2,114.3,104.8z M54.7,107.2l0.1-9.6h21.4
		l9,9.6H54.7z M118,132.1l-11.5-12.3h59.2l-6.7,12.7L118,132.1z M71.2,179.5c-14.1,0-25.7-11.5-25.7-25.7
		c0-14.1,11.5-25.7,25.7-25.7c13.2,0,24.1,10,25.5,22.8H76.9l-10.6-10.5l-4.9,5L74.1,158h22.4C94.5,170.2,83.9,179.5,71.2,179.5z"/>
	<path class="st0" d="M207.3,121.2c-3.4,0-6.8,0.5-9.9,1.5l-3.9-9.8h7.7l0-20.4h-15.7v0.3l-12-30.4h-22.4v7h17.7l22.2,56.1
		c-9.8,5.6-16.4,16.2-16.4,28.3c0,18,14.6,32.7,32.7,32.7s32.7-14.6,32.7-32.7S225.3,121.2,207.3,121.2z M194.3,99.5l0,6.4h-3.5
		l-2.5-6.4H194.3z M207.3,179.5c-14.1,0-25.7-11.5-25.7-25.7c0-9.1,4.8-17.1,12-21.7l10.4,26.3l6.5-2.6L200,129.2
		c2.3-0.7,4.8-1.1,7.3-1.1c14.1,0,25.7,11.5,25.7,25.7C232.9,168,221.4,179.5,207.3,179.5z"/>
</g>
</svg>
