<?xml version="1.0" encoding="utf-8"?>
<!-- Generator: Adobe Illustrator 24.1.0, SVG Export Plug-In . SVG Version: 6.00 Build 0)  -->
<svg version="1.1" id="Layer_1" xmlns="http://www.w3.org/2000/svg" xmlns:xlink="http://www.w3.org/1999/xlink" x="0px" y="0px"
	 viewBox="0 0 256 256" style="enable-background:new 0 0 256 256;" xml:space="preserve">
<style type="text/css">
	.st0{fill:#041E42;}
</style>
<path class="st0" d="M236.3,184.5c-0.1-4.3-1.8-8.4-5.1-12.5c-6.3-7.7-14.4-12.4-20.8-15.7c-11.5-5.9-20-9.9-32.9-12.5l0,0
	c-3-0.6-6-1.1-9.2-1.6c-1.9-6.1-5.8-10.5-11.3-12.7c-0.1,0-0.2-0.1-0.3-0.1c0-0.1,0-0.2,0-0.4c0.1-20.6-0.2-63.2-0.2-63.6
	c-0.2-27.5-24.1-49.9-53.3-49.9c-28.9,0-52.8,22.2-53.3,49.5c0,0.2-0.2,21.7-0.2,32.4v23.3c0,17.7,0,51.8,0,56.6
	c-1.1,1.8-5.8,6.6-7.7,7.7c-3.7-0.1-7.6-0.1-11.3,0c-8.3,0.2-13.1,5.1-13.1,13.4l0,3.2c0,3.1,0,6.2,0,9.2c0.1,7,5.1,12.1,11.9,12.1
	c10.1,0.1,20.3,0.1,30.4,0.1h4.7c8.7,0,17.4,0,26-0.1c6.9,0,11.7-5.1,11.8-12.2c0-4.1,0-8.5,0-13.3c-0.1-6.9-4.4-11.7-11.2-12.3
	c-4.2-0.3-8.4-0.3-12.4-0.2l-1,0c-1.9-1.2-6.4-6-7.3-7.8c0-36.6,0.2-108.7,0.2-108.8c0-18.2,14.8-33,33-33s33,14.8,33,33
	c0,0,0.1,40.6,0.2,61c0,0,0,0.1,0,0.1c0,0-0.1,0-0.1,0.1c-6.7,2.9-10.7,8.2-12.1,15.8c0,0.1-0.1,0.2-0.2,0.2
	c-13.3,6.2-13.3,17.1-13.3,28.6c0,1.3,0,2.5,0,3.9c-0.1,7,0,13.4,0.8,21.1c0.2,1.7,0.3,3.4,0.4,5c0.4,7.4,0.9,15,11.4,17.4l0.5,0.1
	c1.3,0.1,11.3,1,15.8,1.2c3.7,2.7,8.2,4.3,13.1,4.3c4.9,0,9.4-1.6,13.1-4.3c3.4,0,7.4,0,11.7,0c10.4,0,22.2,0,30.1-0.2
	c3.7-0.1,7.7-0.7,11.4-1.9c10.6-3.4,16.3-11.3,16.8-23.4C236.5,192.8,236.4,188.3,236.3,184.5z M153.2,220.2
	c-8.4,0-15.2-6.8-15.2-15.2s6.8-15.2,15.2-15.2s15.2,6.8,15.2,15.2S161.6,220.2,153.2,220.2z M229.3,197.1c-0.4,9.2-4.1,14.5-12,17
	c-3.1,1-6.4,1.5-9.4,1.6c-7.8,0.1-19.6,0.1-30,0.2c-1.9,0-3.7,0-5.5,0c1.8-3.2,2.9-6.9,2.9-10.9c0-12.2-9.9-22.2-22.2-22.2
	c-12.2,0-22.2,9.9-22.2,22.2c0,3.8,0.9,7.3,2.6,10.4c-3.2-0.3-6.6-0.5-8.5-0.7c-5-1.2-5.3-3.5-5.7-10.9c-0.1-1.6-0.2-3.4-0.4-5.3
	c-0.8-7.3-0.8-13.5-0.7-20.3c0-1.3,0-2.7,0-3.9c0-12.2,0.3-18.2,9.3-22.3c1.9-0.9,3.6-3.1,4-5.2c1-5.3,3.6-8.8,8.1-10.8
	c2.9-1.3,4.3-3.4,4.3-6.6c-0.1-20.3-0.2-61-0.2-61c0-22.1-17.9-40-40-40s-40,17.9-40,40c0,0-0.1,72.8-0.2,109.2c0,0.8,0,3.3,6.5,9.7
	c4.3,4.3,6,4.6,7.2,4.6l1.7,0c3.9-0.1,7.9-0.1,11.8,0.2c3.1,0.2,4.7,2,4.7,5.3c0,4.8,0,9.1,0,13.2c0,3.3-1.8,5.2-4.9,5.3
	c-8.5,0-17.3,0.1-25.9,0.1H60c-10.1,0-20.3,0-30.4-0.1c-3,0-4.9-2-4.9-5.2c0-3,0-6.1,0-9.1l0-3.2c0-4.5,1.8-6.3,6.2-6.4
	c3.9-0.1,7.8-0.1,11.6,0c1,0,2.8,0.1,8.2-5.2c6-5.9,6-8.1,6-9c0,0,0-38.1,0-57.1V97.3c0-10.7,0.2-32.1,0.2-32.3
	c0.4-23.5,21.2-42.6,46.3-42.6c25.4,0,46.2,19.3,46.3,43c0,0.4,0.3,43,0.2,63.5c0,3.5,1.5,5.7,4.7,7c3.6,1.5,6,4.3,7.3,8.4
	c0.9,2.8,2.6,4.3,5.5,4.7c3,0.4,6,1,8.9,1.5l0,0c12,2.4,20.1,6.3,31.1,11.9c8.5,4.3,14.2,8.6,18.5,13.8c2.4,2.9,3.5,5.5,3.6,8.3
	C229.4,188.4,229.5,192.7,229.3,197.1z"/>
</svg>
