<svg id="Lager_1" data-name="Lager 1" xmlns="http://www.w3.org/2000/svg" viewBox="0 0 158.66 158.66"><defs><style>.cls-1,.cls-2{fill:none;stroke:#161743;}.cls-1{stroke-width:2.85px;}.cls-2{stroke-linecap:round;stroke-linejoin:round;stroke-width:2.31px;}</style></defs><title>ICON_Keep-distance</title><circle class="cls-1" cx="420.52" cy="162.81" r="77.91" transform="translate(-232.01 405.54) rotate(-67.5)"/><path class="cls-2" d="M378.47,141.2a9.49,9.49,0,1,0-9.49-9.48A9.48,9.48,0,0,0,378.47,141.2Z" transform="translate(-341.19 -83.48)"/><path class="cls-2" d="M378.47,141.46a13.26,13.26,0,0,0-13.22,13.22V166a13.19,13.19,0,0,0,4.57,10,9,9,0,0,0-.52,3v15.9a7,7,0,0,0,7,7h4.34a7,7,0,0,0,7-7v-15.9a9,9,0,0,0-.52-3,13.19,13.19,0,0,0,4.57-10V154.68A13.26,13.26,0,0,0,378.47,141.46Z" transform="translate(-341.19 -83.48)"/><path class="cls-2" d="M461.69,141.2a9.49,9.49,0,1,0-9.49-9.48A9.47,9.47,0,0,0,461.69,141.2Z" transform="translate(-341.19 -83.48)"/><path class="cls-2" d="M461.69,141.46a13.26,13.26,0,0,0-13.22,13.22V166a13.19,13.19,0,0,0,4.57,10,9,9,0,0,0-.52,3v15.9a7,7,0,0,0,7,7h4.34a7,7,0,0,0,7-7v-15.9a9,9,0,0,0-.51-3,13.18,13.18,0,0,0,4.56-10V154.68A13.25,13.25,0,0,0,461.69,141.46Z" transform="translate(-341.19 -83.48)"/><line class="cls-2" x1="63.92" y1="78.45" x2="92.57" y2="78.45"/><line class="cls-2" x1="63.92" y1="67.32" x2="63.92" y2="89.95"/><line class="cls-2" x1="92.57" y1="67.32" x2="92.57" y2="89.95"/></svg>