<?xml version="1.0" encoding="utf-8"?>
<!-- Generator: Adobe Illustrator 24.1.0, SVG Export Plug-In . SVG Version: 6.00 Build 0)  -->
<svg version="1.1" id="Layer_1" xmlns="http://www.w3.org/2000/svg" xmlns:xlink="http://www.w3.org/1999/xlink" x="0px" y="0px"
	 viewBox="0 0 256 256" style="enable-background:new 0 0 256 256;" xml:space="preserve">
<style type="text/css">
	.st0{fill:#041E42;}
	.st1{fill:none;stroke:#161743;stroke-width:7;stroke-miterlimit:10;}
</style>
<g>
	<path class="st0" d="M190,118.5c-10.7,0-19.4-8.7-19.4-19.4s8.7-19.4,19.4-19.4s19.4,8.7,19.4,19.4S200.7,118.5,190,118.5z
		 M190,86.7c-6.8,0-12.4,5.6-12.4,12.4s5.6,12.4,12.4,12.4s12.4-5.6,12.4-12.4S196.8,86.7,190,86.7z"/>
</g>
<g>
	<rect x="187.7" y="204.9" class="st0" width="7" height="21.4"/>
	<path class="st0" d="M233.1,135.9c0-0.3-0.2-3.2-2.3-6.3c-1.9-2.7-5.6-6.2-13.1-7.3l-0.3,0h-42.9c-1.6-0.4-7.6-2.3-13.8-6.1
		c-9.3-5.7-14.8-13-16.4-21.6l-0.1-0.4l-0.2-0.4c-0.2-0.4-1.9-4.2-6.3-5.6c-2.2-0.7-4.6-0.7-7.2,0v-33l49.3-19.4l-56.3-22.8v75.2
		c-2.6-0.7-5.1-0.8-7.3,0c-4.4,1.4-6.2,5.2-6.3,5.6l-0.2,0.4l-0.1,0.4c-1.5,8.6-7,15.9-16.4,21.6c-6.3,3.9-12.3,5.7-13.8,6.1H36.7
		l-0.5,0c-7.5,1.1-11.2,4.6-13.1,7.3c-2.1,3.1-2.3,5.9-2.3,6.3l0,46.2h7v-45.9c0.1-0.8,1-5.6,9.2-6.9h43.3l0.4-0.1
		c0.3-0.1,7.9-2,16-7c10.9-6.6,17.6-15.6,19.7-25.9c0.3-0.4,0.9-1.2,2-1.6c1.3-0.4,3-0.1,5.1,0.9v10.3c-13,24.9-36.8,30.1-37,30.1
		l-2.8,0.6v43.6H44.3v-38.5h-7v45.5h3.7v38.9h7v-38.9h30.3v38.9h7v-38.9h5.5v-45c6.2-1.9,21.1-7.7,32.8-23.2v44.6h7v-44.5
		c11.7,15.4,26.6,21.2,32.7,23.1v45h5.5v38.9h7v-38.9H206v38.9h7v-38.9h3.7v-45.5h-7v38.5h-39.4v-40.7l0-2.9l-2.8-0.6
		c-0.2,0-23.9-5.2-36.9-30V95.5c2-0.9,3.7-1.2,5-0.8c1.1,0.3,1.8,1.2,2,1.6c2,10.4,8.8,19.3,19.7,25.9c8.1,5,15.7,6.9,16,7l0.4,0.1
		h43.3c8.3,1.4,9.1,6.2,9.2,6.9v45.9h7V136L233.1,135.9z M130.5,23.3l30.4,12.3l-30.4,11.9V23.3z"/>
</g>
<g>
	<rect x="59.2" y="204.9" class="st0" width="7" height="21.4"/>
</g>
<g>
	<path class="st0" d="M63.9,118.5c-10.7,0-19.4-8.7-19.4-19.4s8.7-19.4,19.4-19.4c10.7,0,19.4,8.7,19.4,19.4S74.6,118.5,63.9,118.5z
		 M63.9,86.7c-6.8,0-12.4,5.6-12.4,12.4s5.6,12.4,12.4,12.4c6.8,0,12.4-5.6,12.4-12.4S70.8,86.7,63.9,86.7z"/>
</g>
<path class="st1" d="M170.4,35.7"/>
</svg>
