<?xml version="1.0" encoding="iso-8859-1"?>
<!-- Generator: Adobe Illustrator 19.2.0, SVG Export Plug-In . SVG Version: 6.00 Build 0)  -->
<svg version="1.1" id="Lager_12" xmlns="http://www.w3.org/2000/svg" xmlns:xlink="http://www.w3.org/1999/xlink" x="0px" y="0px"
	 viewBox="0 0 256 256" style="enable-background:new 0 0 256 256;" xml:space="preserve">
<g>
	<path style="fill:#041E42;" d="M201,118.31V82h-21V59.181l-3.089-1.277c-1.121-0.464-27.923-11.365-67.325-11.365
		c-39.718,0-66.39,10.904-67.506,11.369L39,59.188V82H18v36.31l2.401,1.461c6.366,3.874,13.032,7.143,18.599,9.717V238h28.693
		l6.082-17h71.273l2.884,8.153l3.223,8.847H180V129.488c5.568-2.575,12.236-5.845,18.6-9.718L201,118.31z M39,118.427
		c-3.525-1.705-7.296-3.637-11-5.776V92h11V118.427z M170,228h-11.845l-6.037-17H66.716l-6.063,17H49v-60.902
		c5.323,2.008,10.737,3.788,16.187,5.277c0.535,0.146,1.09,0.287,1.642,0.428l5.088,17.262l2.315,0.882
		c9.766,3.723,25.416,5.731,35.183,5.731s25.418-2.009,35.184-5.731l2.314-0.882l5.038-17.092c0.548-0.139,1.098-0.277,1.628-0.421
		c5.577-1.509,11.068-3.305,16.422-5.328V228z M77.949,175.162C88.188,176.943,99.624,178,109.65,178h0.236
		c9.819,0,20.971-1.006,30.954-2.706l-2.093,7.101c-8.437,2.666-21.296,4.283-29.333,4.283s-20.897-1.617-29.333-4.283
		L77.949,175.162z M170,156.482c-6.152,2.49-12.53,4.658-19.034,6.418c-11.271,3.05-27.779,5.1-41.08,5.1h-0.236
		c-13.476,0-30.285-2.118-41.828-5.271c-6.359-1.737-12.667-3.888-18.822-6.365V80h121V156.482z M170,70H49v-3.998
		c7.896-2.737,30.373-9.464,60.586-9.464c29.874,0,52.472,6.738,60.414,9.474V70z M191,112.65c-3.703,2.139-7.474,4.071-11,5.776V92
		h11V112.65z"/>
	<path style="fill:#041E42;" d="M216.316,137.171c7.618,0,13.816-6.198,13.816-13.816c0-7.619-6.198-13.817-13.816-13.817
		c-7.622,0-13.822,6.198-13.822,13.817C202.494,130.973,208.694,137.171,216.316,137.171z M216.316,119.537
		c2.104,0,3.816,1.713,3.816,3.817s-1.712,3.816-3.816,3.816c-2.107,0-3.822-1.712-3.822-3.816S214.209,119.537,216.316,119.537z"/>
	<path style="fill:#041E42;" d="M235.213,143.626c-5.455-2.692-11.891-4.176-18.123-4.176c-6.942,0-12.475,1.886-17.996,3.985
		l-3.259,1.24l0.481,45.519l7.325,3.562l-0.027,39.24l0.048,5.004H232v-44.732l6-3.232v-45.033L235.213,143.626z M228,184.064
		l-6,3.232V228h-8.382l0.027-40.498l-7.396-3.597l-0.342-32.319c3.655-1.269,7.104-2.136,11.182-2.136
		c3.637,0,7.476,0.698,10.91,1.954V184.064z"/>
</g>
</svg>
