<?xml version="1.0" encoding="iso-8859-1"?>
<!-- Generator: Adobe Illustrator 19.2.0, SVG Export Plug-In . SVG Version: 6.00 Build 0)  -->
<svg version="1.1" id="Lager_13" xmlns="http://www.w3.org/2000/svg" xmlns:xlink="http://www.w3.org/1999/xlink" x="0px" y="0px"
	 viewBox="0 0 256 256" style="enable-background:new 0 0 256 256;" xml:space="preserve">
<g>
	<path style="fill:#041E42;" d="M142.62,103l-8.691,13h-11.618l-8.691-13H83.158l4.71,7.697l-0.122,0.075l8.601,13.867L119.806,164
		h11.212l0.316-0.188L117.739,141h27.13l13.708,23h10.85l0.583-0.348l-16.798-28.185L173.082,103H142.62z M144.152,131H112.06
		l-3.221-5.194L101.002,113h7.273l8.691,13h2.331h17h2.975l8.691-13h7.144L144.152,131z"/>
	<rect x="87" y="184" style="fill:#041E42;" width="21" height="10"/>
	<path style="fill:#041E42;" d="M114.298,168H57v70h31.222l8.555-29h62.563l8.554,29H198v-70h-20.702H114.298z M188,228h-12.63
		l-8.554-29H89.3l-8.555,29H67v-50h121V228z"/>
	<path style="fill:#041E42;" d="M104.46,163.658l3.168-9.484c-26.338-8.795-44.033-33.373-44.033-61.16
		c0-35.545,28.918-64.463,64.463-64.463s64.463,28.918,64.463,64.463c0,18.618-8.051,36.325-22.089,48.58l6.576,7.533
		c16.214-14.154,25.513-34.606,25.513-56.113c0-41.059-33.404-74.463-74.463-74.463S53.595,51.955,53.595,93.014
		C53.595,125.109,74.036,153.5,104.46,163.658z"/>
	<path style="fill:#041E42;" d="M156.768,75.917c0-15.831-12.879-28.71-28.71-28.71s-28.71,12.879-28.71,28.71
		s12.879,28.71,28.71,28.71S156.768,91.748,156.768,75.917z M109.348,75.917c0-10.316,8.394-18.71,18.71-18.71
		s18.71,8.394,18.71,18.71s-8.394,18.71-18.71,18.71S109.348,86.233,109.348,75.917z"/>
</g>
</svg>
