<?xml version="1.0" encoding="utf-8"?>
<!-- Generator: Adobe Illustrator 24.1.0, SVG Export Plug-In . SVG Version: 6.00 Build 0)  -->
<svg version="1.1" id="Layer_1" xmlns="http://www.w3.org/2000/svg" xmlns:xlink="http://www.w3.org/1999/xlink" x="0px" y="0px"
	 viewBox="0 0 256 256" style="enable-background:new 0 0 256 256;" xml:space="preserve">
<style type="text/css">
	.st0{fill:#041E42;}
</style>
<path class="st0" d="M217.6,85.6c-0.8-4.4-4.4-7.6-8.8-7.8l-54.5-2.9l-3.7,12V137l0.1,0.3H23.6l-0.2,13.1v16.9h28.4
	c1.8,6.7,7.9,11.6,15.1,11.6c8.6,0,15.6-7,15.6-15.6s-7-15.6-15.6-15.6c-7.2,0-13.3,4.9-15.1,11.6H31.4l0-8.9l0.1-5.1h40.5l22,22
	h68.8c1.8,6.7,7.9,11.6,15.1,11.6c8.6,0,15.6-7,15.6-15.6s-7-15.6-15.6-15.6c-7.2,0-13.3,4.9-15.1,11.6h-28.1v-14h19.5l3.1,7.3h5
	l1.1-1.3c3.8-4.9,9.8-7.5,16-7c8.7,0.7,15.9,7.7,16.9,16.3v9.3h26.8V116L217.6,85.6z M66.8,155.7c4.2,0,7.6,3.4,7.6,7.6
	s-3.4,7.6-7.6,7.6s-7.6-3.4-7.6-7.6S62.6,155.7,66.8,155.7z M177.8,155.7c4.2,0,7.6,3.4,7.6,7.6s-3.4,7.6-7.6,7.6s-7.6-3.4-7.6-7.6
	S173.6,155.7,177.8,155.7z M83.2,145.3h24.4v14H97.2L83.2,145.3z M126.6,159.3h-11v-14h11V159.3z M215.9,143.7H208v14.4l7.9,1.4v3.3
	h-12.8v-2.4l0-0.3c-1.2-12-11.2-21.8-23.3-22.8c-7-0.5-13.7,1.8-18.8,6.3l-3.4-8V88l1.8-5.8l49,2.6c1.2,0.1,2.1,0.9,2.3,2l0.3,2
	l-42.3-0.9l-1.9,14.5l6.5,15.1l42.6,6.3V143.7z M215.9,116.7l-37.7-5.6l-4.2-9.8l0.8-6.3l37.4,0.8L215.9,116.7L215.9,116.7z"/>
</svg>
