<?xml version="1.0" encoding="utf-8"?>
<!-- Generator: Adobe Illustrator 24.1.0, SVG Export Plug-In . SVG Version: 6.00 Build 0)  -->
<svg version="1.1" xmlns="http://www.w3.org/2000/svg" xmlns:xlink="http://www.w3.org/1999/xlink" x="0px" y="0px"
	 viewBox="0 0 256 256" style="enable-background:new 0 0 256 256;" xml:space="preserve">
<style type="text/css">
	.st0{display:none;}
	.st1{display:inline;}
	.st2{fill:#19233F;}
	.st3{fill:#19233F;stroke:#000000;stroke-width:3;stroke-miterlimit:10;}
	.st4{display:inline;fill:#161743;}
	.st5{display:inline;fill:none;stroke:#000000;stroke-width:6;stroke-miterlimit:10;}
	.st6{fill:#041E42;}
</style>
<g id="Lager_6" class="st0">
	<g class="st1">
		<path class="st2" d="M181,116V82.9l-1.9-1c-16.3-8.2-34.4-12.5-52.2-12.5c-17.9,0-35.8,4.3-52.1,12.5l-1.8,1V116H56v28.9l2,1
			c4.7,2.9,10,5.6,15,7.9V238h22.7l6.6-22h49.2l6.6,22H181v-84c5-2.4,10.3-5.1,15.1-8.1l1.9-1V116H181z M73,146.1
			c-3-1.6-7-3.3-10-5.1v-18h10V146.1z M174,231h-10.6l-6.6-22H97.1l-6.6,22H80v-74c2,1,4.6,1.9,7,2.7l11.4,38.1l1.6,0.6
			c7.5,2.8,19.4,4.3,26.9,4.3s19.5-1.5,26.9-4.3l1.6-0.6l11.3-37.9c2.4-0.8,5.1-1.7,7.1-2.7V231z M94.9,162.3
			c10.9,3,21.8,4.7,32.2,4.7h0.2c10.2,0,21-1.7,31.6-4.6l-9,30c-6.5,2.1-16.6,3.3-22.9,3.3c-6.3,0-16.4-1.3-22.9-3.3L94.9,162.3z
			 M174,149.5c-15,6.6-31.5,10.5-46.7,10.5h-0.2c-15.2,0-32.1-3.9-47.1-10.6V123h94V149.5z M174,116H80V87.3
			c15-7.1,30.9-10.8,47-10.8s32,3.7,47,10.8V116z M191,141c-4,1.9-7,3.6-10,5.2V123h10V141z"/>
		<path class="st2" d="M126.9,27.4c10.5,0,20,4.1,27.1,10.8l5-5c-8.4-7.9-19.6-12.8-32.1-12.8c-12.4,0-23.7,4.9-32.1,12.8l5,5
			C106.9,31.5,116.4,27.4,126.9,27.4z"/>
		<path class="st2" d="M145.1,47.1c-4.8-4.4-11.2-7.1-18.2-7.1s-13.4,2.7-18.2,7.1l5,5c3.5-3.1,8.1-5,13.2-5c5.1,0,9.7,1.9,13.2,5
			L145.1,47.1z"/>
		<path class="st2" d="M121.7,60.1l5.2,5.2l0,0l0,0l5.2-5.2c-1.5-1.1-3.3-1.8-5.2-1.8C125,58.3,123.1,58.9,121.7,60.1z"/>
	</g>
</g>
<g id="Lager_6_copy">
</g>
<g id="sides" class="st0">
	<g class="st1">
		<g>
			<path class="st3" d="M211.1,154.8L209,151c1.1-0.9,2.1-1.9,3-3c0.9-1.1,1.8-2.4,2.5-3.7c0.7-1.3,1.4-2.7,1.9-4.2
				c0.5-1.5,0.9-3.1,1.2-4.6c0.3-1.6,0.4-3.3,0.4-5c0-1.7-0.1-3.4-0.4-5c-0.3-1.6-0.7-3.1-1.2-4.6c-0.5-1.5-1.1-2.9-1.9-4.2
				c-0.7-1.3-1.6-2.5-2.5-3.7c-0.9-1.1-1.9-2.1-3-3l2.1-3.8c1.3,1,2.5,2.2,3.6,3.6c1.1,1.3,2.1,2.8,3,4.3c0.9,1.6,1.6,3.2,2.2,5
				c0.6,1.8,1.1,3.6,1.4,5.5c0.3,1.9,0.5,3.9,0.5,5.9c0,2-0.2,4-0.5,5.9c-0.3,1.9-0.8,3.7-1.4,5.5c-0.6,1.7-1.4,3.4-2.2,5
				c-0.9,1.5-1.9,3-3,4.3C213.6,152.5,212.4,153.7,211.1,154.8z"/>
		</g>
		<g>
			<path class="st3" d="M219.9,170.3l-2.1-3.8c1.9-1.6,3.7-3.4,5.4-5.3c1.6-2,3.1-4.2,4.4-6.5c1.3-2.3,2.4-4.8,3.3-7.4
				c0.9-2.6,1.6-5.4,2.1-8.2c0.5-2.9,0.7-5.9,0.7-8.8c0-3-0.2-5.9-0.7-8.8c-0.5-2.8-1.2-5.6-2.1-8.2c-0.9-2.6-2-5.1-3.3-7.4
				c-1.3-2.3-2.8-4.5-4.4-6.5c-1.6-2-3.4-3.8-5.4-5.3l2.1-3.8c2.1,1.7,4.1,3.7,5.9,5.9c1.8,2.2,3.4,4.6,4.9,7.1
				c1.4,2.6,2.7,5.3,3.7,8.2c1,2.9,1.8,6,2.3,9.1c0.5,3.2,0.8,6.5,0.8,9.7c0,3.3-0.3,6.5-0.8,9.7c-0.5,3.1-1.3,6.2-2.3,9.1
				c-1,2.9-2.2,5.6-3.7,8.2c-1.4,2.6-3.1,5-4.9,7.1C224,166.6,222,168.6,219.9,170.3z"/>
		</g>
		<g>
			<path class="st3" d="M229.1,187l-2.1-3.8c2.8-2.3,5.4-4.9,7.8-7.8c2.4-2.9,4.5-6,6.4-9.4c1.9-3.4,3.5-7,4.9-10.8
				c1.3-3.8,2.4-7.9,3.1-11.9c0.7-4.2,1.1-8.5,1.1-12.8c0-4.3-0.4-8.6-1.1-12.8c-0.7-4.1-1.7-8.1-3.1-11.9c-1.3-3.8-3-7.4-4.9-10.8
				c-1.9-3.4-4-6.5-6.4-9.4c-2.4-2.9-5-5.5-7.8-7.8l2.1-3.8c3,2.4,5.8,5.2,8.3,8.3c2.5,3.1,4.9,6.5,6.9,10.1c2,3.6,3.8,7.5,5.2,11.6
				c1.4,4.1,2.5,8.4,3.3,12.8c0.8,4.5,1.1,9.1,1.1,13.7c0,4.6-0.4,9.2-1.1,13.7c-0.7,4.4-1.8,8.7-3.3,12.8c-1.4,4-3.2,7.9-5.2,11.6
				c-2,3.6-4.3,7-6.9,10.1C234.9,181.8,232.1,184.6,229.1,187z"/>
		</g>
	</g>
	<g class="st1">
		<g>
			<path class="st3" d="M45.8,106.2l2.1,3.8c-1.1,0.9-2.1,1.9-3,3c-0.9,1.1-1.8,2.4-2.5,3.7c-0.7,1.3-1.4,2.7-1.9,4.2
				c-0.5,1.5-0.9,3.1-1.2,4.6c-0.3,1.6-0.4,3.3-0.4,5c0,1.7,0.1,3.4,0.4,5c0.3,1.6,0.7,3.1,1.2,4.6c0.5,1.5,1.1,2.9,1.9,4.2
				c0.7,1.3,1.6,2.5,2.5,3.7c0.9,1.1,1.9,2.1,3,3l-2.1,3.8c-1.3-1-2.5-2.2-3.6-3.6c-1.1-1.3-2.1-2.8-3-4.3c-0.9-1.6-1.6-3.2-2.2-5
				c-0.6-1.8-1.1-3.6-1.4-5.5c-0.3-1.9-0.5-3.9-0.5-5.9c0-2,0.2-4,0.5-5.9c0.3-1.9,0.8-3.7,1.4-5.5c0.6-1.7,1.4-3.4,2.2-5
				c0.9-1.5,1.9-3,3-4.3C43.4,108.5,44.6,107.3,45.8,106.2z"/>
		</g>
		<g>
			<path class="st3" d="M37,90.7l2.1,3.8c-1.9,1.6-3.7,3.4-5.4,5.3c-1.6,2-3.1,4.2-4.4,6.5c-1.3,2.3-2.4,4.8-3.3,7.4
				c-0.9,2.6-1.6,5.4-2.1,8.2c-0.5,2.9-0.7,5.9-0.7,8.8c0,3,0.2,5.9,0.7,8.8c0.5,2.8,1.2,5.6,2.1,8.2c0.9,2.6,2,5.1,3.3,7.4
				c1.3,2.3,2.8,4.5,4.4,6.5c1.6,2,3.4,3.8,5.4,5.3l-2.1,3.8c-2.1-1.7-4.1-3.7-5.9-5.9c-1.8-2.2-3.4-4.6-4.9-7.1
				c-1.4-2.6-2.7-5.3-3.7-8.2c-1-2.9-1.8-6-2.3-9.1c-0.5-3.2-0.8-6.5-0.8-9.7c0-3.3,0.3-6.5,0.8-9.7c0.5-3.1,1.3-6.2,2.3-9.1
				c1-2.9,2.2-5.6,3.7-8.2c1.4-2.6,3.1-5,4.9-7.1C32.9,94.4,34.9,92.4,37,90.7z"/>
		</g>
		<g>
			<path class="st3" d="M27.9,74l2.1,3.8c-2.8,2.3-5.4,4.9-7.8,7.8c-2.4,2.9-4.5,6-6.4,9.4c-1.9,3.4-3.5,7-4.9,10.8
				c-1.3,3.8-2.4,7.9-3.1,11.9c-0.7,4.2-1.1,8.5-1.1,12.8c0,4.3,0.4,8.6,1.1,12.8c0.7,4.1,1.7,8.1,3.1,11.9c1.3,3.8,3,7.4,4.9,10.8
				c1.9,3.4,4,6.5,6.4,9.4c2.4,2.9,5,5.5,7.8,7.8l-2.1,3.8c-3-2.4-5.8-5.2-8.3-8.3c-2.5-3.1-4.9-6.5-6.9-10.1
				c-2-3.6-3.8-7.5-5.2-11.6c-1.4-4.1-2.5-8.4-3.3-12.8c-0.8-4.5-1.1-9.1-1.1-13.7c0-4.6,0.4-9.2,1.1-13.7c0.7-4.4,1.8-8.7,3.3-12.8
				c1.4-4,3.2-7.9,5.2-11.6c2-3.6,4.3-7,6.9-10.1C22.1,79.2,24.9,76.4,27.9,74z"/>
		</g>
	</g>
</g>
<g id="Layer_3" class="st0">
	<path class="st4" d="M244,144.9C244,78.8,191.3,25,126.5,25C61.7,25,9,78.8,9,144.9c0,0.1,0,0.1,0,0.2c0,0.1,0,0.1,0,0.2
		c0,36,15.7,69.7,43.1,92.7l0.1,0.1h10.5l-1.7-1.3c-28.6-21.3-45.7-55.5-45.7-91.5c0-62.5,49.8-113.3,111.1-113.3
		s111.1,50.8,111.1,113.3c0,36-17.1,70.2-45.7,91.5l-1.7,1.3h10.4l0.2-0.1l0.1-0.1c27.3-22.9,43-56.7,43-92.6c0-0.1,0-0.1,0-0.2
		C244,145,244,144.9,244,144.9z"/>
	<path class="st5" d="M175,61.8c-27.6-18.4-67.6-18.4-96,0.2"/>
	<path class="st5" d="M42.8,98c-18.4,27.6-18.4,67.6,0.2,96"/>
	<path class="st5" d="M209.2,194c18.4-27.6,18.4-67.6-0.2-96"/>
	<path class="st5" d="M268.3,189C292,158,292,113,268,81"/>
	<path class="st5" d="M-59.3,90c-22.4,31-22.4,76,0.3,108"/>
</g>
<g id="sides_1_" class="st0">
	<path class="st5" d="M42.8,98c-18.4,27.6-18.4,67.6,0.2,96"/>
	<path class="st5" d="M209.2,194c18.4-27.6,18.4-67.6-0.2-96"/>
</g>
<g id="sides_copy">
	<g>
		<path class="st6" d="M154.5,168.6c-0.5,6.3-3.3,12.1-7.9,16.4c-4.6,4.3-10.7,6.7-17,6.7l6.9-5.5l-5.5-0.6l-9.4,7.4l7.4,9.4
			l5.5,0.6l-5.8-7.3c0.2,0,0.5,0,0.7,0c7.4,0,14.4-2.8,19.8-7.8c5.4-5,8.6-11.8,9.2-19l0.1-0.9l-4-0.3L154.5,168.6z"/>
		<path class="st6" d="M129.4,137.5c-5,0-10,1.3-14.4,3.8l-0.8,0.4l2,3.5l0.8-0.4c3.8-2.1,8.1-3.3,12.4-3.3
			c10.8,0,20.3,6.8,23.8,16.9l-7.9-4.6l1.4,5.3l10.3,6l6-10.3l-1.4-5.3l-4.6,7.9C153,145.5,142,137.5,129.4,137.5z"/>
		<path class="st6" d="M104.3,166.6c0-5.1,1.5-10,4.4-14.2l0,8.8l3.9-3.9l0-12l-12,0l-3.9,3.9l9.4,0c-3.8,5-5.8,11-5.8,17.4
			c0,5.6,1.6,11,4.5,15.6c2.9,4.5,7,8.2,11.8,10.5l0.8,0.4l1.7-3.6l-0.8-0.4C109.7,184.9,104.3,176.3,104.3,166.6z"/>
		<path class="st6" d="M216.7,83.1c-10-7.9-22.3-12.1-34.9-11.9c-1.7-13.7-8.7-26.3-19.6-34.9c-22.8-18.1-56.1-14.2-74.2,8.6
			C82,52.4,78.3,61.2,77,70.6c-1.9,0-3.7,0.2-5.6,0.4c-3.5,0.4-7.1,1.2-10.4,2.2c-3.4,1.1-6.8,2.5-9.9,4.2c-3.2,1.7-6.2,3.8-9,6.2
			c-2.9,2.4-5.5,5.1-7.9,8.1c-2.3,3-4.4,6.1-6.1,9.5c-1.6,3.3-3,6.7-3.9,10.2c-1,3.5-1.6,7-1.9,10.6c-0.3,3.5-0.2,7.1,0.2,10.7
			c0.4,3.5,1.2,7,2.2,10.4c1.1,3.4,2.5,6.8,4.2,9.9c1.7,3.2,3.8,6.2,6.2,9c2.4,2.9,5.1,5.5,8.1,7.9c3,2.3,6.2,4.4,9.5,6.1
			c3.3,1.6,6.7,3,10.2,3.9c3.5,1,7,1.6,10.6,1.9l5.3,0.1l3.7,0c6,20.6,24.9,35.6,47.4,35.6c22.5,0,41.6-15.2,47.5-35.8l5.2,0l2.3,0
			l0-0.1c16-0.7,30.8-8.2,40.8-20.8C244.5,136.8,240.5,102,216.7,83.1z M129.9,210.5c-23.4,0-42.3-19-42.3-42.3s19-42.3,42.3-42.3
			c23.4,0,42.3,19,42.3,42.3S153.2,210.5,129.9,210.5z M220.1,156.3c-9.1,11.5-22.9,18.2-37.6,18.2l-2,0l-1.7,0
			c0.3-2.1,0.4-4.3,0.4-6.4c0-27.2-22.1-49.3-49.3-49.3s-49.3,22.1-49.3,49.3c0,2.3,0.2,4.5,0.5,6.7l-2.1,0l-4.9-0.1
			c-3.1-0.2-6.2-0.8-9.1-1.6c-3.1-0.8-6.1-2-8.9-3.4c-2.9-1.5-5.7-3.3-8.3-5.3c-2.6-2.1-5-4.4-7.1-6.9c-2-2.4-3.9-5.1-5.4-7.9
			c-1.5-2.7-2.7-5.6-3.7-8.6c-0.9-3-1.6-6-2-9.1c-0.4-3.1-0.4-6.2-0.2-9.3c0.2-3.1,0.8-6.2,1.6-9.3c0.8-3.1,2-6.1,3.4-8.9
			c1.5-2.9,3.3-5.7,5.3-8.3c2.1-2.6,4.4-5,6.9-7.1c2.4-2,5.1-3.9,7.9-5.4c2.7-1.5,5.7-2.7,8.6-3.7c3-0.9,6-1.6,9.1-2
			c3.1-0.4,6.2-0.4,9.3-0.2c3.1,0.2,6.2,0.8,9.3,1.6c3.1,0.8,6.1,2,8.9,3.4c2.9,1.5,5.7,3.3,8.3,5.3c2.6,2.1,5,4.4,7.1,6.8l0.6,0.7
			c1,1.3,2,2.6,2.9,3.9c0.9,1.3,1.7,2.7,2.5,4.2l6.2-3.3c-0.9-1.6-1.8-3.2-2.8-4.8c-1-1.6-2.1-3.1-3.3-4.5l-0.6-0.7
			c-2.4-2.9-5.1-5.5-8.1-7.9c-3-2.3-6.2-4.4-9.5-6.1c-3.3-1.6-6.7-3-10.2-3.9c-2.8-0.8-5.7-1.3-8.6-1.7c1.2-7.9,4.4-15.3,9.4-21.7
			c15.7-19.8,44.5-23.1,64.3-7.4c10.2,8.1,16.5,20.2,17.3,33.2l0.2,3.6l3.6-0.3c12.1-0.9,24,2.7,33.5,10.3
			C233.1,105.2,236.6,135.5,220.1,156.3z"/>
	</g>
</g>
</svg>
