<?xml version="1.0" encoding="utf-8"?>
<!-- Generator: Adobe Illustrator 24.1.0, SVG Export Plug-In . SVG Version: 6.00 Build 0)  -->
<svg version="1.1" id="Layer_1" xmlns="http://www.w3.org/2000/svg" xmlns:xlink="http://www.w3.org/1999/xlink" x="0px" y="0px"
	 viewBox="0 0 256 256" style="enable-background:new 0 0 256 256;" xml:space="preserve">
<style type="text/css">
	.st0{fill:#041E42;}
</style>
<path class="st0" d="M131.5,189.7h117.6L200.3,0.2H55.7L6.9,189.7h117.6v59.2H55.2v7h145.6v-7h-69.3V189.7z M153,36l2.8,25.8h-55.4
	l2.8-25.8H153z M104,29l2.4-21.8h43.4l2.4,21.8H104z M209,61.8h-46.1L160,36h42.3L209,61.8z M228.1,136.1h-57.2l-3.5-31.7H220
	L228.1,136.1z M166.7,97.5l-3.1-28.7h47.2l7.4,28.7H166.7z M159.7,97.5H96.5l3.1-28.7h56.9L159.7,97.5z M93.4,61.8H47L53.7,36h42.5
	L93.4,61.8z M92.6,68.8l-3.1,28.7H37.8l7.4-28.7H92.6z M88.7,104.5l-3.5,31.7H27.9l8.2-31.7H88.7z M95.8,104.5h64.7l3.5,31.7H92.3
	L95.8,104.5z M164.7,143.1l4.3,39.5H87.3l4.3-39.5H164.7z M176,182.7l-4.3-39.5h58.2l10.2,39.5H176z M200.5,29h-41.3l-2.4-21.8h38
	L200.5,29z M61.1,7.2h38.3L97,29H55.5L61.1,7.2z M26.1,143.1h58.5l-4.3,39.5H15.9L26.1,143.1z"/>
</svg>
