<?xml version="1.0" encoding="utf-8"?>
<!-- Generator: Adobe Illustrator 21.1.0, SVG Export Plug-In . SVG Version: 6.00 Build 0)  -->
<svg version="1.1" id="Icon" xmlns="http://www.w3.org/2000/svg" xmlns:xlink="http://www.w3.org/1999/xlink" x="0px" y="0px"
	 viewBox="0 0 256 256" enable-background="new 0 0 256 256" xml:space="preserve">
<g>
	<path fill="#281E42" d="M19.5,228.5H36h32h7h32h16.5v-83h-104V228.5z M43,221.5v-40h25v40H43z M75,221.5v-40h25v40H75z M26.5,152.5
		h90v69H107v-47H75h-7H36v47h-9.5V152.5z"/>
	<rect x="49.5" y="188.5" fill="#281E42" width="12" height="12"/>
	<rect x="81.5" y="188.5" fill="#281E42" width="12" height="12"/>
	<path fill="#281E42" d="M19.5,127.5H36h32h7h32h16.5v-83h-104V127.5z M43,120.5v-40h25v40H43z M75,120.5v-40h25v40H75z M26.5,51.5
		h90v69H107v-47H75h-7H36v47h-9.5V51.5z"/>
	<rect x="49.5" y="87.5" fill="#281E42" width="12" height="12"/>
	<rect x="81.5" y="87.5" fill="#281E42" width="12" height="12"/>
	<path fill="#281E42" d="M132.5,111.5v83H149h32h7h32h16.5v-83H132.5z M156,187.5v-40h25v40H156z M188,187.5v-40h25v40H188z
		 M229.5,187.5H220v-47h-32h-7h-32v47h-9.5v-69h90V187.5z"/>
	<rect x="162.5" y="154.5" fill="#281E42" width="12" height="12"/>
	<rect x="194.5" y="154.5" fill="#281E42" width="12" height="12"/>
	<path fill="#281E42" d="M165.667,77.191c1.883-1.883,6.107-9.971,5.601-14.53c-0.059-0.529-1.354-13.05,6.42-20.825
		c6.203-6.205,15.475-9.059,24.017-7.753l-18.091,18.092l5.071,16.141l16.141,5.073l18.093-18.092
		c1.306,8.54-1.549,17.813-7.753,24.016c-7.771,7.771-20.3,6.479-20.827,6.421c-4.556-0.506-12.646,3.717-14.528,5.6l-9.192,9.193
		l4.949,4.949l9.171-9.171c1.279-1.155,7.17-3.787,8.827-3.614c1.671,0.187,16.596,1.525,26.55-8.428
		c9.622-9.622,12.778-24.488,7.854-36.992l-1.957-4.967l-23.135,23.134l-8.607-2.706l-2.706-8.608l23.135-23.134l-4.967-1.957
		c-12.507-4.927-27.371-1.77-36.992,7.852c-9.957,9.957-8.613,24.882-8.428,26.549c0.185,1.662-2.459,7.549-3.593,8.806
		l-9.192,9.193l4.949,4.949L165.667,77.191z"/>
</g>
</svg>
