<svg id="Lager_1" data-name="Lager 1" xmlns="http://www.w3.org/2000/svg" viewBox="0 0 158.66 158.66"><defs><style>.cls-1,.cls-2{fill:none;stroke:#161743;}.cls-1{stroke-width:2.85px;}.cls-2{stroke-linecap:round;stroke-linejoin:round;stroke-width:1.94px;}</style></defs><title>ICON_Wash-hands</title><circle class="cls-1" cx="149.11" cy="150.81" r="77.91" transform="translate(-85.43 212.85) rotate(-84.35)"/><path class="cls-2" d="M133.72,92.69c-1.78,3.79-3.86,7.47-5.26,11.4-2.63,7.35-7.22,12.93-14.13,16.4-9.11,4.57-14.45,12.44-19.4,20.83-2.17,3.7-4.84,7.1-7.27,10.61,3.68,4.51,3.68,4.51,11.18,4.44,4.34-2.7,2.6-10.44,9.7-10.18" transform="translate(-69.77 -71.47)"/><path class="cls-2" d="M182.14,152c7.75,4.15,12.06,10.73,10.46,19.34-1.92,10.33-10.12,15.94-21.1,14.49-1.77-.23-3.5-1-5.34-.9" transform="translate(-69.77 -71.47)"/><path class="cls-2" d="M194.73,118.11c-6.84,10-10.59,21.11-13.31,32.87-1.33,5.75-4.84,11.14-8.52,16-4.84,6.39-10.84,11.74-16.4,17.47-2.36,2.43-5.52,1.56-8.26,2.41" transform="translate(-69.77 -71.47)"/><path class="cls-2" d="M98.85,156.85c.8,1.29.26,2.51.09,3.88-.9,7.56-1.6,15.11-.17,22.76,1.24,6.64,2.56,7.81,8.8,5.8" transform="translate(-69.77 -71.47)"/><path class="cls-2" d="M141,136.51c-.61,12-8,19.51-16.89,26.22a18.49,18.49,0,0,0-5.61,6c-.22,3.2,2.32,4.75,3.62,7" transform="translate(-69.77 -71.47)"/><path class="cls-2" d="M133.23,125.86c-5.92-4.34-8.27-4-14,1.93-8.75-1.14-11.53,2.36-9.28,11.16.75,3-1.08,6-.45,9.19.29,1.46,0,3,1,4.38,1.45,2.13,1.11,4.09.36,6.83-1.51,5.53-1,11.58-1.86,17.33-.61,4,.42,8.24-1.18,12.06,1.82,3,2.65,7.64,7.55,6.72,2.59-.48,4.82-2.34,4.39-5.69" transform="translate(-69.77 -71.47)"/><path class="cls-2" d="M162.77,180.57c3.69,2.43,3.19,5.94,1.85,9.17-1.45,3.5-6.37,6.09-9.58,5.31-3.75-.92-7.25-2.6-7.18-7.21,0-1.64-1.43-2.11-1.55-3.39" transform="translate(-69.77 -71.47)"/><path class="cls-2" d="M152.12,164.59c-5.91,6.14-11.91,12.12-19.31,16.58-1.51.91-3.7,1.86-3.94,4.24" transform="translate(-69.77 -71.47)"/><path class="cls-2" d="M163.25,94.86c-2.58,6.3-5.11,12.62-7.78,18.87-.67,1.57-1.21,2.92,0,4.38" transform="translate(-69.77 -71.47)"/><path class="cls-2" d="M139,140.87c-4.43.68-6.25,4.71-9.15,7.31-4.66,4.17-7,4.08-11.26-1.11.7-4.68,5.1-6.88,7.5-10.45,2.28-3.38,5.19-6.41,7.69-9.72a9.72,9.72,0,0,1,8.58-3.73c6.58,1,11.23-3.2,16.36-5.38,4.91-2.09,6.9-8.18,9.8-12.77,1.27-2,2.28-4.18,3.41-6.28" transform="translate(-69.77 -71.47)"/><path class="cls-2" d="M142.92,159.27c-6.36,8.13-15.15,13.33-23.23,19.38-6.12,4.58-6.07,5.6.07,10.71,1.57-1,3.11-2.08,4.78-2.94a18.24,18.24,0,0,1,3.39-1c6,4.32,12.75,4.11,17.79-1.56,4.34-4.89,9.83-8.6,13.66-14" transform="translate(-69.77 -71.47)"/><path class="cls-2" d="M173.91,191.71c-5.31,1.56-7.49,5.7-4.84,9.2,1.93,2.56,5.59,2.78,8.23.48s2.7-5,0-7.78a13.52,13.52,0,0,0-2.94-1.9" transform="translate(-69.77 -71.47)"/><path class="cls-2" d="M197.15,143.29c-6.22,2.66-7.61,6.73-3.37,10.14,2.42,1.94,5.06,2,7.22-.48,1.88-2.21,2.75-4.61.53-7.26-1.06-1.27-2.58-1.63-3.9-2.4" transform="translate(-69.77 -71.47)"/><path class="cls-2" d="M105.63,106c-4.32,3.85-5.17,6.72-2.37,9.15,1.68,1.46,3.7,2.81,6.25,1.52a5.64,5.64,0,0,0,3.38-5.83,4.8,4.8,0,0,0-4.36-4.82,13.84,13.84,0,0,0-2.41,0" transform="translate(-69.77 -71.47)"/></svg>