<?xml version="1.0" encoding="utf-8"?>
<!-- Generator: Adobe Illustrator 24.1.0, SVG Export Plug-In . SVG Version: 6.00 Build 0)  -->
<svg version="1.1" id="Layer_1" xmlns="http://www.w3.org/2000/svg" xmlns:xlink="http://www.w3.org/1999/xlink" x="0px" y="0px"
	 viewBox="0 0 256 256" style="enable-background:new 0 0 256 256;" xml:space="preserve">
<style type="text/css">
	.st0{fill:#041E42;}
</style>
<path class="st0" d="M252.1,146.3c0.1-0.2,0.2-0.4,0.3-0.6c0-0.1,0.1-0.2,0.1-0.2c0.1-0.2,0.1-0.3,0.1-0.5c0-0.1,0-0.2,0-0.3
	c0-0.2,0-0.3,0-0.5c0-0.1,0-0.2,0-0.3c0-0.2-0.1-0.4-0.1-0.6c0-0.1,0-0.1,0-0.2L213.1,22.6c0,0,0-0.1,0-0.1c0,0,0,0,0,0
	c-0.5-1.4-1.9-2.3-3.3-2.3c0,0-0.1,0-0.1,0h-64.9c-0.4-9.3-8.2-16.8-17.6-16.8c-9.4,0-17.2,7.5-17.6,16.8H48.2c-0.3,0-0.6,0-0.9,0.1
	c-0.2,0-0.4,0.1-0.6,0.2c-0.6,0.3-1.1,0.7-1.5,1.2c-0.2,0.2-0.3,0.4-0.4,0.7c0,0.1-0.1,0.2-0.1,0.3L3.5,143.3c0,0,0,0.1,0,0.1
	c-0.1,0.2-0.1,0.4-0.1,0.5c0,0.1,0,0.1,0,0.2c0,0.5,0,1,0.2,1.5c0,0.1,0.1,0.2,0.1,0.2c0.1,0.1,0.1,0.2,0.2,0.3
	c0.7,1.1,16.7,27.2,41.4,28.4c0.6,0,1.1,0,1.7,0c15.1,0,29.7-9.5,43.5-28.1c0,0,0,0,0,0c0,0,0,0,0,0c0,0,0-0.1,0.1-0.1
	c0.1-0.2,0.2-0.4,0.3-0.6c0-0.1,0.1-0.1,0.1-0.2c0.1-0.2,0.1-0.3,0.1-0.5c0-0.1,0-0.2,0-0.3c0-0.2,0-0.3,0-0.5c0-0.1,0-0.2,0-0.3
	c0-0.2-0.1-0.4-0.1-0.6c0,0,0-0.1,0-0.1l-38-116.1h57.7c2.1,5.7,7.2,10,13.3,11.2V123h-13.5v100.1h-48v25.4h130.9v-25.4h-49V123H131
	V38.2c5.9-1.3,10.6-5.5,12.7-11h61.2l-39.7,116.1c0,0,0,0.1,0,0.1c-0.1,0.2-0.1,0.4-0.1,0.5c0,0.1,0,0.2,0,0.2c0,0.3,0,0.5,0,0.8
	c0,0,0,0,0,0c0,0.2,0.1,0.5,0.2,0.7c0,0.1,0.1,0.2,0.1,0.2c0.1,0.1,0.1,0.2,0.2,0.3c0.7,1.1,16.7,27.2,41.4,28.4c0.6,0,1.1,0,1.7,0
	c15.1,0,29.7-9.5,43.5-28.1c0,0,0,0,0,0c0,0,0,0,0,0C252.1,146.4,252.1,146.4,252.1,146.3z M45.5,167.6
	c-14.7-0.7-26.2-12.5-31.9-19.7h66.7C68.9,161.5,57.2,168.1,45.5,167.6z M82.8,140.9H11.7L48,34.7L82.8,140.9z M186.5,230.1v11.4
	H69.5v-11.4h41h33.9H186.5z M137.5,223.1h-19.9V130h19.9V223.1z M127.2,31.6c-5.9,0-10.6-4.8-10.6-10.6c0-5.9,4.8-10.6,10.6-10.6
	s10.6,4.8,10.6,10.6C137.8,26.9,133,31.6,127.2,31.6z M209.7,34.7l34.7,106.2h-71.1L209.7,34.7z M207.1,167.6
	c-14.7-0.7-26.2-12.5-31.9-19.7H242C230.5,161.5,218.8,168.1,207.1,167.6z"/>
</svg>
