<svg id="Lager_1" data-name="Lager 1" xmlns="http://www.w3.org/2000/svg" viewBox="0 0 158.67 158.66"><defs><style>.cls-1,.cls-2,.cls-3{fill:none;stroke:#161743;}.cls-1{stroke-width:2.85px;}.cls-2{stroke-miterlimit:10;stroke-width:2.45px;}.cls-3{stroke-width:6.66px;}</style></defs><title>ICON_Dont-touch-face</title><circle class="cls-1" cx="696.46" cy="161.92" r="77.91" transform="translate(-336.79 660.81) rotate(-67.5)"/><path class="cls-2" d="M672,135.63a18.44,18.44,0,0,1-.27-3.18,19.19,19.19,0,1,1,7.69,15.36" transform="translate(-617.13 -82.59)"/><path class="cls-2" d="M671.7,219.35V183.54s.85-2-3.54-1.94H649.38s-13.47-6.29-5.71-16.11,24.49-28.35,24.49-28.35,4.38-6.33,11.93,0c6,5.06,0,11.17,0,11.17l-14,13.9" transform="translate(-617.13 -82.59)"/><path class="cls-2" d="M718,181.6v29.79s-1.64,6,7.75,6,7.76-6,7.76-6l.11-36.08s-.52-11.06-21.34-21.68c0,0-9-4.83-8.72-6.26" transform="translate(-617.13 -82.59)"/><line class="cls-3" x1="18.81" y1="127.5" x2="143.05" y2="33.41"/></svg>