<svg id="Lager_1" data-name="Lager 1" xmlns="http://www.w3.org/2000/svg" viewBox="0 0 158.67 158.67"><defs><style>.cls-1,.cls-2{fill:none;stroke:#161743;}.cls-1{stroke-width:2.85px;}.cls-2{stroke-linecap:round;stroke-linejoin:round;stroke-width:2.08px;}.cls-3{fill:#161743;}</style></defs><title>ICON_Stanna-hemma</title><path class="cls-1" d="M698.06,491.11a77.91,77.91,0,1,0-77.91-77.9A77.91,77.91,0,0,0,698.06,491.11Z" transform="translate(-618.73 -333.87)"/><polygon class="cls-2" points="135.01 68.62 135 58.02 79.02 20.7 78.91 20.86 78.84 20.75 24.2 57.5 24.2 69.56 80.27 33.44 135.01 68.62"/><polyline class="cls-2" points="24.2 69.56 34.97 69.56 34.97 126.31 124.62 126.31 124.62 69.56 135.01 69.56"/><path class="cls-3" d="M661.18,416.14h3.31c0,1,1,1.79,2.93,1.79,1.5,0,2.49-.29,2.49-1.1v-.16c0-.48-.52-.75-1.47-.91l-3-.5c-2.83-.46-4-1.2-4-3.14s1.56-3.56,5.48-3.56c4.17,0,5.84,1.77,5.86,3.7h-3.33c-.08-.75-.91-1.46-2.7-1.46-1.31,0-2.11.36-2.11,1v.16c0,.49.56.67,1.53.83l2.81.47c2.78.47,4.14,1.29,4.14,3.28,0,2.53-2.09,3.67-5.81,3.67-4.39,0-6.12-1.66-6.12-4" transform="translate(-618.73 -333.87)"/><polygon class="cls-3" points="58.93 77.33 54.84 77.33 54.84 74.96 66.22 74.96 66.22 77.33 62.11 77.33 62.11 86.05 58.93 86.05 58.93 77.33"/><path class="cls-3" d="M692.37,418h-5.69l-.74,1.89h-3.18l4.42-11.09H692l4.44,11.09h-3.3Zm-.92-2.38-1.92-4.88-1.92,4.88Z" transform="translate(-618.73 -333.87)"/><polygon class="cls-3" points="90.78 74.96 90.78 86.05 86.97 86.05 81.53 78.31 81.53 86.05 78.41 86.05 78.41 74.96 82.3 74.96 87.65 82.58 87.65 74.96 90.78 74.96"/><polygon class="cls-3" points="104.4 74.96 104.4 86.05 100.59 86.05 95.15 78.31 95.15 86.05 92.03 86.05 92.03 74.96 95.92 74.96 101.27 82.58 101.27 74.96 104.4 74.96"/><path class="cls-3" d="M733.47,418h-5.69l-.75,1.89h-3.17l4.42-11.09h4.78l4.44,11.09h-3.3Zm-.93-2.38-1.92-4.88-1.92,4.88Z" transform="translate(-618.73 -333.87)"/><polygon class="cls-3" points="57.54 93.7 57.54 104.79 54.35 104.79 54.35 100.42 48.63 100.42 48.63 104.79 45.45 104.79 45.45 93.7 48.63 93.7 48.63 98.04 54.35 98.04 54.35 93.7 57.54 93.7"/><polygon class="cls-3" points="61.97 96.07 61.97 98.04 68.58 98.04 68.58 100.42 61.97 100.42 61.97 102.42 68.99 102.42 68.99 104.79 58.79 104.79 58.79 93.7 68.99 93.7 68.99 96.07 61.97 96.07"/><polygon class="cls-3" points="85.26 93.7 85.26 104.79 82.14 104.79 82.14 96.59 79.22 104.79 76.31 104.79 73.25 96.43 73.25 104.79 70.13 104.79 70.13 93.7 75.05 93.7 77.8 101.32 80.47 93.7 85.26 93.7"/><polygon class="cls-3" points="101.65 93.7 101.65 104.79 98.52 104.79 98.52 96.59 95.6 104.79 92.7 104.79 89.64 96.43 89.64 104.79 86.51 104.79 86.51 93.7 91.43 93.7 94.18 101.32 96.85 93.7 101.65 93.7"/><path class="cls-3" d="M730.72,436.77H725l-.75,1.89h-3.17l4.42-11.09h4.78l4.44,11.09h-3.3Zm-.92-2.37-1.93-4.89L726,434.4Z" transform="translate(-618.73 -333.87)"/></svg>