<?xml version="1.0" encoding="utf-8"?>
<!-- Generator: Adobe Illustrator 16.0.3, SVG Export Plug-In . SVG Version: 6.00 Build 0)  -->
<!DOCTYPE svg PUBLIC "-//W3C//DTD SVG 1.1//EN" "http://www.w3.org/Graphics/SVG/1.1/DTD/svg11.dtd">
<svg version="1.1" id="Layer_1" xmlns="http://www.w3.org/2000/svg" xmlns:xlink="http://www.w3.org/1999/xlink" x="0px" y="0px"
	 width="256px" height="256px" viewBox="0 0 256 256" enable-background="new 0 0 256 256" xml:space="preserve">
<g>
	<defs>
		<rect id="SVGID_1_" width="256" height="256"/>
	</defs>
	<clipPath id="SVGID_2_">
		<use xlink:href="#SVGID_1_"  overflow="visible"/>
	</clipPath>
	<path clip-path="url(#SVGID_2_)" fill="#041E42" d="M214.53,69.428c-4.699-4.699-9.183-3.935-9.183-3.935
		c-5.58,0.794-11.452-0.955-15.742-5.247c-4.854-4.854-6.438-11.721-4.791-17.91l13.573,13.57l9.582-3.532l3.535-9.585
		l-13.571-13.57c6.188-1.648,13.058-0.066,17.911,4.789c4.292,4.292,6.041,10.164,5.247,15.744c0,0-0.565,4.679,3.935,9.179
		l8.094,8.094c3.096-4.926,4.893-10.751,4.893-16.999c0-17.673-14.327-32-32-32s-32,14.327-32,32s14.327,32,32,32
		c6.046,0,11.7-1.678,16.523-4.592L214.53,69.428z"/>
	<path clip-path="url(#SVGID_2_)" fill="#041E42" d="M93.741,157.301v11.615H36.577v-7.271c0-3.232,0.303-5.252,1.11-6.969
		c2.526-5.959,9.09-11.313,19.19-17.069l11.211-6.464c6.565-3.737,10.301-6.969,10.301-12.726v-1.818
		c0-5.958-4.747-9.898-12.018-9.898c-9.09,0-12.827,6.262-13.635,12.423H37.284c0.808-12.625,9.998-23.532,28.885-23.532
		c18.079,0,27.572,9.695,27.572,21.714c0,13.332-8.383,18.584-20.401,25.452l-10.807,6.262c-4.545,2.626-8.483,5.353-11.312,8.281
		H93.741z"/>
	<path clip-path="url(#SVGID_2_)" fill="#041E42" d="M157.067,142.758v11.412h-9.898v14.746h-14.442V154.17H96.57v-11.412
		l31.208-45.551h19.392v45.551H157.067z M132.727,142.758v-32.521l-22.422,32.521H132.727z"/>
	<path clip-path="url(#SVGID_2_)" fill="#041E42" d="M219.383,133.668v35.248h-14.14v-31.007c0-8.988-4.242-13.028-10.907-13.028
		c-6.868,0-11.009,4.04-11.009,13.028v31.007h-14.141V94.581h14.141v27.068c2.524-4.544,7.776-8.08,16.059-8.08
		C210.899,113.569,219.383,121.346,219.383,133.668"/>
</g>
</svg>
