<?xml version="1.0" encoding="iso-8859-1"?>
<!-- Generator: Adobe Illustrator 19.2.0, SVG Export Plug-In . SVG Version: 6.00 Build 0)  -->
<svg version="1.1" id="Lager_6" xmlns="http://www.w3.org/2000/svg" xmlns:xlink="http://www.w3.org/1999/xlink" x="0px" y="0px"
	 viewBox="0 0 256 256" style="enable-background:new 0 0 256 256;" xml:space="preserve">
<g>
	<path style="fill:#041E42;" d="M120.747,123.553l-3.399,0.616l2.87,17.108l-8.985-14.79l-2.94,1.629
		c-0.396,0.219-3.937,2.197-6.164,4.066c-2.217,1.861-5.008,5.232-5.319,5.61l-2.181,2.653l13.119,11.202l-16.36-5.543l-1.206,3.138
		c-0.163,0.423-1.603,4.214-2.108,7.078c-0.502,2.851-0.473,7.228-0.468,7.717l0.035,3.435l17.247,0.149l-16.092,6.268l1.093,3.179
		c0.147,0.429,1.48,4.259,2.935,6.776c1.447,2.507,4.281,5.841,4.6,6.213l2.235,2.609l13.309-10.974l-8.3,15.147l2.88,1.732
		c0.389,0.233,3.872,2.311,6.604,3.305c2.721,0.99,7.035,1.722,7.519,1.802l3.388,0.562l3.142-16.96l3.378,16.939l3.32-0.524
		c0.447-0.07,4.451-0.719,7.183-1.714c2.721-0.989,6.497-3.203,6.919-3.453l2.956-1.747l-8.494-15.01l13.475,10.803l2.207-2.536
		c0.297-0.342,2.947-3.412,4.401-5.931c1.447-2.507,2.917-6.63,3.079-7.092l1.142-3.239l-16.154-6.038l17.266-0.386l0.06-3.361
		c0.009-0.453,0.065-4.508-0.439-7.371c-0.503-2.852-2.026-6.953-2.199-7.412l-1.207-3.216l-16.259,5.76l12.979-11.396l-2.113-2.613
		c-0.285-0.353-2.848-3.494-5.075-5.363c-2.219-1.862-6.022-4.024-6.448-4.266l-2.992-1.688l-8.77,14.892l2.64-17.19l-3.336-0.62
		c-0.177-0.032-4.362-0.804-7.305-0.804C125.524,122.703,121.228,123.466,120.747,123.553z M104.481,139.656
		c0.735-0.792,1.512-1.578,2.146-2.11c0.589-0.495,1.383-1.05,2.181-1.568l8.703,14.325c-0.096,0.078-0.188,0.159-0.282,0.238
		L104.481,139.656z M94.679,160.531c0.055-1.078,0.144-2.18,0.288-2.996c0.133-0.757,0.385-1.692,0.662-2.603l15.869,5.377
		c-0.023,0.121-0.035,0.245-0.056,0.367L94.679,160.531z M100.589,182.824c-0.651-0.861-1.291-1.763-1.705-2.48
		c-0.385-0.666-0.793-1.544-1.166-2.419l15.616-6.083c0.06,0.108,0.13,0.21,0.192,0.316L100.589,182.824z M119.445,196.103
		c-1.055-0.241-2.124-0.521-2.901-0.804c-0.722-0.263-1.6-0.673-2.447-1.104l8.057-14.704c0.114,0.044,0.23,0.085,0.346,0.127
		L119.445,196.103z M139.687,195.402c-0.723,0.264-1.659,0.513-2.585,0.728l-3.279-16.44c0.116-0.04,0.231-0.084,0.346-0.127
		l8.258,14.591C141.464,194.646,140.466,195.119,139.687,195.402z M158.776,177.889c-0.42,0.996-0.881,2-1.295,2.718
		c-0.385,0.666-0.941,1.459-1.513,2.22l-13.086-10.491c0.063-0.105,0.13-0.208,0.191-0.315L158.776,177.889z M160.848,154.92
		c0.318,1.033,0.61,2.099,0.754,2.915c0.134,0.757,0.218,1.722,0.268,2.672l-16.763,0.375c-0.019-0.122-0.034-0.245-0.056-0.365
		L160.848,154.92z M147.67,135.993c0.908,0.588,1.818,1.216,2.451,1.748c0.589,0.493,1.273,1.18,1.922,1.874L139.44,150.68
		c-0.093-0.081-0.179-0.17-0.273-0.249L147.67,135.993z M138.338,163.56c0,5.558-4.521,10.079-10.08,10.079
		c-5.558,0-10.079-4.521-10.079-10.079s4.521-10.079,10.079-10.079C133.816,153.48,138.338,158.002,138.338,163.56z
		 M128.534,146.494c-0.093-0.001-0.183-0.014-0.276-0.014c-0.023,0-0.045,0.003-0.068,0.003l-2.778-16.551
		c1.073-0.13,2.172-0.229,2.998-0.229c0.769,0,1.73,0.081,2.673,0.189L128.534,146.494z"/>
	<path style="fill:#041E42;" d="M183,113.215c-7-3.017-15-5.657-22-7.737V88.583C161,84.5,157.7,81,153.617,81h-49.302
		C100.233,81,97,84.5,97,88.583v16.818c-8,2.076-16,4.733-24,7.814v12.853l-18,8.42v57.985l18,8.389v5.828l24.626,18.636
		L103.271,238h51.876l5.554-12.673L183,206.691v-5.776l19-8.436v-57.994L183,126V113.215z M73,189.956l-8-3.886v-45.187l8-3.901
		V189.956z M107,91h44v12.006c-7-1.508-14.258-2.373-21.263-2.373c-7.253,0-14.737,0.885-22.737,2.449V91z M173,201.987
		l-18.675,15.637l-1.663,1.466l-0.899,2.093l-3.05,6.817H109.79l-2.96-6.709l-1.044-2.368l-2.116-1.564L83,201.725v-81.567
		c18-6.323,33.19-9.524,46.432-9.524c12.455,0,26.568,2.938,43.568,9.453V201.987z M192,140.886v45.178l-9,3.851v-52.903
		L192,140.886z"/>
	<path style="fill:#041E42;" d="M205.977,17.985c-17.681,0-32.013,14.332-32.013,32.013c0,17.677,14.332,32.013,32.013,32.013
		s32.013-14.336,32.013-32.013C237.99,32.317,223.658,17.985,205.977,17.985z M205.977,72.011c-12.138,0-22.013-9.875-22.013-22.013
		s9.875-22.013,22.013-22.013s22.013,9.875,22.013,22.013S218.115,72.011,205.977,72.011z"/>
	<polygon style="fill:#041E42;" points="211,36 201,36 201,45 192,45 192,55 201,55 201,64 211,64 211,55 220,55 220,45 211,45 	"/>
</g>
</svg>
