<?xml version="1.0" encoding="iso-8859-1"?>
<!-- Generator: Adobe Illustrator 19.2.0, SVG Export Plug-In . SVG Version: 6.00 Build 0)  -->
<svg version="1.1" id="Lager_13" xmlns="http://www.w3.org/2000/svg" xmlns:xlink="http://www.w3.org/1999/xlink" x="0px" y="0px"
	 viewBox="0 0 256 256" style="enable-background:new 0 0 256 256;" xml:space="preserve">
<g>
	<path style="fill:#041E42;" d="M132.625,170.973v9.485h-8.314v-9.485c-21.662-1.522-30.444-13.466-30.561-29.039h17.329
		c0.351,7.494,4.333,14.168,13.232,16.042v-25.175l-5.503-1.171c-16.51-3.864-23.418-10.07-23.418-22.716
		c0-13.114,10.772-23.77,28.922-24.706v-8.665h8.314v8.899c19.437,1.874,27.634,13.232,27.751,25.761h-17.446
		c-0.469-5.269-3.63-10.421-10.304-12.529v22.482l5.152,1.288c16.51,3.63,24.473,10.304,24.473,23.77
		C162.25,159.498,151.594,169.802,132.625,170.973z M124.311,118.281V96.853c-7.845,0.468-12.061,5.152-12.061,10.773v0.937
		c0,5.269,3.747,7.845,10.538,9.485L124.311,118.281z M145.388,145.447c0-5.738-3.63-8.548-10.655-10.187l-2.108-0.468v23.653
		c7.962-0.82,12.763-4.684,12.763-12.061V145.447z"/>
</g>
<g>
	<path style="fill:#041E42;" d="M128,28c55.14,0,100,44.86,100,100s-44.86,100-100,100S28,183.14,28,128S72.86,28,128,28 M128,18
		C67.249,18,18,67.249,18,128s49.249,110,110,110s110-49.249,110-110S188.751,18,128,18L128,18z"/>
</g>
</svg>
