<?xml version="1.0" encoding="iso-8859-1"?>
<!-- Generator: Adobe Illustrator 19.2.0, SVG Export Plug-In . SVG Version: 6.00 Build 0)  -->
<svg version="1.1" id="Lager_13" xmlns="http://www.w3.org/2000/svg" xmlns:xlink="http://www.w3.org/1999/xlink" x="0px" y="0px"
	 viewBox="0 0 256 256" style="enable-background:new 0 0 256 256;" xml:space="preserve">
<g>
	<path style="fill:#041E42;" d="M57.411,198.779l44.902-96.518l96.519-44.901l-44.902,96.518L57.411,198.779z M109.84,109.789
		l-31.805,68.367l68.367-31.806l31.807-68.367L109.84,109.789z M128.121,144.144c-8.863,0-16.074-7.21-16.074-16.073
		s7.21-16.074,16.074-16.074s16.073,7.211,16.073,16.074S136.984,144.144,128.121,144.144z M128.121,121.996
		c-3.349,0-6.074,2.725-6.074,6.074c0,3.349,2.725,6.073,6.074,6.073c3.349,0,6.073-2.725,6.073-6.073
		C134.194,124.721,131.47,121.996,128.121,121.996z"/>
</g>
<g>
	<path style="fill:#041E42;" d="M128.157,237.898c-60.605,0-109.911-49.306-109.911-109.911S67.552,18.076,128.157,18.076
		c60.605,0,109.911,49.306,109.911,109.911S188.763,237.898,128.157,237.898z M128.157,28.076c-55.091,0-99.911,44.82-99.911,99.911
		s44.82,99.911,99.911,99.911c55.091,0,99.911-44.82,99.911-99.911S183.248,28.076,128.157,28.076z"/>
</g>
</svg>
