<?xml version="1.0" encoding="utf-8"?>
<!-- Generator: Adobe Illustrator 24.1.0, SVG Export Plug-In . SVG Version: 6.00 Build 0)  -->
<svg version="1.1" id="Layer_1" xmlns="http://www.w3.org/2000/svg" xmlns:xlink="http://www.w3.org/1999/xlink" x="0px" y="0px"
	 viewBox="0 0 256 256" style="enable-background:new 0 0 256 256;" xml:space="preserve">
<style type="text/css">
	.st0{fill:#041E42;}
</style>
<g>
	<polygon class="st0" points="153.1,105.2 148.5,99.9 132.2,114.1 132.2,69 125.2,69 125.2,91.1 106.6,63.6 100.8,67.6 125.2,103.6 
		125.2,129.9 101.9,112.4 97.7,118 125.2,138.6 125.2,242.3 132.2,242.3 132.2,123.3 	"/>
	<path class="st0" d="M192.1,84.7c1.6-4.4,2.4-9,2.4-13.7c0-18.2-12.6-34.1-30.1-38.4c-7.2-13.7-21.7-22.5-37.2-22.5
		c-17.4,0-31.4,8.7-37.9,23.5C72.6,37.9,61.5,53,61.5,72c0,4.7,0.8,9.3,2.4,13.7c-8.3,7.9-13.1,18.9-13.1,30.5
		c0,23.2,18.9,42.1,42.1,42.1c7.2,0,14.3-1.9,20.6-5.4l-3.4-6.1c-5.2,2.9-11.1,4.5-17.1,4.5c-19.3,0-35.1-15.7-35.1-35.1
		c0-10.4,4.6-20.3,12.6-27l2.7-2.2l-2.3-2.8c-1.6-3.9-2.4-8-2.4-12.2c0-16.2,9.7-29.1,24.1-31.9l1.9-0.4l0.7-1.8
		c5-13,17-20.8,32-20.8c13.5,0,25.9,7.9,31.7,20l0.8,1.6l1.7,0.3c15.2,3,26.2,16.4,26.2,31.9c0,4.2-0.8,8.3-2.4,12.2l-2.3,2.8
		l2.7,2.2c8,6.7,12.6,16.5,12.6,27c0,19.3-15.7,35.1-35.1,35.1c-6,0-11.9-1.5-17.1-4.5l-3.4,6.1c6.2,3.5,13.4,5.4,20.6,5.4
		c23.2,0,42.1-18.9,42.1-42.1C205.2,103.6,200.4,92.6,192.1,84.7z"/>
</g>
</svg>
