<?xml version="1.0" encoding="iso-8859-1"?>
<!-- Generator: Adobe Illustrator 19.2.0, SVG Export Plug-In . SVG Version: 6.00 Build 0)  -->
<svg version="1.1" id="Lager_13" xmlns="http://www.w3.org/2000/svg" xmlns:xlink="http://www.w3.org/1999/xlink" x="0px" y="0px"
	 viewBox="0 0 256 256" style="enable-background:new 0 0 256 256;" xml:space="preserve">
<g>
	<polygon style="fill:#041E42;" points="193.463,69.489 169.237,45.263 176.308,38.192 193.531,55.415 202.302,46.812 
		209.304,53.95 	"/>
</g>
<path style="fill:#041E42;" d="M193.66,27.879c18.731,0,33.969,15.238,33.969,33.969c0,18.732-15.238,33.972-33.969,33.972
	c-18.732,0-33.972-15.24-33.972-33.972C159.688,43.117,174.928,27.879,193.66,27.879 M193.66,17.879
	c-24.286,0-43.972,19.686-43.972,43.969c0,24.283,19.686,43.972,43.972,43.972c24.283,0,43.969-19.689,43.969-43.972
	C237.629,37.565,217.943,17.879,193.66,17.879L193.66,17.879z"/>
<g>
	<path style="fill:#041E42;" d="M132,195h-10v-21h10V195z M132,165h-10v-17h10V165z"/>
	<polygon style="fill:#041E42;" points="237.601,238 159.94,127 147.736,127 218.399,228 132,228 132,204 122,204 122,228 
		36.588,228 105.519,127 93.413,127 17.656,238 	"/>
	<rect x="122" y="174" style="fill:#041E42;" width="10" height="21"/>
	<rect x="122" y="148" style="fill:#041E42;" width="10" height="17"/>
	<rect x="122" y="127" style="fill:#041E42;" width="10" height="12"/>
</g>
</svg>
