<?xml version="1.0" encoding="utf-8"?>
<!-- Generator: Adobe Illustrator 16.0.3, SVG Export Plug-In . SVG Version: 6.00 Build 0)  -->
<!DOCTYPE svg PUBLIC "-//W3C//DTD SVG 1.1//EN" "http://www.w3.org/Graphics/SVG/1.1/DTD/svg11.dtd">
<svg version="1.1" id="Layer_1" xmlns="http://www.w3.org/2000/svg" xmlns:xlink="http://www.w3.org/1999/xlink" x="0px" y="0px"
	 width="256px" height="256px" viewBox="0 0 256 256" enable-background="new 0 0 256 256" xml:space="preserve">
<g>
	<defs>
		<rect id="SVGID_1_" width="256" height="256"/>
	</defs>
	<clipPath id="SVGID_2_">
		<use xlink:href="#SVGID_1_"  overflow="visible"/>
	</clipPath>
	<path clip-path="url(#SVGID_2_)" fill="#041E42" d="M212.925,83.732v90.584C226.997,176.704,238,188.94,238,203.638
		c0,16.398-13.312,29.744-29.798,29.744c-16.487,0-30.053-13.346-30.053-29.744c0-14.697,10.65-26.934,24.723-29.321v-37.175H128.49
		v37.175c14.072,2.388,24.627,14.624,24.627,29.321c0,16.398-13.536,29.744-30.023,29.744c-16.488,0-29.715-13.346-29.715-29.744
		c0-14.697,9.982-26.934,25.06-29.321v-37.175H33V84.139h10.052v43h75.387V83.732c-15.078-2.388-25.122-14.624-25.122-29.322
		c0-16.398,13.289-29.744,29.777-29.744c16.487,0,30.085,13.345,30.085,29.744c0,14.698-10.617,26.934-24.689,29.322v43.406h74.382
		V83.732C188.8,81.344,178.2,69.108,178.2,54.41c0-16.398,13.515-29.744,30.002-29.744c16.486,0,29.748,13.345,29.748,29.744
		C237.95,69.108,226.997,81.344,212.925,83.732 M103.121,203.638c0,10.884,8.905,19.741,19.85,19.741
		c10.943,0,19.847-8.857,19.847-19.741c0-10.89-8.903-19.747-19.847-19.747C112.026,183.891,103.121,192.748,103.121,203.638
		 M142.817,54.41c0-10.883-8.903-19.74-19.847-19.74c-10.945,0-19.85,8.857-19.85,19.74c0,10.89,8.905,19.748,19.85,19.748
		C133.914,74.158,142.817,65.3,142.817,54.41 M188.453,203.638c0,10.884,8.905,19.741,19.85,19.741s19.849-8.857,19.849-19.741
		c0-10.89-8.904-19.747-19.849-19.747S188.453,192.748,188.453,203.638 M208.303,34.67c-10.944,0-19.85,8.857-19.85,19.74
		c0,10.89,8.905,19.748,19.85,19.748s19.849-8.857,19.849-19.748C228.151,43.527,219.247,34.67,208.303,34.67"/>
	<path clip-path="url(#SVGID_2_)" fill="#041E42" d="M63.04,56.501c1.704-2.328,2.557-5.115,2.557-8.359
		c0-2.787-0.644-5.303-1.934-7.55c-1.29-2.246-3.14-4.19-5.552-5.479C55.698,33.822,52.87,33,49.626,33H19v45h13V63h11.075L53.12,78
		h14.412l-11.73-16.396C58.922,60.648,61.334,58.832,63.04,56.501 M53,48.515c0,1.581-0.668,2.575-1.812,3.429
		C50.043,52.796,48.399,53,46.444,53H32V43h14.444c1.997,0,3.652,0.346,4.776,1.199c1.122,0.853,1.78,1.987,1.78,3.566V48.515z"/>
</g>
</svg>
