<?xml version="1.0" encoding="utf-8"?>
<!-- Generator: Adobe Illustrator 16.0.3, SVG Export Plug-In . SVG Version: 6.00 Build 0)  -->
<!DOCTYPE svg PUBLIC "-//W3C//DTD SVG 1.1//EN" "http://www.w3.org/Graphics/SVG/1.1/DTD/svg11.dtd">
<svg version="1.1" id="Layer_1" xmlns="http://www.w3.org/2000/svg" xmlns:xlink="http://www.w3.org/1999/xlink" x="0px" y="0px"
	 width="256px" height="256px" viewBox="0 0 256 256" enable-background="new 0 0 256 256" xml:space="preserve">
<g>
	<defs>
		<rect id="SVGID_1_" width="256" height="256"/>
	</defs>
	<clipPath id="SVGID_2_">
		<use xlink:href="#SVGID_1_"  overflow="visible"/>
	</clipPath>
	<path clip-path="url(#SVGID_2_)" fill="#041E42" d="M205,35.12l-0.345,0.024c-0.203,0.011-0.387,0.039-0.581,0.057
		c0.195-0.018,0.382-0.046,0.585-0.057L205,35.12z"/>
	<path clip-path="url(#SVGID_2_)" fill="#041E42" d="M207.668,38.654L207,38.448l0.668,0.255c0.869,0.275,1.607,0.714,2.19,1.269
		C209.277,39.4,208.541,38.93,207.668,38.654"/>
	<path clip-path="url(#SVGID_2_)" fill="#041E42" d="M216.051,41.597c0.104,0.447,0.174,0.913,0.205,1.403
		C216.225,42.51,216.154,42.044,216.051,41.597"/>
	<path clip-path="url(#SVGID_2_)" fill="#041E42" d="M195.615,42.875c0-0.677,0.086-1.331,0.262-1.958
		c-0.184,0.627-0.277,1.281-0.277,1.958c0,1.93,0.524,3.441,1.626,4.494c0.965,0.925,2.465,1.689,4.533,2.283
		c-2.056-0.594-3.511-1.358-4.477-2.283C196.183,46.316,195.615,44.805,195.615,42.875"/>
	<path clip-path="url(#SVGID_2_)" fill="#041E42" d="M213.097,37.16c-1.401-1.031-3.283-1.719-5.627-1.938L207,35.179l0.47,0.092
		C209.81,35.49,211.694,36.144,213.097,37.16"/>
	<path clip-path="url(#SVGID_2_)" fill="#041E42" d="M215.016,39.187c0.21,0.321,0.397,0.654,0.556,1.002
		C215.413,39.841,215.227,39.508,215.016,39.187"/>
	<path clip-path="url(#SVGID_2_)" fill="#041E42" d="M214.169,38.111c0.257,0.276,0.49,0.563,0.7,0.86
		C214.659,38.674,214.426,38.387,214.169,38.111"/>
	<path clip-path="url(#SVGID_2_)" fill="#041E42" d="M215.638,40.34c0.163,0.383,0.299,0.781,0.398,1.2
		C215.937,41.122,215.802,40.723,215.638,40.34"/>
	<path clip-path="url(#SVGID_2_)" fill="#041E42" d="M210.423,58.869c0.151-0.108,0.309-0.212,0.444-0.337
		c0.847-0.77,1.133-1.839,1.133-3.177c0,1.338-0.295,2.407-1.141,3.177C210.723,58.657,210.571,58.761,210.423,58.869"/>
	<path clip-path="url(#SVGID_2_)" fill="#041E42" d="M204.532,59.706L205,59.828l-0.468-0.215c-1.521-0.311-2.57-1.103-3.384-2.173
		c-0.709-0.933-1.131-1.44-1.257-3.44c0.126,2,0.482,2.507,1.191,3.44C201.896,58.51,203.012,59.395,204.532,59.706"/>
	<path clip-path="url(#SVGID_2_)" fill="#041E42" d="M200,42.758c0,0.98,0.405,1.777,1.088,2.367
		c0.327,0.283,0.749,0.529,1.259,0.746c-0.477-0.217-0.865-0.463-1.192-0.746C200.471,44.535,200,43.738,200,42.758"/>
	<path clip-path="url(#SVGID_2_)" fill="#041E42" d="M197.463,60.068c-1.452-1.519-2.245-3.068-2.362-6.068
		c0.117,3,0.845,4.549,2.296,6.068c1.554,1.628,3.954,2.753,7.271,2.978L205,63.079l-0.333-0.126
		C201.351,62.729,199.016,61.696,197.463,60.068"/>
	<path clip-path="url(#SVGID_2_)" fill="#041E42" d="M206.037,18c-17.68,0-32.013,14.333-32.013,32.014
		c0,17.68,14.333,32.013,32.013,32.013c17.681,0,32.014-14.333,32.014-32.013C238.051,32.333,223.718,18,206.037,18 M214.464,60.561
		c-1.634,1.474-3.986,2.311-6.977,2.485L207,63.074V66h-2v-2.921l-0.334-0.033c-3.314-0.224-5.717-1.349-7.27-2.977
		c-1.452-1.519-2.179-3.069-2.296-6.069h4.791c0.126,2,0.548,2.507,1.257,3.441c0.813,1.069,1.864,1.862,3.384,2.172L205,59.829
		v-9.403l-2.091-0.471c-0.405-0.095-0.784-0.197-1.149-0.303c-2.069-0.593-3.569-1.358-4.535-2.282
		c-1.101-1.053-1.626-2.565-1.626-4.495c0-0.677,0.095-1.331,0.277-1.957c0.177-0.627,0.44-1.226,0.798-1.794
		c0.713-1.138,1.735-2.069,3.103-2.765c1.239-0.63,2.66-1.009,4.297-1.157c0.195-0.018,0.378-0.046,0.581-0.057L205,35.121V32h2
		v3.179l0.47,0.043c2.344,0.219,4.226,0.907,5.627,1.938c0.355,0.258,0.688,0.533,0.979,0.837c0.035,0.037,0.06,0.078,0.093,0.115
		c0.257,0.276,0.49,0.562,0.7,0.86c0.05,0.071,0.1,0.143,0.146,0.216c0.211,0.321,0.396,0.654,0.556,1.002
		c0.022,0.05,0.045,0.1,0.066,0.15c0.164,0.383,0.299,0.782,0.398,1.2c0.005,0.019,0.011,0.039,0.015,0.058
		c0.104,0.447,0.174,0.913,0.205,1.402h-4.85c-0.143-1-0.493-1.731-1.025-2.436c-0.157-0.206-0.332-0.404-0.522-0.591
		c-0.583-0.555-1.321-0.994-2.19-1.269L207,38.449v8.561l2.125,0.527c2.707,0.601,4.725,1.492,5.965,2.647
		c1.219,1.133,1.811,2.697,1.811,4.781C216.9,57.256,216.099,59.086,214.464,60.561"/>
	<path clip-path="url(#SVGID_2_)" fill="#041E42" d="M210.423,58.869c0.148-0.108,0.3-0.212,0.437-0.337
		c0.846-0.77,1.141-1.839,1.141-3.177v-0.312c0-1.078-0.21-1.937-0.887-2.554c-0.642-0.583-1.461-1.016-2.786-1.327L207,50.871
		v9.052l0.564-0.053C208.778,59.753,209.68,59.409,210.423,58.869"/>
	<path clip-path="url(#SVGID_2_)" fill="#041E42" d="M201.33,39.629c-0.801,0.771-1.33,1.718-1.33,2.817v0.312
		c0,0.98,0.471,1.777,1.154,2.367c0.327,0.282,0.716,0.529,1.192,0.745c0.456,0.207,0.991,0.387,1.641,0.541L205,46.578v-8.251
		l-0.46,0.032C203.151,38.443,202.118,38.87,201.33,39.629"/>
	<path clip-path="url(#SVGID_2_)" fill="#041E42" d="M168,130V51.233l-2.673-1.38c-11.694-5.837-24.59-8.922-37.384-8.922
		c-12.794,0-25.61,3.085-37.304,8.922L88,51.233V130h26v37.32c-13,5.435-23.032,18.645-23.032,34.05
		c0,20.238,16.463,36.703,36.701,36.703c20.239,0,36.707-16.465,36.707-36.703c0-15.159-9.376-28.2-22.376-33.791V130H168z
		 M98,57.488c9-4.298,19.746-6.557,30-6.557c10.255,0,21,2.259,30,6.557V64H98V57.488z M98,74h60v5H98V74z M154.37,201.37
		c0,14.725-11.979,26.703-26.703,26.703c-14.725,0-26.704-11.979-26.704-26.703c0-14.724,11.979-26.703,26.704-26.703
		C142.392,174.667,154.37,186.646,154.37,201.37 M124,164.851V130h8v34.93c-1-0.167-2.86-0.263-4.323-0.263
		C126.436,164.667,125,164.731,124,164.851 M98,89h60v31H98V89z"/>
	<path clip-path="url(#SVGID_2_)" fill="#041E42" d="M109.63,201.37c0,9.945,8.092,18.037,18.037,18.037
		c9.945,0,18.036-8.092,18.036-18.037s-8.091-18.037-18.036-18.037C117.722,183.333,109.63,191.425,109.63,201.37 M135.703,201.37
		c0,4.432-3.605,8.037-8.036,8.037c-4.432,0-8.037-3.605-8.037-8.037s3.605-8.037,8.037-8.037
		C132.098,193.333,135.703,196.938,135.703,201.37"/>
	<path clip-path="url(#SVGID_2_)" fill="#041E42" d="M127.99,93.657c-5.52,0-10.01,4.49-10.01,10.01c0,5.519,4.49,10.01,10.01,10.01
		c5.52,0,10.01-4.491,10.01-10.01C138,98.147,133.51,93.657,127.99,93.657"/>
</g>
</svg>
