<?xml version="1.0" encoding="utf-8"?>
<!-- Generator: Adobe Illustrator 16.0.3, SVG Export Plug-In . SVG Version: 6.00 Build 0)  -->
<!DOCTYPE svg PUBLIC "-//W3C//DTD SVG 1.1//EN" "http://www.w3.org/Graphics/SVG/1.1/DTD/svg11.dtd">
<svg version="1.1" id="Layer_1" xmlns="http://www.w3.org/2000/svg" xmlns:xlink="http://www.w3.org/1999/xlink" x="0px" y="0px"
	 width="256px" height="256px" viewBox="0 0 256 256" enable-background="new 0 0 256 256" xml:space="preserve">
<g>
	<defs>
		<rect id="SVGID_1_" width="256" height="256"/>
	</defs>
	<clipPath id="SVGID_2_">
		<use xlink:href="#SVGID_1_"  overflow="visible"/>
	</clipPath>
	<path clip-path="url(#SVGID_2_)" fill="#041E42" d="M184,113V80.005l-2.941-1.381C164.511,70.365,146.113,66,128.018,66
		c-18.095,0-36.554,4.365-53.103,12.624L72,80.005V113H56v30.774l2.183,1.467C62.697,148.04,67,150.573,72,152.855V238h25.829
		l6.644-23h46.917l6.644,23H184v-85.028c4-2.318,9.348-4.898,13.857-7.756l2.143-1.473V113H184z M72,141.694
		c-2-1.119-4-2.284-6-3.519V123h6V141.694z M174,228h-8.496l-6.644-23H97.002l-6.643,23H82v-70.834
		c1.548,0.609,3.113,1.179,4.686,1.725l11.448,38.009l2.324,0.868c7.64,2.85,19.856,4.388,27.473,4.388
		c7.617,0,19.834-1.538,27.473-4.388l2.324-0.868l11.39-37.814c1.636-0.558,3.265-1.143,4.882-1.769V228z M98.149,162.274
		c10.115,2.481,20.365,3.726,29.967,3.726h0.184c9.472,0,19.459-1.197,29.373-3.591l-8.055,26.743
		c-6.385,1.874-15.757,3.003-21.687,3.003s-15.302-1.129-21.686-3.003L98.149,162.274z M174,146.532
		c-15,6.299-30.993,9.468-45.7,9.468h-0.184C113.361,156,97,152.781,82,146.395V123h92V146.532z M174,113H82V86.238
		C97,79.532,112.447,76,128,76c15.553,0,31,3.532,46,10.238V113z M190,138.206c-2,1.257-4,2.443-6,3.58V123h6V138.206z"/>
	<path clip-path="url(#SVGID_2_)" fill="#041E42" d="M214.53,69.428c-4.699-4.699-9.183-3.935-9.183-3.935
		c-5.58,0.794-11.452-0.955-15.742-5.247c-4.854-4.854-6.438-11.721-4.791-17.91l13.573,13.57l9.582-3.532l3.535-9.585
		l-13.571-13.57c6.188-1.648,13.058-0.066,17.911,4.789c4.292,4.292,6.041,10.164,5.247,15.744c0,0-0.565,4.679,3.935,9.179
		l8.094,8.094c3.096-4.926,4.893-10.751,4.893-16.999c0-17.673-14.327-32-32-32s-32,14.327-32,32s14.327,32,32,32
		c6.046,0,11.7-1.678,16.523-4.592L214.53,69.428z"/>
</g>
</svg>
