<?xml version="1.0" encoding="utf-8"?>
<!-- Generator: Adobe Illustrator 16.0.3, SVG Export Plug-In . SVG Version: 6.00 Build 0)  -->
<!DOCTYPE svg PUBLIC "-//W3C//DTD SVG 1.1//EN" "http://www.w3.org/Graphics/SVG/1.1/DTD/svg11.dtd">
<svg version="1.1" id="Layer_1" xmlns="http://www.w3.org/2000/svg" xmlns:xlink="http://www.w3.org/1999/xlink" x="0px" y="0px"
	 width="256px" height="256px" viewBox="0 0 256 256" enable-background="new 0 0 256 256" xml:space="preserve">
<g>
	<defs>
		<rect id="SVGID_1_" width="256" height="256"/>
	</defs>
	<clipPath id="SVGID_2_">
		<use xlink:href="#SVGID_1_"  overflow="visible"/>
	</clipPath>
	<path clip-path="url(#SVGID_2_)" fill="#041E42" d="M205.907,18.034c-17.67,0-32,14.32-32,32c0,17.67,14.33,32,32,32
		c6.05,0,11.699-1.68,16.529-4.6l-8.01-8c-4.7-4.7-9.18-3.94-9.18-3.94c-5.58,0.8-11.45-0.95-15.74-5.24
		c-4.86-4.86-6.44-11.73-4.79-17.91l13.57,13.57l9.58-3.54l3.529-9.58l-13.569-13.57c6.189-1.65,13.06-0.07,17.91,4.79
		c4.3,4.29,6.05,10.16,5.25,15.74c0,0-0.561,4.68,3.939,9.18l8.09,8.1c3.101-4.93,4.891-10.76,4.891-17
		C237.907,32.354,223.587,18.034,205.907,18.034"/>
	<path clip-path="url(#SVGID_2_)" fill="#041E42" d="M174.217,66.003H64.897v132h6.2v39.972h22.609l5.725-12.758h55.282
		l5.725,12.758h22.659v-39.972h6.801V82.094C183.087,78.563,177.567,72.914,174.217,66.003 M74.897,76.003h105v112h-105V76.003z
		 M173.097,227.976h-6.187l-5.725-12.758H92.957l-5.725,12.758h-6.135v-29.972h92V227.976z"/>
	<path clip-path="url(#SVGID_2_)" fill="#041E42" d="M171.737,128.154l2.6-9.66l-9.45-2.54l7.15-4.12l-5-8.66l-7.15,4.12l2.53-9.45
		l-9.66-2.58l-4.359,16.3l-8.261-2.14l-5.989-6.09l11.939-11.92l-7.069-7.08l-6.921,6.92v-8.25h-10v8.25l-6.92-6.92l-7.07,7.08
		l11.95,11.92l-5.99,6.09l-8.27,2.14l-4.35-16.3l-9.66,2.58l2.52,9.45l-7.14-4.12l-5,8.66l7.14,4.12l-9.45,2.54l2.6,9.66l16.3-4.38
		l2.27,8.23l-2.27,8.23l-16.3-4.381l-2.6,9.65l9.45,2.54l-7.14,4.13l5,8.66l7.14-4.13l-2.52,9.45l9.66,2.58l4.35-16.301l8.27,2.141
		l5.99,6.09l-11.95,11.92l7.07,7.08l6.92-6.91v8.25h10v-8.25l6.921,6.91l7.069-7.08l-11.939-11.92l5.989-6.09l8.261-2.141
		l4.359,16.301l9.66-2.58l-2.53-9.45l7.15,4.13l5-8.66l-7.15-4.13l9.45-2.54l-2.6-9.65l-16.29,4.381l-2.28-8.23l2.28-8.23
		L171.737,128.154z M131.597,114.292l3.608,3.672l4.982,1.28l-8.591,4.966V114.292z M109.52,127.039l8.576,4.966l-8.576,4.952
		l1.368-4.953L109.52,127.039z M122.597,149.707l-3.6-3.664l-4.977-1.291l8.577-4.954V149.707z M122.597,124.211l-8.579-4.967
		l4.979-1.28l3.6-3.675V124.211z M135.205,146.043l-3.608,3.661v-9.905l8.59,4.952L135.205,146.043z M144.685,136.956l-8.588-4.951
		l8.588-4.965l-1.368,4.964L144.685,136.956z"/>
	<rect x="92.895" y="201.944" clip-path="url(#SVGID_2_)" fill="#041E42" width="15" height="10"/>
</g>
</svg>
