<?xml version="1.0" encoding="utf-8"?>
<!-- Generator: Adobe Illustrator 24.1.0, SVG Export Plug-In . SVG Version: 6.00 Build 0)  -->
<svg version="1.1" id="Layer_1" xmlns="http://www.w3.org/2000/svg" xmlns:xlink="http://www.w3.org/1999/xlink" x="0px" y="0px"
	 viewBox="0 0 256 256" style="enable-background:new 0 0 256 256;" xml:space="preserve">
<style type="text/css">
	.st0{fill:#041E42;}
</style>
<path class="st0" d="M233.6,209.3L208.8,62.6l-1.5-0.8c-22-12.3-37.7-0.2-38.4,0.3l4.3,5.5c0.5-0.4,12.2-9.1,29.2-0.5l21.6,127.7
	c-7.9-7.3-19.3-11.9-31.9-11.9c-4.2,0-8.3,0.5-12.3,1.5c0.2-1.7,0.4-3.3,0.4-5c0-3.8-0.6-7.5-1.7-11L154.9,22.7
	c-0.2-12.2-12-22-26.4-22c-14.5,0-26.2,9.8-26.4,22l-22.9,146c-1.1,3.4-1.6,7-1.6,10.7c0,1.8,0.1,3.5,0.4,5.2
	c-4.1-1.1-8.5-1.6-12.9-1.6c-12.5,0-23.7,4.5-31.6,11.6L54.7,67.1c17-8.7,28.7,0.1,29.2,0.5l4.3-5.5c-0.7-0.5-16.4-12.6-38.4-0.3
	l-1.5,0.8L24.2,207.7c-1.4,3.5-2.2,7.3-2.2,11.3c0,19.8,19.3,35.9,43,35.9s43-16.1,43-35.9c0-0.1,0-0.3,0-0.4
	c6.4,2.4,13.4,3.7,20.8,3.7c7.2,0,14-1.2,20.3-3.5c0,0.1,0,0.1,0,0.2c0,19.8,19.3,35.9,43,35.9s43-16.1,43-35.9
	C235.2,215.6,234.7,212.4,233.6,209.3z M128.5,7.7c10.7,0,19.5,6.9,19.5,15.3s-8.7,15.3-19.5,15.3S109,31.5,109,23
	S117.8,7.7,128.5,7.7z M107,36.1c4.8,5.6,12.6,9.3,21.5,9.3c8.9,0,16.7-3.7,21.5-9.4l18.9,116.6c-9.4-9.7-23.8-16-40-16
	c-16.2,0-30.7,6.3-40.2,16.1L107,36.1z M101.1,218.9c0,16-16.2,28.9-36,28.9s-36-13-36-28.9c0-16,16.2-28.9,36-28.9
	c4.9,0,9.7,0.8,14.2,2.4c0.2,0.1,0.5,0.2,0.7,0.3c3.6,9.4,11.1,17.3,20.7,22.6C100.9,216.4,101.1,217.7,101.1,218.9z M85.7,187.7
	l0.1-0.2c-0.1,0-0.1-0.1-0.2-0.1c-0.7-2.5-1.1-5.2-1.1-7.9c0-19.7,19.9-35.8,44.4-35.8c24.5,0,44.4,16,44.4,35.8
	s-19.9,35.8-44.4,35.8C107.9,215.2,90.3,203.4,85.7,187.7z M192.2,247.8c-19.9,0-36-13-36-28.9c0-1.1,0.1-2.3,0.3-3.4
	c10.1-5.3,17.8-13.5,21.4-23.2c4.5-1.6,9.3-2.4,14.3-2.4c19.9,0,36,13,36,28.9C228.2,234.9,212,247.8,192.2,247.8z"/>
</svg>
