<?xml version="1.0" encoding="iso-8859-1"?>
<!-- Generator: Adobe Illustrator 19.2.0, SVG Export Plug-In . SVG Version: 6.00 Build 0)  -->
<svg version="1.1" id="Lager_13" xmlns="http://www.w3.org/2000/svg" xmlns:xlink="http://www.w3.org/1999/xlink" x="0px" y="0px"
	 viewBox="0 0 256 256" style="enable-background:new 0 0 256 256;" xml:space="preserve">
<g>
	<path style="fill:#041E42;" d="M237.717,34.607c-0.233-1.137-0.505-2.464-1.082-3.824c-0.512-1.213-1.131-2.38-1.866-3.47
		c-0.74-1.095-1.569-2.109-2.472-3.014c-0.952-0.953-1.962-1.795-3.009-2.503c-1.189-0.803-2.319-1.427-3.455-1.907
		c-0.995-0.421-2.328-0.944-3.83-1.253l-0.237-0.098c-1.058-0.218-2.375-0.539-3.858-0.539H38.903c-1.485,0-2.807,0.322-3.868,0.54
		l-0.234,0.074c-1.421,0.291-2.655,0.828-3.647,1.25l-0.179,0.081c-1.221,0.517-2.387,1.152-3.468,1.882
		c-1.106,0.748-2.124,1.586-3.02,2.482c-0.976,0.975-1.821,1.988-2.515,3.013c-0.54,0.802-1.329,2.033-1.963,3.531
		c-0.433,1.022-0.972,2.296-1.272,3.761c-0.043,0.214-0.145,0.43-0.196,0.648C18.322,36.19,18,37.347,18,38.71v178.979
		c0,1.364,0.322,2.521,0.542,3.451c0.051,0.217,0.127,0.433,0.171,0.649c0.267,1.298,0.769,2.372,1.163,3.235
		c0.092,0.2,0.189,0.397,0.27,0.59c0.513,1.212,1.148,2.377,1.882,3.462c0.731,1.083,1.569,2.097,2.484,3.009
		c0.928,0.928,1.941,1.765,3.012,2.487c1.105,0.746,2.268,1.379,3.458,1.884c1.276,0.539,2.564,0.893,3.826,1.151
		c1.457,0.297,2.796,0.392,4.094,0.392h158.708L238,197.38V38.71C238,37.428,238.01,36.044,237.717,34.607z M28.274,37.556
		c0.075-0.316,0.173-0.631,0.236-0.937c0.1-0.488,0.409-1.189,0.727-1.941c0.265-0.625,0.71-1.304,1.016-1.757
		c0.334-0.494,0.773-1.011,1.302-1.539c0.449-0.45,0.971-0.876,1.549-1.267c0.545-0.368,1.139-0.689,1.765-0.954l0.192-0.081
		c0.643-0.273,1.307-0.556,1.745-0.646l0.244-0.1C37.764,28.188,38.437,28,38.903,28h179.004c0.465,0,1.134,0.188,1.843,0.333
		l0.247,0.076c0.635,0.131,1.369,0.436,1.94,0.678c0.535,0.227,1.11,0.555,1.756,0.991c0.517,0.349,1.032,0.783,1.536,1.287
		c0.456,0.457,0.883,0.978,1.265,1.545c0.372,0.551,0.692,1.143,0.954,1.763c0.221,0.521,0.329,1.246,0.471,1.939
		c0.108,0.53,0.081,1.222,0.081,2.098V79H28V38.71C28,38.509,28.18,37.958,28.274,37.556z M36.811,227.811
		c-0.616-0.126-1.268-0.308-1.933-0.589c-0.595-0.252-1.187-0.563-1.759-0.949c-0.542-0.365-1.058-0.786-1.537-1.265
		c-0.465-0.465-0.891-0.977-1.267-1.533c-0.372-0.551-0.692-1.14-0.953-1.756c-0.118-0.278-0.245-0.559-0.376-0.844
		c-0.162-0.356-0.408-0.895-0.451-1.089c-0.062-0.31-0.186-0.623-0.26-0.938C28.18,218.442,28,217.891,28,217.689V150.1V89h200v96
		h-24.074c-0.214,0-0.426,0.045-0.637,0.041c-0.941-0.02-2.105-0.019-3.398,0.245c-0.203,0.041-0.403,0.09-0.603,0.126
		c-0.881,0.159-1.978,0.364-3.171,0.868c-1.183,0.5-2.329,1.125-3.406,1.852c-1.048,0.707-2.044,1.532-2.961,2.45
		c-0.875,0.874-1.692,1.872-2.433,2.965c-0.679,1.004-1.274,2.12-1.821,3.412c-0.577,1.363-0.935,2.671-1.162,3.777
		c-0.287,1.408-0.334,2.69-0.334,3.821V228H38.903C38.285,228,37.601,227.972,36.811,227.811z M194,227.449v-22.907
		c0-0.718,0.048-1.396,0.132-1.805c0.127-0.619,0.313-1.327,0.547-1.882c0.292-0.688,0.598-1.247,0.909-1.707
		c0.389-0.574,0.793-1.063,1.226-1.496c0.467-0.466,0.969-0.88,1.487-1.229c0.542-0.366,1.118-0.678,1.705-0.926
		c0.172-0.072,0.645-0.158,1.062-0.233c0.271-0.049,0.545-0.1,0.821-0.155c0.202-0.041,0.75-0.078,1.189-0.07
		c0.281,0.006,0.564-0.038,0.848-0.038h22.34L194,227.449z"/>
	<path style="fill:#041E42;" d="M75.302,71.158c9.88,0,17.917-8.037,17.917-17.917s-8.037-17.917-17.917-17.917
		s-17.917,8.037-17.917,17.917S65.422,71.158,75.302,71.158z M75.302,45.324c4.365,0,7.917,3.552,7.917,7.917
		s-3.552,7.917-7.917,7.917s-7.917-3.552-7.917-7.917S70.937,45.324,75.302,45.324z"/>
	<path style="fill:#041E42;" d="M182.817,71.158c9.88,0,17.917-8.037,17.917-17.917s-8.037-17.917-17.917-17.917
		c-9.88,0-17.917,8.037-17.917,17.917S172.937,71.158,182.817,71.158z M182.817,45.324c4.365,0,7.917,3.552,7.917,7.917
		s-3.552,7.917-7.917,7.917s-7.917-3.552-7.917-7.917S178.452,45.324,182.817,45.324z"/>
	<path style="fill:#041E42;" d="M183.01,137h-23.363h-14.527l-6.876-15.982l-9.288-21.775l-9.148,21.779L113.079,137h-14.78H74.784
		l16.312,17.157l10.857,11.383l-4.652,17.122l-6.297,23.129l20.857-11.748l17.16-9.67l16.974,9.645l20.676,11.745l-6.068-22.99
		l-4.518-17.116l10.797-11.535L183.01,137z M144.989,162.582l5.945,22.635l-21.895-12.381l-22.089,12.484l6.146-22.752L98.299,147
		h21.445l9.294-22.295L138.5,147h21.147L144.989,162.582z"/>
</g>
</svg>
