<?xml version="1.0" encoding="iso-8859-1"?>
<!-- Generator: Adobe Illustrator 22.1.0, SVG Export Plug-In . SVG Version: 6.00 Build 0)  -->
<svg version="1.1" id="Lager_13" xmlns="http://www.w3.org/2000/svg" xmlns:xlink="http://www.w3.org/1999/xlink" x="0px" y="0px"
	 viewBox="0 0 256 256" style="enable-background:new 0 0 256 256;" xml:space="preserve">
<g>
	<path style="fill:#020E45;" d="M214.862,76.283c-9.838-7.797-21.868-12.036-34.313-12.172c-2.015-13.479-9.079-25.79-19.835-34.315
		c-23.309-18.472-57.297-14.536-75.769,8.771c-5.793,7.311-9.551,15.873-10.997,24.982c-1.478,0.056-2.955,0.168-4.422,0.338
		c-3.608,0.418-7.19,1.185-10.646,2.278c-3.491,1.104-6.886,2.554-10.093,4.308c-3.265,1.785-6.366,3.905-9.216,6.301
		c-2.921,2.453-5.615,5.228-8.006,8.245c-2.39,3.015-4.475,6.271-6.199,9.679c-1.681,3.325-3.037,6.828-4.028,10.412
		c-0.975,3.521-1.61,7.157-1.888,10.81c-0.275,3.614-0.204,7.277,0.214,10.886c0.417,3.606,1.184,7.188,2.278,10.646
		c1.105,3.492,2.555,6.889,4.308,10.093c1.785,3.264,3.905,6.364,6.3,9.216c2.453,2.921,5.228,5.614,8.246,8.007
		c3.017,2.391,6.273,4.477,9.679,6.199c3.326,1.682,6.829,3.037,10.412,4.028c3.524,0.975,7.161,1.609,10.811,1.887l5.341,0.079
		l102.973-0.215l3.295-0.021l0.043-0.1c15.983-0.974,30.664-8.592,40.673-21.222C243.311,131.065,239.201,95.572,214.862,76.283z
		 M216.185,149.192c-8.799,11.104-21.99,17.496-36.193,17.539l-2.674,0.02L77.094,166.96l-4.791-0.062
		c-2.955-0.234-5.897-0.754-8.75-1.543c-2.947-0.815-5.83-1.93-8.565-3.313c-2.806-1.419-5.491-3.14-7.981-5.113
		c-2.491-1.975-4.779-4.195-6.8-6.602c-1.971-2.346-3.715-4.896-5.184-7.582c-1.443-2.638-2.636-5.435-3.547-8.312
		c-0.902-2.851-1.534-5.804-1.878-8.778c-0.345-2.976-0.404-5.996-0.177-8.976c0.229-3.008,0.752-6.003,1.555-8.902
		c0.816-2.948,1.931-5.831,3.313-8.565c1.42-2.808,3.141-5.493,5.113-7.981c1.974-2.49,4.195-4.778,6.602-6.8
		c2.346-1.971,4.896-3.715,7.583-5.184c2.64-1.443,5.436-2.638,8.312-3.548c2.849-0.901,5.802-1.533,8.779-1.878
		c2.976-0.345,5.997-0.402,8.976-0.177c3.005,0.229,6,0.752,8.902,1.555c2.947,0.815,5.83,1.93,8.565,3.313
		c2.806,1.419,5.491,3.14,7.981,5.113c2.491,1.975,4.779,4.195,6.787,6.586l0.555,0.665c0.992,1.216,1.932,2.494,2.793,3.798
		c0.849,1.286,1.644,2.631,2.362,3.997l8.852-4.652c-0.872-1.659-1.837-3.293-2.869-4.855c-1.045-1.582-2.185-3.133-3.421-4.648
		l-0.601-0.721c-2.453-2.921-5.228-5.614-8.246-8.007c-3.017-2.391-6.273-4.477-9.679-6.199c-3.326-1.682-6.829-3.037-10.412-4.028
		c-2.364-0.653-4.779-1.154-7.215-1.497c1.292-7.021,4.283-13.614,8.777-19.285c15.047-18.986,42.734-22.189,61.72-7.146
		c9.802,7.77,15.84,19.4,16.565,31.909l0.294,5.077l5.071-0.38c11.626-0.877,23.077,2.637,32.218,9.882
		C228.669,99.984,232.048,129.176,216.185,149.192z"/>
</g>
</svg>
