<?xml version="1.0" encoding="utf-8"?>
<!-- Generator: Adobe Illustrator 24.1.0, SVG Export Plug-In . SVG Version: 6.00 Build 0)  -->
<svg version="1.1" id="Layer_1" xmlns="http://www.w3.org/2000/svg" xmlns:xlink="http://www.w3.org/1999/xlink" x="0px" y="0px"
	 viewBox="0 0 256 256" style="enable-background:new 0 0 256 256;" xml:space="preserve">
<style type="text/css">
	.st0{fill:#041E42;}
</style>
<path class="st0" d="M247.7,107.2L128.5,28.9l0,0l0,0L8.3,107.4l4.2,6.5l19.6-12.8v128.7H36h3.9h55.3h1.9h5.9h50.1h4.2h3.5h55.3h3.9
	h3.9V100.8l19.6,12.9L247.7,107.2z M216.1,222h-55.3H95.2H39.9V96l88.6-57.9l87.6,57.6V222z"/>
<rect x="50" y="179.7" class="st0" width="31.3" height="31.3"/>
<rect x="91.1" y="179.7" class="st0" width="31.3" height="31.3"/>
<rect x="131.7" y="179.7" class="st0" width="31.3" height="31.3"/>
<rect x="50" y="139.8" class="st0" width="31.3" height="31.3"/>
<rect x="91.1" y="139.8" class="st0" width="31.3" height="31.3"/>
<rect x="50" y="99.9" class="st0" width="31.3" height="31.3"/>
</svg>
