<?xml version="1.0" encoding="utf-8"?>
<!-- Generator: Adobe Illustrator 16.0.3, SVG Export Plug-In . SVG Version: 6.00 Build 0)  -->
<!DOCTYPE svg PUBLIC "-//W3C//DTD SVG 1.1//EN" "http://www.w3.org/Graphics/SVG/1.1/DTD/svg11.dtd">
<svg version="1.1" id="Layer_1" xmlns="http://www.w3.org/2000/svg" xmlns:xlink="http://www.w3.org/1999/xlink" x="0px" y="0px"
	 width="256px" height="256px" viewBox="0 0 256 256" enable-background="new 0 0 256 256" xml:space="preserve">
<g>
	<defs>
		<rect id="SVGID_1_" width="256" height="256"/>
	</defs>
	<clipPath id="SVGID_2_">
		<use xlink:href="#SVGID_1_"  overflow="visible"/>
	</clipPath>
	<path clip-path="url(#SVGID_2_)" fill="#041E42" d="M231.239,30.642l-10.303,10.302c0.008,0.12,0.036,0.233,0.036,0.355
		c0,2.945-2.396,5.341-5.341,5.341c-0.365,0-0.722-0.038-1.065-0.108c-0.025,0.243-0.109,0.458-0.287,0.622h-0.001
		c-0.186,0.172-0.414,0.248-0.671,0.248c-0.832,0-1.959-0.805-2.873-1.795c-1.195-1.295-2.05-2.927-1.264-3.655
		c0.171-0.156,0.442-0.287,0.864-0.23c-0.012-0.142-0.042-0.278-0.042-0.423c0-2.945,2.395-5.341,5.339-5.341
		c0.122,0,0.236,0.028,0.356,0.036l10.424-10.424c-5.57-4.706-12.768-7.548-20.632-7.548c-17.673,0-32,14.327-32,32s14.327,32,32,32
		s32-14.327,32-32C237.78,42.736,235.341,36.021,231.239,30.642 M198.999,42.431c0.712-0.892,1.857-1.112,2.91-0.55
		c0.176,0.094,0.333,0.221,0.497,0.334c0.717,0.498,1.435,0.997,2.33,1.62c-1.02,0.707-1.879,1.357-2.793,1.919
		c-1.032,0.635-2.18,0.42-2.907-0.456C198.328,44.446,198.313,43.291,198.999,42.431 M189.117,42.24
		c0.706-0.844,1.835-1.118,2.786-0.559c0.953,0.562,1.841,1.235,2.938,1.982c-1.107,0.758-1.99,1.434-2.941,1.994
		c-0.96,0.567-2.089,0.29-2.786-0.562C188.434,44.264,188.436,43.055,189.117,42.24 M178.859,45.457
		c-0.675-0.875-0.648-2.025,0.066-2.862c0.704-0.826,1.861-1.079,2.815-0.503c0.946,0.572,1.829,1.249,2.858,1.963
		c-1.062,0.733-1.967,1.443-2.952,2.017C180.713,46.617,179.503,46.289,178.859,45.457 M183.961,58.326
		c-0.716,0.83-1.742,0.911-2.719,0.326c-0.982-0.59-1.291-1.51-0.989-2.57c0.29-1.02,1.03-1.663,2.113-1.574
		c1.17,0.097,2.325,0.375,3.723,0.614C185.313,56.314,184.746,57.414,183.961,58.326 M190.725,68.572
		c-0.271,1.273-1.326,2.112-2.441,2.003c-1.097-0.108-1.997-1.037-2.062-2.131c-0.073-1.223,0.661-2.128,1.996-2.407
		c0.957-0.2,1.924-0.355,3.044-0.559C191.054,66.695,190.924,67.641,190.725,68.572 M191.373,54.356
		c-0.974-0.505-1.451-1.6-1.141-2.613c0.339-1.106,1.302-1.752,2.459-1.641c0.237,0.023,0.473,0.069,0.707,0.118
		c0.815,0.171,1.629,0.348,2.65,0.567c-0.691,1.093-1.232,2.067-1.89,2.956C193.487,54.651,192.332,54.853,191.373,54.356
		 M196.411,62.446c-1.098-0.081-1.999-0.976-2.1-2.086c-0.103-1.144,0.641-2.167,1.838-2.427c0.997-0.216,2.01-0.355,3.215-0.563
		c-0.229,1.246-0.376,2.271-0.615,3.273C198.472,61.809,197.491,62.524,196.411,62.446 M201.453,77.237
		c-1,0.364-2.128-0.048-2.684-0.979c-0.576-0.964-0.397-2.178,0.532-2.893c0.868-0.668,1.814-1.234,2.879-1.946
		c0.289,1.229,0.533,2.19,0.74,3.159C203.173,75.753,202.563,76.833,201.453,77.237 M205.407,66.49
		c-0.998,0.372-2.151-0.023-2.72-0.93c-0.605-0.966-0.458-2.144,0.486-2.896c0.864-0.689,1.821-1.261,2.895-1.992
		c0.293,1.211,0.567,2.208,0.77,3.22C207.064,65.026,206.442,66.104,205.407,66.49 M207.307,52.114
		c-0.271,1.336-1.174,2.068-2.411,2.011c-1.119-0.051-2.029-0.929-2.113-2.04c-0.095-1.241,0.582-2.129,1.949-2.443
		c0.958-0.219,1.937-0.351,3.079-0.553C207.621,50.24,207.494,51.183,207.307,52.114 M211.172,54.929
		c0.533-0.878,1.132-1.719,1.82-2.757c0.748,1.028,1.419,1.864,1.993,2.761c0.631,0.987,0.412,2.168-0.442,2.914
		c-0.852,0.741-2.093,0.739-2.944-0.004C210.743,57.097,210.552,55.951,211.172,54.929 M214.606,77.604
		c-0.826,0.773-2.076,0.819-2.956,0.107c-0.871-0.704-1.11-1.861-0.502-2.907c0.538-0.926,1.177-1.795,1.854-2.813
		c0.723,1,1.357,1.819,1.927,2.682C215.598,75.683,215.446,76.818,214.606,77.604 M214.52,67.763
		c-0.814,0.693-2.022,0.71-2.861,0.04c-0.879-0.701-1.131-1.882-0.531-2.901c0.543-0.921,1.174-1.79,1.867-2.836
		c0.753,1.046,1.419,1.891,1.994,2.793C215.62,65.851,215.396,67.017,214.52,67.763"/>
	<path clip-path="url(#SVGID_2_)" fill="#041E42" d="M184,113V80.005l-2.941-1.381C164.511,70.365,146.113,66,128.018,66
		c-18.095,0-36.554,4.365-53.103,12.624L72,80.005V113H56v30.774l2.183,1.467C62.697,148.04,67,150.573,72,152.855V238h25.829
		l6.644-23h46.917l6.644,23H184v-85.028c4-2.318,9.348-4.898,13.857-7.756l2.143-1.473V113H184z M72,141.694
		c-2-1.119-4-2.284-6-3.519V123h6V141.694z M174,228h-8.496l-6.644-23H97.002l-6.643,23H82v-70.834
		c1.548,0.609,3.113,1.179,4.686,1.725l11.448,38.009l2.324,0.868c7.64,2.85,19.856,4.388,27.473,4.388
		c7.617,0,19.834-1.538,27.473-4.388l2.324-0.868l11.39-37.814c1.636-0.558,3.265-1.143,4.882-1.769V228z M98.149,162.274
		c10.115,2.481,20.365,3.726,29.967,3.726h0.184c9.472,0,19.459-1.197,29.373-3.591l-8.055,26.743
		c-6.385,1.874-15.757,3.003-21.687,3.003s-15.302-1.129-21.686-3.003L98.149,162.274z M174,146.532
		c-15,6.299-30.993,9.468-45.7,9.468h-0.184C113.361,156,97,152.781,82,146.395V123h92V146.532z M174,113H82V86.238
		C97,79.532,112.447,76,128,76c15.553,0,31,3.532,46,10.238V113z M190,138.206c-2,1.257-4,2.443-6,3.58V123h6V138.206z"/>
</g>
</svg>
