<?xml version="1.0" encoding="utf-8"?>
<!-- Generator: Adobe Illustrator 21.1.0, SVG Export Plug-In . SVG Version: 6.00 Build 0)  -->
<svg version="1.1" id="Icon" xmlns="http://www.w3.org/2000/svg" xmlns:xlink="http://www.w3.org/1999/xlink" x="0px" y="0px"
	 viewBox="0 0 256 256" enable-background="new 0 0 256 256" xml:space="preserve">
<g>
	<path fill="#281E42" d="M52,235.5h24.75h48h7h48h24.75v-121H52V235.5z M83.75,228.5V165h41v63.5H83.75z M131.75,228.5V165h41v63.5
		H131.75z M59,121.5h138.5v107h-17.75V158h-48h-7h-48v70.5H59V121.5z"/>
	<path fill="#281E42" d="M97,193.5h14.5V179H97V193.5z M104,186h0.5v0.5H104V186z"/>
	<path fill="#281E42" d="M145,193.5h14.5V179H145V193.5z M152,186h0.5v0.5H152V186z"/>
	<path fill="#281E42" d="M227.968,47.27l-1.957-4.967l-23.135,23.134l-8.607-2.706l-2.706-8.608l23.135-23.134l-4.967-1.957
		c-12.507-4.927-27.371-1.77-36.992,7.852c-9.957,9.957-8.613,24.882-8.428,26.549c0.185,1.662-2.459,7.549-3.593,8.806
		l-9.192,9.193l4.949,4.949l9.192-9.192c1.883-1.883,6.107-9.971,5.601-14.53c-0.059-0.529-1.354-13.05,6.42-20.825
		c6.203-6.205,15.475-9.059,24.017-7.753l-18.091,18.092l5.071,16.141l16.141,5.073l18.093-18.092
		c1.306,8.54-1.549,17.813-7.753,24.016c-7.771,7.771-20.3,6.479-20.827,6.421c-4.556-0.506-12.646,3.717-14.528,5.6l-9.192,9.193
		l4.949,4.949l9.171-9.171c1.279-1.155,7.17-3.787,8.827-3.614c1.671,0.187,16.596,1.525,26.55-8.428
		C229.736,74.64,232.893,59.774,227.968,47.27z"/>
</g>
</svg>
